<svg xmlns="http://www.w3.org/2000/svg" xmlns:xlink="http://www.w3.org/1999/xlink" width="60" height="60" viewBox="0 0 60 60">
  <defs>
    <clipPath id="clip-path">
      <rect id="Rectangle_2375" data-name="Rectangle 2375" width="60" height="60" fill="none"/>
    </clipPath>
  </defs>
  <g id="Group_6134" data-name="Group 6134" clip-path="url(#clip-path)">
    <path id="Exclusion_15" data-name="Exclusion 15" d="M39.43,60H20.57c-7.191,0-10.8,0-13.551-1.4A12.843,12.843,0,0,1,1.4,52.984C0,50.229,0,46.621,0,39.431V20.573c0-7.19,0-10.8,1.4-13.553A12.675,12.675,0,0,1,7.02,1.4C9.773,0,13.379,0,20.57,0H39.43c7.191,0,10.8,0,13.539,1.4A12.8,12.8,0,0,1,58.6,7.021C60,9.775,60,13.383,60,20.573V39.431c0,7.19,0,10.8-1.4,13.553a12.934,12.934,0,0,1-5.633,5.62C50.227,60,46.621,60,39.43,60ZM30,12.86c-10.641,0-19.3,7.21-19.3,16.072a15.584,15.584,0,0,0,8.723,13.443,7.549,7.549,0,0,1-2.281,4.77,18.527,18.527,0,0,0,7.191-2.85A23.009,23.009,0,0,0,30,45c10.637,0,19.289-7.209,19.289-16.071S40.637,12.86,30,12.86Z" transform="translate(0.005 0.001)" fill="#fff" stroke="rgba(0,0,0,0)" stroke-miterlimit="10" stroke-width="1"/>
  </g>
</svg>
