<svg id="logo" xmlns="http://www.w3.org/2000/svg" width="59.731" height="60" viewBox="0 0 59.731 60">
  <g id="Group_4743" data-name="Group 4743" transform="translate(0 0)">
    <g id="Group_4742" data-name="Group 4742">
      <path id="Path_27328" data-name="Path 27328" d="M477.562,431.806a29.744,29.744,0,0,0-46.809,35.874l-4.219,15.407,15.766-4.135a29.72,29.72,0,0,0,14.212,3.619h.012a29.742,29.742,0,0,0,21.038-50.765ZM456.524,477.55h-.01a24.689,24.689,0,0,1-12.582-3.445l-.9-.535-9.356,2.453,2.5-9.119-.588-.935a24.721,24.721,0,1,1,20.941,11.581Zm13.559-18.508c-.743-.372-4.4-2.168-5.078-2.417s-1.177-.372-1.672.372-1.919,2.417-2.353,2.913-.867.558-1.61.186a20.3,20.3,0,0,1-5.976-3.687,22.384,22.384,0,0,1-4.134-5.146c-.433-.744-.046-1.146.326-1.516.334-.333.743-.868,1.115-1.3a5.088,5.088,0,0,0,.743-1.24,1.367,1.367,0,0,0-.062-1.3c-.186-.372-1.672-4.029-2.291-5.516-.6-1.449-1.216-1.252-1.672-1.275-.433-.022-.929-.026-1.424-.026a2.73,2.73,0,0,0-1.982.93,8.33,8.33,0,0,0-2.6,6.2c0,3.656,2.663,7.189,3.035,7.685s5.24,8,12.694,11.217a42.606,42.606,0,0,0,4.237,1.565,10.187,10.187,0,0,0,4.681.294c1.428-.213,4.4-1.8,5.016-3.532a6.209,6.209,0,0,0,.433-3.532C471.321,459.6,470.826,459.414,470.083,459.042Z" transform="translate(-426.533 -423.087)" fill="#fff"/>
    </g>
  </g>
</svg>
