<svg xmlns="http://www.w3.org/2000/svg" width="62.459" height="40.344" viewBox="0 0 62.459 40.344">
  <g id="Group_7784" data-name="Group 7784" transform="translate(-13662.828 -11561.828)">
    <path id="Path_36732" data-name="Path 36732" d="M56.457.5H5.373C5.2.5,5.018.5,4.841.508a7.673,7.673,0,0,0-1.156.1,3.909,3.909,0,0,0-1.1.362A3.69,3.69,0,0,0,.972,2.587a3.891,3.891,0,0,0-.361,1.1,7.588,7.588,0,0,0-.1,1.156Q.5,5.107.5,5.372v29.6c0,.177,0,.354.008.531a7.589,7.589,0,0,0,.1,1.156,3.891,3.891,0,0,0,.361,1.1,3.69,3.69,0,0,0,1.615,1.615,3.89,3.89,0,0,0,1.1.363,7.674,7.674,0,0,0,1.156.1q.263.006.531.007H57.087c.177,0,.353,0,.531-.007a7.76,7.76,0,0,0,1.156-.1,3.89,3.89,0,0,0,1.1-.363,3.69,3.69,0,0,0,1.615-1.615,3.872,3.872,0,0,0,.362-1.1,7.672,7.672,0,0,0,.1-1.156q.007-.266.008-.531V5.374c0-.177,0-.354-.008-.531a7.672,7.672,0,0,0-.1-1.156,3.872,3.872,0,0,0-.362-1.1A3.69,3.69,0,0,0,59.873.973a3.91,3.91,0,0,0-1.1-.362,7.673,7.673,0,0,0-1.156-.1C57.44.505,57.263.5,57.087.5h-.63Z" transform="translate(13662.828 11561.828)" fill="none" stroke="#fff" stroke-width="1"/>
    <path id="Path_36733" data-name="Path 36733" d="M24.885,19.4a3.43,3.43,0,0,0,.787-2.445,3.4,3.4,0,0,0-2.255,1.167,3.214,3.214,0,0,0-.809,2.35A2.837,2.837,0,0,0,24.883,19.4" transform="translate(13655.221 11556.165)" fill="#fff"/>
    <path id="Path_36734" data-name="Path 36734" d="M22.429,22.57c-1.256-.075-2.323.713-2.924.713s-1.518-.675-2.512-.656a3.7,3.7,0,0,0-3.148,1.913c-1.35,2.325-.356,5.776.956,7.673.637.937,1.405,1.967,2.417,1.932.956-.037,1.331-.619,2.492-.619s1.5.619,2.511.6c1.049-.018,1.705-.938,2.343-1.876a8.331,8.331,0,0,0,1.049-2.157A3.405,3.405,0,0,1,23.572,27a3.476,3.476,0,0,1,1.649-2.907,3.591,3.591,0,0,0-2.793-1.518" transform="translate(13658.456 11554.233)" fill="#fff"/>
    <path id="Path_36735" data-name="Path 36735" d="M41.179,18.585a4.413,4.413,0,0,1,4.629,4.187c.007.144.008.289,0,.434a4.463,4.463,0,0,1-4.274,4.643q-.212.009-.424,0H38.087v4.806H35.9V18.585Zm-3.091,7.428h2.506c1.9,0,2.983-1.024,2.983-2.8s-1.081-2.788-2.973-2.788H38.087Z" transform="translate(13650.642 11555.604)" fill="#fff"/>
    <path id="Path_36736" data-name="Path 36736" d="M51.877,31.645c0-1.794,1.377-2.9,3.812-3.032l2.807-.166V27.66c0-1.14-.77-1.823-2.057-1.823a1.964,1.964,0,0,0-2.164,1.5H52.288c.117-1.852,1.7-3.217,4.231-3.217,2.486,0,4.075,1.316,4.075,3.373V34.56H58.576V32.873h-.049a3.664,3.664,0,0,1-3.236,1.862,3.11,3.11,0,0,1-3.414-3.091m6.62-.926V29.91l-2.525.156c-1.258.088-1.967.643-1.967,1.521,0,.9.741,1.481,1.872,1.481a2.458,2.458,0,0,0,2.617-2.287c0-.02,0-.041,0-.062" transform="translate(13645.144 11553.697)" fill="#fff"/>
    <path id="Path_36737" data-name="Path 36737" d="M67.54,38.429V36.724a3.888,3.888,0,0,0,.682.039A1.709,1.709,0,0,0,70.045,35.3c0-.02.186-.624.186-.633L66.526,24.4h2.281L71.4,32.746h.039L74.032,24.4h2.222L72.414,35.193c-.877,2.486-1.891,3.286-4.016,3.286a8.146,8.146,0,0,1-.858-.049" transform="translate(13640.101 11553.601)" fill="#fff"/>
    <path id="Path_36738" data-name="Path 36738" d="M0,0H62.115V40H0Z" transform="translate(13663 11562)" fill="none"/>
  </g>
</svg>
