<svg xmlns="http://www.w3.org/2000/svg" xmlns:xlink="http://www.w3.org/1999/xlink" width="191.456" height="40" viewBox="0 0 191.456 40">
  <defs>
    <clipPath id="clip-path">
      <rect id="Rectangle_2736" data-name="Rectangle 2736" width="191.456" height="40" fill="none"/>
    </clipPath>
  </defs>
  <g id="Group_7792" data-name="Group 7792" clip-path="url(#clip-path)">
    <path id="Path_36800" data-name="Path 36800" d="M39.39,24.857A19.986,19.986,0,1,1,24.8.647l.054.014a19.986,19.986,0,0,1,14.534,24.2" transform="translate(0 -0.037)" fill="#f7931a"/>
    <path id="Path_36801" data-name="Path 36801" d="M45.11,31.75c-.625,2.5-4.435,1.218-5.671.912l1.093-4.372c1.218.3,5.2.874,4.559,3.46Zm-.681,7.064c-.675,2.723-5.259,1.249-6.745.88l1.205-4.828c1.487.375,6.246,1.105,5.54,3.948m5-7.027c.393-2.661-1.63-4.091-4.372-5.04l.9-3.6-2.217-.55L42.862,26.1c-.575-.143-1.168-.281-1.755-.413l.874-3.548-2.192-.549-.9,3.6-1.4-.312-3.029-.756-.581,2.342s1.624.375,1.593.4A1.169,1.169,0,0,1,36.5,28.122l-1.024,4.1a1.168,1.168,0,0,1,.225.075l-.231-.062-1.431,5.753a.8.8,0,0,1-1.005.518h0c0,.031-1.6-.394-1.6-.394l-1.087,2.5,2.854.706,1.561.406-.906,3.641,2.192.549.9-3.6q.886.244,1.743.45L37.8,46.379l2.193.543.906-3.635c3.747.707,6.551.425,7.738-2.96.956-2.724-.05-4.291-2.018-5.315a3.494,3.494,0,0,0,2.8-3.223Z" transform="translate(-20.585 -14.65)" fill="#fff"/>
    <path id="Path_36802" data-name="Path 36802" d="M138.386,33.726a6.809,6.809,0,0,0,3.336-.862,8.662,8.662,0,0,0,2.711-2.261,11.573,11.573,0,0,0,1.792-3.266,11.118,11.118,0,0,0,.662-3.8,7.418,7.418,0,0,0-.812-3.791,3.185,3.185,0,0,0-2.985-1.368,9.334,9.334,0,0,0-1.874.256,4.521,4.521,0,0,0-2.049,1.062l-3.31,13.84.531.1a2.869,2.869,0,0,0,.481.075,4.269,4.269,0,0,0,.625.031l.893-.019Zm6.577-21.635a9.586,9.586,0,0,1,4.2.862,8.365,8.365,0,0,1,2.936,2.33,9.729,9.729,0,0,1,1.749,3.454,15.727,15.727,0,0,1,.556,4.253,17.293,17.293,0,0,1-4.834,11.986A16.613,16.613,0,0,1,144.3,38.61a16.066,16.066,0,0,1-6.57,1.361h-1.6a24.155,24.155,0,0,1-2.6-.225,29.679,29.679,0,0,1-3.123-.625,15.216,15.216,0,0,1-3.123-1.112l8.775-36.762L143.9,0l-3.123,13.048a12.1,12.1,0,0,1,2.018-.706,9.014,9.014,0,0,1,2.18-.256l-.013.006Z" transform="translate(-86.349 0.001)" fill="#fff"/>
    <path id="Path_36803" data-name="Path 36803" d="M224.605,10.489a4.654,4.654,0,0,1-2.836-.93A3.317,3.317,0,0,1,220.52,6.7a4.708,4.708,0,0,1,.431-1.993,5.309,5.309,0,0,1,1.143-1.624A5.646,5.646,0,0,1,223.737,2a5.012,5.012,0,0,1,2-.406,4.644,4.644,0,0,1,2.811.937A3.33,3.33,0,0,1,229.8,5.386a4.738,4.738,0,0,1-.425,2A5.363,5.363,0,0,1,228.234,9a5.533,5.533,0,0,1-1.643,1.087,4.924,4.924,0,0,1-2,.4h.013Zm-3.641,29.849h-7.5L219.8,13.731h7.539l-6.377,26.607Z" transform="translate(-144.812 -1.078)" fill="#fff"/>
    <path id="Path_36804" data-name="Path 36804" d="M264.989,16.183l7.838-1.212-1.949,7.839h8.4l-1.512,6.171h-8.326l-2.223,9.281a10.817,10.817,0,0,0-.356,2.174,4.02,4.02,0,0,0,.256,1.748,2.171,2.171,0,0,0,1.087,1.131,4.908,4.908,0,0,0,2.248.412A11.742,11.742,0,0,0,272.8,43.5a16.439,16.439,0,0,0,2.3-.625l.562,5.771a27.337,27.337,0,0,1-3.292.956,18.754,18.754,0,0,1-4.2.406,11.63,11.63,0,0,1-5.415-1.037,6.024,6.024,0,0,1-2.735-2.836,9.033,9.033,0,0,1-.706-4.123,27,27,0,0,1,.706-4.909l4.966-20.942v.025Z" transform="translate(-175.902 -10.156)" fill="#fff"/>
    <path id="Path_36805" data-name="Path 36805" d="M320.508,53.819a18.642,18.642,0,0,1,1.112-6.477,15.974,15.974,0,0,1,3.185-5.315,14.923,14.923,0,0,1,5.034-3.586,16.094,16.094,0,0,1,6.6-1.317,17.517,17.517,0,0,1,4.072.431,16.841,16.841,0,0,1,3.26,1.137l-2.6,5.852c-.675-.275-1.374-.511-2.1-.731a9.092,9.092,0,0,0-2.654-.331,7.428,7.428,0,0,0-5.915,2.6,10.371,10.371,0,0,0-2.2,6.933,7.146,7.146,0,0,0,1.112,4.173q1.111,1.593,4.1,1.592a13.2,13.2,0,0,0,2.836-.306,13.893,13.893,0,0,0,2.43-.756l.556,6.021a29.218,29.218,0,0,1-3.123.986,17.429,17.429,0,0,1-4.1.426,13.923,13.923,0,0,1-5.359-.906,10.082,10.082,0,0,1-3.585-2.454,9.264,9.264,0,0,1-2.055-3.623,14.928,14.928,0,0,1-.625-4.372l.019.025Z" transform="translate(-217.412 -25.184)" fill="#fff"/>
    <path id="Path_36806" data-name="Path 36806" d="M405.489,43.572a4.783,4.783,0,0,0-2.935.956,8.306,8.306,0,0,0-2.117,2.43,12.041,12.041,0,0,0-1.324,3.211,13.772,13.772,0,0,0-.425,3.31,8.119,8.119,0,0,0,.806,3.947,3.094,3.094,0,0,0,2.936,1.418,4.715,4.715,0,0,0,2.935-.962,8.36,8.36,0,0,0,2.124-2.429,11.918,11.918,0,0,0,1.293-3.211,14.145,14.145,0,0,0,.424-3.317,8.069,8.069,0,0,0-.806-3.947,3.108,3.108,0,0,0-2.936-1.412l.025.006ZM401.741,65.22a12.164,12.164,0,0,1-4.659-.812,8.593,8.593,0,0,1-3.26-2.274,9.812,9.812,0,0,1-1.948-3.466,14.1,14.1,0,0,1-.625-4.422,19.54,19.54,0,0,1,.981-6.071,17.221,17.221,0,0,1,2.885-5.44,15.5,15.5,0,0,1,4.7-3.972,12.954,12.954,0,0,1,6.371-1.543,12.359,12.359,0,0,1,4.635.812,8.71,8.71,0,0,1,3.279,2.242,9.936,9.936,0,0,1,1.943,3.466,13.953,13.953,0,0,1,.625,4.428,20.16,20.16,0,0,1-.956,6.071,17.546,17.546,0,0,1-2.836,5.465,14.9,14.9,0,0,1-4.678,3.966A13.219,13.219,0,0,1,401.741,65.22Z" transform="translate(-265.412 -25.248)" fill="#fff"/>
    <path id="Path_36807" data-name="Path 36807" d="M483.615,10.489a4.618,4.618,0,0,1-2.829-.93A3.315,3.315,0,0,1,479.537,6.7a4.713,4.713,0,0,1,.43-1.993,5.39,5.39,0,0,1,1.112-1.624,5.753,5.753,0,0,1,1.649-1.087,4.994,4.994,0,0,1,1.993-.406,4.644,4.644,0,0,1,2.836.937,3.33,3.33,0,0,1,1.25,2.861,4.731,4.731,0,0,1-.438,2A5.247,5.247,0,0,1,487.238,9a5.537,5.537,0,0,1-1.643,1.087,4.933,4.933,0,0,1-1.981.4Zm-3.634,29.849h-7.5l6.321-26.607h7.545Z" transform="translate(-320.523 -1.078)" fill="#fff"/>
    <path id="Path_36808" data-name="Path 36808" d="M519.451,39.222c.568-.162,1.2-.362,1.874-.581s1.461-.419,2.329-.625a28.017,28.017,0,0,1,2.88-.456,32.8,32.8,0,0,1,3.616-.181q5.921,0,8.17,3.441a9.092,9.092,0,0,1,1.362,5.03v.142a18.358,18.358,0,0,1-.575,4.24L535.665,64.6h-7.52l3.341-14.066c.2-.874.362-1.723.481-2.554a6.108,6.108,0,0,0,0-2.174,2.609,2.609,0,0,0-.937-1.518,3.613,3.613,0,0,0-2.255-.581,14.878,14.878,0,0,0-2.979.306l-4.909,20.611h-7.564Z" transform="translate(-348.226 -25.357)" fill="#fff"/>
  </g>
</svg>
