<?xml version="1.0" encoding="UTF-8"?>
<svg id="Layer_1" data-name="Layer 1" xmlns="http://www.w3.org/2000/svg" xmlns:xlink="http://www.w3.org/1999/xlink" viewBox="0 0 226.77 32.57">
  <defs>
    <style>
      .cls-1 {
        fill: url(#linear-gradient-2);
      }

      .cls-2 {
        fill: #fff;
      }

      .cls-3 {
        clip-path: url(#clippath-2);
      }

      .cls-4 {
        fill: #1a73e8;
      }

      .cls-5 {
        clip-path: url(#clippath-1);
      }

      .cls-6 {
        clip-path: url(#clippath);
      }

      .cls-7 {
        fill: none;
      }

      .cls-8 {
        clip-path: url(#clippath-3);
      }

      .cls-9 {
        fill: #fbbf12;
      }

      .cls-10 {
        fill: url(#linear-gradient);
      }
    </style>
    <clipPath id="clippath">
      <rect class="cls-7" x="172.89" y=".98" width="23.84" height="23.84"/>
    </clipPath>
    <clipPath id="clippath-1">
      <path class="cls-7" d="M172.89,12.91c0,4.26,2.27,8.2,5.96,10.32l8.94-5.16-2.98-5.16h-5.96V2.58c-3.69,2.13-5.96,6.06-5.96,10.32Z"/>
    </clipPath>
    <linearGradient id="linear-gradient" x1="-279.5" y1="392.45" x2="-279.5" y2="392.45" gradientTransform="translate(7531.26 -7228.8) rotate(-90) scale(25.95 -18.73)" gradientUnits="userSpaceOnUse">
      <stop offset="0" stop-color="#db3328"/>
      <stop offset="1" stop-color="#e53d30"/>
    </linearGradient>
    <clipPath id="clippath-2">
      <path class="cls-7" d="M184.81,24.83h0c6.58,0,11.92-5.34,11.92-11.92h0l-8.94-5.16-2.98,5.16,2.98,5.16-8.94,5.16c1.81,1.05,3.87,1.6,5.96,1.6"/>
    </clipPath>
    <linearGradient id="linear-gradient-2" x1="-287.34" y1="399.78" x2="-287.34" y2="399.78" gradientTransform="translate(12261.54 -8547.69) rotate(-90) scale(29.83 -30.2)" gradientUnits="userSpaceOnUse">
      <stop offset="0" stop-color="#32a651"/>
      <stop offset="1" stop-color="#279847"/>
    </linearGradient>
    <clipPath id="clippath-3">
      <rect class="cls-7" x="172.89" y=".98" width="23.84" height="23.84"/>
    </clipPath>
  </defs>
  <g id="Group_8004" data-name="Group 8004">
    <g id="Group_8003" data-name="Group 8003">
      <g id="Group_7996" data-name="Group 7996">
        <g class="cls-6">
          <g id="Group_7995" data-name="Group 7995">
            <path id="Path_36897" data-name="Path 36897" class="cls-9" d="M184.81,12.91l2.98-5.16,8.94,5.16c0-6.58-5.34-11.92-11.92-11.92-2.09,0-4.15,.55-5.96,1.6V12.91h5.96Z"/>
          </g>
        </g>
      </g>
      <g id="Group_7998" data-name="Group 7998">
        <g class="cls-5">
          <g id="Group_7997" data-name="Group 7997">
            <rect id="Rectangle_2802" data-name="Rectangle 2802" class="cls-10" x="172.89" y="2.58" width="14.9" height="20.65"/>
          </g>
        </g>
      </g>
      <g id="Group_8000" data-name="Group 8000">
        <g class="cls-3">
          <g id="Group_7999" data-name="Group 7999">
            <rect id="Rectangle_2803" data-name="Rectangle 2803" class="cls-1" x="175.78" y="4.42" width="24.03" height="23.74" transform="translate(17.02 96.08) rotate(-30)"/>
          </g>
        </g>
      </g>
      <g id="Group_8002" data-name="Group 8002">
        <g class="cls-8">
          <g id="Group_8001" data-name="Group 8001">
            <path id="Path_36900" data-name="Path 36900" class="cls-2" d="M184.81,6.95c3.29,0,5.96,2.67,5.97,5.96,0,3.29-2.67,5.96-5.96,5.97-3.29,0-5.96-2.67-5.97-5.96h0c0-3.3,2.67-5.97,5.96-5.97"/>
            <path id="Path_36901" data-name="Path 36901" class="cls-4" d="M184.81,8.06c2.68,0,4.84,2.17,4.84,4.84s-2.17,4.84-4.84,4.84-4.84-2.17-4.84-4.84h0c0-2.68,2.17-4.84,4.84-4.84"/>
          </g>
        </g>
      </g>
    </g>
    <path id="Path_36902" data-name="Path 36902" class="cls-2" d="M14.37,1.06V3.63H3.17v7.75H12.24v2.47H3.17v7.96H14.37v2.57H0V1.06H14.37ZM30.84,12.4L23.14,1.06h3.14c.18-.01,.35,.03,.5,.11,.12,.09,.22,.2,.29,.33l6.09,9.34c.09-.26,.21-.51,.34-.75L39.25,1.56c.09-.14,.19-.26,.32-.37,.12-.09,.26-.14,.42-.14h3.01l-7.73,11.2,7.99,12.13h-3.12c-.2,.01-.41-.05-.56-.19-.13-.12-.24-.26-.33-.42l-6.25-9.78c-.08,.23-.17,.44-.29,.65l-6.09,9.13c-.1,.15-.21,.29-.33,.42-.14,.13-.33,.2-.53,.19h-2.93l8.02-11.98ZM68.74,1.06V3.71h-7.54V24.38h-3.16V3.71h-7.57V1.06h18.26Zm24.2,0V3.63h-11.2v7.75h9.07v2.47h-9.07v7.96h11.2v2.57h-14.37V1.06h14.37Zm12.68,0c.21-.01,.43,.02,.63,.11,.18,.11,.34,.26,.46,.43l13.51,17.58c-.03-.28-.05-.56-.07-.82-.01-.27-.02-.52-.02-.77V1.06h2.77V24.38h-1.59c-.22,0-.43-.04-.63-.13-.19-.11-.36-.26-.5-.44l-13.5-17.56c.02,.27,.04,.54,.05,.8,.01,.26,.02,.5,.02,.72V24.38h-2.77V1.06h1.63Zm41.44,3.65c-.08,.14-.18,.26-.31,.37-.12,.09-.27,.13-.42,.12-.24-.02-.46-.12-.64-.28-.3-.22-.61-.42-.93-.61-.43-.25-.88-.45-1.35-.61-.62-.2-1.26-.29-1.91-.28-.64-.01-1.27,.09-1.87,.28-.5,.17-.96,.43-1.36,.77-.36,.32-.64,.71-.82,1.15-.19,.45-.28,.93-.27,1.42-.02,.58,.14,1.15,.48,1.62,.34,.45,.78,.82,1.27,1.1,.57,.32,1.17,.59,1.79,.79,.67,.22,1.35,.45,2.05,.69s1.38,.51,2.05,.81c.65,.29,1.25,.67,1.79,1.13,.54,.47,.97,1.04,1.27,1.68,.34,.77,.5,1.6,.48,2.44,0,.98-.17,1.96-.52,2.87-.34,.88-.85,1.67-1.52,2.34-.7,.68-1.54,1.22-2.46,1.56-1.06,.4-2.18,.59-3.31,.57-1.42,.02-2.82-.26-4.13-.82-1.2-.52-2.28-1.27-3.18-2.22l.91-1.5c.09-.12,.19-.22,.32-.3,.12-.08,.27-.12,.42-.12,.29,.03,.57,.16,.78,.37,.35,.29,.72,.56,1.1,.81,.5,.32,1.03,.59,1.59,.81,.73,.26,1.51,.39,2.29,.37,.68,.01,1.36-.09,2-.31,.55-.19,1.06-.48,1.49-.87,.41-.37,.73-.83,.94-1.34,.22-.55,.33-1.15,.33-1.74,.03-.61-.14-1.22-.48-1.73-.33-.46-.76-.85-1.26-1.13-.56-.32-1.16-.58-1.78-.77l-2.05-.65c-.7-.22-1.38-.48-2.05-.77-.65-.28-1.25-.67-1.78-1.14-.54-.49-.97-1.09-1.26-1.75-.34-.82-.51-1.71-.48-2.6,0-.82,.16-1.63,.48-2.39,.32-.77,.79-1.47,1.39-2.05,.65-.62,1.41-1.11,2.25-1.43,.98-.37,2.03-.56,3.08-.54,1.22-.02,2.42,.19,3.56,.62,1.05,.4,2.01,1.01,2.82,1.79l-.77,1.5Zm15.56,19.68h-3.16V1.06h3.16V24.38ZM209.49,1.06c.21-.01,.43,.02,.63,.11,.18,.11,.34,.26,.46,.43l13.51,17.58c-.03-.28-.05-.56-.07-.82-.01-.27-.02-.52-.02-.77V1.06h2.77V24.38h-1.59c-.22,0-.43-.04-.63-.13-.19-.11-.36-.26-.5-.44l-13.5-17.56c.02,.27,.04,.54,.05,.8,.01,.26,.02,.5,.02,.72V24.38h-2.77V1.06h1.63Z"/>
  </g>
</svg>