<svg xmlns="http://www.w3.org/2000/svg" xmlns:xlink="http://www.w3.org/1999/xlink" width="75.194" height="40" viewBox="0 0 75.194 40">
  <defs>
    <clipPath id="clip-path">
      <rect id="Rectangle_2731" data-name="Rectangle 2731" width="75.194" height="40" fill="none"/>
    </clipPath>
  </defs>
  <g id="Group_7785" data-name="Group 7785" clip-path="url(#clip-path)">
    <path id="Path_36739" data-name="Path 36739" d="M55.2,1.622a18.136,18.136,0,0,1,7.129,1.45,18.541,18.541,0,0,1,9.8,9.8,18.253,18.253,0,0,1,0,14.259,18.541,18.541,0,0,1-9.8,9.8,18.136,18.136,0,0,1-7.129,1.45H20a18.134,18.134,0,0,1-7.133-1.447,18.541,18.541,0,0,1-9.8-9.8,18.253,18.253,0,0,1,0-14.259,18.541,18.541,0,0,1,9.8-9.8A18.149,18.149,0,0,1,20,1.625H55.2M55.2,0H20a20,20,0,1,0,0,40H55.2a20,20,0,0,0,0-40" transform="translate(0 -0.002)" fill="#fff"/>
    <path id="Path_36740" data-name="Path 36740" d="M52.83,27.684v6.049H50.91V18.794H56a4.591,4.591,0,0,1,3.29,1.29,4.307,4.307,0,0,1,.232,6.087q-.112.12-.232.232A4.581,4.581,0,0,1,56,27.674H52.83Zm0-7.049v5.21h3.21a2.563,2.563,0,0,0,1.9-.77,2.517,2.517,0,0,0,.77-1.83,2.666,2.666,0,0,0-2.67-2.6H52.83Z" transform="translate(-16.973 -6.266)" fill="#fff"/>
    <path id="Path_36741" data-name="Path 36741" d="M70.849,25.361a4.749,4.749,0,0,1,3.36,1.14,4.046,4.046,0,0,1,1.23,3.12v6.3h-1.83V34.5h-.08a3.652,3.652,0,0,1-3.17,1.75,4.115,4.115,0,0,1-2.83-1,3.194,3.194,0,0,1-1.14-2.5,3.02,3.02,0,0,1,1.2-2.52,5.032,5.032,0,0,1,3.2-.94,5.6,5.6,0,0,1,2.81.63v-.44a2.178,2.178,0,0,0-.79-1.7,2.71,2.71,0,0,0-1.86-.7,2.918,2.918,0,0,0-2.54,1.36l-1.69-1.06a4.69,4.69,0,0,1,4.13-2.02m-2.48,7.419a1.513,1.513,0,0,0,.64,1.25,2.35,2.35,0,0,0,1.49.5,3.044,3.044,0,0,0,2.16-.9,2.824,2.824,0,0,0,.95-2.11,3.954,3.954,0,0,0-2.5-.71,3.282,3.282,0,0,0-1.95.56,1.707,1.707,0,0,0-.79,1.41" transform="translate(-22.133 -8.453)" fill="#fff"/>
    <path id="Path_36742" data-name="Path 36742" d="M90.514,25.86l-6.4,14.719h-1.98l2.38-5.15-4.22-9.569h2.09l3.04,7.339h.04l2.96-7.339Z" transform="translate(-26.769 -8.621)" fill="#fff"/>
    <path id="Path_36743" data-name="Path 36743" d="M38.229,29.4a10.123,10.123,0,0,0-.16-1.8H30.022v3.3h4.635a3.97,3.97,0,0,1-1.72,2.658V35.7H35.7a8.388,8.388,0,0,0,2.534-6.3" transform="translate(-10.009 -9.202)" fill="#3169b1"/>
    <path id="Path_36744" data-name="Path 36744" d="M29.111,35.177a5.19,5.19,0,0,1-7.723-2.715H18.542V34.67A8.567,8.567,0,0,0,26.2,39.387a8.173,8.173,0,0,0,5.673-2.071Z" transform="translate(-6.182 -10.822)" fill="#3c993f"/>
    <path id="Path_36745" data-name="Path 36745" d="M20.664,28.084a5.164,5.164,0,0,1,.267-1.639V24.237H18.084a8.577,8.577,0,0,0,0,7.693l2.846-2.208a5.164,5.164,0,0,1-.267-1.639" transform="translate(-5.725 -8.08)" fill="#feab00"/>
    <path id="Path_36746" data-name="Path 36746" d="M26.2,20.549a4.655,4.655,0,0,1,3.286,1.285l2.445-2.443A8.228,8.228,0,0,0,26.2,17.159a8.567,8.567,0,0,0-7.655,4.718l2.846,2.208A5.124,5.124,0,0,1,26.2,20.549" transform="translate(-6.181 -5.72)" fill="#e02927"/>
  </g>
</svg>
