<svg id="Group_4852" data-name="Group 4852" xmlns="http://www.w3.org/2000/svg" xmlns:xlink="http://www.w3.org/1999/xlink" width="468.143" height="235.081" viewBox="0 0 468.143 235.081">
  <defs>
    <clipPath id="clip-path">
      <rect id="Rectangle_952" data-name="Rectangle 952" width="468.143" height="235.081" fill="#fff"/>
    </clipPath>
  </defs>
  <path id="Path_27441" data-name="Path 27441" d="M95.932.288v42.8h24.313V38.22H101.726V.288Z" transform="translate(64.67 0.19)" fill="#fff"/>
  <path id="Path_27442" data-name="Path 27442" d="M119.836.288v42.8h26.372V38.367H125.66v-14.6H142.3v-4.54H125.66V5.006h20.548V.288Z" transform="translate(80.792 0.19)" fill="#fff"/>
  <path id="Path_27443" data-name="Path 27443" d="M143.524.288V5.156h13.888v37.93h5.794V5.156h13.828V.288Z" transform="translate(96.798 0.19)" fill="#fff"/>
  <g id="Group_4849" data-name="Group 4849">
    <g id="Group_4848" data-name="Group 4848" clip-path="url(#clip-path)">
      <path id="Path_27444" data-name="Path 27444" d="M177.065.288V9.023l-.484,4.669a2.757,2.757,0,0,1-.512,1.491,1.633,1.633,0,0,1-1.355.527,1.5,1.5,0,0,1-1.22-.527,3.241,3.241,0,0,1-.617-1.491l-.482-4.669V.288Z" transform="translate(116.081 0.194)" fill="#fff"/>
      <path id="Path_27445" data-name="Path 27445" d="M209.986,7.229a2.351,2.351,0,0,1-.572.676,1.264,1.264,0,0,1-.783.228,2.085,2.085,0,0,1-1.19-.514,19.349,19.349,0,0,0-1.717-1.128,13.931,13.931,0,0,0-2.5-1.13,10.764,10.764,0,0,0-3.539-.512,10.458,10.458,0,0,0-3.464.527,7.348,7.348,0,0,0-2.515,1.431,5.825,5.825,0,0,0-1.521,2.123,6.733,6.733,0,0,0-.512,2.636,4.871,4.871,0,0,0,.889,3,7.658,7.658,0,0,0,2.349,2.033,18,18,0,0,0,3.313,1.461q1.852.617,3.8,1.278t3.8,1.493a13.349,13.349,0,0,1,3.313,2.093,9.554,9.554,0,0,1,2.349,3.1,10.338,10.338,0,0,1,.889,4.52,14.591,14.591,0,0,1-.964,5.315,12.249,12.249,0,0,1-2.816,4.322,13.154,13.154,0,0,1-4.548,2.893,16.729,16.729,0,0,1-6.129,1.054,18.717,18.717,0,0,1-7.635-1.521,17.911,17.911,0,0,1-5.888-4.111l1.687-2.773a2.273,2.273,0,0,1,.587-.557,1.375,1.375,0,0,1,.768-.224,2.387,2.387,0,0,1,1.446.678,24.481,24.481,0,0,0,2.033,1.489,15.382,15.382,0,0,0,2.952,1.493,11.651,11.651,0,0,0,4.232.676,11.129,11.129,0,0,0,3.7-.571,7.868,7.868,0,0,0,2.756-1.611,7.009,7.009,0,0,0,1.732-2.487,8.289,8.289,0,0,0,.6-3.221A5.408,5.408,0,0,0,206,28.177a7.366,7.366,0,0,0-2.334-2.093,16.225,16.225,0,0,0-3.3-1.431q-1.852-.587-3.8-1.206a37.849,37.849,0,0,1-3.8-1.429,12.334,12.334,0,0,1-3.3-2.108,9.687,9.687,0,0,1-2.334-3.238,11.535,11.535,0,0,1-.889-4.806,11.514,11.514,0,0,1,3.464-8.223A12.534,12.534,0,0,1,193.887.992,15.309,15.309,0,0,1,199.595,0a18.306,18.306,0,0,1,6.6,1.143A15.2,15.2,0,0,1,211.4,4.458Z" transform="translate(124.154)" fill="#fff"/>
      <path id="Path_27446" data-name="Path 27446" d="M260.71,21.884a24.333,24.333,0,0,1-1.536,8.824,19.586,19.586,0,0,1-4.341,6.809,19.315,19.315,0,0,1-6.715,4.382,23.349,23.349,0,0,1-8.675,1.551H223.3V.288h16.144a23.315,23.315,0,0,1,8.675,1.551,19.229,19.229,0,0,1,6.715,4.4,19.744,19.744,0,0,1,4.341,6.824,24.336,24.336,0,0,1,1.536,8.825m-5.994,0a21.707,21.707,0,0,0-1.084-7.108,14.991,14.991,0,0,0-3.072-5.3,13.109,13.109,0,0,0-4.821-3.313,16.617,16.617,0,0,0-6.3-1.145H229.172v33.7h10.271a16.649,16.649,0,0,0,6.3-1.145,13.179,13.179,0,0,0,4.821-3.3,14.827,14.827,0,0,0,3.072-5.284,21.707,21.707,0,0,0,1.084-7.108" transform="translate(150.357 0.194)" fill="#fff"/>
      <path id="Path_27447" data-name="Path 27447" d="M296.891,22.078a24.9,24.9,0,0,1-1.536,8.9,20.351,20.351,0,0,1-4.337,6.973,19.362,19.362,0,0,1-6.732,4.533,24.195,24.195,0,0,1-17.364,0A19.394,19.394,0,0,1,260.2,37.95a20.35,20.35,0,0,1-4.337-6.973,24.9,24.9,0,0,1-1.536-8.9,24.906,24.906,0,0,1,1.536-8.9A20.528,20.528,0,0,1,260.2,6.19a19.518,19.518,0,0,1,6.717-4.565,24.009,24.009,0,0,1,17.364,0,19.485,19.485,0,0,1,6.732,4.565,20.529,20.529,0,0,1,4.337,6.988,24.907,24.907,0,0,1,1.536,8.9m-5.994,0a22,22,0,0,0-1.083-7.14,15.132,15.132,0,0,0-3.072-5.345,13.363,13.363,0,0,0-4.821-3.36,17.559,17.559,0,0,0-12.62,0,13.5,13.5,0,0,0-4.834,3.36,14.984,14.984,0,0,0-3.087,5.345,21.953,21.953,0,0,0-1.084,7.14,21.8,21.8,0,0,0,1.084,7.123,14.974,14.974,0,0,0,3.087,5.33,13.274,13.274,0,0,0,4.834,3.343,17.724,17.724,0,0,0,12.62,0,13.141,13.141,0,0,0,4.821-3.343,15.122,15.122,0,0,0,3.072-5.33,21.845,21.845,0,0,0,1.083-7.123" transform="translate(171.252)" fill="#fff"/>
    </g>
  </g>
  <path id="Path_27448" data-name="Path 27448" d="M0,62V76.65H41.791V190.791H59.227V76.65h41.612V62Z" transform="translate(0 42.854)" fill="#fff"/>
  <path id="Path_27449" data-name="Path 27449" d="M174.981,62v57.428H105.6V62H88.073v128.79H105.6v-58.6h69.383v58.6h17.525V62Z" transform="translate(59.664 42.854)" fill="#fff"/>
  <rect id="Rectangle_953" data-name="Rectangle 953" width="17.435" height="128.79" transform="translate(314.978 104.854)" fill="#fff"/>
  <g id="Group_4851" data-name="Group 4851">
    <g id="Group_4850" data-name="Group 4850" clip-path="url(#clip-path)">
      <path id="Path_27450" data-name="Path 27450" d="M306.487,82.886a7.053,7.053,0,0,1-1.722,2.04,3.84,3.84,0,0,1-2.358.679,6.271,6.271,0,0,1-3.579-1.541,57.4,57.4,0,0,0-5.167-3.4,42.052,42.052,0,0,0-7.522-3.4,32.368,32.368,0,0,0-10.649-1.541,31.489,31.489,0,0,0-10.425,1.586,22.144,22.144,0,0,0-7.567,4.3,17.662,17.662,0,0,0-4.578,6.392,20.236,20.236,0,0,0-1.541,7.93,14.651,14.651,0,0,0,2.674,9.018,22.988,22.988,0,0,0,7.07,6.119,54.3,54.3,0,0,0,9.971,4.4q5.572,1.857,11.419,3.85t11.421,4.488a40.163,40.163,0,0,1,9.97,6.3,28.745,28.745,0,0,1,7.07,9.336,31.071,31.071,0,0,1,2.674,13.594,43.852,43.852,0,0,1-2.9,16,36.865,36.865,0,0,1-8.475,13.007,39.643,39.643,0,0,1-13.686,8.7,50.337,50.337,0,0,1-18.445,3.173,56.3,56.3,0,0,1-22.975-4.578,53.823,53.823,0,0,1-17.721-12.371l5.075-8.338a6.705,6.705,0,0,1,1.769-1.678,4.145,4.145,0,0,1,2.311-.679,7.2,7.2,0,0,1,4.349,2.04,72.751,72.751,0,0,0,6.119,4.486,46.525,46.525,0,0,0,8.882,4.486,35.026,35.026,0,0,0,12.734,2.04,33.545,33.545,0,0,0,11.15-1.72,23.67,23.67,0,0,0,8.293-4.851,21.046,21.046,0,0,0,5.212-7.478,24.985,24.985,0,0,0,1.812-9.7,16.279,16.279,0,0,0-2.674-9.652,22.2,22.2,0,0,0-7.025-6.3,49.164,49.164,0,0,0-9.925-4.3q-5.575-1.767-11.421-3.626a115.092,115.092,0,0,1-11.421-4.3c-3.716-1.633-9.925-6.345-9.925-6.345s-5.244-5.847-7.025-9.746a34.7,34.7,0,0,1-2.674-14.454A34.622,34.622,0,0,1,245.487,72.1a37.518,37.518,0,0,1,12.553-7.977,45.969,45.969,0,0,1,17.177-2.992,54.985,54.985,0,0,1,19.849,3.445,45.744,45.744,0,0,1,15.681,9.97Z" transform="translate(154.495 41.163)" fill="#fff"/>
    </g>
  </g>
</svg>
