<?xml version="1.0" encoding="UTF-8"?>
<svg id="Layer_1" data-name="Layer 1" xmlns="http://www.w3.org/2000/svg" viewBox="0 0 102.23 102.29">
  <defs>
    <style>
      .cls-1 {
        fill: none;
        stroke: #000;
        stroke-linecap: round;
        stroke-linejoin: round;
        stroke-width: 3px;
      }
    </style>
  </defs>
  <g id="Group_7985" data-name="Group 7985">
    <path id="Path_36893" data-name="Path 36893" class="cls-1" d="M88.77,48.78h-6.6c-.26,0-.48-.21-.48-.48V29.87c0-5.12-4.15-9.27-9.27-9.27h-18.44c-.26,0-.48-.21-.48-.48h0v-6.6c.04-6.49-5.11-11.83-11.6-12.02-6.53-.12-11.91,5.08-12.03,11.61,0,0,0,0,0,0v7c0,.26-.21,.48-.48,.48H10.96c-5.22,.02-9.44,4.24-9.46,9.46v16.8c0,.26,.21,.48,.48,.48h6.42c7.01,0,12.81,6.08,12.91,13.09,.1,7.13-5.61,13.64-12.72,13.64H1.98c-.26,0-.48,.21-.48,.48v16.8c.02,5.22,4.24,9.44,9.46,9.46H27.76c.26,0,.48-.21,.48-.48v-5c.04-7.31,5.82-13.31,13.12-13.62,7.18-.17,13.6,4.85,13.6,12v6.61c0,.26,.21,.48,.48,.48h16.98c5.12,0,9.27-4.15,9.28-9.27h0v-18.62c0-.26,.21-.48,.48-.48h6.8c6.53-.03,11.79-5.35,11.76-11.88-.03-6.53-5.35-11.79-11.88-11.76-.03,0-.06,0-.09,0h0Z"/>
  </g>
</svg>