<svg xmlns="http://www.w3.org/2000/svg" xmlns:xlink="http://www.w3.org/1999/xlink" width="1265.656" height="509.623" viewBox="0 0 1265.656 509.623">
  <defs>
    <clipPath id="clip-path">
      <rect id="Rectangle_2276" data-name="Rectangle 2276" width="1000" height="339.745" fill="#fff"/>
    </clipPath>
  </defs>
  <g id="Group_8005" data-name="Group 8005" transform="translate(-460 -16516.123)">
    <g id="Group_5945" data-name="Group 5945" transform="translate(460 16686)">
      <g id="Group_5944" data-name="Group 5944" transform="translate(0 0)" clip-path="url(#clip-path)">
        <path id="Path_28412" data-name="Path 28412" d="M251.63,0V8.4a17.008,17.008,0,0,1-3.359,9.84L32.657,319.34H249.713v20.405H0v-8.878a14.731,14.731,0,0,1,2.878-8.641L218.973,20.412H6.244V0Z" transform="translate(0 -0.001)" fill="#fff"/>
        <path id="Path_28413" data-name="Path 28413" d="M302.536,0V20.893H183.206V339.745h-24.5V20.893H38.662V0Z" transform="translate(247.377 -0.002)" fill="#fff"/>
        <rect id="Rectangle_2274" data-name="Rectangle 2274" width="149.893" height="20.405" transform="translate(584.324 163.27)" fill="#fff"/>
        <rect id="Rectangle_2275" data-name="Rectangle 2275" width="173.901" height="20.412" transform="translate(584.324 0)" fill="#fff"/>
        <path id="Path_28414" data-name="Path 28414" d="M197.58,192.8a38.953,38.953,0,0,0-10.328-9.6,135.158,135.158,0,0,0,40.1-10.2,103.034,103.034,0,0,0,30.371-19.932,83.383,83.383,0,0,0,19.332-28.21,91.357,91.357,0,0,0,6.718-35.535q0-43.947-29.054-66.631T166.847,0H107.134V19.451h59.713q45.378,0,69.146,17.527t23.771,53.787q0,17.767-6.481,31.932a66.871,66.871,0,0,1-18.851,24.252q-12.374,10.077-30.252,15.485t-40.455,5.4H107.134v18.245h41.942q9.844,0,14.523,2.168a24.022,24.022,0,0,1,8.767,7.443L281.131,333.508a17.32,17.32,0,0,0,5.408,4.8,14.142,14.142,0,0,0,6.592,1.435h21.374Z" transform="translate(685.494 -0.001)" fill="#fff"/>
      </g>
    </g>
    <path id="Path_36850" data-name="Path 36850" d="M107.925,290.788a25.481,25.481,0,1,1-25.481,25.481A25.491,25.491,0,0,1,107.925,290.788ZM107.925,2A101.919,101.919,0,0,1,209.85,103.925c0,36.778-12.792,55.889-45.425,83.629-32.735,27.809-39.513,40.328-39.513,69.258H90.938c0-42.027,13.369-62.769,51.489-95.147,25.77-21.9,33.448-33.38,33.448-57.741a67.95,67.95,0,1,0-135.9,0v16.988H6V103.925A101.919,101.919,0,0,1,107.925,2Z" transform="translate(1515.806 16514.123)" fill="#fff"/>
  </g>
</svg>
