<?xml version="1.0" encoding="UTF-8"?>
<svg id="Layer_1" data-name="Layer 1" xmlns="http://www.w3.org/2000/svg" xmlns:xlink="http://www.w3.org/1999/xlink" viewBox="0 0 100 100">
  <defs>
    <style>
      .cls-1 {
        fill: #fff;
      }

      .cls-2 {
        clip-path: url(#clippath);
      }

      .cls-3 {
        fill: none;
      }
    </style>
    <clipPath id="clippath">
      <rect class="cls-3" x="11" y="39" width="77.19" height="22"/>
    </clipPath>
  </defs>
  <g id="Group_7992" data-name="Group 7992">
    <g id="Group_7989" data-name="Group 7989">
      <rect id="Rectangle_2773" data-name="Rectangle 2773" class="cls-1" width="100" height="100" rx="20" ry="20"/>
    </g>
    <g id="Group_7991" data-name="Group 7991">
      <g class="cls-2">
        <g id="Group_7990" data-name="Group 7990">
          <path id="Path_36894" data-name="Path 36894" d="M11.4,40.32h13.78l-13.99,19.54c-.12,.16-.19,.36-.19,.56v.57H27.17v-1.32H13.12l13.96-19.5c.14-.18,.21-.41,.22-.64v-.54H11.4v1.32Z"/>
          <path id="Path_36895" data-name="Path 36895" d="M29.52,40.35h7.77v20.65h1.59v-20.65h7.73v-1.35H29.52v1.35Z"/>
          <rect id="Rectangle_2795" data-name="Rectangle 2795" x="48.84" y="49.57" width="9.71" height="1.32"/>
          <rect id="Rectangle_2796" data-name="Rectangle 2796" x="48.84" y="39" width="11.26" height="1.32"/>
          <path id="Path_36896" data-name="Path 36896" d="M67.51,50.86c.9-.09,1.77-.31,2.6-.66,.73-.31,1.39-.75,1.97-1.29,.54-.52,.97-1.14,1.25-1.83,.3-.73,.44-1.51,.43-2.3,.11-1.66-.59-3.27-1.88-4.32-1.26-.98-3.15-1.47-5.69-1.47h-3.87v1.26h3.87c1.58-.1,3.14,.29,4.48,1.14,1.06,.83,1.64,2.14,1.54,3.48,.01,.71-.13,1.42-.42,2.07-.28,.61-.7,1.15-1.22,1.57-.58,.46-1.25,.8-1.96,1-.85,.24-1.73,.36-2.62,.35h-3.67v1.18h2.72c.32-.02,.64,.03,.94,.14,.23,.11,.42,.28,.57,.48l7.04,8.93c.09,.13,.21,.23,.35,.31,.13,.07,.28,.1,.43,.09h1.38l-7.57-9.52c-.18-.25-.41-.46-.67-.62"/>
          <rect id="Rectangle_2797" data-name="Rectangle 2797" x="83.6" y="47.54" width="1.53" height="8.01"/>
          <rect id="Rectangle_2798" data-name="Rectangle 2798" x="83.6" y="45.99" width="1.53" height=".72"/>
          <rect id="Rectangle_2799" data-name="Rectangle 2799" x="80.54" y="44.45" width="7.65" height=".72"/>
        </g>
      </g>
    </g>
  </g>
</svg>