<?xml version="1.0" encoding="UTF-8"?>
<svg id="Layer_1" data-name="Layer 1" xmlns="http://www.w3.org/2000/svg" viewBox="0 0 91.66 85.08">
  <defs>
    <style>
      .cls-1 {
        fill: #fff;
      }
    </style>
  </defs>
  <path class="cls-1" d="M27.19,63.85v18.46S1.59,63.99,1.59,63.99c-.27-.19-.55-.29-.84-.29H.03s.01,20.87,.01,20.87H1.78s-.01-18.09-.01-18.09l25.68,18.36c.23,.16,.48,.24,.74,.24h.76s-.01-21.24-.01-21.24h-1.74Z"/>
  <polygon class="cls-1" points="1.8 50.57 28.92 50.55 28.92 48.47 1.8 48.48 1.79 38.34 .02 38.34 .03 60.78 1.81 60.78 1.8 50.57"/>
  <rect class="cls-1" x="13.9" y="22.65" width="1.74" height="12.75"/>
  <rect class="cls-1" x=".01" y="20.62" width="1.74" height="14.79"/>
  <path class="cls-1" d="M1.65,12.62c0-2.57,.49-4.53,1.49-5.88,.99-1.35,2.52-2.02,4.57-2.02,1.01,0,1.91,.18,2.72,.55,.8,.37,1.49,.9,2.06,1.6,.57,.7,1.01,1.56,1.32,2.57,.31,1.01,.46,2.16,.46,3.44v4.81s1.56,0,1.56,0v-3.57c0-.56,.06-.97,.18-1.24,.12-.27,.33-.51,.63-.75L28.35,2.88c.19-.15,.33-.3,.41-.46,.08-.16,.12-.34,.12-.56V.04s-12.49,9.95-12.49,9.95c-.34,.26-.61,.55-.82,.88-.14-1.27-.43-2.4-.87-3.41-.44-1.01-1.01-1.87-1.7-2.58-.69-.71-1.49-1.26-2.4-1.64-.91-.38-1.92-.57-3.02-.57-2.49,0-4.38,.83-5.66,2.47C.64,6.79,0,9.28,0,12.62v5.08s1.66,0,1.66,0v-5.08Z"/>
  <rect class="cls-1" x="56.55" y="23.73" width="11.74" height="61.33"/>
  <rect class="cls-1" x="56.52" y="11.87" width="11.74" height="5.49"/>
  <rect class="cls-1" x="33.11" y=".02" width="58.55" height="5.49"/>
</svg>