<?xml version="1.0" encoding="UTF-8"?>
<svg id="Layer_1" data-name="Layer 1" xmlns="http://www.w3.org/2000/svg" viewBox="0 0 20 20" fill='#FFFFFF'>
  <path id="assign" d="M10,0c2.76,0,5,2.23,5.01,4.99,0,2.67-2.09,4.87-4.76,5h-.25c-4.83,0-8.75,3.92-8.75,8.76h6.88c.35,0,.62,.28,.62,.62s-.28,.62-.62,.62H1.25C.56,20,0,19.44,0,18.75c0-4.37,2.84-8.24,7.01-9.55l.2-.06c-2.29-1.54-2.9-4.65-1.35-6.94C6.78,.83,8.34,0,10,0Zm4.78,10.12c.44,.2,.75,.6,.82,1.07,.04,.2,.02,.4-.05,.59l-.06,.14h3.12c.54-.01,1.04,.3,1.26,.8,.16,.34,.16,.74,0,1.08-.15,.38-.48,.67-.88,.77-.09,.03-.19,.05-.29,.06h-.99c0,.31-.1,.61-.29,.86,.14,.31,.15,.66,.05,.98-.08,.29-.29,.54-.56,.68l.03,.07s.02,.05,.02,.07c.09,.64-.35,1.23-.98,1.34-.06,.04-.12,.07-.18,.09l-.1,.02h.02s-2.95,0-2.95,0c-.08,0-.16-.02-.24-.05l-.12-.04-.22-.14-.16-.08-.27-.16-.12-.06h-1.09c-.14,0-.27-.06-.37-.15-.08-.08-.13-.17-.15-.28l-.02-.1v-5.23c0-.26,.16-.49,.42-.55h.09s1.03-.01,1.03-.01l.47-.44,1.2-1.08c.42-.39,1.04-.49,1.56-.26h0Zm-.68,1.15l-.05,.04-1.11,1-.55,.5c-.19,.18-.44,.3-.7,.33h-.16s-.28,.01-.28,.01v3.82h.38c.14,0,.28,.02,.41,.07l.13,.05,.19,.1,.24,.15,.25,.13,.04,.03h2.55l.06-.03s.09-.03,.14-.05h.05s-.02-.08-.02-.08c-.08-.49,.14-.97,.55-1.24l.06-.03v-.08c-.19-.41-.14-.89,.13-1.25,.02-.02,.03-.05,.03-.07v-.04c0-.63,.48-1.16,1.1-1.23h.15s.9,0,.9,0l.09-.03,.04-.09v-.02s-.04-.05-.08-.06h-.06s-3.11,0-3.11,0c-.69,0-1.25-.56-1.25-1.25,0-.16,.03-.31,.09-.46l.03-.07-.02-.05s-.02-.03-.03-.05l-.05-.03c-.05-.02-.11-.02-.16,0h0ZM10,1.25c-2.07,0-3.75,1.68-3.75,3.75,0,1.16,.54,2.26,1.46,2.97l.2,.15,1.03,.69h.11c.2-.03,.4-.05,.61-.05h.53c2.07-.12,3.66-1.88,3.55-3.95-.1-1.99-1.75-3.55-3.74-3.56Z"/>
</svg>