<?xml version="1.0" encoding="UTF-8"?>
<svg id="Layer_1" data-name="Layer 1" xmlns="http://www.w3.org/2000/svg" viewBox="0 0 17.35 20.02">
   <defs>
    <style>
      .cls-1 {
        fill-rule: evenodd;
        fill: #FFF000
      }
    </style>
  </defs>
    <path id="Path_27827" data-name="Path 27827" d="M16.39,7.86H.96C.42,7.87,0,8.32,0,8.86v6.16C0,18.02,1.45,20.02,4.82,20.02h7.71c3.37,0,4.82-2,4.82-5v-6.16c0-.54-.42-.99-.96-1ZM5.99,16.23s-.09,.08-.15,.12c-.05,.04-.11,.07-.17,.09-.05,.03-.11,.05-.17,.06-.06,.01-.13,.02-.19,.02-.13,0-.25-.03-.37-.08-.12-.05-.23-.12-.32-.21-.37-.4-.37-1.02,0-1.42,.09-.09,.2-.16,.32-.21,.17-.08,.37-.1,.56-.06,.06,.01,.12,.03,.17,.06,.06,.02,.12,.05,.17,.09l.15,.12c.37,.4,.37,1.02,0,1.42Zm0-3.5c-.37,.38-.97,.39-1.35,.02,0,0-.02-.02-.02-.02-.37-.4-.37-1.02,0-1.42,.27-.28,.69-.37,1.05-.21,.12,.05,.23,.12,.32,.21,.37,.4,.37,1.02,0,1.42Zm3.37,3.5c-.37,.38-.97,.39-1.35,.02,0,0-.02-.02-.02-.02-.37-.4-.37-1.02,0-1.42,.38-.37,.99-.37,1.37,0,.37,.4,.37,1.02,0,1.42Zm0-3.5l-.15,.12c-.05,.04-.11,.07-.17,.09-.05,.03-.11,.05-.17,.06-.06,.01-.13,.02-.19,.02-.26,0-.5-.11-.68-.29-.37-.4-.37-1.02,0-1.42,.09-.09,.2-.16,.32-.21,.36-.16,.78-.07,1.05,.21,.37,.4,.37,1.02,0,1.42h0Zm3.37,3.5c-.37,.38-.97,.39-1.35,.02,0,0-.02-.02-.02-.02-.37-.4-.37-1.02,0-1.42,.38-.37,.99-.37,1.37,0,.37,.4,.37,1.02,0,1.42Zm0-3.5l-.15,.12c-.05,.04-.11,.07-.17,.09-.05,.03-.11,.05-.17,.06-.06,.01-.13,.02-.19,.02-.26,0-.5-.11-.68-.29-.37-.4-.37-1.02,0-1.42,.09-.09,.2-.16,.32-.21,.17-.08,.37-.1,.56-.06,.06,.01,.12,.03,.17,.06,.06,.02,.12,.05,.17,.09l.15,.12c.37,.4,.37,1.02,0,1.42Z"/>
  
</svg>