<svg id="Group_7815" data-name="Group 7815" xmlns="http://www.w3.org/2000/svg" xmlns:xlink="http://www.w3.org/1999/xlink" width="83.573" height="100" viewBox="0 0 83.573 100">
  <defs>
    <clipPath id="clip-path">
      <rect id="Rectangle_2762" data-name="Rectangle 2762" width="83.573" height="100" fill="none"/>
    </clipPath>
  </defs>
  <g id="Group_7814" data-name="Group 7814" clip-path="url(#clip-path)">
    <path id="Path_36839" data-name="Path 36839" d="M79.176,28.228H64.832V23.045a23.045,23.045,0,0,0-46.09,0v5.183H4.4a4.4,4.4,0,0,0-4.4,4.4V86.376A13.64,13.64,0,0,0,13.625,100H69.948A13.639,13.639,0,0,0,83.573,86.376V32.624a4.4,4.4,0,0,0-4.4-4.4M22.721,23.045a19.066,19.066,0,0,1,38.131,0v5.183H22.721ZM79.593,86.376a9.656,9.656,0,0,1-9.645,9.645H13.625A9.656,9.656,0,0,1,3.98,86.376V32.624a.417.417,0,0,1,.417-.417H18.742V40.7a4.975,4.975,0,1,0,3.979,0v-8.49H60.852V40.7a4.974,4.974,0,1,0,3.979,0v-8.49H79.176a.417.417,0,0,1,.417.417Z" transform="translate(0)" fill="#fff"/>
  </g>
</svg>
