<?xml version="1.0" encoding="UTF-8"?>
<svg id="Layer_1" data-name="Layer 1" xmlns="http://www.w3.org/2000/svg" viewBox="0 0 20 20">
  <defs>
    <style>
      .cls-1 {
        fill: #fff;
      }
    </style>
  </defs>
  <path id="clock" class="cls-1" d="M10,0C4.48,0,0,4.48,0,10s4.48,10,10,10,10-4.48,10-10C19.99,4.48,15.52,0,10,0Zm4.35,13.57c-.13,.23-.38,.37-.65,.37-.13,0-.27-.04-.38-.11l-3.1-1.85c-.8-.52-1.3-1.4-1.34-2.36V5.52c0-.41,.34-.75,.75-.75s.75,.34,.75,.75h0v4.1c.04,.43,.26,.82,.61,1.07l3.1,1.85c.35,.2,.48,.66,.27,1.01,0,0,0,.01-.01,.02Z"/>
</svg>