<svg xmlns="http://www.w3.org/2000/svg" width="73.433" height="73.433" viewBox="1080.783 639.9 73.433 73.433"><g data-name="Group 6341"><path d="M1091.363 640.618h52.274a9.863 9.863 0 0 1 9.863 9.863v52.274a9.863 9.863 0 0 1-9.863 9.863h-52.274a9.863 9.863 0 0 1-9.863-9.863v-52.274a9.863 9.863 0 0 1 9.863-9.863z" stroke-linejoin="round" stroke-linecap="round" stroke="#fff" fill="transparent" data-name="Rectangle 2370" stroke-width=".9863"/><path d="M1116.78 670.436a1.868 1.868 0 0 1-2.642-2.642l3.174-3.161a8.638 8.638 0 0 1 12.185 0l.017.02a8.635 8.635 0 0 1-.017 12.165l-3.174 3.161a1.868 1.868 0 0 1-2.642-2.641l3.174-3.174a4.902 4.902 0 0 0 0-6.892l-.027-.027a4.902 4.902 0 0 0-6.884.017l-3.162 3.174Zm3.417.771a1.868 1.868 0 0 1 2.63 2.642l-9.097 9.097a1.868 1.868 0 0 1-2.641-2.64l9.099-9.099Zm-3.037 12.652a1.868 1.868 0 0 1 2.64 2.641l-3.101 3.103a8.635 8.635 0 0 1-12.148.034l-.069-.066a8.638 8.638 0 0 1 .032-12.153l3.1-3.093a1.868 1.868 0 1 1 2.645 2.632l-3.103 3.103a4.905 4.905 0 0 0 0 6.897 4.9 4.9 0 0 0 6.901 0l3.103-3.098Z" fill="#fff" fill-rule="evenodd" data-name="hyperlink-icon"/></g></svg>