<?xml version="1.0" encoding="UTF-8"?>
<svg id="Layer_1" data-name="Layer 1" xmlns="http://www.w3.org/2000/svg" viewBox="0 0 106.04 77.67">
  <defs>
    <style>
     
    </style>
  </defs>
  <path d="M86.83,17.78c-.07-.19-.18-.36-.34-.52-.33-.33-.67-.46-1.04-.4-.37,.06-.76,.29-1.17,.7l-.84,.84,2,2,.8-.8c.2-.2,.36-.41,.47-.62,.11-.21,.18-.41,.2-.62,.02-.2,0-.4-.07-.58Z"/>
  <g>
    <path class="cls-1" d="M42.6,63.64c.18-.22,.31-.45,.4-.68,.09-.23,.14-.46,.14-.68,0-.22-.04-.44-.12-.64s-.21-.39-.39-.57c-.39-.39-.82-.56-1.29-.51-.47,.06-.96,.35-1.49,.88l-1.17,1.17,4.58,4.58,.33-.33-2.07-2.07,.6-.6c.09-.09,.16-.14,.22-.17,.06-.02,.13-.03,.22-.02l3.32,.39c.05,0,.1,0,.14,0,.04-.01,.07-.04,.11-.07l.29-.29-3.55-.4c-.09-.01-.18,0-.27,0Zm-.05-.51c-.11,.21-.27,.41-.47,.62l-.8,.8-2-2,.84-.84c.41-.41,.8-.64,1.17-.7,.37-.06,.72,.08,1.05,.4,.16,.16,.27,.33,.34,.52,.07,.19,.09,.38,.07,.58-.02,.2-.09,.41-.2,.62Z"/>
    <polygon class="cls-1" points="48.61 61.31 46.7 59.4 48.7 57.39 48.43 57.12 46.43 59.13 44.58 57.28 46.99 54.87 46.71 54.59 43.97 57.34 48.55 61.91 51.29 59.17 51.02 58.9 48.61 61.31"/>
    <path class="cls-1" d="M39.88,69.04s-.02,.03-.03,.04c0,.02,0,.03,0,.05,0,.18-.02,.34-.05,.49-.03,.16-.08,.31-.14,.46-.06,.15-.15,.3-.26,.45-.11,.15-.24,.31-.41,.47-.26,.26-.55,.46-.87,.59-.32,.13-.65,.19-.98,.18-.34-.01-.68-.1-1.03-.26-.35-.16-.68-.4-1.01-.73s-.55-.65-.71-.99c-.16-.35-.24-.69-.25-1.04,0-.35,.05-.68,.19-1.01,.14-.33,.34-.63,.62-.91,.15-.15,.3-.27,.44-.37,.14-.1,.27-.17,.4-.23,.12-.06,.24-.1,.34-.12,.11-.03,.2-.05,.28-.06,.08-.01,.15-.02,.2-.03,.05,0,.09-.02,.11-.04,.04-.04,.05-.08,.04-.12l-.05-.25c-.19,.01-.38,.03-.55,.07-.18,.04-.35,.09-.51,.16-.17,.07-.33,.17-.49,.28-.16,.11-.33,.25-.49,.42-.33,.33-.58,.69-.74,1.08-.16,.39-.24,.78-.23,1.19,0,.4,.1,.8,.28,1.2,.18,.4,.44,.77,.79,1.11,.35,.35,.73,.62,1.12,.81,.39,.18,.79,.28,1.18,.3,.39,.02,.78-.05,1.15-.21,.38-.15,.72-.39,1.04-.71,.19-.19,.35-.38,.48-.57,.13-.19,.23-.38,.3-.57,.08-.19,.13-.38,.16-.57,.03-.19,.04-.39,.04-.58h-.27s-.06,0-.08,.02Z"/>
    <path class="cls-1" d="M20.69,48l-.3,.3,.91,.91c.39,.35,.67,.81,.78,1.32,.05,.45-.12,.89-.46,1.18-.16,.17-.36,.3-.59,.39-.21,.08-.43,.11-.66,.08-.24-.03-.48-.1-.7-.22-.26-.14-.49-.32-.7-.53l-.86-.86-.28,.28,.64,.64c.08,.07,.14,.16,.19,.25,.03,.08,.03,.16,.02,.25l-.44,3.76c0,.05,0,.1,.01,.15,.02,.05,.04,.09,.08,.12l.33,.33,.46-4.02c.01-.1,.01-.2-.01-.3,.23,.19,.49,.34,.77,.46,.24,.1,.5,.15,.77,.16,.25,0,.5-.04,.72-.14,.24-.1,.46-.25,.64-.44,.42-.36,.63-.91,.57-1.46-.14-.66-.49-1.25-.99-1.68l-.91-.91Z"/>
    <polygon class="cls-1" points="16.68 44.62 16.99 44.3 12.97 40.28 12.66 40.6 14.48 42.43 9.63 47.29 10 47.66 14.86 42.8 16.68 44.62"/>
    <path class="cls-1" d="M12.12,39.98c.08-.01,.15-.05,.2-.1l.13-.13-3.74-3.74-.31,.31,3.24,3.24-7.89,1.31c-.07,0-.13,.04-.18,.09l-.14,.14,3.8,3.8,.31-.31-3.31-3.31,7.87-1.3Z"/>
    <path class="cls-1" d="M50.33,50.98l2.7,6.45,.25-.25s.05-.06,.05-.1c0-.04,0-.07-.02-.11l-.79-1.87,2.25-2.25,1.87,.79s.07,.02,.11,.02c.04,0,.07-.02,.1-.05l.26-.26-6.45-2.7-.33,.33Zm.69,.27c.06,.03,.12,.06,.17,.08l3.25,1.38-2.05,2.05-1.37-3.24c-.02-.05-.05-.11-.08-.17-.03-.06-.07-.13-.1-.19,.07,.04,.13,.07,.19,.1Z"/>
    <rect class="cls-1" x="18.47" y="44.43" width=".44" height="3.75" transform="translate(-27.27 26.78) rotate(-45)"/>
    <rect class="cls-1" x="15.8" y="47" width=".44" height="3.23" transform="translate(-29.68 25.56) rotate(-45)"/>
    <polygon class="cls-1" points="57.45 44.42 57.17 44.14 53.61 47.69 53.9 47.98 55.51 46.36 59.81 50.65 60.14 50.32 55.84 46.03 57.45 44.42"/>
    <path class="cls-1" d="M86.75,19.49c.18-.22,.31-.45,.4-.68,.09-.23,.14-.46,.14-.68,0-.22-.04-.44-.12-.64s-.21-.39-.39-.57c-.39-.39-.82-.56-1.29-.51-.47,.06-.96,.35-1.49,.88l-1.17,1.17,4.58,4.58,.33-.33-2.07-2.07,.6-.6c.09-.09,.16-.14,.22-.17,.06-.02,.13-.03,.22-.02l3.32,.39c.05,0,.1,0,.14,0,.04-.01,.07-.04,.11-.07l.29-.29-3.55-.4c-.09-.01-.18,0-.27,0Z"/>
    <polygon class="cls-1" points="82.26 27.65 80.36 25.74 82.36 23.73 82.09 23.46 80.09 25.47 78.24 23.62 80.65 21.21 80.37 20.93 77.63 23.68 82.21 28.26 84.95 25.51 84.67 25.24 82.26 27.65"/>
    <path class="cls-1" d="M100.83,6.96c-.18-.39-.44-.76-.8-1.11-.35-.35-.72-.62-1.11-.79-.39-.18-.78-.27-1.17-.27s-.77,.07-1.15,.23c-.37,.16-.72,.41-1.05,.73l-1.67,1.67,4.58,4.58,1.67-1.67c.33-.33,.57-.67,.73-1.05,.16-.37,.24-.76,.23-1.15s-.1-.78-.27-1.17Z"/>
    <rect class="cls-1" x="93" y="9.41" width=".47" height="6.47" transform="translate(18.37 69.63) rotate(-45)"/>
    <polygon class="cls-1" points="63.89 46.02 61.98 44.11 63.99 42.11 63.72 41.84 61.71 43.84 59.86 41.99 62.27 39.58 62 39.31 59.25 42.05 63.83 46.63 66.58 43.89 66.3 43.61 63.89 46.02"/>
    <path class="cls-1" d="M73.17,33.8l-2.83-2.83-.33,.33,2.83,2.83c.21,.21,.38,.44,.5,.69,.12,.25,.19,.5,.2,.76,.02,.26-.03,.51-.12,.76-.1,.25-.26,.48-.48,.71s-.45,.38-.71,.47c-.25,.1-.5,.14-.76,.12s-.51-.08-.76-.21c-.25-.12-.48-.29-.69-.5l-2.83-2.83-.33,.33,2.83,2.83c.25,.25,.53,.45,.83,.59,.3,.14,.6,.22,.92,.23,.31,.01,.62-.04,.93-.16,.31-.12,.59-.32,.86-.58s.46-.55,.58-.86c.12-.31,.18-.62,.16-.93-.01-.31-.09-.62-.23-.92-.14-.3-.34-.57-.59-.83Z"/>
    <path class="cls-1" d="M78.62,29.17c-.19-.19-.38-.31-.57-.37-.19-.06-.39-.08-.58-.06-.19,.02-.39,.07-.58,.15-.19,.08-.39,.17-.58,.27-.19,.1-.38,.19-.57,.28-.19,.09-.37,.15-.55,.19-.18,.04-.35,.04-.52,0s-.33-.13-.48-.29c-.12-.12-.21-.25-.27-.41-.06-.15-.09-.31-.09-.48,0-.17,.05-.34,.12-.51,.08-.17,.2-.34,.37-.51s.33-.29,.48-.36c.16-.07,.29-.12,.42-.15,.12-.03,.23-.04,.31-.05,.08,0,.14-.02,.17-.05,.04-.04,.05-.08,.03-.14l-.07-.23c-.31,0-.6,.06-.86,.17-.26,.11-.52,.29-.75,.53-.21,.21-.37,.43-.47,.66-.1,.23-.15,.46-.15,.68,0,.22,.04,.43,.12,.63,.08,.2,.2,.38,.36,.53,.2,.2,.39,.33,.59,.39,.2,.06,.39,.09,.59,.07,.2-.02,.39-.07,.58-.15,.19-.08,.38-.17,.57-.27,.19-.1,.38-.19,.56-.28,.18-.09,.37-.15,.54-.19,.18-.04,.35-.04,.52,0,.17,.04,.34,.14,.5,.3,.15,.15,.26,.31,.34,.5,.08,.18,.12,.37,.11,.56,0,.19-.05,.39-.14,.59-.09,.2-.22,.39-.4,.57-.13,.13-.26,.24-.39,.31-.13,.08-.25,.14-.37,.18s-.23,.07-.33,.09c-.1,.02-.2,.03-.28,.03-.08,0-.15,.01-.21,.01-.06,0-.09,.02-.11,.04-.03,.03-.05,.08-.04,.14l.05,.23c.35,.02,.69-.02,1.01-.13s.64-.32,.94-.62c.23-.23,.4-.48,.51-.73,.11-.25,.16-.51,.16-.76,0-.25-.05-.49-.15-.73-.1-.23-.25-.45-.44-.64Z"/>
    <path d="M42.68,61.94c-.07-.19-.18-.36-.34-.52-.33-.33-.67-.46-1.05-.4-.37,.06-.76,.29-1.17,.7l-.84,.84,2,2,.8-.8c.2-.2,.36-.41,.47-.62,.11-.21,.18-.41,.2-.62,.02-.2,0-.4-.07-.58Z"/>
    <path d="M51.01,51.51l1.37,3.24,2.05-2.05-3.25-1.38c-.05-.02-.11-.05-.17-.08-.06-.03-.13-.06-.19-.1,.04,.07,.07,.13,.1,.19,.03,.06,.06,.12,.08,.17Z"/>
    <path d="M97.67,0L36.74,60.93,8.37,32.55,0,40.92l36.74,36.74L106.04,8.37,97.67,0ZM17.52,44.83l2.65,2.65-.31,.31-2.65-2.65,.31-.31Zm-10.27,.08l-3.8-3.8,.14-.14s.11-.08,.18-.09l7.89-1.31-3.24-3.24,.31-.31,3.74,3.74-.13,.13c-.05,.05-.13,.09-.2,.1l-7.87,1.3,3.31,3.31-.31,.31Zm2.38,2.38l4.86-4.86-1.83-1.83,.32-.32,4.02,4.02-.32,.32-1.82-1.82-4.86,4.86-.37-.37Zm7.38,2.62l-2.28-2.28,.31-.31,2.28,2.28-.31,.31Zm5.02,2.14c-.18,.19-.4,.34-.64,.44-.23,.09-.48,.14-.72,.14-.26,0-.52-.06-.77-.16-.28-.11-.54-.27-.77-.46,.02,.1,.03,.2,.01,.3l-.46,4.02-.33-.33s-.06-.08-.08-.12c-.01-.05-.02-.1-.01-.15l.44-3.76c.01-.08,0-.17-.02-.25-.04-.1-.11-.18-.19-.25l-.64-.64,.28-.28,.86,.86c.21,.21,.44,.39,.7,.53,.22,.12,.45,.2,.7,.22,.22,.02,.45,0,.66-.08,.22-.09,.42-.22,.59-.39,.34-.29,.51-.74,.46-1.18-.11-.51-.39-.98-.78-1.32l-.91-.91,.3-.3,.91,.91c.51,.44,.86,1.03,.99,1.68,.06,.55-.16,1.09-.57,1.46Zm18.17,17.55c-.03,.19-.09,.38-.16,.57-.08,.19-.18,.38-.3,.57-.13,.19-.29,.38-.48,.57-.32,.32-.66,.55-1.04,.71-.38,.15-.76,.22-1.15,.21-.39-.01-.79-.11-1.18-.3-.39-.18-.77-.45-1.12-.81-.35-.35-.61-.72-.79-1.11-.18-.4-.27-.8-.28-1.2,0-.4,.07-.8,.23-1.19,.16-.39,.41-.75,.74-1.08,.17-.17,.33-.31,.49-.42,.16-.11,.33-.21,.49-.28,.17-.07,.34-.13,.51-.16,.17-.04,.36-.06,.55-.07l.05,.25s0,.08-.04,.12c-.02,.02-.05,.03-.11,.04-.05,0-.12,.02-.2,.03-.08,.01-.17,.03-.28,.06-.11,.03-.22,.07-.34,.12-.12,.06-.26,.13-.4,.23-.14,.1-.29,.22-.44,.37-.28,.28-.48,.58-.62,.91-.14,.33-.2,.67-.19,1.01,0,.35,.09,.69,.25,1.04,.16,.35,.4,.68,.71,.99s.66,.57,1.01,.73c.35,.16,.69,.25,1.03,.26,.34,.01,.67-.05,.98-.18,.32-.13,.61-.32,.87-.59,.16-.16,.3-.32,.41-.47,.11-.15,.19-.3,.26-.45,.06-.15,.11-.3,.14-.46,.03-.15,.05-.32,.05-.49,0-.02,0-.04,0-.05,0-.01,.01-.03,.03-.04,.02-.02,.05-.03,.08-.03h.27c0,.21,0,.4-.04,.59Zm5.95-5.28s-.07,.06-.11,.07c-.04,.01-.08,.01-.14,0l-3.32-.39c-.08-.01-.16,0-.22,.02-.06,.02-.14,.08-.22,.17l-.6,.6,2.07,2.07-.33,.33-4.58-4.58,1.17-1.17c.53-.53,1.03-.82,1.49-.88,.46-.06,.89,.11,1.29,.51,.17,.17,.3,.36,.39,.57s.12,.42,.12,.64c0,.22-.05,.45-.14,.68-.09,.23-.22,.46-.4,.68,.08-.02,.17-.02,.27,0l3.55,.4-.29,.29Zm2.41-2.41l-4.58-4.58,2.74-2.74,.28,.28-2.41,2.41,1.85,1.85,2.01-2.01,.27,.27-2.01,2.01,1.91,1.91,2.41-2.41,.27,.27-2.74,2.74Zm8.31-8.31s-.06,.05-.1,.05c-.04,0-.07,0-.11-.02l-1.87-.79-2.25,2.25,.79,1.87s.02,.07,.02,.11c0,.04-.02,.07-.05,.1l-.25,.25-2.7-6.45,.33-.33,6.45,2.7-.26,.26Zm2.95-2.95l-4.3-4.3-1.62,1.62-.28-.28,3.56-3.56,.28,.28-1.61,1.61,4.3,4.3-.33,.33Zm4.02-4.02l-4.58-4.58,2.74-2.74,.28,.28-2.41,2.41,1.85,1.85,2.01-2.01,.27,.27-2.01,2.01,1.91,1.91,2.41-2.41,.27,.27-2.74,2.74Zm9.99-10.16c-.12,.31-.32,.59-.58,.86s-.55,.46-.86,.58c-.31,.12-.62,.18-.93,.16-.31-.01-.62-.09-.92-.23-.3-.14-.57-.34-.83-.59l-2.83-2.83,.33-.33,2.83,2.83c.21,.21,.44,.38,.69,.5,.25,.12,.5,.19,.76,.21s.51-.02,.76-.12c.25-.1,.49-.25,.71-.47s.38-.45,.48-.71c.1-.25,.14-.5,.12-.76-.02-.26-.08-.51-.2-.76-.12-.25-.29-.48-.5-.69l-2.83-2.83,.33-.33,2.83,2.83c.25,.25,.45,.53,.59,.83,.14,.3,.22,.6,.23,.92,.01,.31-.04,.62-.16,.93Zm5.23-5.17c-.11,.25-.28,.5-.51,.73-.3,.3-.61,.51-.94,.62s-.66,.16-1.01,.13l-.05-.23c0-.06,0-.1,.04-.14,.02-.02,.06-.03,.11-.04,.06,0,.12,0,.21-.01,.08,0,.17-.02,.28-.03,.1-.02,.22-.05,.33-.09s.24-.1,.37-.18c.13-.08,.26-.18,.39-.31,.18-.18,.32-.37,.4-.57,.09-.2,.13-.39,.14-.59,0-.19-.03-.38-.11-.56-.08-.18-.19-.35-.34-.5-.16-.16-.33-.26-.5-.3-.17-.04-.34-.04-.52,0-.18,.04-.36,.1-.54,.19-.18,.09-.37,.18-.56,.28-.19,.1-.38,.19-.57,.27-.19,.08-.39,.13-.58,.15-.2,.02-.39,0-.59-.07-.2-.07-.39-.2-.59-.39-.15-.15-.27-.33-.36-.53-.08-.2-.12-.41-.12-.63,0-.22,.05-.45,.15-.68,.1-.23,.26-.45,.47-.66,.24-.24,.49-.41,.75-.53,.26-.11,.55-.17,.86-.17l.07,.23c.02,.06,0,.1-.03,.14-.03,.03-.09,.04-.17,.05-.08,0-.19,.02-.31,.05-.12,.03-.26,.08-.42,.15-.15,.07-.31,.19-.48,.36s-.29,.34-.37,.51c-.08,.17-.12,.34-.12,.51,0,.17,.03,.33,.09,.48,.06,.15,.15,.29,.27,.41,.16,.16,.32,.25,.48,.29s.34,.04,.52,0c.18-.04,.36-.1,.55-.19,.19-.09,.37-.18,.57-.28,.19-.1,.39-.19,.58-.27,.19-.08,.39-.13,.58-.15,.19-.02,.39,0,.58,.06,.19,.06,.38,.18,.57,.37,.19,.19,.34,.41,.44,.64,.1,.23,.16,.48,.15,.73,0,.25-.05,.5-.16,.76Zm3.16-3.04l-4.58-4.58,2.74-2.74,.28,.28-2.41,2.41,1.85,1.85,2.01-2.01,.27,.27-2.01,2.01,1.91,1.91,2.41-2.41,.27,.27-2.74,2.74Zm8.08-8.08s-.07,.06-.11,.07c-.04,.01-.08,.01-.14,0l-3.32-.39c-.08-.01-.16,0-.22,.02-.06,.02-.14,.08-.22,.17l-.6,.6,2.07,2.07-.33,.33-4.58-4.58,1.17-1.17c.53-.53,1.02-.82,1.49-.88,.46-.06,.89,.11,1.29,.51,.17,.17,.3,.36,.39,.57s.12,.42,.12,.64c0,.22-.05,.45-.14,.68-.09,.23-.22,.46-.4,.68,.08-.02,.17-.02,.27,0l3.55,.4-.29,.29Zm5.07-5.07l-4.58-4.58,.33-.33,4.58,4.58-.33,.33Zm4.78-4.78l-1.67,1.67-4.58-4.58,1.67-1.67c.33-.33,.68-.57,1.05-.73,.37-.16,.76-.24,1.15-.23s.78,.1,1.17,.27c.39,.18,.76,.44,1.11,.79,.35,.35,.62,.73,.8,1.11,.18,.39,.27,.78,.27,1.17s-.07,.77-.23,1.15c-.16,.37-.41,.72-.73,1.05Z"/>
  </g>
  <path d="M99.69,6.19c-.32-.32-.65-.56-.99-.72-.34-.16-.67-.25-1.01-.26-.33-.01-.66,.05-.98,.19-.32,.14-.61,.34-.89,.62l-1.34,1.34,4.04,4.04,1.34-1.34c.28-.28,.48-.57,.62-.89,.14-.32,.2-.64,.19-.97-.01-.33-.1-.67-.26-1.01-.16-.34-.4-.67-.72-.99Z"/>
</svg>