<?xml version="1.0" encoding="UTF-8"?>
<svg id="Layer_1" data-name="Layer 1" xmlns="http://www.w3.org/2000/svg" xmlns:xlink="http://www.w3.org/1999/xlink" viewBox="0 0 69.06 67.46">
  <defs>
    <style>
      .cls-1 {
        fill: #fff;
        stroke: #fff;
        stroke-width: 1.5px;
      }

      .cls-2 {
        clip-path: url(#clippath);
      }

      .cls-3 {
        fill: none;
      }
    </style>
    <clipPath id="clippath">
      <rect class="cls-3" x=".75" y=".75" width="67.56" height="65.96"/>
    </clipPath>
  </defs>
  <g class="cls-2">
    <g id="Mask_Group_2" data-name="Mask Group 2">
      <path id="Path_28334" data-name="Path 28334" class="cls-1" d="M15.86,37.52c-.58-.56-.6-1.47-.05-2.06,.54-.58,1.45-.61,2.02-.07,0,0,0,0,0,0h.01s15.22,14.7,15.22,14.7V2.21c0-.81,.66-1.46,1.46-1.46,.81,0,1.46,.65,1.46,1.46V50.03l14.65-14.6c.56-.56,1.47-.56,2.03,0h.01c.56,.59,.55,1.51-.02,2.07l-16.98,16.94c-.5,.64-1.41,.75-2.05,.25,0,0,0,0,0,0-.08-.07-.16-.14-.23-.22L15.86,37.52Zm49.53,14.61c0-.81,.65-1.46,1.46-1.46,.81,0,1.46,.65,1.46,1.46h0v13.12c0,.81-.65,1.46-1.46,1.46H2.21c-.81,0-1.46-.65-1.46-1.46,0,0,0,0,0,0v-13.12c0-.81,.65-1.46,1.46-1.46,.81,0,1.46,.65,1.46,1.46h0v11.65h61.72v-11.65Z"/>
    </g>
  </g>
</svg>