<?xml version="1.0" encoding="UTF-8"?>
<svg id="Layer_1" data-name="Layer 1" xmlns="http://www.w3.org/2000/svg" viewBox="0 0 9.89 10">
  <defs>
    <style>
      .cls-1 {
        fill-rule: evenodd;
      }
    </style>
  </defs>
  <path id="Path_27440" data-name="Path 27440" class="cls-1" d="M7.88,.18l1.83,1.82c.24,.24,.24,.63,0,.88l-1.01,1.01L6,1.19,7,.18c.24-.24,.63-.24,.88,0Zm-2.17,4.07h0c.15,.15,.15,.39,0,.54h0l-2.45,2.45h0s-.04,.04-.07,.05h0s-.05,.03-.08,.04c-.14,.05-.3,.01-.4-.09h0s-.04-.04-.06-.07h0s-.03-.05-.04-.08c-.05-.14-.01-.29,.09-.4h0l2.45-2.45h0c.15-.15,.39-.15,.54,0h0Zm-2.01,4.63l-2.19,.68c-1.72,.53-1.71,.89-1.24-.77l.74-2.6h0L5.48,1.7l2.7,2.7L3.7,8.88h0ZM1.47,6.64l1.77,1.77-1.44,.44c-1.13,.35-1.12,.58-.81-.51l.48-1.71Z"/>
</svg>