<?xml version="1.0" encoding="UTF-8"?>
<svg id="Layer_1" data-name="Layer 1" xmlns="http://www.w3.org/2000/svg" viewBox="0 0 84.8 54.37">
  <defs>
    <style>
      .cls-1 {
        fill: #fff;
      }
    </style>
  </defs>
  <g>
    <path d="M82.68,0H2.12C.95,0,0,.95,0,2.12V7.98L42.4,29.18,84.8,7.98V2.12c0-1.17-.95-2.12-2.12-2.12Z"/>
    <path d="M0,12.47V52.25c0,1.17,.95,2.12,2.12,2.12H82.68c1.17,0,2.12-.95,2.12-2.12V12.47l-42.4,21.2L0,12.47Z"/>
  </g>
  <g>
    <path class="cls-1" d="M13.18,41.66v.49h-4.33v3.32h3.6v.48h-3.6v3.43h4.33v.49h-4.92v-8.22h4.92Z"/>
    <path class="cls-1" d="M21.54,47.83c.02-.06,.05-.12,.07-.18,.03-.06,.05-.12,.08-.17l3.23-5.71c.03-.05,.06-.08,.09-.09,.03-.01,.07-.02,.13-.02h.41v8.22h-.52v-7c0-.1,0-.21,.02-.32l-3.23,5.74c-.05,.1-.13,.15-.23,.15h-.09c-.1,0-.17-.05-.23-.15l-3.32-5.75c.01,.11,.02,.22,.02,.33v7h-.52v-8.22h.41c.05,0,.1,0,.13,.02,.03,.01,.06,.04,.1,.09l3.32,5.71c.06,.11,.11,.22,.15,.35Z"/>
    <path class="cls-1" d="M36.5,49.88h-.46c-.05,0-.1-.01-.13-.04-.03-.03-.06-.07-.08-.11l-.97-2.39h-4.04l-.96,2.39s-.04,.08-.08,.11c-.04,.03-.09,.05-.14,.05h-.45l3.36-8.22h.59l3.36,8.22Zm-5.5-2.98h3.68l-1.68-4.15c-.03-.07-.05-.14-.08-.22-.03-.08-.05-.17-.08-.26-.03,.09-.05,.18-.08,.26-.03,.08-.05,.16-.08,.23l-1.68,4.15Z"/>
    <path class="cls-1" d="M40.94,49.88h-.6v-8.22h.6v8.22Z"/>
    <path class="cls-1" d="M46.51,49.37h3.9v.51h-4.49v-8.22h.59v7.71Z"/>
    <path class="cls-1" d="M62.85,47.83c.02-.06,.05-.12,.07-.18,.02-.06,.05-.12,.08-.17l3.23-5.71c.03-.05,.06-.08,.09-.09,.03-.01,.07-.02,.13-.02h.41v8.22h-.52v-7c0-.1,0-.21,.02-.32l-3.23,5.74c-.05,.1-.13,.15-.23,.15h-.09c-.1,0-.17-.05-.23-.15l-3.32-5.75c.01,.11,.02,.22,.02,.33v7h-.52v-8.22h.41c.05,0,.1,0,.13,.02,.03,.01,.06,.04,.1,.09l3.32,5.71c.06,.11,.11,.22,.15,.35Z"/>
    <path class="cls-1" d="M76.55,41.66v.49h-4.33v3.32h3.6v.48h-3.6v3.43h4.33v.49h-4.92v-8.22h4.92Z"/>
  </g>
</svg>