<svg xmlns="http://www.w3.org/2000/svg" width="73.433" height="73.433" viewBox="1297.783 639.9 73.433 73.433"><g data-name="Group 6343"><path d="M1308.363 640.618h52.274a9.863 9.863 0 0 1 9.863 9.863v52.274a9.863 9.863 0 0 1-9.863 9.863h-52.274a9.863 9.863 0 0 1-9.863-9.863v-52.274a9.863 9.863 0 0 1 9.863-9.863z" stroke-linejoin="round" stroke-linecap="round" stroke="#fff" fill="transparent" data-name="Rectangle 2372" stroke-width=".9863"/><g data-name="Group 4729"><path d="M1353.592 665.06a.943.943 0 0 0-.94-.942h-35.713a.943.943 0 0 0-.939.941v2.597l18.796 9.399 18.796-9.4v-2.596Z" fill="#fff" fill-rule="evenodd" data-name="Path 201"/><path d="m1353.592 670.544-18.796 9.398-18.796-9.398v17.635c0 .515.422.94.94.94h35.712c.517 0 .94-.425.94-.94v-17.635Z" fill="#fff" fill-rule="evenodd" data-name="Path 202"/></g></g></svg>