<?xml version="1.0" encoding="UTF-8"?>
<svg id="Layer_1" data-name="Layer 1" xmlns="http://www.w3.org/2000/svg" viewBox="0 0 20 20">
  <defs>
    <style>
      .cls-1 {
        fill: #fff;
      }
    </style>
  </defs>
  <path id="expand" class="cls-1" d="M5.99,0H.75C.34,0,0,.34,0,.75H0V6.04c0,.21,.17,.38,.38,.38H1.51c.21,0,.38-.17,.38-.38V1.89H5.99c.21,0,.38-.17,.38-.38V.38C6.36,.17,6.2,0,5.99,0Zm13.63,13.58h-1.13c-.21,0-.38,.17-.38,.38v4.15h-4.1c-.21,0-.38,.17-.38,.38v1.13c0,.21,.17,.38,.38,.38h5.24c.42,0,.75-.34,.75-.75h0v-5.28c0-.21-.17-.38-.38-.38,0,0,0,0,0,0Zm-13.63,4.53H1.89v-4.15c0-.21-.17-.38-.38-.38H.38C.17,13.59,0,13.75,0,13.96v5.28c0,.42,.34,.75,.75,.75H5.99c.21,0,.38-.17,.38-.38v-1.13c0-.21-.17-.38-.38-.38ZM19.25,0h-5.24c-.21,0-.38,.17-.38,.38V1.51c0,.21,.17,.38,.38,.38h4.1V6.04c0,.21,.17,.38,.38,.38h1.13c.21,0,.38-.17,.38-.38V.75C20,.34,19.66,0,19.25,0Z"/>
</svg>