<svg xmlns="http://www.w3.org/2000/svg" width="15" height="15" viewBox="1010 487 15 15"><path d="M1020.988 502h-6.976c-3.077 0-4.012-.935-4.012-4.012v-6.976c0-3.077.935-4.012 4.012-4.012h1.046c1.221 0 1.605.398 2.093 1.047l1.047 1.395c.23.307.265.349.697.349h2.093c3.077 0 4.012.935 4.012 4.011v4.186c0 3.077-.935 4.012-4.012 4.012Zm-6.976-13.953c-2.491 0-2.965.474-2.965 2.965v6.976c0 2.491.474 2.965 2.965 2.965h6.976c2.491 0 2.965-.474 2.965-2.965v-4.186c0-2.49-.474-2.965-2.965-2.965h-2.093c-.893 0-1.186-.307-1.535-.767l-1.046-1.396c-.363-.481-.467-.627-1.256-.627h-1.046Z" fill="#fff" fill-rule="evenodd" data-name="folder (2)"/></svg>