<?xml version="1.0" encoding="UTF-8"?>
<svg id="Layer_1" data-name="Layer 1" xmlns="http://www.w3.org/2000/svg" viewBox="0 0 15 15.01">
  <defs>
    <style>
      .cls-1 {
        fill: white;
      }
    </style>
  </defs>
  <path id="folder" class="cls-1" d="M10.99,15.01H4.01c-3.08,0-4.01-.94-4.01-4.01V4.02C0,.95,.93,.01,4.01,.01h1.05c.84-.09,1.66,.32,2.09,1.05l1.05,1.4c.23,.31,.27,.35,.7,.35h2.09c3.08,0,4.01,.93,4.01,4.01v4.19c0,3.07-.94,4-4.01,4ZM4.01,1.06c-2.49,0-2.96,.47-2.96,2.96v6.98c0,2.49,.47,2.97,2.96,2.97h6.98c2.49,0,2.97-.47,2.97-2.97V6.81c0-2.49-.47-2.97-2.97-2.97h-2.1c-.62,.06-1.22-.24-1.54-.77l-1.05-1.4c-.23-.46-.75-.71-1.25-.62h-1.05Z"/>
</svg>