<?xml version="1.0" encoding="UTF-8"?>
<svg id="Layer_1" data-name="Layer 1" xmlns="http://www.w3.org/2000/svg" viewBox="0 0 238.23 26.76">
  <defs>
    <style>
      .cls-1 {
        fill: #fff;
      }
    </style>
  </defs>
  <path id="Path_27813" data-name="Path 27813" class="cls-1" d="M13.21,23.89c.65,0,1.3-.03,1.95-.1,.56-.06,1.12-.16,1.67-.3,.5-.13,1-.29,1.48-.49,.46-.19,.93-.4,1.39-.65v-5.78h-4.05c-.2,0-.41-.06-.56-.2-.14-.13-.21-.31-.21-.49v-2.01h8.03v10.05c-.65,.47-1.34,.89-2.06,1.24-.73,.36-1.5,.66-2.28,.89-.85,.25-1.72,.42-2.6,.53-1,.12-2.01,.18-3.01,.17-1.79,.02-3.56-.31-5.22-.98-1.54-.62-2.93-1.55-4.09-2.74-1.17-1.21-2.08-2.65-2.68-4.23C.3,17.08-.02,15.24,0,13.39c-.02-1.86,.3-3.71,.94-5.46,.59-1.58,1.5-3.02,2.68-4.23,1.2-1.2,2.64-2.13,4.22-2.73C9.62,.3,11.5-.03,13.39,0c.97,0,1.93,.07,2.89,.23,.84,.14,1.67,.36,2.48,.66,.74,.27,1.44,.62,2.11,1.04,.64,.41,1.25,.87,1.81,1.38l-1,1.61c-.16,.3-.46,.49-.8,.49-.23,0-.45-.08-.64-.2-.31-.17-.65-.38-1.03-.63-.44-.27-.9-.51-1.38-.7-.62-.25-1.26-.44-1.92-.58-.86-.17-1.74-.25-2.62-.24-1.37-.02-2.73,.23-4,.72-1.16,.46-2.2,1.16-3.05,2.06-.87,.94-1.52,2.04-1.94,3.25-.47,1.38-.7,2.83-.68,4.28-.03,1.51,.21,3,.7,4.43,.42,1.22,1.1,2.35,1.98,3.3,.85,.9,1.88,1.6,3.03,2.07,1.23,.49,2.55,.73,3.87,.71ZM49.95,.29V3.18h-12.57V11.88h10.17v2.78h-10.17v8.93h12.57v2.89h-16.13V.29h16.13Zm28.4,0V3.27h-8.45V26.47h-3.54V3.27h-8.49V.29h20.49Zm43.27,26.18h-2.74c-.28,.01-.55-.07-.77-.24-.2-.16-.35-.37-.44-.6l-2.45-6.32h-11.74l-2.45,6.32c-.09,.23-.24,.43-.44,.58-.22,.17-.49,.26-.77,.26h-2.74L107.56,.29h3.6l10.46,26.17Zm-17.15-9.72h9.77l-4.11-10.65c-.31-.8-.58-1.63-.79-2.47-.13,.5-.26,.96-.39,1.38s-.25,.79-.37,1.1l-4.11,10.63Zm42.01,6.74h11.32v2.98h-14.86V.29h3.54V23.49Zm24.91,2.98h-3.54V.29h3.54V26.47ZM185.71,.29c.24-.01,.48,.03,.7,.12,.2,.13,.38,.29,.52,.48l15.17,19.73c-.04-.32-.06-.62-.07-.92-.01-.3-.02-.59-.02-.87V.29h3.1V26.47h-1.79c-.24,0-.48-.04-.7-.15-.22-.12-.41-.29-.56-.49l-15.14-19.71c.02,.3,.04,.6,.05,.9,.01,.29,.02,.56,.02,.8V26.47h-3.1V.29h1.82Zm35.16,11.47h1.33c.37,.01,.75-.05,1.1-.17,.3-.14,.57-.34,.78-.59l8.71-9.86c.22-.26,.48-.48,.78-.65,.3-.14,.63-.2,.96-.19h3.01l-9.97,11.27c-.23,.25-.47,.49-.72,.71-.22,.19-.46,.35-.72,.48,.33,.1,.63,.27,.9,.49,.29,.25,.55,.53,.8,.82l10.41,12.4h-3.07c-.2,0-.39-.02-.58-.06-.14-.03-.28-.08-.41-.15-.12-.06-.23-.14-.32-.24-.1-.1-.19-.2-.29-.31l-9.04-10.39c-.13-.15-.26-.27-.37-.37-.12-.11-.25-.2-.4-.27-.17-.08-.35-.13-.53-.15-.25-.03-.49-.05-.74-.05h-1.61v11.98h-3.52V.29h3.52V11.76Z"/>
</svg>