<svg xmlns="http://www.w3.org/2000/svg" width="37.741" height="38.512" viewBox="0 0 37.741 38.512">
  <g id="Group_6064" data-name="Group 6064" transform="translate(-11021.495 20646.889)">
    <path id="Path_33370" data-name="Path 33370" d="M127.454,101.326a16.509,16.509,0,0,0-.406-3.937H108.969v7.146h10.612a9.41,9.41,0,0,1-3.937,6.248l-.036.239,5.716,4.428.4.039c3.637-3.359,5.734-8.3,5.734-14.164" transform="translate(10931.782 -20728.529)" fill="#2467b1"/>
    <path id="Path_33371" data-name="Path 33371" d="M76.893,133.8a18.354,18.354,0,0,0,12.752-4.664l-6.077-4.707a11.4,11.4,0,0,1-6.675,1.926,11.592,11.592,0,0,1-10.955-8l-.226.019-5.944,4.6-.078.216a19.242,19.242,0,0,0,17.2,10.612" transform="translate(10963.857 -20742.174)" fill="#37a543"/>
    <path id="Path_33372" data-name="Path 33372" d="M62.109,94.957a11.859,11.859,0,0,1-.642-3.809,12.458,12.458,0,0,1,.62-3.808l-.011-.255-6.018-4.674-.2.094a19.214,19.214,0,0,0,0,17.287l6.247-4.835" transform="translate(10967.688 -20718.781)" fill="#ffa715"/>
    <path id="Path_33373" data-name="Path 33373" d="M76.893,59.725a10.672,10.672,0,0,1,7.446,2.867l5.434-5.306a18.5,18.5,0,0,0-12.88-5.007,19.242,19.242,0,0,0-17.2,10.612l6.226,4.835a11.64,11.64,0,0,1,10.976-8" transform="translate(10963.857 -20699.168)" fill="#e82c2c"/>
  </g>
</svg>
