<?xml version="1.0" encoding="UTF-8"?>
<svg id="Layer_1" data-name="Layer 1" xmlns="http://www.w3.org/2000/svg" viewBox="0 0 24.6 24.6">
  <defs>
    <style>
      .cls-1 {
        fill: #fff;
      }

      .cls-2 {
        fill: rgba(255, 255, 255, 0);
      }
    </style>
  </defs>
  <path id="Path_28425" data-name="Path 28425" class="cls-2" d="M24.6,24.6H0V0H24.6V24.6Z"/>
  <g id="Group_5952" data-name="Group 5952">
    <path id="Path_28426" data-name="Path 28426" class="cls-1" d="M12.3,0C5.51,0,0,5.51,0,12.3s5.51,12.3,12.3,12.3,12.3-5.51,12.3-12.3h0C24.6,5.51,19.09,0,12.3,0Zm0,22.13c-5.43,0-9.84-4.4-9.84-9.83,0-5.43,4.4-9.84,9.83-9.84,5.43,0,9.84,4.4,9.84,9.83,0,0,0,0,0,0,0,5.43-4.4,9.83-9.83,9.83Z"/>
    <circle id="Ellipse_1" data-name="Ellipse 1" class="cls-1" cx="12.3" cy="7.38" r="1.23"/>
    <path id="Path_28427" data-name="Path 28427" class="cls-1" d="M12.3,9.84c-.68,0-1.23,.55-1.23,1.23v6.15c.02,.68,.59,1.21,1.26,1.19,.65-.02,1.18-.54,1.19-1.19v-6.15c0-.68-.55-1.23-1.23-1.23Z"/>
  </g>
</svg>