<svg xmlns="http://www.w3.org/2000/svg" width="60.024" height="60" viewBox="0 0 60.024 60">
  <g id="Group_7918" data-name="Group 7918" transform="translate(5666.001 8583.455)">
    <path id="hyperlink-icon" d="M29.56,16.635a3.736,3.736,0,0,1-5.283-5.283l6.348-6.323a17.275,17.275,0,0,1,24.37,0l.034.039A17.27,17.27,0,0,1,54.994,29.4l-6.348,6.323a3.736,3.736,0,1,1-5.283-5.283l6.348-6.348a9.8,9.8,0,0,0,0-13.784l-.054-.054a9.8,9.8,0,0,0-13.769.034l-6.323,6.348ZM36.4,18.178a3.735,3.735,0,0,1,5.259,5.283L23.461,41.655a3.735,3.735,0,0,1-5.283-5.278l18.2-18.2Zm-6.074,25.3A3.735,3.735,0,0,1,35.6,48.764L29.4,54.97a17.27,17.27,0,0,1-24.3.068l-.137-.132A17.275,17.275,0,0,1,5.029,30.6l6.2-6.186a3.735,3.735,0,1,1,5.288,5.264l-6.206,6.206a9.809,9.809,0,0,0,0,13.794h0a9.8,9.8,0,0,0,13.8,0Z" transform="translate(-5666 -8583.454)" fill="#000"/>
  </g>
</svg>
