<?xml version="1.0" encoding="UTF-8"?>
<svg id="Layer_1" data-name="Layer 1" xmlns="http://www.w3.org/2000/svg" viewBox="0 0 20.01 20">
  <path id="hyperlink-icon" d="M9.85,5.55c-.49,.49-1.27,.49-1.76,0-.49-.49-.49-1.27,0-1.76l2.12-2.11c2.25-2.24,5.88-2.24,8.12,0h.01c2.22,2.26,2.22,5.88-.01,8.12l-2.12,2.11c-.49,.49-1.27,.49-1.76,0s-.49-1.27,0-1.76l2.12-2.12c1.26-1.27,1.26-3.32,0-4.59l-.02-.02c-1.28-1.25-3.32-1.25-4.59,.01l-2.11,2.12h0Zm2.28,.51c.52-.45,1.31-.39,1.76,.13,.41,.47,.41,1.17,0,1.64l-6.06,6.07c-.5,.47-1.29,.45-1.76-.05-.45-.48-.45-1.23,0-1.71l6.07-6.07h0Zm-2.02,8.43c.5-.47,1.29-.45,1.76,.05,.45,.48,.45,1.23,0,1.71l-2.07,2.07c-2.24,2.23-5.85,2.24-8.1,.02l-.05-.05c-2.21-2.25-2.2-5.86,.02-8.1l2.07-2.06c.46-.51,1.24-.56,1.76-.1,.51,.46,.56,1.24,.1,1.76-.03,.03-.06,.07-.1,.1l-2.07,2.07c-1.26,1.27-1.26,3.33,0,4.6h0c1.27,1.26,3.33,1.26,4.6,0l2.07-2.07Z"/>
</svg>