<?xml version="1.0" encoding="UTF-8"?>
<svg id="Layer_1" data-name="Layer 1" xmlns="http://www.w3.org/2000/svg" viewBox="0 0 106.04 77.67">
  <path d="M97.67,0L36.74,60.93,8.37,32.55,0,40.92l36.74,36.74L106.04,8.37,97.67,0ZM17.52,44.83l2.65,2.65-.31,.31-2.65-2.65,.31-.31Zm-10.27,.08l-3.8-3.8,.14-.14s.11-.08,.18-.09l7.89-1.31-3.24-3.24,.31-.31,3.74,3.74-.13,.13c-.05,.05-.13,.09-.2,.1l-7.87,1.3,3.31,3.31-.31,.31Zm2.38,2.38l4.86-4.86-1.83-1.83,.32-.32,4.02,4.02-.32,.32-1.82-1.82-4.86,4.86-.37-.37Zm7.38,2.62l-2.28-2.28,.31-.31,2.28,2.28-.31,.31Zm5.02,2.14c-.18,.19-.4,.34-.64,.44-.23,.09-.48,.14-.72,.14-.26,0-.52-.06-.77-.16-.28-.11-.54-.27-.77-.46,.02,.1,.03,.2,.01,.3l-.46,4.02-.33-.33s-.06-.08-.08-.12c-.01-.05-.02-.1-.01-.15l.44-3.76c.01-.08,0-.17-.02-.25-.04-.1-.11-.18-.19-.25l-.64-.64,.28-.28,.86,.86c.21,.21,.44,.39,.7,.53,.22,.12,.45,.2,.7,.22,.22,.02,.45,0,.66-.08,.22-.09,.42-.22,.59-.39,.34-.29,.51-.74,.46-1.18-.11-.51-.39-.98-.78-1.32l-.91-.91,.3-.3,.91,.91c.51,.44,.86,1.03,.99,1.68,.06,.55-.16,1.09-.57,1.46Zm53.39-16.81l-4.54-4.54,.33-.33,4.26,4.26,2.16-2.16,.28,.28-2.48,2.48Zm6.96-7.2c-.16,.38-.39,.72-.72,1.05s-.67,.56-1.04,.71c-.38,.15-.76,.23-1.15,.21-.39-.01-.79-.11-1.18-.29-.39-.18-.76-.45-1.11-.8s-.61-.72-.79-1.11c-.18-.39-.28-.78-.29-1.18-.01-.39,.06-.78,.21-1.15,.15-.38,.39-.72,.71-1.04s.67-.56,1.05-.72c.38-.16,.76-.23,1.15-.21,.39,.01,.79,.11,1.18,.29,.39,.18,.76,.45,1.11,.8s.62,.72,.8,1.11,.28,.78,.29,1.18c.01,.39-.06,.78-.22,1.15Zm6.82-7.05c-.06,.18-.14,.37-.24,.55-.1,.18-.21,.36-.35,.55-.14,.18-.3,.37-.49,.56-.33,.33-.68,.57-1.06,.73-.38,.16-.77,.24-1.17,.23-.4,0-.79-.1-1.18-.28-.39-.18-.77-.45-1.12-.8s-.62-.72-.8-1.12c-.18-.39-.27-.79-.28-1.19,0-.4,.08-.79,.25-1.19,.17-.39,.43-.76,.78-1.11,.17-.17,.35-.32,.52-.44,.17-.12,.34-.22,.51-.31,.17-.08,.35-.14,.52-.18,.18-.04,.36-.07,.55-.08l.05,.23c.01,.05,0,.09-.03,.13-.02,.02-.04,.03-.07,.04-.04,.02-.12,.04-.23,.05-.11,.01-.24,.05-.39,.1-.16,.05-.33,.14-.53,.25-.2,.12-.41,.28-.63,.51-.3,.3-.52,.61-.66,.94-.14,.33-.21,.67-.2,1.01,0,.34,.09,.69,.25,1.03,.16,.34,.4,.67,.71,.99s.65,.56,1,.73c.35,.16,.69,.25,1.03,.26,.34,.01,.68-.05,1-.19,.33-.14,.63-.35,.91-.63,.16-.16,.29-.31,.4-.45,.11-.14,.21-.29,.29-.43,.08-.14,.14-.29,.2-.43,.05-.15,.1-.3,.14-.46l-1.22-1.22-.87,.87s-.05,.04-.08,.04c-.03,0-.06,0-.08-.03l-.18-.18,1.26-1.26,1.62,1.62c-.03,.19-.08,.38-.14,.57Zm5.67-5.2l-4.54-4.54,.33-.33,4.54,4.54-.33,.33Zm6.25-6.38l-6.9-.99c.07,.06,.13,.12,.19,.17l3.83,3.83-.29,.29-4.54-4.54,.16-.16s.06-.05,.08-.06c.02,0,.06-.01,.1,0l6.88,1c-.07-.06-.14-.12-.2-.18l-3.81-3.81,.29-.29,4.54,4.54-.16,.16s-.11,.07-.18,.05Z"/>
  <path d="M81.17,24.94c-.32-.32-.65-.56-.99-.72-.34-.17-.68-.26-1.01-.27-.34-.02-.66,.04-.98,.17s-.61,.33-.89,.61-.47,.56-.6,.88-.19,.64-.18,.98c.01,.34,.1,.68,.27,1.02,.16,.34,.4,.67,.72,.99,.32,.32,.65,.56,.99,.72,.34,.16,.68,.25,1.02,.27,.34,.01,.66-.04,.98-.18,.32-.13,.61-.33,.88-.6,.27-.27,.48-.57,.61-.89s.19-.64,.18-.98c-.02-.34-.11-.67-.27-1.01-.16-.34-.41-.67-.72-.99Z"/>
</svg>