<?xml version="1.0" encoding="UTF-8"?>
<svg id="Layer_1" data-name="Layer 1" xmlns="http://www.w3.org/2000/svg" viewBox="0 0 73 73">
  <defs>
    <style>
      .cls-1 {
        fill: #fff;
      }

      .cls-2 {
        stroke: #fff;
      }

      .cls-2, .cls-3 {
        fill: none;
      }
    </style>
  </defs>
  <g id="Rectangle_2374" data-name="Rectangle 2374">
    <rect class="cls-3" width="73" height="73" rx="10" ry="10"/>
    <rect class="cls-2" x=".5" y=".5" width="72" height="72" rx="9.5" ry="9.5"/>
  </g>
  <rect class="cls-3" x="19" y="19" width="35" height="35"/>
  <path class="cls-1" d="M53.18,23.09c-.72-1.41-1.87-2.56-3.28-3.28-1.6-.82-3.7-.82-7.9-.82h-11c-4.2,0-6.3,0-7.91,.82-1.41,.72-2.56,1.87-3.28,3.28-.82,1.6-.82,3.7-.82,7.9v11c0,4.2,0,6.3,.82,7.9,.72,1.41,1.87,2.56,3.28,3.28,1.6,.82,3.7,.82,7.9,.82h11c4.2,0,6.3,0,7.9-.82,1.41-.72,2.56-1.87,3.28-3.28,.82-1.6,.82-3.7,.82-7.9v-11c0-4.2,0-6.3-.82-7.9Zm-16.68,22.15h0c-1.11,0-2.22-.14-3.3-.41-1.27,.84-2.7,1.41-4.2,1.66,.77-.73,1.24-1.72,1.34-2.78-3.01-1.48-4.97-4.49-5.09-7.85,0-5.17,5.04-9.38,11.25-9.38s11.25,4.2,11.25,9.37-5.04,9.38-11.25,9.38Z"/>
</svg>