<?xml version="1.0" encoding="UTF-8"?>
<svg id="Layer_1" data-name="Layer 1" xmlns="http://www.w3.org/2000/svg" viewBox="0 0 20 20">
  <defs>
    <style>
      .cls-1 {
        fill: #fff;
      }
    </style>
  </defs>
  <g id="messages">
    <path id="Path_33359" data-name="Path 33359" class="cls-1" d="M0,6.86C0,4.46,0,3.26,.47,2.34,.88,1.53,1.53,.88,2.34,.47c.92-.47,2.12-.47,4.52-.47h6.29c2.4,0,3.6,0,4.52,.47,.81,.41,1.46,1.07,1.87,1.87,.47,.92,.47,2.12,.47,4.52v6.29c0,2.4,0,3.6-.47,4.52-.41,.81-1.07,1.46-1.87,1.87-.92,.47-2.12,.47-4.52,.47H6.86c-2.4,0-3.6,0-4.52-.47-.81-.41-1.46-1.07-1.87-1.87-.47-.92-.47-2.12-.47-4.52V6.86Z"/>
    <path id="Path_33360" data-name="Path 33360" d="M10,15c3.55,0,6.43-2.4,6.43-5.36s-2.88-5.36-6.43-5.36S3.57,6.69,3.57,9.64c.07,1.92,1.19,3.64,2.91,4.48-.05,.6-.32,1.17-.76,1.59,.86-.14,1.68-.47,2.4-.95,.62,.16,1.25,.23,1.89,.23Z"/>
  </g>
</svg>