<?xml version="1.0" encoding="UTF-8"?>
<svg id="Layer_1" data-name="Layer 1" xmlns="http://www.w3.org/2000/svg" viewBox="0 0 30.01 17.52" fill="white">
  <path d="M25.98,9.48c-2.22,0-4.02,1.8-4.02,4.02s1.8,4.02,4.02,4.02,4.02-1.8,4.02-4.02-1.8-4.02-4.02-4.02Z"/>
  <path d="M8.05,13.5c0-2.22-1.8-4.02-4.02-4.02S0,11.28,0,13.5s1.8,4.02,4.02,4.02,4.02-1.8,4.02-4.02Z"/>
  <path d="M19.03,13.5h0c0-2.22-1.8-4.03-4.02-4.03-2.22,0-4.03,1.8-4.03,4.02s1.8,4.03,4.02,4.03,4.03-1.8,4.03-4.02Z"/>
  <path d="M.75,1.67c0-.06,0-.13,0-.2,0-.07-.01-.15-.02-.22l2.2,3.94c.05,.12,.17,.2,.31,.2h.12c.13,0,.25-.08,.31-.2L5.81,1.26c0,.07-.01,.14-.01,.22V6.29h.75V0h-.63c-.06,0-.12,0-.17,.02-.05,.03-.09,.07-.12,.12l-2.13,3.86c-.04,.08-.08,.15-.11,.23-.03,.07-.06,.15-.09,.23-.03-.08-.06-.16-.09-.23-.03-.08-.07-.15-.11-.22L.92,.15c-.02-.05-.07-.1-.12-.12C.75,0,.69,0,.63,0H0V6.28H.75V1.67Z"/>
  <path d="M29.16,0V3.82c0,.25-.04,.49-.11,.72-.07,.21-.18,.4-.33,.57-.14,.16-.32,.29-.52,.37-.22,.09-.46,.14-.7,.13-.24,0-.48-.04-.7-.13-.2-.08-.38-.21-.52-.37-.15-.16-.26-.36-.33-.57-.08-.23-.11-.48-.11-.72V0h-.85V3.83c0,.34,.06,.69,.17,1.01,.11,.3,.28,.57,.5,.8,.22,.23,.49,.41,.78,.53,.33,.13,.69,.2,1.04,.19,.36,0,.71-.06,1.04-.19,.3-.12,.57-.3,.79-.53,.22-.23,.39-.5,.5-.8,.12-.32,.18-.67,.17-1.01V0h-.84Z"/>
  <path d="M17.42,1.81c0-.06,0-.12,0-.19,0-.07,0-.14-.01-.22l3.64,4.73s.08,.09,.14,.12c.05,.02,.11,.04,.17,.03h.43V0h-.75V4.46c0,.07,0,.14,0,.21,0,.07,0,.15,.02,.22L17.41,.15s-.08-.09-.12-.12c-.05-.02-.11-.03-.17-.03h-.44V6.29h.75V1.81Z"/>
  <polygon points="13.7 5.6 10.68 5.6 10.68 3.45 13.12 3.45 13.12 2.78 10.68 2.78 10.68 .7 13.7 .7 13.7 0 9.82 0 9.82 6.29 13.7 6.29 13.7 5.6"/>
</svg>