<svg xmlns="http://www.w3.org/2000/svg" width="20" height="20.033" viewBox="-5185.45 -8579.017 20 20.033"><path d="M-5175.434-8579c-5.517 0-9.99 4.473-9.99 9.99a9.994 9.994 0 0 0 6.348 9.309c-.09-.79-.165-2.007.033-2.87.18-.781 1.167-4.966 1.167-4.966s-.296-.6-.296-1.48c0-1.39.806-2.426 1.81-2.426.854 0 1.266.641 1.266 1.406 0 .855-.543 2.138-.831 3.33-.239.995.502 1.81 1.48 1.81 1.776 0 3.141-1.876 3.141-4.572 0-2.393-1.718-4.063-4.177-4.063-2.845 0-4.514 2.13-4.514 4.334 0 .855.329 1.776.74 2.277.082.1.09.19.066.288-.074.313-.247.995-.28 1.135-.041.18-.148.222-.337.131-1.25-.583-2.03-2.4-2.03-3.873 0-3.149 2.285-6.043 6.602-6.043 3.462 0 6.159 2.467 6.159 5.772 0 3.445-2.171 6.216-5.18 6.216-1.012 0-1.966-.526-2.287-1.15l-.625 2.376c-.222.871-.83 1.957-1.241 2.623.937.288 1.924.444 2.96.444 5.517 0 9.99-4.473 9.99-9.99a9.97 9.97 0 0 0-9.974-10.008Z" fill="#fff" fill-rule="evenodd" data-name="Path 23"/></svg>