<?xml version="1.0" encoding="UTF-8"?>
<svg id="Layer_1" data-name="Layer 1" xmlns="http://www.w3.org/2000/svg" viewBox="0 0 21 21">
  <defs>
    <style>
      .cls-1 {
        stroke-miterlimit: 10;
      }

      .cls-1, .cls-2 {
        fill: none;
        stroke: #ff0;
      }

      .cls-2 {
        stroke-width: .5px;
      }

      #Group_4667{
        fill : #fff
      }
    </style>
  </defs>
  <g id="Group_5875" data-name="Group 5875">
    <g id="Rectangle_938" data-name="Rectangle 938">
      <rect class="cls-1" x=".5" y=".5" width="20" height="20" rx="3" ry="3"/>
      <rect class="cls-2" x=".75" y=".75" width="19.5" height="19.5" rx="2.75" ry="2.75"/>
    </g>
    <g id="Group_4667" data-name="Group 4667">
      <rect id="Rectangle_481" data-name="Rectangle 481" x="11.33" y="17.3" width=".88" height=".88"/>
      <path id="Path_27285" data-name="Path 27285" d="M13.42,18.14v.64h.64v-1.29h-1.28v.64h.64Z"/>
      <path id="Path_27286" data-name="Path 27286" d="M5.71,16.85v-1.29h-1.93v1.93h1.93v-.64Z"/>
      <path id="Path_27287" data-name="Path 27287" d="M9.57,17.5h-1.29v-1.93h-.64v3.21h.64v-.64h1.29v.64h.64v-1.29h.64v-.64h-1.29v.64Z"/>
      <rect id="Rectangle_482" data-name="Rectangle 482" x="9.13" y="16.41" width=".44" height=".44"/>
      <rect id="Rectangle_483" data-name="Rectangle 483" x="9.13" y="15.09" width=".44" height=".44"/>
      <path id="Path_27288" data-name="Path 27288" d="M2.5,14.93v3.85H7v-4.5H2.5v.65Zm3.85,0v3.21H3.14v-3.21h3.21Z"/>
      <path id="Path_27289" data-name="Path 27289" d="M12.14,14.93v-1.29h-1.93v.64h.64v.64h-.64v1.29h.64v-.64h.64v-.64h.64Z"/>
      <rect id="Rectangle_484" data-name="Rectangle 484" x="13.98" y="14.21" width=".88" height=".88"/>
      <path id="Path_27290" data-name="Path 27290" d="M17.27,14.93v.64h.64v-.64h.64v-.64h-1.93v.64h.64Z"/>
      <path id="Path_27291" data-name="Path 27291" d="M8.28,13.64h-.64v1.29h1.29v-.64h-.64v-.64Z"/>
      <rect id="Rectangle_485" data-name="Rectangle 485" x="3.83" y="12.88" width="1.33" height=".88"/>
      <rect id="Rectangle_486" data-name="Rectangle 486" x="6.47" y="12.88" width=".44" height=".88"/>
      <rect id="Rectangle_487" data-name="Rectangle 487" x="16.64" y="12.88" width=".44" height=".88"/>
      <rect id="Rectangle_488" data-name="Rectangle 488" x="5.59" y="12.44" width=".88" height=".44"/>
      <rect id="Rectangle_489" data-name="Rectangle 489" x="6.92" y="12.44" width=".88" height=".44"/>
      <path id="Path_27292" data-name="Path 27292" d="M10.21,12.36h.64v-.64h-1.93v.64h.64v.64h-.64v1.29h.64v-.64h.64v-1.29h0Z"/>
      <rect id="Rectangle_490" data-name="Rectangle 490" x="11.33" y="12.44" width=".88" height=".44"/>
      <rect id="Rectangle_491" data-name="Rectangle 491" x="4.27" y="11.56" width=".88" height=".88"/>
      <rect id="Rectangle_492" data-name="Rectangle 492" x="6.47" y="11.56" width=".44" height=".88"/>
      <rect id="Rectangle_493" data-name="Rectangle 493" x="12.22" y="11.56" width=".44" height=".88"/>
      <rect id="Rectangle_494" data-name="Rectangle 494" x="12.66" y="11.11" width=".88" height=".44"/>
      <path id="Path_27293" data-name="Path 27293" d="M15.99,11.72h-.64v-.64h.64v-1.29h.64v-.64h-1.29v1.29h-.64v-.64h-1.29v-.64h-1.93v-.64h-1.29v.64h.64v.64h-.64v1.29h.64v-.64h.64v-.64h1.29v.64h.64v.64h1.29v1.29h-.64v-.64h-.64v1.29h-1.29v.64h.64v1.93h-1.29v.64h.64v1.29h.64v-1.29h.64v.64h1.29v-.64h.64v.64h.64v.64h-1.28v1.29h3.85v-3.21h-.64v.64h-.64v-.64h-.64v.64h-.64v-.64h.64v-.64h-.64v-.64h.64v-.65h-.64v-1.29h.64v-1.29h-.64v.65Zm1.92,5.14v1.28h-1.29v-.64h.64v-.64h.64Zm-2.57-2.57v1.29h-1.93v-1.93h1.93v.65Z"/>
      <path id="Path_27294" data-name="Path 27294" d="M4.43,10.43h-1.28v.64h-.64v2.57h.64v-1.93h1.28v-1.29Z"/>
      <path id="Path_27295" data-name="Path 27295" d="M7,11.07v-.64h-1.29v-.64h-.64v1.93h1.29v-.64h.64Z"/>
      <path id="Path_27296" data-name="Path 27296" d="M9.57,11.07v-.64h-1.28v.64h-1.29v.64h.64v.64h.64v-.64h.64v-.64h.64Z"/>
      <rect id="Rectangle_495" data-name="Rectangle 495" x="11.33" y="10.23" width=".88" height=".88"/>
      <path id="Path_27297" data-name="Path 27297" d="M3.78,9.15h-.64v-.64h2.57v-.64H2.5v1.93h1.28v-.64Z"/>
      <rect id="Rectangle_496" data-name="Rectangle 496" x="4.27" y="9.35" width=".88" height=".44"/>
      <rect id="Rectangle_497" data-name="Rectangle 497" x="6.47" y="9.35" width="1.77" height=".44"/>
      <path id="Path_27298" data-name="Path 27298" d="M8.92,9.15v.64h.64v-1.29h-.64v.64Z"/>
      <path id="Path_27299" data-name="Path 27299" d="M17.92,8.5v-.64h-.64v1.93h.64v.64h-1.29v.64h.64v1.29h.64v.64h.64v-1.29h-.64v-.64h.64v-1.93h-.64v-.64Z"/>
      <rect id="Rectangle_498" data-name="Rectangle 498" x="13.54" y="8.02" width=".44" height=".44"/>
      <path id="Path_27300" data-name="Path 27300" d="M15.35,7.86h-.64v1.29h.64v-1.29Z"/>
      <rect id="Rectangle_499" data-name="Rectangle 499" x="16.19" y="8.02" width=".44" height=".44"/>
      <path id="Path_27301" data-name="Path 27301" d="M10.21,7.22h-.64v-.64h-.64v.64h-.64v.64h-1.93v.64h2.57v-.64h.64v.64h.64v-1.28Z"/>
      <path id="Path_27302" data-name="Path 27302" d="M12.78,7.86h.64v-1.28h-.64v1.29h0Z"/>
      <path id="Path_27303" data-name="Path 27303" d="M7,6.58V2.72H2.5V7.22H7v-.65Zm-3.85,0V3.36h3.21v3.21H3.15Z"/>
      <path id="Path_27304" data-name="Path 27304" d="M10.21,7.22h.64v-1.28h-1.28v.64h.64v.64Z"/>
      <path id="Path_27305" data-name="Path 27305" d="M8.92,6.58v-1.28h.64v-.64h-1.93v.64h.64v.64h-.64v1.29h.64v-.64h.64Z"/>
      <path id="Path_27306" data-name="Path 27306" d="M11.49,6.58v1.29h.64v-1.29h.64v-.64h-1.28v.64Z"/>
      <path id="Path_27307" data-name="Path 27307" d="M11.49,5.29h1.29v-.64h-.64v-.64h1.29v-1.29h-.64v.64h-1.29v-.64h-1.29v.64h.64v.64h.64v.64h-.64v-.64h-.64v1.28h.64v.64h.64v-.64Z"/>
      <rect id="Rectangle_500" data-name="Rectangle 500" x="12.66" y="5.37" width=".88" height=".44"/>
      <path id="Path_27308" data-name="Path 27308" d="M17.28,5.29v-1.28h-1.93v1.93h1.93v-.64Z"/>
      <path id="Path_27309" data-name="Path 27309" d="M3.78,4.65v1.28h1.93v-1.93h-1.93v.64Z"/>
      <rect id="Rectangle_501" data-name="Rectangle 501" x="7.8" y="3.16" width=".44" height=".88"/>
      <path id="Path_27310" data-name="Path 27310" d="M9.57,3.36v-.64h-.64v1.28h.64v-.64Z"/>
      <path id="Path_27311" data-name="Path 27311" d="M14.06,2.72V7.22h4.5V2.72h-4.5Zm3.85,1.28v2.57h-3.21V3.36h3.21v.64Z"/>
    </g>
  </g>
</svg>