<svg id="Group_5616" data-name="Group 5616" xmlns="http://www.w3.org/2000/svg" width="48.165" height="48.165" viewBox="0 0 48.165 48.165">
  <path id="Path_28137" data-name="Path 28137" d="M118.9,186.21v1.659H117.24v1.662H118.9v-1.66h1.659V186.21Z" transform="translate(-89.005 -141.366)" fill="#fff"/>
  <path id="Path_28138" data-name="Path 28138" d="M18.773,168.841V165.52H13.79V170.5h4.983Z" transform="translate(-10.469 -125.659)" fill="#fff"/>
  <path id="Path_28139" data-name="Path 28139" d="M23.252,76.259h1.659v1.659H23.252ZM8.3,54.669H9.965v1.659h1.659v1.66H9.965v1.661H8.3V57.99H9.963V56.328H8.3ZM3.321,53.007H4.983v1.659H3.321Zm3.324-3.321H8.3v1.659H6.645Zm3.321,1.659v1.662H8.3V51.345Zm0-1.659h1.659v1.659H9.965Zm6.642-8.306v1.661H14.948V44.7H9.965v1.662h3.321v3.321H11.627V48.024H9.965v1.659H8.3V44.7H0v1.662H6.642v3.321H4.983v1.661H0v1.662H1.66v1.662H3.321v1.659H4.983V54.669H6.642v4.98H4.98V57.987H1.66v1.661H0v6.645H1.662V59.649H3.321v3.324H4.983v1.659H6.642v1.662h4.983V64.631H8.3V62.97H6.642V61.31H9.965V59.649h1.659V61.31H9.965v1.662h3.321v1.659h1.662v1.662H13.286v3.321h3.321v1.662h1.662v1.662h1.662V74.6H21.59v1.662H19.931V79.58h1.661V77.92h1.659v1.66h1.662V77.92h1.659V76.259h1.662V72.938H29.9V71.276H28.234v1.659H26.573V74.6H24.913V72.935H19.931V71.276h0V69.614H21.59V67.953H16.607V66.293h1.662V64.631H16.607V62.97H13.286V59.649H11.627V57.99h3.319V56.328H11.627V54.666H9.965V53.007h4.983v1.662H16.61V53.007h1.659V51.345H14.946V49.686h0V46.363h1.659v3.323h1.662V46.363H16.61V44.7h1.659v1.659h1.662V44.7h0v-1.66H18.269V41.38Z" transform="translate(0 -31.415)" fill="#fff"/>
  <path id="Path_28140" data-name="Path 28140" d="M55.17,165.52v8.3h4.983v-4.983H58.491v3.321H56.832v-3.321h1.659V165.52Z" transform="translate(-41.884 -125.659)" fill="#fff"/>
  <rect id="Rectangle_2208" data-name="Rectangle 2208" width="1.662" height="1.662" transform="translate(26.573 38.2)" fill="#fff"/>
  <path id="Path_28141" data-name="Path 28141" d="M1.662,160.026v-6.645h8.3v8.3h-8.3ZM0,151.72v11.627H11.627V151.72Z" transform="translate(0 -115.182)" fill="#fff"/>
  <rect id="Rectangle_2209" data-name="Rectangle 2209" width="1.662" height="1.662" transform="translate(36.538 36.538)" fill="#fff"/>
  <path id="Path_28142" data-name="Path 28142" d="M99.871,146.489H98.209v1.662H96.55v1.662h1.662v-1.662h1.659v-1.659h1.662V144.83H99.871Z" transform="translate(-73.298 -109.951)" fill="#fff"/>
  <rect id="Rectangle_2210" data-name="Rectangle 2210" width="1.662" height="1.662" transform="translate(3.321 33.217)" fill="#fff"/>
  <rect id="Rectangle_2211" data-name="Rectangle 2211" width="3.321" height="1.662" transform="translate(23.252 33.217)" fill="#fff"/>
  <path id="Path_28143" data-name="Path 28143" d="M106.011,76.259h1.659v1.659h-1.659Zm-1.661-4.983V69.614h3.321v1.662h-1.66v1.659H104.35Zm-8.3-3.323H94.385V66.293h1.662Zm1.659,1.661V67.955h0V66.293h4.981v4.983H97.706ZM96.046,41.38V44.7h1.659v1.659H94.385V44.7H91.064V41.38H89.4v4.983H82.76v1.662h1.659v1.659H82.76v3.323h1.661V51.345h1.66V49.686H87.74v1.659H86.081v1.662H87.74v1.662h8.306v1.659h1.661V54.669h3.321V57.99h1.662V56.328h4.98v1.66H104.35v1.661h1.661v3.324h1.66v1.659h-1.66v1.662H104.35V64.631H97.708V62.97H96.046v1.661H94.385v1.662h-1.66V64.631H91.064v1.662h1.659v1.662h1.662v3.321h1.662V74.6H94.385v1.662h1.662V77.92h1.659v1.66h1.662V77.918h-1.66V76.259h0V74.6h0V72.938h6.642V74.6H99.367v1.662h4.983V79.58h3.321V77.92h1.662V74.6h1.661V72.935h-1.661V69.614h-1.662V67.955h3.321V66.293h0V64.631h-1.661V62.97h-1.659V59.649h0V57.99h1.662V56.328h-1.659V54.666H104.35V53.007H97.708V51.345h0V49.684H94.385v1.661h1.662v1.662H89.4V49.686h1.662V48.024H89.4V46.363h1.659v1.662h8.3v1.662h1.661v1.659h1.662V49.684h0V48.024h1.662V46.363h-1.659V44.7h-1.662v1.662H99.367V44.7h-1.66V41.38Z" transform="translate(-62.829 -31.415)" fill="#fff"/>
  <path id="Path_28144" data-name="Path 28144" d="M91.064,120.561V118.9H89.4V117.24H82.76V118.9h1.659v1.659H82.76v3.323h1.662v-1.662h1.659v-1.659H89.4v1.659h1.662v-1.662Z" transform="translate(-62.829 -89.006)" fill="#fff"/>
  <rect id="Rectangle_2212" data-name="Rectangle 2212" width="1.661" height="1.662" transform="translate(46.503 28.234)" fill="#fff"/>
  <rect id="Rectangle_2213" data-name="Rectangle 2213" width="1.662" height="1.662" transform="translate(14.948 26.573)" fill="#fff"/>
  <path id="Path_28145" data-name="Path 28145" d="M116.984,105.109h-1.662v1.662h-1.659v-1.662H112V103.45H110.34v1.662H112v1.659h1.659v1.662h8.306v1.662h3.321v-3.323h-8.3Z" transform="translate(-83.767 -78.537)" fill="#fff"/>
  <path id="Path_28146" data-name="Path 28146" d="M77.522,99.871V98.212h1.659V96.55H75.86v4.983h1.662V99.871Z" transform="translate(-57.591 -73.298)" fill="#fff"/>
  <rect id="Rectangle_2214" data-name="Rectangle 2214" width="1.662" height="1.662" transform="translate(23.252 24.913)" fill="#fff"/>
  <rect id="Rectangle_2215" data-name="Rectangle 2215" width="1.661" height="1.662" transform="translate(46.503 21.592)" fill="#fff"/>
  <path id="Path_28147" data-name="Path 28147" d="M175.731,77.522h-1.659V75.86H172.41v3.323h3.321Z" transform="translate(-130.889 -57.591)" fill="#fff"/>
  <rect id="Rectangle_2216" data-name="Rectangle 2216" width="1.662" height="1.662" transform="translate(44.842 18.269)" fill="#fff"/>
  <rect id="Rectangle_2217" data-name="Rectangle 2217" width="3.321" height="1.662" transform="translate(1.659 16.61)" fill="#fff"/>
  <rect id="Rectangle_2218" data-name="Rectangle 2218" width="1.661" height="1.661" transform="translate(46.503 14.948)" fill="#fff"/>
  <rect id="Rectangle_2219" data-name="Rectangle 2219" width="1.662" height="1.662" transform="translate(41.521 13.286)" fill="#fff"/>
  <rect id="Rectangle_2220" data-name="Rectangle 2220" width="1.662" height="1.662" transform="translate(44.842 13.286)" fill="#fff"/>
  <rect id="Rectangle_2221" data-name="Rectangle 2221" width="11.627" height="1.661" transform="translate(0 9.966)" fill="#fff"/>
  <rect id="Rectangle_2222" data-name="Rectangle 2222" width="1.662" height="1.662" transform="translate(13.286 9.965)" fill="#fff"/>
  <rect id="Rectangle_2223" data-name="Rectangle 2223" width="1.662" height="1.662" transform="translate(19.931 9.965)" fill="#fff"/>
  <path id="Path_28148" data-name="Path 28148" d="M96.55,43.042V44.7h1.662V41.38H96.55Z" transform="translate(-73.298 -31.415)" fill="#fff"/>
  <rect id="Rectangle_2224" data-name="Rectangle 2224" width="1.662" height="1.662" transform="translate(29.894 9.965)" fill="#fff"/>
  <rect id="Rectangle_2225" data-name="Rectangle 2225" width="11.627" height="1.661" transform="translate(36.538 9.966)" fill="#fff"/>
  <path id="Path_28149" data-name="Path 28149" d="M0,20.69v4.983H1.662V20.69Z" transform="translate(0 -15.708)" fill="#fff"/>
  <path id="Path_28150" data-name="Path 28150" d="M58.491,24.014h0V22.352h1.659V20.69H55.17v1.662h1.662v1.659H55.17v1.662h3.321Z" transform="translate(-41.884 -15.707)" fill="#fff"/>
  <rect id="Rectangle_2226" data-name="Rectangle 2226" width="3.321" height="1.662" transform="translate(18.269 8.304)" fill="#fff"/>
  <rect id="Rectangle_2227" data-name="Rectangle 2227" width="1.662" height="1.662" transform="translate(33.217 8.304)" fill="#fff"/>
  <path id="Path_28151" data-name="Path 28151" d="M153.382,24.014V20.69H151.72v4.983h1.662Z" transform="translate(-115.182 -15.707)" fill="#fff"/>
  <path id="Path_28152" data-name="Path 28152" d="M106.513,22.352h0V20.69h-1.662v1.662H99.871V20.69H96.55v1.662h1.659v1.662h8.3Z" transform="translate(-73.298 -15.707)" fill="#fff"/>
  <path id="Path_28153" data-name="Path 28153" d="M13.79,22.352v1.662h4.983V20.69H13.79Z" transform="translate(-10.469 -15.707)" fill="#fff"/>
  <path id="Path_28154" data-name="Path 28154" d="M41.38,22.352v3.321h1.662V20.69H41.38Z" transform="translate(-31.415 -15.707)" fill="#fff"/>
  <rect id="Rectangle_2228" data-name="Rectangle 2228" width="1.662" height="1.662" transform="translate(19.931 4.983)" fill="#fff"/>
  <path id="Path_28155" data-name="Path 28155" d="M165.51,22.352v1.662h4.983V20.69H165.51Z" transform="translate(-125.651 -15.707)" fill="#fff"/>
  <path id="Path_28156" data-name="Path 28156" d="M193.1,20.69v4.983h1.661V20.69Z" transform="translate(-146.597 -15.708)" fill="#fff"/>
  <path id="Path_28157" data-name="Path 28157" d="M0,0V4.983H1.662V1.662h8.3V4.983h1.662V0Z" transform="translate(0 0)" fill="#fff"/>
  <rect id="Rectangle_2229" data-name="Rectangle 2229" width="4.983" height="1.662" transform="translate(3.321 3.321)" fill="#fff"/>
  <path id="Path_28158" data-name="Path 28158" d="M96.047,0V3.321H94.385V1.662h-1.66V0H91.064V1.662H89.4V0H82.76V1.662H84.42v1.66H82.76V4.983h3.321V3.324H87.74V4.983H89.4V3.324h3.321V4.983h4.983V3.324h0V0Z" transform="translate(-62.83 0)" fill="#fff"/>
  <rect id="Rectangle_2230" data-name="Rectangle 2230" width="4.983" height="1.662" transform="translate(39.859 3.321)" fill="#fff"/>
  <rect id="Rectangle_2231" data-name="Rectangle 2231" width="1.662" height="1.662" transform="translate(13.286 1.662)" fill="#fff"/>
  <path id="Path_28159" data-name="Path 28159" d="M68.96,0V3.324h1.662V0Z" transform="translate(-52.353 0)" fill="#fff"/>
  <path id="Path_28160" data-name="Path 28160" d="M151.72,0V4.983h1.661V1.662h8.3V4.983h1.662V0Z" transform="translate(-115.182 0)" fill="#fff"/>
</svg>
