<svg xmlns="http://www.w3.org/2000/svg" width="73.433" height="73.433" viewBox="1189.783 640.35 73.433 73.433"><g data-name="Group 6342"><path d="M1200.363 641.072h52.274a9.863 9.863 0 0 1 9.863 9.863v52.274a9.863 9.863 0 0 1-9.863 9.863h-52.274a9.863 9.863 0 0 1-9.863-9.863v-52.274a9.863 9.863 0 0 1 9.863-9.863z" stroke-linejoin="round" stroke-linecap="round" stroke="#fff" fill="transparent" data-name="Rectangle 2371" stroke-width=".9863"/><g data-name="Group 5616"><path d="M1233.136 700.78v1.894h-1.895v1.898h1.897v-1.895h1.895v-1.897h-1.897Z" fill="#fff" fill-rule="evenodd" data-name="Path 28137"/><path d="M1208.482 698.882v-3.792h-5.69V700.78h5.69v-1.898Z" fill="#fff" fill-rule="evenodd" data-name="Path 28138"/><path d="M1225.551 700.78h1.895v1.894h-1.895v-1.894Zm-17.069-24.654h1.898v1.895h1.894v1.895h-1.894v1.897h-1.898v-1.895h1.895v-1.897h-1.895v-1.895Zm-5.69-1.897h1.898v1.894h-1.898v-1.894Zm3.796-3.793h1.894v1.895h-1.894v-1.895Zm3.792 1.895v1.898h-1.898v-1.898h1.898Zm0-1.895h1.894v1.895h-1.894v-1.895Zm7.584-9.484v1.897h-1.895v1.895h-5.69v1.897h3.793v3.793h-1.895v-1.895h-1.897v1.895h-1.898v-5.69H1199v1.897h7.585v3.793h-1.895v1.897H1199v1.898h1.895v1.897h1.897v1.895h1.898v-1.895h1.895V681.813h-1.898v-1.897h-3.792v1.897H1199v7.587h1.898v-7.587h1.894v3.795h1.898v1.895h1.895v1.897h5.69v-1.897h-3.793v-1.898h-1.897v-1.895h3.795v-1.897h1.894v1.897h-1.894v1.898h3.792v1.895h1.897v1.897h-1.897v3.792h3.792v1.898h1.898v1.898h1.897v1.894h1.895v1.898h-1.895v3.792h1.898v-1.895h1.894v1.895h1.898v-1.895h1.895v-1.897h1.897v-3.792h1.898v-1.898h-1.898v1.895h-1.897v1.897h-1.895v-1.897h-5.69v-1.895h-.003v-1.898h1.898v-1.897h-5.69V689.4h1.898v-1.897h-1.898v-1.898h-3.792v-3.792h-1.895v-1.895h3.79v-1.897h-3.79v-1.898h-1.897v-1.894h5.69v1.897h1.897v-1.897h1.895v-1.898h-3.795v-1.895h.002v-3.795h1.895v3.795h1.898v-3.795h-1.895v-1.894h1.895v1.894h1.897v-3.792h-1.897v-1.897h-1.898Z" fill="#fff" fill-rule="evenodd" data-name="Path 28139"/><path d="M1214.172 695.09V704.572h5.69v-5.689h-1.898v3.792h-1.895v-3.792h1.895v-3.793h-3.792Z" fill="#fff" fill-rule="evenodd" data-name="Path 28140"/><path d="M1229.344 693.193h1.897v1.897h-1.897v-1.897z" fill="#fff" fill-rule="evenodd" data-name="Rectangle 2208"/><path d="M1200.898 700.78V693.192h9.482v9.482h-9.482v-1.894Zm-1.898-9.485v13.277h13.277v-13.277H1199Z" fill="#fff" fill-rule="evenodd" data-name="Path 28141"/><path d="M1240.723 691.295h1.898v1.898h-1.898v-1.898z" fill="#fff" fill-rule="evenodd" data-name="Rectangle 2209"/><path d="M1229.344 691.295h-1.898v1.898h-1.895v1.897h1.898v-1.897h1.895v-1.895h1.897V689.4h-1.897v1.895Z" fill="#fff" fill-rule="evenodd" data-name="Path 28142"/><path d="M1202.792 687.503h1.898v1.897h-1.898v-1.897z" fill="#fff" fill-rule="evenodd" data-name="Rectangle 2210"/><path d="M1225.551 687.503h3.793v1.897h-3.793v-1.897z" fill="#fff" fill-rule="evenodd" data-name="Rectangle 2211"/><path d="M1248.31 700.78h1.895v1.894h-1.895v-1.894Zm-1.897-5.69v-1.898h3.792v1.898h-1.895v1.895h-1.897v-1.895Zm-9.482-3.795h-1.898V689.4h1.898v1.895Zm1.895 1.897v-1.894h.002V689.4h5.687V695.09h-5.69v-1.898Zm-1.895-32.24v3.795h1.895v1.894h-3.793v-1.897h-3.792v-3.792h-1.897v5.689h-7.585v1.898h1.895v1.895h-1.895v3.795h1.897v-1.898h1.895v-1.895h1.895v1.895h-1.895v1.898h1.895v1.897h9.485v1.895h1.897v-1.895h3.792v3.792h1.898v-1.897h5.687v1.895h-3.792v1.897h1.897v3.795h1.895v1.895h-1.895v1.897h-1.897v-1.897h-7.585v-1.898h-1.897v1.898h-1.898v1.897h-1.895v-1.897h-1.897v1.897h1.894v1.898h1.898v3.792h1.898v3.792h-1.898v1.898h1.898v1.897h1.895v1.895h1.897v-1.898h-1.895v-1.894h-.002v-1.898h.002v-1.894h7.585v1.894h-5.69v1.898h5.69v3.792h3.792v-1.895h1.898v-3.795H1254v-1.897h-1.897v-3.793h-1.898v-1.894h3.792V689.4h.003v-1.897h-1.897v-1.898h-1.895v-3.792h-.003v-1.895h1.898v-1.897h-1.895v-1.898h-3.795v-1.894h-7.585v-1.898h-.002v-1.897h-3.793v1.897h1.898v1.898h-7.587v-3.793h1.897v-1.897h-1.895v-1.898h1.895v1.898h9.482v1.897h1.897v1.895h1.898v-1.897h-.003v-1.895h1.898v-1.898h-1.895v-1.897h-1.898v1.897h-1.897v-1.897h-1.895v-3.792h-1.897Z" fill="#fff" fill-rule="evenodd" data-name="Path 28143"/><path d="M1231.241 685.605v-1.894h-1.895v-1.898h-7.587v1.898h1.895v1.894h-1.895v3.795h1.898v-1.897h1.894v-1.895h3.793v1.895h1.897v-1.898Z" fill="#fff" fill-rule="evenodd" data-name="Path 28144"/><path d="M1252.103 681.813H1254v1.898h-1.897v-1.898z" fill="#fff" fill-rule="evenodd" data-name="Rectangle 2212"/><path d="M1216.07 679.916h1.897v1.897h-1.898v-1.897z" fill="#fff" fill-rule="evenodd" data-name="Rectangle 2213"/><path d="M1236.93 679.916h-1.897v1.897h-1.895v-1.897h-1.897v-1.895h-1.898v1.897h1.898v1.895h1.895v1.898h9.484v1.897h3.793v-3.795h-9.482v-1.897Z" fill="#fff" fill-rule="evenodd" data-name="Path 28145"/><path d="M1221.759 679.916v-1.895h1.895v-1.898h-3.792V681.813h1.897v-1.897Z" fill="#fff" fill-rule="evenodd" data-name="Path 28146"/><path d="M1225.551 678.021h1.898v1.897h-1.898v-1.897z" fill="#fff" fill-rule="evenodd" data-name="Rectangle 2214"/><path d="M1252.103 674.229H1254v1.897h-1.897v-1.897z" fill="#fff" fill-rule="evenodd" data-name="Rectangle 2215"/><path d="M1250.205 672.331h-1.895v-1.897h-1.897v3.795h3.792v-1.898Z" fill="#fff" fill-rule="evenodd" data-name="Path 28147"/><path d="M1250.205 670.434h1.898v1.897h-1.898v-1.897z" fill="#fff" fill-rule="evenodd" data-name="Rectangle 2216"/><path d="M1200.895 668.539h3.792v1.897h-3.792v-1.897z" fill="#fff" fill-rule="evenodd" data-name="Rectangle 2217"/><path d="M1252.103 666.642H1254v1.897h-1.897v-1.897z" fill="#fff" fill-rule="evenodd" data-name="Rectangle 2218"/><path d="M1246.413 664.744h1.897v1.897h-1.897v-1.897z" fill="#fff" fill-rule="evenodd" data-name="Rectangle 2219"/><path d="M1250.205 664.744h1.898v1.897h-1.898v-1.897z" fill="#fff" fill-rule="evenodd" data-name="Rectangle 2220"/><path d="M1199 660.952h13.277v1.897H1199v-1.897z" fill="#fff" fill-rule="evenodd" data-name="Rectangle 2221"/><path d="M1214.172 660.952h1.897v1.897h-1.897v-1.897z" fill="#fff" fill-rule="evenodd" data-name="Rectangle 2222"/><path d="M1221.759 660.952h1.898v1.897h-1.898v-1.897z" fill="#fff" fill-rule="evenodd" data-name="Rectangle 2223"/><path d="M1225.551 662.85v1.897h1.898v-3.795h-1.898v1.897Z" fill="#fff" fill-rule="evenodd" data-name="Path 28148"/><path d="M1233.136 660.952h1.897v1.897h-1.897v-1.897z" fill="#fff" fill-rule="evenodd" data-name="Rectangle 2224"/><path d="M1240.723 660.952H1254v1.897h-13.277v-1.897z" fill="#fff" fill-rule="evenodd" data-name="Rectangle 2225"/><path d="M1199 655.262V660.952h1.898v-5.69H1199Z" fill="#fff" fill-rule="evenodd" data-name="Path 28149"/><path d="M1217.964 659.057h.003v-1.898h1.894v-1.897h-5.69v1.897h1.898v1.895h-1.897v1.898h3.792v-1.895Z" fill="#fff" fill-rule="evenodd" data-name="Path 28150"/><path d="M1219.862 659.054h3.792v1.898h-3.792v-1.898z" fill="#fff" fill-rule="evenodd" data-name="Rectangle 2226"/><path d="M1236.93 659.054h1.898v1.898h-1.897v-1.898z" fill="#fff" fill-rule="evenodd" data-name="Rectangle 2227"/><path d="M1242.62 659.057v-3.795h-1.897V660.952h1.898v-1.895Z" fill="#fff" fill-rule="evenodd" data-name="Path 28151"/><path d="M1236.928 657.16h.003v-1.898h-1.898v1.897h-5.69v-1.897h-3.792v1.897h1.895v1.898h9.482v-1.898Z" fill="#fff" fill-rule="evenodd" data-name="Path 28152"/><path d="M1202.792 657.16v1.897h5.69v-3.795h-5.69v1.897Z" fill="#fff" fill-rule="evenodd" data-name="Path 28153"/><path d="M1210.38 657.16v3.792h1.897v-5.69h-1.898v1.897Z" fill="#fff" fill-rule="evenodd" data-name="Path 28154"/><path d="M1221.759 655.262h1.898v1.897h-1.898v-1.897z" fill="#fff" fill-rule="evenodd" data-name="Rectangle 2228"/><path d="M1244.515 657.16v1.897h5.69v-3.795h-5.69v1.897Z" fill="#fff" fill-rule="evenodd" data-name="Path 28155"/><path d="M1252.103 655.262V660.952H1254v-5.69h-1.897Z" fill="#fff" fill-rule="evenodd" data-name="Path 28156"/><path d="M1199 649.572V655.262h1.898v-3.793h9.482v3.793h1.897v-5.69H1199Z" fill="#fff" fill-rule="evenodd" data-name="Path 28157"/><path d="M1202.792 653.364h5.69v1.898h-5.69v-1.898z" fill="#fff" fill-rule="evenodd" data-name="Rectangle 2229"/><path d="M1236.93 649.572v3.793h-1.897v-1.896h-1.895v-1.897h-1.897v1.897h-1.895v-1.897h-7.587v1.897h1.895v1.896h-1.895v1.897h3.792v-1.895h1.895v1.895h1.898v-1.895h3.792v1.895h5.69v-1.895h.002v-3.795h-1.897Z" fill="#fff" fill-rule="evenodd" data-name="Path 28158"/><path d="M1244.515 653.364h5.69v1.898h-5.69v-1.898z" fill="#fff" fill-rule="evenodd" data-name="Rectangle 2230"/><path d="M1214.172 651.47h1.897v1.897h-1.897v-1.897z" fill="#fff" fill-rule="evenodd" data-name="Rectangle 2231"/><path d="M1217.964 649.572v3.795h1.897v-3.795h-1.897Z" fill="#fff" fill-rule="evenodd" data-name="Path 28159"/><path d="M1240.723 649.572V655.262h1.897v-3.793h9.483v3.793H1254v-5.69h-13.277Z" fill="#fff" fill-rule="evenodd" data-name="Path 28160"/></g></g></svg>