<svg id="Group_7857" data-name="Group 7857" xmlns="http://www.w3.org/2000/svg" xmlns:xlink="http://www.w3.org/1999/xlink" width="51.62" height="60" viewBox="0 0 51.62 60">
  <defs>
    <clipPath id="clip-path">
      <rect id="Rectangle_2764" data-name="Rectangle 2764" width="51.62" height="60" fill="none"/>
    </clipPath>
  </defs>
  <g id="Group_7856" data-name="Group 7856" clip-path="url(#clip-path)">
    <path id="Path_36840" data-name="Path 36840" d="M40.167,27.809q-.387-.186-.787-.357c-.463-8.533-5.126-13.419-12.955-13.469h-.106a12.653,12.653,0,0,0-10.975,5.637l4.306,2.954a7.633,7.633,0,0,1,6.671-3.3h.072c2.578.017,4.523.766,5.782,2.228A8.78,8.78,0,0,1,34.007,25.9a32.941,32.941,0,0,0-7.4-.357c-7.444.429-12.229,4.77-11.908,10.8a9.3,9.3,0,0,0,4.293,7.412,13.248,13.248,0,0,0,7.987,2,11.794,11.794,0,0,0,9.077-4.415,16.342,16.342,0,0,0,3.093-8.1,9.56,9.56,0,0,1,3.99,4.364A10.9,10.9,0,0,1,40.468,49.6c-3.537,3.534-7.789,5.063-14.215,5.11-7.128-.053-12.519-2.339-16.023-6.794C6.948,43.739,5.251,37.713,5.188,30c.063-7.713,1.759-13.739,5.042-17.912,3.5-4.456,8.9-6.742,16.023-6.794,7.18.053,12.664,2.35,16.3,6.827A22.2,22.2,0,0,1,46.573,20.3l5.046-1.346A27.311,27.311,0,0,0,46.551,8.742C41.885,3,35.062.061,26.271,0h-.035C17.462.061,10.716,3.013,6.183,8.775,2.15,13.9.069,21.036,0,29.979v.042c.07,8.943,2.151,16.077,6.184,21.2C10.716,56.987,17.462,59.939,26.236,60h.035c7.8-.054,13.3-2.1,17.828-6.622a16.234,16.234,0,0,0,3.794-17.9,15.33,15.33,0,0,0-7.726-7.673M26.7,40.471c-3.263.184-6.652-1.281-6.819-4.417-.124-2.326,1.655-4.921,7.019-5.23q.921-.053,1.809-.053a25.5,25.5,0,0,1,5.428.552c-.618,7.719-4.244,8.973-7.438,9.148" transform="translate(0.001)" fill="#000"/>
  </g>
</svg>
