<?xml version="1.0" encoding="UTF-8"?>
<svg id="Layer_1" data-name="Layer 1" xmlns="http://www.w3.org/2000/svg" viewBox="0 0 702.07 514.2">
  <defs>
    <style>
      .cls-1 {
        fill: #fff;
      }

      .cls-2 {
        fill: none;
      }
    </style>
  </defs>
  <path class="cls-2" d="M416.15,285.89c-2.33-2.39-5.08-4.33-8.11-5.73-2.76-1.27-5.76-1.97-8.8-2.06-3.01-.06-6,.51-8.78,1.69-6.03,2.65-10.84,7.47-13.49,13.49-1.17,2.77-1.74,5.76-1.67,8.77,.09,3.04,.79,6.04,2.06,8.8,1.4,3.03,3.34,5.78,5.72,8.11,2.33,2.39,5.08,4.33,8.11,5.72,2.76,1.27,5.75,1.97,8.79,2.05,3,.06,5.98-.52,8.74-1.7,6.01-2.67,10.82-7.48,13.49-13.49,1.18-2.77,1.76-5.75,1.71-8.76-.08-3.04-.78-6.03-2.05-8.79-1.4-3.03-3.34-5.78-5.72-8.11Zm.64,23.91c-1.96,4.36-5.45,7.85-9.81,9.81-2.01,.85-4.18,1.25-6.35,1.16-2.28-.12-4.51-.72-6.54-1.74-2.37-1.2-4.53-2.79-6.38-4.69-1.91-1.86-3.5-4.01-4.7-6.39-1.03-2.04-1.63-4.27-1.76-6.55-.09-2.18,.3-4.35,1.15-6.37,1.94-4.37,5.43-7.87,9.81-9.81,2.01-.85,4.18-1.24,6.36-1.14,2.28,.13,4.51,.73,6.54,1.77,2.38,1.2,4.53,2.79,6.39,4.7,1.91,1.85,3.49,4.01,4.69,6.38,1.03,2.03,1.62,4.26,1.76,6.53,.1,2.17-.29,4.34-1.15,6.35Z"/>
  <path class="cls-2" d="M371.8,330.24c-2.31-2.37-5.04-4.29-8.05-5.67-2.73-1.24-5.68-1.89-8.67-1.93-2.97-.01-5.92,.6-8.64,1.8-2.97,1.33-5.67,3.21-7.94,5.54l-12.55,12.55,33.54,33.54,12.55-12.55c2.33-2.27,4.21-4.97,5.54-7.94,1.2-2.72,1.82-5.65,1.81-8.63-.03-2.99-.68-5.94-1.92-8.66-1.37-3.01-3.29-5.74-5.67-8.05Zm.56,23.83c-.95,2.17-2.31,4.13-4,5.78l-7.98,7.98-26.19-26.19,7.98-7.98c1.65-1.7,3.61-3.05,5.78-4,1.99-.86,4.15-1.26,6.32-1.17,2.27,.12,4.48,.71,6.51,1.73,2.37,1.19,4.52,2.78,6.37,4.68,1.9,1.85,3.49,4,4.68,6.36,1.02,2.02,1.6,4.23,1.72,6.49,.08,2.17-.32,4.32-1.18,6.31Z"/>
  <path class="cls-2" d="M143.01,323.8l-6.02-6.02-1.96,1.96,6.02,6.02c3.05,3.05,4.79,5.97,5.21,8.74,.42,2.78-.59,5.38-3.03,7.82-1.09,1.13-2.41,2-3.87,2.57-1.39,.52-2.88,.7-4.35,.54-1.62-.19-3.19-.7-4.61-1.49-1.71-.95-3.26-2.14-4.63-3.54l-5.71-5.71-1.84,1.84,4.23,4.23c.53,.47,.95,1.04,1.25,1.68,.17,.53,.22,1.09,.13,1.63l-2.93,24.87c-.05,.34-.03,.69,.06,1.03,.11,.31,.29,.58,.52,.81l2.16,2.16,3.02-26.61c.1-.67,.07-1.35-.07-2.01,1.53,1.26,3.24,2.28,5.07,3.02,1.62,.65,3.33,1.01,5.07,1.05,1.64,.04,3.28-.27,4.79-.9,1.6-.68,3.05-1.66,4.26-2.91,2.96-2.96,4.22-6.17,3.79-9.65-.43-3.48-2.62-7.19-6.57-11.15Z"/>
  <path class="cls-2" d="M452.34,216.13c-.37,.35-.61,.82-.67,1.32-.06,.44,.01,.89,.22,1.28l16.36,30.27c.3,.56,.64,1.1,1.01,1.62,.39,.55,.8,1.12,1.22,1.73-1.13-.75-2.31-1.43-3.53-2.04l-31.15-15.47c-.41-.2-.87-.28-1.32-.22-.5,.07-.96,.32-1.3,.69l-1.31,1.31c-.37,.35-.6,.83-.66,1.33-.06,.44,0,.88,.19,1.29l15.43,31.2c.29,.59,.61,1.16,.97,1.72,.38,.6,.78,1.22,1.21,1.86-.62-.44-1.23-.85-1.81-1.23-.59-.38-1.15-.72-1.7-1.02l-30.24-16.38c-.4-.22-.86-.3-1.31-.23-.5,.08-.96,.33-1.31,.7l-3.77,3.77,44,23.08,4.07-4.07-17.04-34.13c-.16-.31-.34-.65-.56-1.01-.22-.36-.45-.73-.68-1.12,.69,.45,1.41,.86,2.15,1.22l34.08,17.09,4.07-4.07-23.08-44.01-3.54,3.54Z"/>
  <path class="cls-2" d="M80.25,264.71c.5-.07,.96-.3,1.33-.65l.85-.85-24.75-24.75-2.06,2.06,21.46,21.46-52.24,8.65c-.44,.07-.85,.27-1.16,.58l-.89,.89,25.19,25.19,2.06-2.06-21.89-21.89,52.12-8.62Z"/>
  <path class="cls-2" d="M490.54,177.93l23.76,23.76c.36,.36,.74,.72,1.13,1.09,.4,.37,.82,.73,1.28,1.09l-44.71-5.85c-.43-.07-.87-.05-1.29,.05-.4,.17-.76,.42-1.05,.75l-2.34,2.34,33.54,33.54,3.98-3.98-23.9-23.9c-.31-.31-.66-.65-1.05-1.01s-.8-.72-1.22-1.08l44.66,5.85c.45,.07,.91,.04,1.35-.08,.41-.15,.79-.39,1.09-.71l2.29-2.29-33.54-33.54-3.98,3.98Z"/>
  <rect class="cls-2" x="104.59" y="311.14" width="2.91" height="21.38" transform="translate(-196.51 169.24) rotate(-45)"/>
  <rect class="cls-2" x="122.27" y="294.17" width="2.91" height="24.81" transform="translate(-180.54 177.28) rotate(-45)"/>
  <polygon class="cls-2" points="110.4 295.41 112.51 293.3 85.89 266.68 83.79 268.79 95.9 280.9 63.74 313.06 66.21 315.53 98.37 283.37 110.4 295.41"/>
  <path class="cls-2" d="M591.92,76.56l20.13,46.95,3.51-3.51c.37-.34,.6-.81,.66-1.31,.05-.45-.01-.9-.19-1.31l-4.96-11.24,15.05-15.05,11.24,4.96c.42,.18,.88,.26,1.33,.21,.5-.07,.95-.31,1.29-.68l3.51-3.51-46.95-20.13-4.61,4.61Zm10.74,4.14l18.91,8.38-12.52,12.52-8.36-18.89c-.25-.56-.56-1.19-.93-1.89s-.8-1.46-1.26-2.27c1.34,.81,2.73,1.53,4.17,2.15Z"/>
  <polygon class="cls-2" points="544 183.93 514.28 154.2 509.73 158.74 543.28 192.29 562.33 173.23 558.51 169.41 544 183.93"/>
  <path class="cls-2" d="M672.72,43.04c-1.37-3.01-3.29-5.74-5.67-8.05h0c-2.31-2.37-5.04-4.29-8.05-5.67-2.73-1.24-5.68-1.89-8.67-1.93-2.97-.01-5.92,.6-8.64,1.8-2.98,1.33-5.67,3.21-7.94,5.54l-12.55,12.55,33.54,33.54,12.55-12.55c2.33-2.27,4.21-4.97,5.54-7.94,1.2-2.72,1.82-5.65,1.81-8.63-.03-2.99-.68-5.94-1.92-8.66Zm-5.1,15.77c-.95,2.17-2.31,4.13-4,5.78l-7.98,7.98-26.19-26.19,7.98-7.98c1.65-1.69,3.61-3.05,5.78-4,1.99-.86,4.15-1.26,6.32-1.17,2.27,.12,4.48,.71,6.51,1.73,2.37,1.19,4.52,2.78,6.37,4.68h0c1.91,1.85,3.49,4,4.69,6.36,1.02,2.02,1.6,4.23,1.72,6.49,.08,2.17-.32,4.32-1.18,6.31Z"/>
  <path class="cls-2" d="M586.88,115.16c-2.33-2.39-5.08-4.33-8.11-5.72-2.76-1.27-5.76-1.97-8.8-2.06-3.01-.06-6,.51-8.78,1.69-6.03,2.65-10.84,7.47-13.49,13.49-1.17,2.77-1.74,5.76-1.67,8.77,.09,3.04,.79,6.04,2.06,8.8,1.4,3.03,3.34,5.78,5.72,8.11,2.33,2.39,5.08,4.33,8.11,5.72,2.76,1.27,5.75,1.97,8.79,2.05,3,.06,5.98-.52,8.74-1.7,6.01-2.67,10.82-7.48,13.49-13.49,1.18-2.77,1.76-5.75,1.71-8.76-.08-3.04-.78-6.03-2.05-8.79-1.4-3.03-3.34-5.78-5.72-8.11Zm.64,23.91c-1.96,4.36-5.45,7.85-9.81,9.81-2.01,.85-4.18,1.25-6.35,1.16-2.28-.12-4.51-.72-6.54-1.74-2.37-1.2-4.53-2.79-6.38-4.69-1.91-1.86-3.5-4.01-4.7-6.39-1.03-2.04-1.63-4.27-1.76-6.55-.09-2.18,.3-4.35,1.15-6.37,1.94-4.37,5.43-7.87,9.81-9.81,2.01-.85,4.18-1.24,6.36-1.14,2.28,.13,4.51,.73,6.54,1.77,2.38,1.2,4.53,2.79,6.39,4.7h0c1.91,1.85,3.5,4.01,4.7,6.38,1.03,2.03,1.62,4.26,1.76,6.53,.1,2.17-.29,4.34-1.15,6.35Z"/>
  <path class="cls-1" d="M600.69,82.71l8.36,18.89,12.52-12.52-18.91-8.38c-1.43-.63-2.83-1.35-4.17-2.15,.47,.81,.89,1.57,1.26,2.27s.69,1.33,.93,1.89Z"/>
  <path class="cls-1" d="M411.49,290.54c-1.86-1.91-4.01-3.5-6.39-4.7-2.04-1.03-4.26-1.63-6.54-1.77-2.18-.1-4.35,.29-6.36,1.14-4.37,1.94-7.87,5.43-9.81,9.81-.85,2.01-1.24,4.19-1.15,6.37,.12,2.28,.72,4.52,1.76,6.55,1.2,2.38,2.79,4.53,4.7,6.39,1.85,1.91,4.01,3.49,6.38,4.69,2.04,1.03,4.26,1.62,6.54,1.74,2.18,.09,4.35-.3,6.35-1.16,4.36-1.96,7.85-5.45,9.81-9.81,.86-2,1.25-4.17,1.15-6.35-.13-2.27-.73-4.5-1.76-6.53-1.2-2.37-2.79-4.53-4.69-6.38Z"/>
  <path class="cls-1" d="M582.22,119.82h0c-1.86-1.91-4.01-3.5-6.39-4.71-2.04-1.03-4.26-1.63-6.54-1.77-2.18-.1-4.35,.29-6.36,1.14-4.37,1.94-7.87,5.43-9.81,9.81-.85,2.01-1.24,4.19-1.15,6.37,.12,2.28,.72,4.52,1.76,6.55,1.2,2.38,2.79,4.53,4.7,6.39,1.85,1.91,4.01,3.49,6.38,4.69,2.04,1.03,4.26,1.62,6.54,1.74,2.18,.09,4.35-.3,6.35-1.16,4.36-1.96,7.85-5.45,9.81-9.81,.86-2,1.25-4.17,1.15-6.35-.13-2.27-.73-4.5-1.76-6.53-1.2-2.37-2.79-4.53-4.7-6.38Z"/>
  <path class="cls-1" d="M646.65,0L243.27,403.38,55.43,215.5,0,270.93l243.27,243.27L702.07,55.4,646.65,0ZM115.98,296.77l17.54,17.54-2.06,2.06-17.54-17.54,2.06-2.06Zm-68.02,.52l-25.19-25.19,.89-.89c.32-.31,.72-.52,1.16-.58l52.24-8.65-21.46-21.46,2.06-2.06,24.75,24.75-.85,.85c-.36,.35-.83,.58-1.33,.65l-52.12,8.62,21.89,21.89-2.06,2.06Zm15.77,15.77l32.16-32.16-12.11-12.11,2.11-2.11,26.61,26.61-2.11,2.11-12.04-12.04-32.16,32.16-2.47-2.47Zm48.84,17.35l-15.12-15.12,2.06-2.06,15.12,15.12-2.06,2.06Zm33.22,14.19c-1.21,1.24-2.66,2.23-4.26,2.91-1.52,.63-3.15,.93-4.79,.9-1.74-.05-3.46-.4-5.07-1.05-1.84-.74-3.55-1.76-5.07-3.02,.15,.66,.17,1.34,.07,2.01l-3.02,26.61-2.16-2.16c-.24-.22-.42-.5-.52-.81-.09-.34-.11-.69-.06-1.03l2.93-24.87c.09-.55,.05-1.11-.13-1.63-.3-.64-.72-1.21-1.25-1.68l-4.23-4.23,1.84-1.84,5.71,5.71c1.36,1.4,2.92,2.59,4.63,3.54,1.43,.79,2.99,1.3,4.61,1.49,1.47,.16,2.96-.03,4.35-.54,1.46-.56,2.78-1.44,3.87-2.57,2.44-2.44,3.45-5.05,3.03-7.82-.42-2.78-2.16-5.69-5.21-8.74l-6.02-6.02,1.96-1.96,6.02,6.02c3.95,3.96,6.14,7.68,6.57,11.15,.43,3.48-.83,6.69-3.79,9.65Zm231.77,10.98c-1.33,2.98-3.21,5.67-5.54,7.94l-12.55,12.55-33.54-33.54,12.55-12.55c2.27-2.33,4.97-4.21,7.94-5.54,2.72-1.2,5.66-1.82,8.64-1.8,2.99,.04,5.95,.7,8.67,1.93,3.01,1.37,5.74,3.29,8.05,5.67,2.37,2.31,4.29,5.04,5.67,8.05,1.23,2.72,1.89,5.67,1.92,8.66,0,2.97-.61,5.91-1.81,8.63Zm44.65-44.04c-2.67,6.01-7.48,10.82-13.49,13.49-2.76,1.17-5.74,1.75-8.74,1.7-3.04-.08-6.03-.78-8.79-2.05-3.03-1.4-5.78-3.34-8.11-5.72-2.39-2.33-4.33-5.08-5.72-8.11-1.27-2.77-1.97-5.76-2.06-8.8-.06-3.01,.51-5.99,1.67-8.77,2.65-6.03,7.47-10.84,13.49-13.49,2.77-1.17,5.77-1.75,8.78-1.69,3.04,.09,6.04,.79,8.8,2.06,3.03,1.4,5.78,3.34,8.11,5.73,2.39,2.33,4.33,5.08,5.72,8.11,1.27,2.76,1.97,5.75,2.05,8.79,.05,3.01-.53,5.99-1.71,8.76Zm52.67-50.86l-34.08-17.09c-.74-.36-1.46-.77-2.15-1.22,.23,.39,.46,.76,.68,1.12,.22,.36,.41,.69,.56,1.01l17.04,34.13-4.07,4.07-44-23.08,3.77-3.77c.35-.37,.81-.62,1.31-.7,.45-.07,.91,.02,1.31,.23l30.24,16.38c.55,.3,1.11,.64,1.7,1.02,.59,.38,1.19,.79,1.81,1.23-.42-.64-.82-1.26-1.21-1.86-.36-.55-.68-1.13-.97-1.72l-15.43-31.2c-.18-.4-.24-.85-.19-1.29,.05-.51,.28-.98,.66-1.33l1.31-1.31c.34-.37,.8-.62,1.3-.69,.45-.06,.91,.02,1.32,.22l31.15,15.47c1.22,.6,2.4,1.28,3.53,2.04-.42-.61-.83-1.19-1.22-1.73-.37-.52-.71-1.05-1.01-1.62l-16.36-30.27c-.21-.39-.29-.84-.22-1.28,.06-.51,.3-.97,.67-1.32l3.54-3.54,23.08,44.01-4.07,4.07Zm50.88-50.89c-.3,.32-.67,.57-1.09,.71-.44,.12-.9,.15-1.35,.08l-44.66-5.85c.42,.36,.83,.72,1.22,1.08s.74,.69,1.05,1.01l23.9,23.9-3.98,3.98-33.54-33.54,2.34-2.34c.29-.33,.65-.58,1.05-.75,.42-.1,.86-.12,1.29-.05l44.71,5.85c-.45-.36-.88-.72-1.28-1.09-.4-.37-.78-.73-1.13-1.09l-23.76-23.76,3.98-3.98,33.54,33.54-2.29,2.29Zm17.51-17.51l-33.55-33.55,4.54-4.54,29.73,29.73,14.51-14.51,3.82,3.82-19.05,19.05Zm49.67-51.47c-2.67,6.01-7.48,10.82-13.49,13.49-2.76,1.17-5.74,1.75-8.74,1.7-3.04-.08-6.03-.78-8.79-2.05-3.03-1.4-5.78-3.34-8.11-5.72-2.39-2.33-4.33-5.08-5.72-8.11-1.27-2.76-1.97-5.76-2.06-8.8-.06-3.01,.51-5.99,1.67-8.77,2.65-6.03,7.47-10.84,13.49-13.49,2.77-1.17,5.77-1.75,8.78-1.69,3.04,.09,6.04,.79,8.8,2.06,3.03,1.4,5.78,3.34,8.11,5.72,2.39,2.33,4.33,5.08,5.72,8.11,1.27,2.76,1.97,5.75,2.05,8.79,.05,3.01-.53,5.99-1.71,8.76Zm47.03-45.23c-.34,.37-.79,.61-1.29,.68-.46,.05-.91-.03-1.33-.21l-11.24-4.96-15.05,15.05,4.96,11.24c.18,.41,.24,.86,.19,1.31-.06,.5-.29,.97-.66,1.31l-3.51,3.51-20.13-46.95,4.61-4.61,46.95,20.13-3.51,3.51Zm27.31-27.32l-12.55,12.55-33.54-33.54,12.55-12.55c2.27-2.33,4.97-4.21,7.94-5.54,2.72-1.2,5.66-1.82,8.64-1.8,2.99,.04,5.95,.7,8.67,1.93,3.01,1.37,5.74,3.3,8.05,5.67h0c2.37,2.31,4.29,5.04,5.67,8.05,1.23,2.72,1.89,5.67,1.92,8.66,0,2.97-.61,5.91-1.81,8.63-1.33,2.98-3.21,5.67-5.54,7.94Z"/>
  <path class="cls-1" d="M662.39,39.65h0c-1.85-1.91-4-3.49-6.37-4.68-2.03-1.02-4.24-1.61-6.51-1.73-2.17-.09-4.33,.31-6.32,1.17-2.17,.95-4.13,2.31-5.78,4l-7.98,7.98,26.19,26.19,7.98-7.98c1.7-1.65,3.05-3.61,4-5.78,.86-1.99,1.27-4.15,1.18-6.31-.12-2.26-.7-4.47-1.72-6.49-1.2-2.37-2.78-4.52-4.69-6.36Z"/>
  <path class="cls-1" d="M367.14,334.9c-1.85-1.9-4-3.49-6.37-4.68-2.03-1.02-4.24-1.61-6.51-1.73-2.17-.09-4.33,.31-6.32,1.17-2.17,.95-4.13,2.31-5.78,4l-7.98,7.98,26.19,26.19,7.98-7.98c1.7-1.65,3.05-3.61,4-5.78,.86-1.99,1.27-4.15,1.18-6.31-.12-2.26-.7-4.47-1.72-6.49-1.2-2.37-2.78-4.52-4.68-6.36Z"/>
</svg>