<svg xmlns="http://www.w3.org/2000/svg" width="17.517" height="20.033" viewBox="-5220.15 -8579.017 17.517 20.033"><path d="M-5202.7-8574.13c0-.09-.002-.094-.096-.093a4.25 4.25 0 0 1-.676-.059c-.812-.122-3.446-1.504-3.892-3.765-.008-.044-.108-.604-.107-.843 0-.107 0-.107-.106-.109h-3.166c-.207 0-.178-.026-.178.183v13.41c0 .167-.005.334-.034.497-.155.865-.598 1.542-1.349 2.005-.65.4-1.354.514-2.103.366-.236-.046-.457-.135-.68-.223l-.053-.05c-.075-.062-.157-.113-.237-.169-.954-.66-1.406-1.578-1.269-2.725.14-1.164.81-1.954 1.913-2.36a2.559 2.559 0 0 1 1.027-.154c.227.012.452.041.672.104.076.021.117-.006.12-.086l.003-.085c0-.803-.03-2.556-.034-2.56.002-.23.002-.462.006-.693.001-.066-.032-.078-.088-.084a6.514 6.514 0 0 0-1.25-.028 6.304 6.304 0 0 0-3.97 1.796 6.26 6.26 0 0 0-1.335 1.914 6.211 6.211 0 0 0-.539 2.17c-.022.327-.017.655.013.984a6.287 6.287 0 0 0 2.406 4.41c.104.08.204.171.328.225l.157.14c.165.124.342.23.528.322 1.145.566 2.352.796 3.624.64 1.65-.201 3.025-.933 4.108-2.192 1.019-1.186 1.514-2.579 1.523-4.135.013-2.226.003-4.453.004-6.679 0-.053-.03-.128.028-.155.046-.021.092.04.135.068a8.195 8.195 0 0 0 2.69 1.159 7.616 7.616 0 0 0 1.71.206c.184 0 .208-.01.208-.19.001-.791-.04-2.952-.04-3.162Z" fill="#fff" fill-rule="evenodd" data-name="Path 24"/></svg>