<svg xmlns="http://www.w3.org/2000/svg" xmlns:xlink="http://www.w3.org/1999/xlink" width="253.446" height="25" viewBox="0 0 253.446 25">
  <defs>
    <clipPath id="clip-path">
      <rect id="Rectangle_2310" data-name="Rectangle 2310" width="253.446" height="25" fill="#fff"/>
    </clipPath>
  </defs>
  <g id="Group_6113" data-name="Group 6113" transform="translate(-506.395 -255)">
    <path id="Path_33433" data-name="Path 33433" d="M39.8,0V1.538h8.834V25h1.8V1.538h8.78V0Z" transform="translate(513.678 255)" fill="#fff"/>
    <g id="Group_6111" data-name="Group 6111" transform="translate(506.395 255)">
      <g id="Group_6110" data-name="Group 6110" clip-path="url(#clip-path)">
        <path id="Path_33434" data-name="Path 33434" d="M207.992,14.187a2.869,2.869,0,0,0-.761-.706,9.948,9.948,0,0,0,2.952-.751,7.562,7.562,0,0,0,2.235-1.467,6.136,6.136,0,0,0,1.422-2.075,6.714,6.714,0,0,0,.494-2.616,5.842,5.842,0,0,0-2.138-4.9Q210.058,0,205.73,0h-4.394V1.43h4.394a8.488,8.488,0,0,1,5.088,1.291,4.593,4.593,0,0,1,1.75,3.957,5.578,5.578,0,0,1-.477,2.349,4.927,4.927,0,0,1-1.388,1.785,6.413,6.413,0,0,1-2.226,1.139,10.283,10.283,0,0,1-2.977.4h-4.164v1.343h3.087a2.706,2.706,0,0,1,1.068.159,1.782,1.782,0,0,1,.646.548l8,10.142a1.267,1.267,0,0,0,.4.353,1.032,1.032,0,0,0,.486.106H216.6Z" transform="translate(36.851 0)" fill="#fff"/>
        <path id="Path_33435" data-name="Path 33435" d="M69.75,13.853a1.779,1.779,0,0,1,.645.548l8,10.143a1.283,1.283,0,0,0,.4.353,1.026,1.026,0,0,0,.452.1l.893-.893-7.892-9.917a2.894,2.894,0,0,0-.761-.707,9.921,9.921,0,0,0,2.952-.751,7.567,7.567,0,0,0,2.235-1.466A6.138,6.138,0,0,0,78.1,9.189a6.735,6.735,0,0,0,.495-2.616,5.845,5.845,0,0,0-2.139-4.9Q74.317,0,69.989,0H65.594V1.43h4.395a8.494,8.494,0,0,1,5.089,1.291,4.6,4.6,0,0,1,1.749,3.958,5.577,5.577,0,0,1-.477,2.349,4.917,4.917,0,0,1-1.388,1.785,6.413,6.413,0,0,1-2.226,1.139,10.289,10.289,0,0,1-2.977.4H65.594v1.343h3.087a2.683,2.683,0,0,1,1.069.16" transform="translate(12.006 0)" fill="#fff"/>
        <path id="Path_33436" data-name="Path 33436" d="M93.494,2.061c.043.14.084.286.127.419q.121.382.244.683l5.052,12.7L87.831,15.8l-.554,1.344,12.163.066,2.92,7.3a.884.884,0,0,0,.246.348.621.621,0,0,0,.408.135l1.4.008L94.343,0Z" transform="translate(15.974 0)" fill="#fff"/>
        <path id="Path_33437" data-name="Path 33437" d="M150.8,3.247a.487.487,0,0,1-.45.295.99.99,0,0,1-.58-.321,7.491,7.491,0,0,0-2.48-1.424,7.627,7.627,0,0,0-4.593.051A4.915,4.915,0,0,0,141,2.885a4.4,4.4,0,0,0-1.04,1.52,4.706,4.706,0,0,0-.355,1.814,3.709,3.709,0,0,0,.526,2.056,4.746,4.746,0,0,0,1.394,1.382,8.97,8.97,0,0,0,1.964.959q1.1.389,2.257.769t2.258.838a8.175,8.175,0,0,1,1.964,1.149,5.278,5.278,0,0,1,1.392,1.7,5.384,5.384,0,0,1,.528,2.514,7.914,7.914,0,0,1-.526,2.894,6.744,6.744,0,0,1-1.53,2.358,7.2,7.2,0,0,1-2.452,1.582,8.908,8.908,0,0,1-3.317.579,9.37,9.37,0,0,1-4.164-.855,9.793,9.793,0,0,1-3.058-2.341l.484-.76a.606.606,0,0,1,.484-.26.694.694,0,0,1,.4.208c.162.138.357.308.588.51s.508.42.831.657a6.979,6.979,0,0,0,1.125.657,7.989,7.989,0,0,0,1.471.509,7.794,7.794,0,0,0,1.886.208,7.18,7.18,0,0,0,2.6-.441,5.676,5.676,0,0,0,1.93-1.2,5.094,5.094,0,0,0,1.2-1.805,6,6,0,0,0,.415-2.237,3.946,3.946,0,0,0-.528-2.134,4.558,4.558,0,0,0-1.394-1.4,9.046,9.046,0,0,0-1.964-.942q-1.1-.38-2.257-.743t-2.258-.812a7.8,7.8,0,0,1-1.964-1.149,5.269,5.269,0,0,1-1.392-1.745,5.789,5.789,0,0,1-.528-2.618,6.2,6.2,0,0,1,.467-2.367A5.89,5.89,0,0,1,139.8,1.926a6.713,6.713,0,0,1,2.224-1.4A8.1,8.1,0,0,1,145.042,0a9.14,9.14,0,0,1,3.417.6,8.176,8.176,0,0,1,2.759,1.849Z" transform="translate(25.046 0)" fill="#fff"/>
        <path id="Path_33438" data-name="Path 33438" d="M112.42.062a.835.835,0,0,1,.3.273L128.9,22a10.233,10.233,0,0,1-.053-1.025V0h1.59V25h-.866a.76.76,0,0,1-.653-.353L112.667,2.95a10.071,10.071,0,0,1,.053,1.007V25h-1.572V0h.883a.991.991,0,0,1,.389.062" transform="translate(20.343 0)" fill="#fff"/>
        <path id="Path_33439" data-name="Path 33439" d="M18.516,0V.619a1.252,1.252,0,0,1-.247.724L2.4,23.5H18.375V25H0v-.653a1.078,1.078,0,0,1,.212-.636L16.113,1.5H.459V0Z" transform="translate(0 0)" fill="#fff"/>
        <path id="Path_33440" data-name="Path 33440" d="M194.269,0V1.5H181.106V11.608H192.06v1.466H181.106V23.5h13.162V25H179.287V0Z" transform="translate(32.815 0)" fill="#fff"/>
        <rect id="Rectangle_2308" data-name="Rectangle 2308" width="11.168" height="1.52" transform="translate(188.04 12.165)" fill="#fff"/>
        <rect id="Rectangle_2309" data-name="Rectangle 2309" width="12.957" height="1.521" transform="translate(188.04 -0.001)" fill="#fff"/>
        <path id="Path_33441" data-name="Path 33441" d="M30.312,14.6h-.132a2.133,2.133,0,0,0-.629.132,9.122,9.122,0,0,0-1.077.606c-.677.39-1.46.829-2.141,1.222-.562.323-1.284.625-1.294,1.427-.012.835.725,1.112,1.258,1.416,1.691.962,5.093,2.927,5.093,2.927v-.907s-3.318-1.875-5-2.806c-.214-.119-.5-.355-.5-.629,0-.415.495-.623.834-.81.911-.5,1.782-.982,2.662-1.452.277-.148.64-.447,1.016-.243.245.135.23.4.23.787.006,0,0,3.7,0,3.7h.75V16.606a7.915,7.915,0,0,0-.037-1.112,1.121,1.121,0,0,0-1.04-.9" transform="translate(4.583 2.672)" fill="#fff"/>
        <path id="Path_33442" data-name="Path 33442" d="M26.118,16.944h.132a2.133,2.133,0,0,0,.629-.132,9.122,9.122,0,0,0,1.077-.606c.677-.39,1.46-.829,2.141-1.222.562-.323,1.284-.625,1.294-1.427.012-.835-.725-1.112-1.258-1.416-1.691-.962-5.093-2.927-5.093-2.927v.907s3.318,1.875,5,2.806c.214.119.5.355.5.629,0,.415-.495.623-.834.81-.911.5-1.782.982-2.662,1.452-.277.148-.64.447-1.016.243-.245-.135-.23-.4-.23-.787-.006,0,0-3.7,0-3.7h-.75v3.363a7.915,7.915,0,0,0,.037,1.112,1.121,1.121,0,0,0,1.04.9" transform="translate(4.583 1.686)" fill="#fff"/>
        <path id="Path_33443" data-name="Path 33443" d="M30.312,5.383h-.132a2.133,2.133,0,0,0-.629.133,9.121,9.121,0,0,0-1.077.606c-.677.39-1.46.829-2.141,1.222-.562.323-1.284.625-1.294,1.427-.012.835.725,1.112,1.258,1.416,1.691.962,5.093,2.927,5.093,2.927v-.907s-3.318-1.875-5-2.806c-.214-.119-.5-.355-.5-.629,0-.415.495-.623.834-.81.911-.5,1.782-.982,2.662-1.452.277-.148.64-.447,1.016-.243.245.135.23.4.23.787.006,0,0,3.7,0,3.7h.75V7.391a7.915,7.915,0,0,0-.037-1.112,1.121,1.121,0,0,0-1.04-.9" transform="translate(4.583 0.985)" fill="#fff"/>
        <path id="Path_33444" data-name="Path 33444" d="M26.118,7.73h.132A2.133,2.133,0,0,0,26.88,7.6a9.122,9.122,0,0,0,1.077-.606c.677-.39,1.46-.829,2.141-1.222.562-.323,1.284-.625,1.294-1.427.012-.835-.725-1.112-1.258-1.416C28.444,1.965,25.042,0,25.042,0V.907s3.318,1.875,5,2.806c.214.119.5.355.5.629,0,.415-.495.623-.834.81-.911.5-1.782.982-2.662,1.452-.277.148-.64.447-1.016.243-.245-.135-.23-.4-.23-.787-.006,0,0-3.7,0-3.7h-.75V5.722a7.915,7.915,0,0,0,.037,1.112,1.121,1.121,0,0,0,1.04.9" transform="translate(4.583 0)" fill="#fff"/>
      </g>
    </g>
  </g>
</svg>
