<?xml version="1.0" encoding="UTF-8"?>
<svg id="Layer_1" data-name="Layer 1" xmlns="http://www.w3.org/2000/svg" viewBox="0 0 106.04 77.67">
  <defs>
    <style>
      .cls-1 {
        fill: #990000;
      }
    </style>
  </defs>
  <path id="Path_28450" data-name="Path 28450" d="M97.67,0L36.74,60.93,8.37,32.55,0,40.92l36.74,36.74L106.04,8.37,97.67,0Z" fill="outer"/>
  <g id="Group_5969" data-name="Group 5969">
    <g id="Group_5944" data-name="Group 5944">
      <path id="Path_28412" data-name="Path 28412" class="cls-1" d="M12.45,39.76l-.13,.13c-.05,.05-.13,.09-.2,.1l-7.87,1.3,3.31,3.31-.31,.31-3.8-3.8,.14-.14s.11-.08,.18-.09l7.89-1.31-3.24-3.24,.31-.31,3.74,3.74Z"/>
      <path id="Path_28413" data-name="Path 28413" class="cls-1" d="M16.99,44.3l-.32,.32-1.82-1.82-4.86,4.86-.37-.37,4.86-4.86-1.83-1.83,.32-.32,4.02,4.02Z"/>
      <rect id="Rectangle_2274" data-name="Rectangle 2274" class="cls-1" x="15.8" y="47" width=".44" height="3.23" transform="translate(-29.68 25.56) rotate(-45)"/>
      <rect id="Rectangle_2275" data-name="Rectangle 2275" class="cls-1" x="18.47" y="44.43" width=".44" height="3.75" transform="translate(-27.27 26.78) rotate(-45)"/>
      <path id="Path_28414" data-name="Path 28414" class="cls-1" d="M19.13,52.32c.01-.1,.01-.2-.01-.3,.23,.19,.49,.34,.77,.46,.24,.1,.5,.15,.77,.16,.25,0,.5-.04,.72-.14,.24-.1,.46-.25,.64-.44,.42-.36,.63-.91,.57-1.46-.14-.66-.49-1.25-.99-1.68l-.91-.91-.3,.3,.91,.91c.39,.35,.67,.81,.78,1.32,.05,.45-.12,.89-.46,1.18-.16,.17-.36,.3-.59,.39-.21,.08-.43,.11-.66,.08-.24-.03-.48-.1-.7-.22-.26-.14-.49-.32-.7-.53l-.86-.86-.28,.28,.64,.64c.08,.07,.14,.16,.19,.25,.03,.08,.03,.16,.02,.25l-.44,3.76c0,.05,0,.1,.01,.15,.02,.05,.04,.09,.08,.12l.33,.33,.46-4.02Z"/>
    </g>
  </g>
  <g>
    <path class="cls-1" d="M55.64,55.16c.25-.25,.43-.51,.54-.8,.11-.28,.16-.57,.14-.86s-.09-.57-.23-.85c-.14-.28-.33-.54-.57-.78l-3.2-3.2,.37-.37,3.2,3.2c.29,.29,.51,.6,.66,.93,.16,.34,.24,.68,.26,1.04,.01,.35-.05,.7-.18,1.05-.14,.35-.36,.67-.66,.97s-.63,.52-.97,.66c-.35,.14-.7,.2-1.05,.18-.35-.01-.7-.1-1.04-.26-.34-.16-.65-.38-.93-.66l-3.2-3.2,.38-.38,3.19,3.19c.24,.24,.5,.43,.78,.57,.28,.14,.56,.21,.85,.23,.29,.02,.57-.03,.86-.14,.28-.11,.55-.29,.8-.53Z"/>
    <path class="cls-1" d="M59.22,47.95l2.08,2.08-.37,.37-5.17-5.17,1.33-1.33c.61-.61,1.2-.93,1.77-.97,.57-.04,1.11,.18,1.6,.67,.23,.23,.39,.48,.5,.75s.15,.56,.13,.85c-.02,.3-.11,.6-.26,.9s-.37,.6-.65,.88l-.96,.96Zm-.3-.3l.96-.96c.23-.23,.4-.46,.52-.71,.12-.24,.18-.48,.2-.72s-.02-.47-.11-.68c-.09-.22-.22-.42-.4-.6-.4-.4-.82-.58-1.28-.55-.46,.03-.93,.29-1.42,.77l-.96,.96,2.49,2.49Z"/>
    <path class="cls-1" d="M66.67,44.03l2.45-2.45,.32,.32-2.82,2.82-5.17-5.17,.37-.37,4.85,4.85Z"/>
    <path class="cls-1" d="M73.54,32.62c.4,.4,.7,.82,.91,1.27,.21,.44,.32,.89,.33,1.34,.01,.45-.07,.88-.24,1.31-.18,.43-.45,.83-.82,1.19s-.76,.63-1.19,.81c-.43,.18-.86,.26-1.31,.24-.45-.01-.89-.12-1.34-.33-.45-.2-.87-.51-1.27-.91s-.7-.82-.9-1.26c-.2-.45-.31-.89-.33-1.34-.01-.45,.07-.88,.24-1.31s.44-.82,.81-1.19,.77-.64,1.19-.82c.43-.18,.86-.26,1.31-.24s.89,.12,1.34,.33c.44,.21,.86,.51,1.26,.9Zm-.39,.39c-.36-.36-.73-.63-1.12-.82-.39-.19-.77-.29-1.15-.31-.38-.02-.75,.05-1.11,.2-.36,.15-.7,.38-1.01,.69s-.53,.64-.68,1c-.15,.36-.21,.73-.2,1.12,.02,.38,.12,.77,.3,1.16,.19,.39,.46,.76,.82,1.12s.74,.64,1.12,.82c.39,.19,.77,.29,1.16,.3,.38,.02,.75-.05,1.11-.2,.36-.15,.69-.38,1-.68s.54-.65,.69-1.01c.15-.36,.22-.73,.2-1.11-.02-.38-.12-.76-.31-1.15-.19-.39-.46-.76-.82-1.12Z"/>
    <path class="cls-1" d="M82.59,28.75l-.29,.29s-.07,.05-.11,.06c-.04,0-.08,0-.12-.02l-2.11-.89-2.54,2.54,.89,2.11s.02,.08,.02,.12c0,.04-.02,.08-.06,.12l-.29,.29-3.05-7.28,.37-.37,7.28,3.05Zm-5.34,1.58l2.32-2.32-3.67-1.56c-.06-.02-.12-.05-.19-.09-.07-.04-.14-.07-.22-.12,.04,.08,.08,.15,.12,.22,.04,.07,.07,.13,.09,.2l1.55,3.66Z"/>
    <path class="cls-1" d="M86.63,19.53c.4,.4,.7,.82,.9,1.26,.2,.44,.3,.88,.31,1.32,0,.44-.08,.87-.26,1.29s-.46,.82-.83,1.18l-1.88,1.88-5.17-5.17,1.88-1.88c.37-.37,.76-.64,1.18-.83,.42-.18,.85-.27,1.29-.26,.44,0,.88,.11,1.32,.31,.44,.2,.86,.5,1.25,.89Zm-.39,.39c-.36-.36-.73-.63-1.11-.81-.38-.18-.76-.28-1.14-.29-.38-.01-.74,.06-1.1,.21-.36,.15-.69,.39-1,.7l-1.51,1.51,4.56,4.56,1.51-1.51c.31-.31,.54-.65,.7-1s.22-.73,.21-1.1-.11-.76-.29-1.14c-.18-.38-.46-.75-.82-1.12Z"/>
    <path class="cls-1" d="M89.81,11.19l.31,.31-2.72,2.72,2.09,2.09,2.26-2.26,.3,.3-2.26,2.26,2.15,2.15,2.72-2.72,.31,.31-3.1,3.1-5.17-5.17,3.1-3.1Z"/>
    <path class="cls-1" d="M99.42,6.74c.4,.4,.7,.82,.9,1.26,.2,.44,.3,.88,.31,1.32,0,.44-.08,.87-.26,1.29s-.46,.82-.83,1.18l-1.88,1.88-5.17-5.17,1.88-1.88c.37-.37,.76-.64,1.18-.82,.42-.18,.85-.27,1.29-.26,.44,0,.88,.11,1.32,.31,.44,.2,.86,.5,1.25,.89Zm-.39,.39c-.36-.36-.73-.63-1.11-.81-.38-.18-.76-.28-1.14-.29-.38-.01-.74,.06-1.1,.21-.36,.15-.69,.39-1,.7l-1.51,1.51,4.56,4.56,1.51-1.51c.31-.31,.54-.65,.7-1s.22-.73,.21-1.1-.11-.76-.29-1.14c-.18-.38-.46-.75-.82-1.12Z"/>
  </g>
</svg>