<?xml version="1.0" encoding="UTF-8"?>
<svg id="Layer_1" data-name="Layer 1" xmlns="http://www.w3.org/2000/svg" viewBox="0 0 106.04 77.67">
  <defs>
    <style>
      .cls-1 {
        fill: none;
      }
    </style>
  </defs>
  <polygon class="cls-1" points="16.68 44.62 16.99 44.3 12.97 40.28 12.66 40.6 14.48 42.43 9.63 47.29 10 47.66 14.86 42.8 16.68 44.62"/>
  <polygon class="cls-1" points="66.67 44.03 61.82 39.18 61.45 39.55 66.61 44.72 69.44 41.9 69.12 41.58 66.67 44.03"/>
  <path class="cls-1" d="M73.54,32.62c-.4-.4-.82-.7-1.26-.9-.44-.21-.89-.32-1.34-.33-.45-.01-.89,.07-1.31,.24-.43,.18-.83,.45-1.19,.82s-.63,.76-.81,1.19-.26,.87-.24,1.31c.01,.45,.12,.89,.33,1.34,.2,.45,.51,.87,.9,1.26s.82,.7,1.27,.91c.45,.2,.89,.31,1.34,.33,.45,.01,.88-.07,1.31-.24,.43-.18,.82-.45,1.19-.81s.64-.76,.82-1.19c.18-.43,.26-.86,.24-1.31-.01-.45-.12-.89-.33-1.34-.21-.44-.51-.87-.91-1.27Zm.54,3.77c-.15,.36-.38,.7-.69,1.01-.31,.31-.64,.54-1,.68-.36,.15-.73,.22-1.11,.2-.38-.02-.77-.12-1.16-.3-.39-.19-.76-.46-1.12-.82s-.63-.73-.82-1.12c-.19-.39-.29-.77-.3-1.16-.02-.38,.05-.76,.2-1.12,.15-.36,.38-.69,.68-1s.65-.54,1.01-.69c.36-.15,.73-.22,1.11-.2,.38,.02,.77,.12,1.15,.31,.39,.19,.76,.46,1.12,.82s.64,.74,.82,1.12c.19,.39,.29,.77,.31,1.15,.02,.38-.05,.75-.2,1.11Z"/>
  <path class="cls-1" d="M20.69,48l-.3,.3,.91,.91c.39,.35,.67,.81,.78,1.32,.05,.45-.12,.89-.46,1.18-.16,.17-.36,.3-.59,.39-.21,.08-.43,.11-.66,.08-.24-.03-.48-.1-.7-.22-.26-.14-.49-.32-.7-.53l-.86-.86-.28,.28,.64,.64c.08,.07,.14,.16,.19,.25,.03,.08,.03,.16,.02,.25l-.44,3.76c0,.05,0,.1,.01,.15,.02,.05,.04,.09,.08,.12l.33,.33,.46-4.02c.01-.1,.01-.2-.01-.3,.23,.19,.49,.34,.77,.46,.24,.1,.5,.15,.77,.16,.25,0,.5-.04,.72-.14,.24-.1,.46-.25,.64-.44,.42-.36,.63-.91,.57-1.46-.14-.66-.49-1.25-.99-1.68l-.91-.91Z"/>
  <path class="cls-1" d="M12.12,39.98c.08-.01,.15-.05,.2-.1l.13-.13-3.74-3.74-.31,.31,3.24,3.24-7.89,1.31c-.07,0-.13,.04-.18,.09l-.14,.14,3.8,3.8,.31-.31-3.31-3.31,7.87-1.3Z"/>
  <rect class="cls-1" x="15.8" y="47" width=".44" height="3.23" transform="translate(-29.68 25.56) rotate(-45)"/>
  <path class="cls-1" d="M55.9,51.49l-3.2-3.2-.37,.37,3.2,3.2c.24,.24,.43,.5,.57,.78,.14,.28,.21,.56,.23,.85,.02,.29-.03,.58-.14,.86-.11,.28-.29,.55-.54,.8s-.51,.43-.8,.53c-.28,.11-.57,.15-.86,.14-.29-.02-.57-.1-.85-.23-.28-.14-.54-.32-.78-.57l-3.19-3.19-.38,.38,3.2,3.2c.29,.29,.6,.51,.93,.66,.34,.16,.68,.24,1.04,.26,.35,.01,.7-.05,1.05-.18,.35-.14,.67-.36,.97-.66,.3-.3,.52-.63,.66-.97,.14-.35,.2-.7,.18-1.05-.01-.35-.1-.7-.26-1.04-.16-.34-.38-.65-.66-.93Z"/>
  <path class="cls-1" d="M60.18,46.99c.29-.29,.5-.58,.65-.88s.23-.6,.26-.9c.02-.3-.02-.58-.13-.85-.11-.27-.27-.52-.5-.75-.49-.49-1.02-.72-1.6-.67-.57,.04-1.16,.37-1.77,.97l-1.33,1.33,5.17,5.17,.37-.37-2.08-2.08,.96-.96Zm-3.75-1.83l.96-.96c.48-.48,.96-.74,1.42-.77,.46-.03,.89,.15,1.28,.55,.18,.18,.31,.38,.4,.6,.09,.22,.12,.45,.11,.68-.01,.24-.08,.48-.2,.72-.12,.24-.29,.48-.52,.71l-.96,.96-2.49-2.49Z"/>
  <path class="cls-1" d="M100.32,8c-.2-.44-.5-.86-.9-1.26s-.81-.69-1.25-.89c-.44-.2-.88-.3-1.32-.31-.44,0-.87,.08-1.29,.26-.42,.18-.82,.46-1.18,.82l-1.89,1.89,5.17,5.17,1.88-1.88c.37-.37,.64-.76,.83-1.18,.18-.42,.27-.85,.26-1.29,0-.44-.11-.88-.31-1.32Zm-.38,2.49c-.15,.36-.39,.69-.7,1l-1.51,1.51-4.56-4.56,1.51-1.51c.31-.31,.65-.54,1-.7,.36-.15,.73-.22,1.1-.21,.38,.01,.76,.11,1.14,.29,.38,.18,.75,.45,1.11,.82s.64,.74,.82,1.12c.18,.38,.28,.76,.29,1.14s-.06,.74-.21,1.1Z"/>
  <rect class="cls-1" x="18.47" y="44.43" width=".44" height="3.75" transform="translate(-27.27 26.78) rotate(-45)"/>
  <path class="cls-1" d="M74.93,26.07l3.05,7.28,.29-.29s.05-.07,.06-.12c0-.04,0-.08-.02-.12l-.89-2.11,2.54-2.54,2.11,.89s.08,.02,.12,.02c.04,0,.08-.02,.11-.06l.29-.29-7.28-3.05-.37,.37Zm.78,.3c.07,.04,.13,.07,.19,.09l3.67,1.56-2.32,2.32-1.55-3.66c-.03-.06-.06-.13-.09-.2-.04-.07-.07-.14-.12-.22,.08,.04,.15,.08,.22,.11Z"/>
  <polygon class="cls-1" points="91.94 18.77 89.79 16.62 92.05 14.35 91.75 14.05 89.48 16.31 87.4 14.22 90.12 11.5 89.81 11.19 86.71 14.29 91.88 19.46 94.97 16.36 94.66 16.05 91.94 18.77"/>
  <path class="cls-1" d="M86.63,19.53c-.4-.4-.81-.69-1.25-.89-.44-.2-.88-.3-1.32-.31-.44,0-.87,.08-1.29,.26-.42,.18-.82,.46-1.18,.83l-1.88,1.88,5.17,5.17,1.88-1.88c.37-.37,.64-.76,.83-1.18,.18-.42,.27-.85,.26-1.29,0-.44-.11-.88-.31-1.32-.2-.44-.5-.86-.9-1.26Zm.51,3.74c-.15,.36-.39,.69-.7,1l-1.51,1.51-4.56-4.56,1.51-1.51c.31-.31,.65-.54,1-.7,.36-.15,.73-.22,1.1-.21,.38,.01,.76,.11,1.14,.29,.38,.18,.75,.45,1.11,.81s.64,.74,.82,1.12c.18,.38,.28,.76,.29,1.14,.01,.38-.06,.74-.21,1.1Z"/>
  <path d="M60.4,45.98c.12-.24,.18-.48,.2-.72,.01-.24-.02-.47-.11-.68-.09-.22-.22-.42-.4-.6-.4-.4-.82-.58-1.28-.55-.46,.03-.93,.29-1.42,.77l-.96,.96,2.49,2.49,.96-.96c.23-.23,.4-.46,.52-.71Z"/>
  <path d="M75.7,26.67l1.55,3.66,2.32-2.32-3.67-1.56c-.06-.02-.12-.05-.19-.09-.07-.04-.14-.07-.22-.11,.04,.08,.08,.15,.12,.22,.04,.07,.07,.13,.09,.2Z"/>
  <path d="M86.24,19.92c-.36-.36-.73-.63-1.11-.81-.38-.18-.76-.28-1.14-.29-.38-.01-.74,.06-1.1,.21-.36,.15-.69,.39-1,.7l-1.51,1.51,4.56,4.56,1.51-1.51c.31-.31,.54-.65,.7-1s.22-.73,.21-1.1c-.01-.38-.11-.76-.29-1.14-.18-.38-.46-.75-.82-1.12Z"/>
  <path d="M73.16,33.01c-.36-.36-.73-.63-1.12-.82-.39-.19-.77-.29-1.15-.31-.38-.02-.75,.05-1.11,.2-.36,.15-.7,.38-1.01,.69s-.53,.64-.68,1c-.15,.36-.21,.73-.2,1.12,.02,.38,.12,.77,.3,1.16,.19,.39,.46,.76,.82,1.12s.74,.64,1.12,.82c.39,.19,.77,.29,1.16,.3,.38,.02,.75-.05,1.11-.2,.36-.15,.69-.38,1-.68,.31-.31,.54-.65,.69-1.01,.15-.36,.22-.73,.2-1.11-.02-.38-.12-.76-.31-1.15-.19-.39-.46-.76-.82-1.12Z"/>
  <path d="M99.03,7.13c-.36-.36-.73-.63-1.11-.82-.38-.18-.76-.28-1.14-.29-.38-.01-.74,.06-1.1,.21-.36,.15-.69,.39-1,.7l-1.51,1.51,4.56,4.56,1.51-1.51c.31-.31,.54-.65,.7-1,.15-.36,.22-.73,.21-1.1s-.11-.76-.29-1.14c-.18-.38-.46-.75-.82-1.12Z"/>
  <path d="M97.67,0L36.74,60.93,8.37,32.55,0,40.92l36.74,36.74L106.04,8.37,97.67,0ZM17.52,44.83l2.65,2.65-.31,.31-2.65-2.65,.31-.31Zm-10.27,.08l-3.8-3.8,.14-.14s.11-.08,.18-.09l7.89-1.31-3.24-3.24,.31-.31,3.74,3.74-.13,.13c-.05,.05-.13,.09-.2,.1l-7.87,1.3,3.31,3.31-.31,.31Zm2.38,2.38l4.86-4.86-1.83-1.83,.32-.32,4.02,4.02-.32,.32-1.82-1.82-4.86,4.86-.37-.37Zm7.38,2.62l-2.28-2.28,.31-.31,2.28,2.28-.31,.31Zm5.02,2.14c-.18,.19-.4,.34-.64,.44-.23,.09-.48,.14-.72,.14-.26,0-.52-.06-.77-.16-.28-.11-.54-.27-.77-.46,.02,.1,.03,.2,.01,.3l-.46,4.02-.33-.33s-.06-.08-.08-.12c-.01-.05-.02-.1-.01-.15l.44-3.76c.01-.08,0-.17-.02-.25-.04-.1-.11-.18-.19-.25l-.64-.64,.28-.28,.86,.86c.21,.21,.44,.39,.7,.53,.22,.12,.45,.2,.7,.22,.22,.02,.45,0,.66-.08,.22-.09,.42-.22,.59-.39,.34-.29,.51-.74,.46-1.18-.11-.51-.39-.98-.78-1.32l-.91-.91,.3-.3,.91,.91c.51,.44,.86,1.03,.99,1.68,.06,.55-.16,1.09-.57,1.46Zm34.61,2.46c-.14,.35-.36,.67-.66,.97-.3,.3-.63,.52-.97,.66-.35,.14-.7,.2-1.05,.18-.35-.01-.7-.1-1.04-.26-.34-.16-.65-.38-.93-.66l-3.2-3.2,.38-.38,3.19,3.19c.24,.24,.5,.43,.78,.57,.28,.14,.56,.21,.85,.23,.29,.02,.57-.03,.86-.14,.28-.11,.55-.29,.8-.53s.43-.51,.54-.8c.11-.28,.16-.57,.14-.86-.02-.29-.09-.57-.23-.85-.14-.28-.33-.54-.57-.78l-3.2-3.2,.37-.37,3.2,3.2c.29,.29,.51,.6,.66,.93,.16,.34,.24,.68,.26,1.04,.01,.35-.05,.7-.18,1.05Zm4.3-4.11l-5.17-5.17,1.33-1.33c.61-.61,1.2-.93,1.77-.97,.57-.04,1.11,.18,1.6,.67,.23,.23,.39,.48,.5,.75,.11,.27,.15,.56,.13,.85-.02,.3-.11,.6-.26,.9s-.37,.6-.65,.88l-.96,.96,2.08,2.08-.37,.37Zm5.69-5.69l-5.17-5.17,.37-.37,4.85,4.85,2.45-2.45,.32,.32-2.82,2.82Zm7.92-8.19c-.18,.43-.45,.83-.82,1.19s-.76,.63-1.19,.81c-.43,.18-.86,.26-1.31,.24-.45-.01-.89-.12-1.34-.33-.45-.2-.87-.51-1.27-.91s-.7-.82-.9-1.26c-.2-.45-.31-.89-.33-1.34-.01-.45,.07-.88,.24-1.31s.44-.82,.81-1.19,.77-.64,1.19-.82c.43-.18,.86-.26,1.31-.24,.45,.01,.89,.12,1.34,.33,.44,.21,.86,.51,1.26,.9s.7,.82,.91,1.27c.21,.44,.32,.89,.33,1.34,.01,.45-.07,.88-.24,1.31Zm7.76-7.5s-.07,.05-.11,.06c-.04,0-.08,0-.12-.02l-2.11-.89-2.54,2.54,.89,2.11s.02,.08,.02,.12c0,.04-.02,.08-.06,.12l-.29,.29-3.05-7.28,.37-.37,7.28,3.05-.29,.29Zm5.28-5.64c-.18,.42-.46,.82-.83,1.18l-1.88,1.88-5.17-5.17,1.88-1.88c.37-.37,.76-.64,1.18-.83,.42-.18,.85-.27,1.29-.26,.44,0,.88,.11,1.32,.31,.44,.2,.86,.5,1.25,.89s.7,.82,.9,1.26c.2,.44,.3,.88,.31,1.32,0,.44-.08,.87-.26,1.29Zm4.3-3.94l-5.17-5.17,3.1-3.1,.31,.31-2.72,2.72,2.09,2.09,2.26-2.26,.3,.3-2.26,2.26,2.15,2.15,2.72-2.72,.31,.31-3.1,3.1Zm7.66-7.66l-1.88,1.88-5.17-5.17,1.89-1.89c.37-.37,.76-.64,1.18-.82,.42-.18,.85-.27,1.29-.26,.44,0,.88,.11,1.32,.31,.44,.2,.86,.5,1.25,.89s.7,.82,.9,1.26c.2,.44,.3,.88,.31,1.32,0,.44-.08,.87-.26,1.29-.18,.42-.46,.82-.83,1.18Z"/>
</svg>