<svg xmlns="http://www.w3.org/2000/svg" xmlns:xlink="http://www.w3.org/1999/xlink" width="176.625" height="129.362" viewBox="0 0 176.625 129.362">
  <defs>
    <clipPath id="clip-path">
      <rect id="Rectangle_2396" data-name="Rectangle 2396" width="176.624" height="129.362" fill="none"/>
    </clipPath>
  </defs>
  <g id="Group_6337" data-name="Group 6337" transform="translate(0 0)">
    <path id="Path_35866" data-name="Path 35866" d="M162.682,0,61.2,101.482,13.943,54.216,0,68.16l61.2,61.2L176.625,13.937Z" transform="translate(0 0)" fill="#fff000"/>
    <g id="Group_6336" data-name="Group 6336" transform="translate(0 0)">
      <g id="Group_6335" data-name="Group 6335" clip-path="url(#clip-path)">
        <path id="Path_35867" data-name="Path 35867" d="M18.445,42.245l-.213.213a.608.608,0,0,1-.335.165L4.782,44.788,10.294,50.3l-.518.518L3.44,44.482l.225-.225a.531.531,0,0,1,.291-.147L17.1,41.935l-5.4-5.4.518-.518Z" transform="translate(2.29 23.973)"/>
        <path id="Path_35868" data-name="Path 35868" d="M21.9,46.977l-.53.53-3.028-3.028L10.248,52.57l-.621-.621,8.09-8.091-3.045-3.046.53-.53Z" transform="translate(6.407 26.811)"/>
        <rect id="Rectangle_2394" data-name="Rectangle 2394" width="0.733" height="5.38" transform="translate(24.517 79.323) rotate(-45)"/>
        <rect id="Rectangle_2395" data-name="Rectangle 2395" width="0.733" height="6.241" transform="matrix(0.707, -0.707, 0.707, 0.707, 28.66, 75.18)"/>
        <path id="Path_35869" data-name="Path 35869" d="M19.984,55.187a1.4,1.4,0,0,0-.018-.506,4.823,4.823,0,0,0,1.276.758,3.684,3.684,0,0,0,1.276.265,2.975,2.975,0,0,0,1.208-.225,3.266,3.266,0,0,0,1.073-.731,2.851,2.851,0,0,0,.954-2.428,5.083,5.083,0,0,0-1.656-2.8L22.581,48l-.493.493L23.6,50.009a4.145,4.145,0,0,1,1.3,2.2,2.237,2.237,0,0,1-.761,1.969,2.722,2.722,0,0,1-.976.645,2.393,2.393,0,0,1-1.093.138,3.156,3.156,0,0,1-1.163-.375,5.036,5.036,0,0,1-1.163-.889l-1.436-1.436-.463.461,1.059,1.061a1.279,1.279,0,0,1,.313.423.863.863,0,0,1,.035.411l-.738,6.256a.665.665,0,0,0,.02.256.51.51,0,0,0,.132.2l.543.543Z" transform="translate(11.883 31.948)"/>
        <path id="Path_35870" data-name="Path 35870" d="M60.209,59.723A3.921,3.921,0,0,0,61.1,58.4a3.387,3.387,0,0,0,.23-1.431,3.767,3.767,0,0,0-.381-1.422,4.875,4.875,0,0,0-.946-1.3l-5.322-5.323.621-.62,5.323,5.323a5.41,5.41,0,0,1,1.1,1.554A4.47,4.47,0,0,1,62.16,56.9a4.215,4.215,0,0,1-.3,1.751,5.2,5.2,0,0,1-2.718,2.718,4.251,4.251,0,0,1-1.752.306,4.478,4.478,0,0,1-1.724-.428,5.449,5.449,0,0,1-1.554-1.1L48.785,54.82l.625-.626,5.318,5.317a4.792,4.792,0,0,0,1.3.943,3.745,3.745,0,0,0,1.421.386,3.39,3.39,0,0,0,1.431-.225,3.811,3.811,0,0,0,1.329-.891" transform="translate(32.47 32.147)"/>
        <path id="Path_35871" data-name="Path 35871" d="M61.521,51.3l3.466,3.466-.62.621L55.76,46.777l2.22-2.22a4.816,4.816,0,0,1,2.948-1.621,3.331,3.331,0,0,1,2.66,1.121,3.6,3.6,0,0,1,.831,1.251,3.257,3.257,0,0,1,.213,1.422,4.005,4.005,0,0,1-.426,1.5A5.589,5.589,0,0,1,63.12,49.7Zm-.5-.5,1.6-1.6a4.38,4.38,0,0,0,.864-1.179,3.231,3.231,0,0,0,.325-1.2,2.7,2.7,0,0,0-.18-1.139,2.881,2.881,0,0,0-.663-1,2.72,2.72,0,0,0-2.139-.916,3.812,3.812,0,0,0-2.357,1.287l-1.6,1.6Z" transform="translate(37.113 28.572)"/>
        <path id="Path_35872" data-name="Path 35872" d="M70.146,47.258l4.082-4.082.528.53-4.7,4.7L61.447,39.8l.621-.62Z" transform="translate(40.897 26.077)"/>
        <path id="Path_35873" data-name="Path 35873" d="M77.641,33.443a7.37,7.37,0,0,1,1.512,2.107,5.683,5.683,0,0,1,.546,2.227,5.243,5.243,0,0,1-.406,2.184,6.487,6.487,0,0,1-3.334,3.333,5.218,5.218,0,0,1-2.184.408,5.688,5.688,0,0,1-2.229-.545,7.859,7.859,0,0,1-3.614-3.613,5.729,5.729,0,0,1-.543-2.23,5.3,5.3,0,0,1,.4-2.187,6.044,6.044,0,0,1,1.346-1.977,6.13,6.13,0,0,1,1.985-1.359,5.252,5.252,0,0,1,2.187-.4,5.73,5.73,0,0,1,2.23.551,7.367,7.367,0,0,1,2.1,1.506M77,34.088a6.971,6.971,0,0,0-1.867-1.369,4.928,4.928,0,0,0-1.919-.513,4.235,4.235,0,0,0-1.855.328,5.168,5.168,0,0,0-1.682,1.153,5.087,5.087,0,0,0-1.138,1.667,4.33,4.33,0,0,0-.331,1.857,4.914,4.914,0,0,0,.5,1.929,7.531,7.531,0,0,0,3.24,3.24,4.913,4.913,0,0,0,1.925.5,4.3,4.3,0,0,0,1.855-.335,5.14,5.14,0,0,0,1.664-1.139,5.229,5.229,0,0,0,1.154-1.681,4.2,4.2,0,0,0,.331-1.852,4.927,4.927,0,0,0-.51-1.915A6.961,6.961,0,0,0,77,34.088" transform="translate(44.851 20.888)"/>
        <path id="Path_35874" data-name="Path 35874" d="M87.681,30.78l-.481.481a.3.3,0,0,1-.185.095.421.421,0,0,1-.2-.035L83.3,29.837l-4.227,4.229,1.489,3.509a.385.385,0,0,1,.032.2.323.323,0,0,1-.1.193l-.475.475L74.931,26.316l.62-.621Zm-8.888,2.635,3.857-3.857-6.108-2.592c-.1-.04-.2-.09-.32-.148s-.237-.123-.361-.192c.068.125.133.247.192.361s.11.225.155.325Z" transform="translate(49.872 17.102)"/>
        <path id="Path_35875" data-name="Path 35875" d="M91.243,20.336a7.246,7.246,0,0,1,1.5,2.094,5.46,5.46,0,0,1,.516,2.2,5.116,5.116,0,0,1-.438,2.154,6.324,6.324,0,0,1-1.374,1.972L88.3,31.889,79.7,23.281l3.14-3.138a6.385,6.385,0,0,1,1.97-1.374,5.164,5.164,0,0,1,2.154-.44,5.517,5.517,0,0,1,2.2.516,7.259,7.259,0,0,1,2.087,1.491m-.645.646a6.846,6.846,0,0,0-1.855-1.357,4.805,4.805,0,0,0-1.9-.49,4.25,4.25,0,0,0-1.835.35,5.365,5.365,0,0,0-1.672,1.163l-2.512,2.512,7.6,7.6,2.512-2.512A5.338,5.338,0,0,0,92.1,26.572a4.172,4.172,0,0,0,.351-1.834,4.777,4.777,0,0,0-.49-1.9,6.905,6.905,0,0,0-1.362-1.86" transform="translate(53.044 12.199)"/>
        <path id="Path_35876" data-name="Path 35876" d="M91.867,11.193l.518.518-4.532,4.53,3.479,3.481L95.1,15.95l.5.5-3.771,3.773,3.589,3.589,4.532-4.532.516.516-5.158,5.158-8.608-8.608Z" transform="translate(57.711 7.45)"/>
        <path id="Path_35877" data-name="Path 35877" d="M104.034,7.546a7.246,7.246,0,0,1,1.5,2.094,5.46,5.46,0,0,1,.516,2.2,5.116,5.116,0,0,1-.438,2.154,6.327,6.327,0,0,1-1.374,1.97l-3.14,3.14-8.608-8.608,3.14-3.14A6.387,6.387,0,0,1,97.6,5.979a5.154,5.154,0,0,1,2.154-.44,5.524,5.524,0,0,1,2.2.516,7.259,7.259,0,0,1,2.087,1.491m-.646.646a6.84,6.84,0,0,0-1.854-1.357,4.812,4.812,0,0,0-1.9-.49A4.25,4.25,0,0,0,97.8,6.7a5.387,5.387,0,0,0-1.672,1.161L93.62,10.369l7.6,7.6,2.513-2.513a5.312,5.312,0,0,0,1.161-1.672,4.22,4.22,0,0,0,.351-1.834,4.805,4.805,0,0,0-.49-1.9,6.878,6.878,0,0,0-1.364-1.86" transform="translate(61.557 3.686)"/>
      </g>
    </g>
  </g>
</svg>
