<?xml version="1.0" encoding="UTF-8"?>
<svg id="Layer_1" data-name="Layer 1" xmlns="http://www.w3.org/2000/svg" viewBox="0 0 67.56 65.96">
  <path d="M66.1,49.92c-.81,0-1.46,.66-1.46,1.46v11.65H2.92v-11.65h0c0-.81-.65-1.46-1.46-1.46S0,50.57,0,51.38v13.12H0c0,.8,.64,1.44,1.43,1.46H66.13c.79-.02,1.43-.66,1.43-1.46v-13.12h0c0-.81-.66-1.46-1.46-1.46Z"/>
  <path d="M15.09,19.57c.56,.56,1.47,.56,2.03,0L31.76,4.97V52.79c0,.8,.65,1.46,1.46,1.46,.81,0,1.46-.65,1.46-1.46V4.9l15.22,14.69h.01s0,.01,0,.02c.58,.54,1.48,.51,2.02-.07,.55-.59,.53-1.5-.05-2.06L34.35,.53c-.07-.08-.15-.16-.23-.22,0,0,0,0,0,0-.64-.5-1.55-.38-2.05,.25L15.09,17.5c-.57,.57-.58,1.48-.02,2.06h.01Z"/>
</svg>