<svg xmlns="http://www.w3.org/2000/svg" width="23.167" height="20.033" viewBox="-0.017 -0.017 23.167 20.033"><path d="M23.11 4.626c-.102 2.25-1.674 5.332-4.715 9.243-3.143 4.085-5.803 6.129-7.978 6.129-1.349 0-2.49-1.244-3.421-3.732L5.13 9.423C4.438 6.936 3.696 5.69 2.902 5.69c-.173 0-.778.364-1.815 1.088L0 5.38a285.152 285.152 0 0 0 3.374-3.01C4.896 1.056 6.039.364 6.8.295 8.599.12 9.707 1.35 10.123 3.983c.45 2.84.76 4.607.934 5.298.52 2.357 1.09 3.535 1.714 3.535.483 0 1.21-.765 2.18-2.294.968-1.528 1.487-2.691 1.557-3.491.138-1.32-.381-1.98-1.557-1.98-.553 0-1.124.127-1.711.379C14.376 1.708 16.547-.1 19.752.004c2.375.07 3.496 1.61 3.359 4.622Z" fill="#fff" fill-rule="evenodd" data-name="Path 6"/></svg>