<?xml version="1.0" encoding="UTF-8"?>
<svg id="Layer_1" data-name="Layer 1" xmlns="http://www.w3.org/2000/svg" viewBox="0 0 73 73">
  <defs>
    <style>
      .cls-1 {
        fill: #fff;
      }

      .cls-2 {
        stroke: #fff;
      }

      .cls-2, .cls-3 {
        fill: none;
      }
    </style>
  </defs>
  <g id="Group_6352" data-name="Group 6352">
    <g id="Rectangle_2373" data-name="Rectangle 2373">
      <rect class="cls-3" width="73" height="73" rx="10" ry="10"/>
      <rect class="cls-2" x=".5" y=".5" width="72" height="72" rx="9.5" ry="9.5"/>
    </g>
    <g id="logo">
      <g id="Group_4743" data-name="Group 4743">
        <g id="Group_4742" data-name="Group 4742">
          <path id="Path_27328" data-name="Path 27328" class="cls-1" d="M48.77,24.09c-6.77-6.78-17.76-6.79-24.54-.01-5.56,5.55-6.69,14.14-2.77,20.94l-2.46,8.99,9.2-2.41c2.54,1.39,5.39,2.11,8.29,2.11h0c9.58,0,17.35-7.77,17.35-17.35,0-4.6-1.83-9.01-5.08-12.26Zm-12.27,26.68h0c-2.58,0-5.12-.69-7.34-2.01l-.53-.31-5.46,1.43,1.46-5.32-.34-.55c-4.23-6.75-2.2-15.65,4.55-19.88,6.75-4.23,15.65-2.2,19.88,4.55,4.23,6.75,2.2,15.65-4.55,19.88-2.3,1.44-4.95,2.21-7.66,2.21h0Zm7.91-10.8c-.43-.22-2.57-1.27-2.96-1.41s-.69-.22-.98,.22-1.12,1.41-1.37,1.7-.51,.33-.94,.11c-1.28-.51-2.46-1.24-3.49-2.15-.95-.88-1.76-1.89-2.41-3-.25-.43-.03-.67,.19-.88,.2-.19,.43-.51,.65-.76,.18-.22,.32-.46,.43-.72,.12-.24,.1-.53-.04-.76-.11-.22-.98-2.35-1.34-3.22-.35-.85-.71-.73-.98-.74s-.54-.02-.83-.02c-.44,.01-.86,.21-1.16,.54-.99,.94-1.54,2.25-1.52,3.61,.14,1.63,.76,3.19,1.77,4.48,.22,.29,3.06,4.67,7.4,6.54,.81,.35,1.63,.65,2.47,.91,.88,.27,1.82,.33,2.73,.17,1.22-.25,2.28-1,2.93-2.06,.28-.65,.37-1.36,.25-2.06-.11-.18-.4-.29-.83-.5h0Z"/>
        </g>
      </g>
    </g>
  </g>
</svg>