<?xml version="1.0" encoding="UTF-8"?>
<svg id="Layer_1" data-name="Layer 1" xmlns="http://www.w3.org/2000/svg" viewBox="0 0 147.65 148.3">
  <defs>
    <style>
      .cls-1 {
        fill: #3eb554;
      }
    </style>
  </defs>
  <g id="Group_4743" data-name="Group 4743">
    <g id="Group_4742" data-name="Group 4742">
      <path id="Path_27328" data-name="Path 27328" class="cls-1" d="M126.14,21.54c-28.71-28.72-75.26-28.73-103.98-.02C-1.36,45.04-6.17,81.4,10.43,110.22L0,148.3l38.97-10.22c10.78,5.87,22.86,8.94,35.13,8.95h.03c40.6,0,73.52-32.92,73.51-73.53,0-19.49-7.74-38.17-21.51-51.96h0Zm-52,113.07h-.02c-10.94,0-21.68-2.94-31.1-8.52l-2.23-1.32-23.13,6.07,6.17-22.54-1.45-2.31C4.43,77.41,13.07,39.69,41.65,21.75,70.24,3.81,107.95,12.44,125.89,41.03c17.94,28.59,9.31,66.3-19.28,84.24-9.73,6.11-20.99,9.35-32.48,9.35Zm33.52-45.75c-1.84-.92-10.87-5.36-12.55-5.97s-2.91-.92-4.13,.92-4.74,5.97-5.82,7.2-2.14,1.38-3.98,.46c-5.42-2.16-10.41-5.24-14.77-9.11-4.02-3.71-7.46-8-10.22-12.72-1.07-1.84-.11-2.83,.81-3.75,.83-.82,1.84-2.14,2.76-3.22,.76-.93,1.37-1.96,1.84-3.06,.5-1.03,.44-2.24-.15-3.22-.46-.92-4.13-9.96-5.66-13.64-1.49-3.58-3.01-3.1-4.13-3.15-1.07-.05-2.3-.07-3.52-.07-1.88,.05-3.66,.88-4.9,2.3-4.2,3.98-6.53,9.54-6.43,15.32,0,9.04,6.58,17.77,7.5,19s12.95,19.77,31.38,27.73c3.42,1.47,6.92,2.76,10.47,3.87,3.75,1.14,7.71,1.39,11.57,.73,3.53-.53,10.87-4.44,12.4-8.73s1.53-7.97,1.07-8.73-1.68-1.23-3.52-2.15h0Z"/>
    </g>
  </g>
</svg>