<?xml version="1.0" encoding="UTF-8"?>
<svg id="Layer_1" data-name="Layer 1" xmlns="http://www.w3.org/2000/svg" viewBox="0 0 19.91 19.99">
  <defs>
    <style>
      .cls-1 {
        fill: #fff;
      }
    </style>
  </defs>
  <g id="Group_4743" data-name="Group 4743">
    <g id="Group_4742" data-name="Group 4742">
      <path id="Path_27328" data-name="Path 27328" class="cls-1" d="M17.01,2.9c-3.88-3.87-10.15-3.86-14.02,.02C-.18,6.08-.82,10.97,1.41,14.85l-1.41,5.14,5.26-1.38c1.45,.79,3.08,1.21,4.74,1.21h0c5.48,0,9.91-4.44,9.91-9.91,0-2.63-1.04-5.15-2.9-7.01h0Zm-7.01,15.25h0c-1.48,0-2.92-.4-4.19-1.15l-.3-.18-3.12,.82,.83-3.04-.2-.31C.59,10.43,1.76,5.34,5.61,2.92c3.85-2.42,8.94-1.26,11.36,2.6,2.42,3.85,1.26,8.94-2.6,11.36-1.31,.82-2.83,1.26-4.38,1.26h0Zm4.52-6.17c-.25-.12-1.47-.72-1.69-.81s-.39-.12-.56,.12-.64,.81-.78,.97-.29,.19-.54,.06c-.73-.29-1.4-.71-1.99-1.23-.54-.5-1.01-1.08-1.38-1.71-.14-.25-.02-.38,.11-.51s.25-.29,.37-.43c.1-.13,.19-.26,.25-.41,.07-.14,.06-.3-.02-.43-.06-.12-.56-1.34-.76-1.84s-.4-.42-.56-.42-.31,0-.48,0c-.25,0-.49,.12-.66,.31-.57,.54-.88,1.29-.87,2.07,.08,.93,.43,1.82,1.01,2.56,1.06,1.59,2.52,2.88,4.23,3.74,.46,.2,.93,.37,1.41,.52,.51,.15,1.04,.19,1.56,.1,.7-.14,1.3-.57,1.67-1.18,.16-.37,.21-.78,.14-1.18-.06-.11-.22-.17-.47-.29Z"/>
    </g>
  </g>
</svg>