<svg xmlns="http://www.w3.org/2000/svg" width="28.6" height="20.033" viewBox="-0.017 -0.017 28.6 20.033"><path d="M27.97 3.123A3.578 3.578 0 0 0 25.446.597C23.217 0 14.284 0 14.284 0S5.35 0 3.122.597A3.579 3.579 0 0 0 .597 3.123C0 5.35 0 9.999 0 9.999s0 4.648.597 6.876A3.579 3.579 0 0 0 3.122 19.4c2.228.597 11.162.597 11.162.597s8.933 0 11.161-.597a3.578 3.578 0 0 0 2.526-2.526c.597-2.228.597-6.876.597-6.876s0-4.648-.597-6.876Zm-16.543 11.16v-8.57L18.85 10l-7.422 4.285Z" fill="#fff" fill-rule="evenodd" data-name="Path 1"/></svg>