<svg xmlns="http://www.w3.org/2000/svg" xmlns:xlink="http://www.w3.org/1999/xlink" width="422.196" height="100" viewBox="0 0 422.196 100">
  <defs>
    <clipPath id="clip-path">
      <rect id="Rectangle_2673" data-name="Rectangle 2673" width="204.381" height="100" fill="#ff0"/>
    </clipPath>
  </defs>
  <g id="Group_6480" data-name="Group 6480" transform="translate(-636 -875)">
    <g id="Group_6476" data-name="Group 6476" transform="translate(602 841)">
      <g id="Group_3385" data-name="Group 3385" transform="translate(248 34)">
        <path id="Path_7808" data-name="Path 7808" d="M239.262,165.494v-1.178a18.845,18.845,0,0,0-1.178-5.572c-1.3-3.251-3.5-6.305-5.358-9.537-3.456-6-7.345-12.925-10.824-18.967-2.864-4.975-5.533-11.368-12.644-11.466-7.394-.1-9.854,6.427-12.538,11.143-8.521,14.976-25.933,45.115-25.933,45.115h8.037s16.614-29.4,24.862-44.256c1.054-1.9,3.145-4.394,5.572-4.394,3.682,0,5.525,4.383,7.18,7.394,4.431,8.066,8.7,15.784,12.859,23.574,1.307,2.451,3.96,5.675,2.143,9-1.186,2.17-3.574,2.038-6.965,2.038,0,.055-32.79,0-32.79,0v6.643h29.79s7.013.212,9.857-.321C236.038,173.826,238.594,170.177,239.262,165.494Z" transform="translate(-31.066 -118.772)" fill="#ff0"/>
        <g id="Group_3285" data-name="Group 3285" transform="translate(0)">
          <g id="Group_3282" data-name="Group 3282">
            <path id="Path_7809" data-name="Path 7809" d="M98.525,118.772v1.393a2.81,2.81,0,0,1-.557,1.631L62.238,171.69h35.97v3.383H56.826V173.6a2.448,2.448,0,0,1,.478-1.432l35.81-50.015H57.861v-3.381Z" transform="translate(-56.826 -118.772)" fill="#ff0"/>
          </g>
          <g id="Group_3283" data-name="Group 3283" transform="translate(55.465)">
            <path id="Path_7810" data-name="Path 7810" d="M106.164,175.073h-4.1v-56.3h4.1Z" transform="translate(-102.065 -118.772)" fill="#ff0"/>
          </g>
          <g id="Group_3284" data-name="Group 3284" transform="translate(77.64)">
            <path id="Path_7811" data-name="Path 7811" d="M148.243,161.067c.159-.423.325-.842.5-1.253a10.429,10.429,0,0,1,.577-1.174l22.121-39.112a1.444,1.444,0,0,1,.638-.636,2.57,2.57,0,0,1,.875-.119h2.825v56.3H172.2V127.087a21.32,21.32,0,0,1,.12-2.188l-22.163,39.352a1.737,1.737,0,0,1-1.591,1.034h-.638a1.791,1.791,0,0,1-1.59-1.034l-22.76-39.391a21.615,21.615,0,0,1,.119,2.228v47.986h-3.541v-56.3h2.786a2.751,2.751,0,0,1,.9.119,1.413,1.413,0,0,1,.657.636l22.718,39.152A16.222,16.222,0,0,1,148.243,161.067Z" transform="translate(-120.152 -118.772)" fill="#ff0"/>
          </g>
        </g>
      </g>
      <g id="Group_4567" data-name="Group 4567" transform="translate(248 115.196)">
        <path id="Path_27238" data-name="Path 27238" d="M80.357,183.609v.455a.913.913,0,0,1-.182.532L68.514,200.88H80.253v1.1H66.748V201.5a.8.8,0,0,1,.156-.467l11.687-16.322H67.086v-1.1Z" transform="translate(-66.748 -183.401)" fill="#ff0"/>
        <path id="Path_27239" data-name="Path 27239" d="M86.964,201.984H85.626V183.609h1.338Z" transform="translate(-62.279 -183.401)" fill="#ff0"/>
        <path id="Path_27240" data-name="Path 27240" d="M104.885,197.413c.052-.14.106-.275.162-.411a3.542,3.542,0,0,1,.189-.382l7.219-12.764a.472.472,0,0,1,.209-.208.807.807,0,0,1,.286-.04h.921v18.375H112.7V186.324a6.97,6.97,0,0,1,.04-.715l-7.234,12.842a.566.566,0,0,1-.519.339h-.208a.584.584,0,0,1-.519-.339L96.834,185.6a7.058,7.058,0,0,1,.04.727v15.661H95.717V183.609h.909a.859.859,0,0,1,.292.04.451.451,0,0,1,.215.208l7.414,12.778A5.283,5.283,0,0,1,104.885,197.413Z" transform="translate(-59.89 -183.401)" fill="#ff0"/>
        <path id="Path_27241" data-name="Path 27241" d="M135.61,192.829a11.168,11.168,0,0,1-.636,3.864,8.564,8.564,0,0,1-1.792,2.962,7.922,7.922,0,0,1-2.767,1.895,9.8,9.8,0,0,1-7.116,0,7.918,7.918,0,0,1-2.765-1.895,8.655,8.655,0,0,1-1.8-2.962,11.907,11.907,0,0,1,0-7.713,8.65,8.65,0,0,1,1.8-2.961,8.022,8.022,0,0,1,2.765-1.9,9.076,9.076,0,0,1,3.546-.675,9.233,9.233,0,0,1,3.57.668,7.9,7.9,0,0,1,2.767,1.9,8.616,8.616,0,0,1,1.792,2.966A11.139,11.139,0,0,1,135.61,192.829Zm-1.376,0a10.522,10.522,0,0,0-.532-3.454,7.452,7.452,0,0,0-1.5-2.6,6.417,6.417,0,0,0-2.331-1.63,7.841,7.841,0,0,0-3.025-.565,7.722,7.722,0,0,0-2.993.565,6.55,6.55,0,0,0-2.339,1.63,7.41,7.41,0,0,0-1.519,2.6,11.357,11.357,0,0,0,0,6.916,7.421,7.421,0,0,0,1.519,2.591,6.486,6.486,0,0,0,2.339,1.623,7.79,7.79,0,0,0,2.993.558,7.91,7.91,0,0,0,3.025-.558,6.355,6.355,0,0,0,2.331-1.623,7.463,7.463,0,0,0,1.5-2.591A10.5,10.5,0,0,0,134.234,192.829Z" transform="translate(-54.593 -183.441)" fill="#ff0"/>
        <path id="Path_27242" data-name="Path 27242" d="M156.315,201.153a14.378,14.378,0,0,0,1.727-.1,9.365,9.365,0,0,0,1.448-.293,8.922,8.922,0,0,0,1.274-.475q.6-.278,1.213-.628v-4.948h-3.532a.337.337,0,0,1-.24-.092.272.272,0,0,1-.1-.208v-.726h5.078v6.531a12.017,12.017,0,0,1-1.43.857,9.416,9.416,0,0,1-1.584.629,12.043,12.043,0,0,1-1.818.39,15.278,15.278,0,0,1-2.128.137,9.547,9.547,0,0,1-3.63-.669,8.04,8.04,0,0,1-2.817-1.9,8.541,8.541,0,0,1-1.825-2.968,11.834,11.834,0,0,1,0-7.732,8.424,8.424,0,0,1,1.844-2.961,8.155,8.155,0,0,1,2.9-1.9,10.42,10.42,0,0,1,3.824-.668,12.124,12.124,0,0,1,1.942.143,9.042,9.042,0,0,1,1.655.421,7.819,7.819,0,0,1,1.428.689,9.724,9.724,0,0,1,1.274.942l-.351.571a.364.364,0,0,1-.324.194.486.486,0,0,1-.221-.052,2.746,2.746,0,0,1-.565-.364,6.023,6.023,0,0,0-1-.6,8.3,8.3,0,0,0-1.577-.559,9.311,9.311,0,0,0-2.3-.246,8.739,8.739,0,0,0-3.234.571,6.861,6.861,0,0,0-2.461,1.636,7.25,7.25,0,0,0-1.571,2.6,10.121,10.121,0,0,0-.553,3.441,10.261,10.261,0,0,0,.559,3.494,7.481,7.481,0,0,0,1.564,2.617,6.739,6.739,0,0,0,2.415,1.642A8.206,8.206,0,0,0,156.315,201.153Z" transform="translate(-47.678 -183.441)" fill="#ff0"/>
        <path id="Path_27243" data-name="Path 27243" d="M169.764,193.672v8.312h-1.326V183.609h4.688a7.641,7.641,0,0,1,4.753,1.228,4.292,4.292,0,0,1,1.572,3.6,4.933,4.933,0,0,1-.364,1.922,4.522,4.522,0,0,1-1.045,1.526,5.567,5.567,0,0,1-1.644,1.077,7.26,7.26,0,0,1-2.168.552,2.107,2.107,0,0,1,.558.521l6.325,7.947h-1.155a.762.762,0,0,1-.357-.079.913.913,0,0,1-.292-.26l-5.883-7.452a1.3,1.3,0,0,0-.474-.4,1.987,1.987,0,0,0-.787-.117Zm0-.987h3.194a7.54,7.54,0,0,0,2.188-.292,4.718,4.718,0,0,0,1.637-.837,3.634,3.634,0,0,0,1.019-1.311,4.126,4.126,0,0,0,.35-1.728,3.379,3.379,0,0,0-1.285-2.909,6.244,6.244,0,0,0-3.741-.947h-3.363Z" transform="translate(-42.675 -183.401)" fill="#ff0"/>
        <path id="Path_27244" data-name="Path 27244" d="M201.728,192.829a11.139,11.139,0,0,1-.637,3.864,8.546,8.546,0,0,1-1.792,2.962,7.919,7.919,0,0,1-2.765,1.895,9.8,9.8,0,0,1-7.116,0,7.918,7.918,0,0,1-2.765-1.895,8.654,8.654,0,0,1-1.8-2.962,11.885,11.885,0,0,1,0-7.713,8.649,8.649,0,0,1,1.8-2.961,8.022,8.022,0,0,1,2.765-1.9,9.075,9.075,0,0,1,3.544-.675,9.235,9.235,0,0,1,3.572.668,7.9,7.9,0,0,1,2.765,1.9,8.6,8.6,0,0,1,1.792,2.966A11.11,11.11,0,0,1,201.728,192.829Zm-1.377,0a10.489,10.489,0,0,0-.533-3.454,7.449,7.449,0,0,0-1.5-2.6,6.417,6.417,0,0,0-2.331-1.63,7.842,7.842,0,0,0-3.026-.565,7.726,7.726,0,0,0-2.993.565,6.541,6.541,0,0,0-2.336,1.63,7.375,7.375,0,0,0-1.52,2.6,11.332,11.332,0,0,0,0,6.916,7.386,7.386,0,0,0,1.52,2.591,6.477,6.477,0,0,0,2.336,1.623,7.794,7.794,0,0,0,2.993.558,7.911,7.911,0,0,0,3.026-.558,6.355,6.355,0,0,0,2.331-1.623,7.46,7.46,0,0,0,1.5-2.591A10.472,10.472,0,0,0,200.352,192.829Z" transform="translate(-38.941 -183.441)" fill="#ff0"/>
        <path id="Path_27245" data-name="Path 27245" d="M212.894,201.036a5.812,5.812,0,0,0,2.371-.461,5.067,5.067,0,0,0,1.772-1.279,5.607,5.607,0,0,0,1.11-1.929,7.268,7.268,0,0,0,.383-2.394V183.609h1.323v11.363a8.193,8.193,0,0,1-.48,2.837,6.774,6.774,0,0,1-1.383,2.3,6.369,6.369,0,0,1-2.2,1.538,7.8,7.8,0,0,1-5.8,0,6.369,6.369,0,0,1-2.2-1.538,6.776,6.776,0,0,1-1.383-2.3,8.223,8.223,0,0,1-.48-2.837V183.609h1.338v11.349a7.291,7.291,0,0,0,.382,2.4,5.655,5.655,0,0,0,1.1,1.927,5.067,5.067,0,0,0,1.765,1.286A5.75,5.75,0,0,0,212.894,201.036Z" transform="translate(-33.798 -183.401)" fill="#ff0"/>
        <path id="Path_27246" data-name="Path 27246" d="M227.314,194.581v7.4h-1.326V183.609h4.74a7.287,7.287,0,0,1,4.876,1.416,5.042,5.042,0,0,1,1.642,4.039,5.41,5.41,0,0,1-.448,2.219,4.946,4.946,0,0,1-1.291,1.747,6.022,6.022,0,0,1-2.053,1.142,8.451,8.451,0,0,1-2.727.409Zm0-1.065h3.415a6.592,6.592,0,0,0,2.182-.336,4.8,4.8,0,0,0,1.63-.935,4.044,4.044,0,0,0,1.025-1.41,4.336,4.336,0,0,0,.357-1.771,4.1,4.1,0,0,0-1.3-3.26,5.755,5.755,0,0,0-3.889-1.143h-3.415Z" transform="translate(-29.051 -183.401)" fill="#ff0"/>
      </g>
    </g>
    <g id="Group_6479" data-name="Group 6479" transform="translate(636 875)">
      <g id="Group_6478" data-name="Group 6478" clip-path="url(#clip-path)">
        <path id="Path_36299" data-name="Path 36299" d="M952.981,292.661v24.36c-6.621,11.3-11.31,19.283-11.31,19.283H926.837s12.765-21.26,26.144-43.642" transform="translate(-748.6 -236.38)" fill="#ff0"/>
        <path id="Path_36300" data-name="Path 36300" d="M641.745,19.36V43.717C633.9,56.85,625.837,70.367,620.022,80.2c-4.954,8.379-9.494,19.977-23.142,19.8-13.127-.175-18.054-11.529-23.342-20.367C567.12,68.9,559.943,56.6,553.562,45.944c-3.44-5.74-7.49-11.165-9.89-16.938a32.411,32.411,0,0,1-2.175-9.9V17.013C542.73,8.7,547.449,2.214,556.134.646c5.25-.952,18.2-.571,18.2-.571h54.988v11.8s-60.519-.1-60.527,0c-6.26,0-10.667-.238-12.856,3.617-3.354,5.908,1.54,11.636,3.956,15.986,7.671,13.838,15.556,27.548,23.736,41.875,3.052,5.346,6.454,13.131,13.252,13.131,4.481,0,8.338-4.429,10.285-7.8,9.271-16.071,24.269-41.719,34.581-59.319" transform="translate(-437.363 0)" fill="#ff0"/>
        <path id="Path_36301" data-name="Path 36301" d="M126.394,82.986v-2.1a32.421,32.421,0,0,0-2.175-9.9c-2.4-5.775-6.453-11.2-9.89-16.94-6.381-10.65-13.56-22.957-19.979-33.688C89.065,11.532,84.136.179,71.011,0,57.362-.18,52.822,11.418,47.869,19.8,32.14,46.4,0,99.924,0,99.924H14.837S45.5,47.71,60.724,21.319c1.947-3.374,5.807-7.8,10.286-7.8,6.8,0,10.2,7.784,13.252,13.133C92.443,40.973,100.324,54.683,108,68.521c2.413,4.352,7.311,10.078,3.956,15.987-2.187,3.855-6.6,3.619-12.858,3.619-.007.1-60.524,0-60.524,0v11.8H93.558s12.947.379,18.2-.569c8.683-1.57,13.4-8.053,14.637-16.369" transform="translate(0 -0.001)" fill="#ff0"/>
      </g>
    </g>
  </g>
</svg>
