<svg xmlns="http://www.w3.org/2000/svg" width="110.937" height="30" viewBox="0 0 110.937 30">
  <g id="Group_4790" data-name="Group 4790" transform="translate(0 0)">
    <path id="Path_7808" data-name="Path 7808" d="M207.274,143.668v-.628a10.041,10.041,0,0,0-.628-2.969,42.626,42.626,0,0,0-2.855-5.082c-1.842-3.2-3.914-6.887-5.767-10.106-1.526-2.651-2.948-6.057-6.737-6.11-3.94-.055-5.251,3.425-6.681,5.938-4.54,7.98-13.818,24.039-13.818,24.039h4.282s8.853-15.665,13.247-23.582c.562-1.013,1.676-2.341,2.969-2.341,1.962,0,2.944,2.336,3.826,3.94,2.361,4.3,4.636,8.41,6.852,12.561.7,1.306,2.11,3.024,1.142,4.8-.632,1.156-1.9,1.086-3.711,1.086,0,.029-17.472,0-17.472,0v3.54H197.8a37.427,37.427,0,0,0,5.252-.171C205.556,148.107,206.918,146.163,207.274,143.668Z" transform="translate(-96.338 -118.772)" fill="#fff"/>
    <g id="Group_3285" data-name="Group 3285" transform="translate(0)">
      <g id="Group_3282" data-name="Group 3282">
        <path id="Path_7809" data-name="Path 7809" d="M79.045,118.772v.742a1.5,1.5,0,0,1-.3.869L59.71,146.969H78.876v1.8H56.826v-.785a1.3,1.3,0,0,1,.255-.763l19.081-26.65H57.377v-1.8Z" transform="translate(-56.826 -118.772)" fill="#fff"/>
      </g>
      <g id="Group_3283" data-name="Group 3283" transform="translate(29.554)">
        <path id="Path_7810" data-name="Path 7810" d="M104.249,148.772h-2.184v-30h2.184Z" transform="translate(-102.065 -118.772)" fill="#fff"/>
      </g>
      <g id="Group_3284" data-name="Group 3284" transform="translate(41.37)">
        <path id="Path_7811" data-name="Path 7811" d="M135.12,141.309c.085-.225.173-.449.265-.668a5.561,5.561,0,0,1,.308-.626l11.787-20.841a.77.77,0,0,1,.34-.339,1.369,1.369,0,0,1,.466-.063h1.505v30h-1.908V123.2a11.362,11.362,0,0,1,.064-1.166l-11.81,20.969a.925.925,0,0,1-.848.551h-.34a.954.954,0,0,1-.847-.551l-12.128-20.99a11.515,11.515,0,0,1,.063,1.187v25.569h-1.887v-30h1.484a1.466,1.466,0,0,1,.477.063.753.753,0,0,1,.35.339l12.106,20.862A8.647,8.647,0,0,1,135.12,141.309Z" transform="translate(-120.152 -118.772)" fill="#fff"/>
      </g>
    </g>
  </g>
</svg>
