<?xml version="1.0" encoding="UTF-8"?>
<svg id="Layer_1" data-name="Layer 1" xmlns="http://www.w3.org/2000/svg" viewBox="0 0 214.24 21.13">
  <defs>
    <style>
      .cls-1 {
        fill: #000;
      }
    </style>
  </defs>
  <path class="cls-1" d="M56.21,0V1.3h-7.42V21.13h-1.52V1.3h-7.47V0h16.41Z"/>
  <path class="cls-1" d="M206.96,11.99c-.19-.25-.4-.45-.64-.6,.93-.1,1.76-.31,2.49-.63,.74-.32,1.37-.74,1.89-1.24,.52-.5,.92-1.09,1.2-1.75,.28-.67,.42-1.4,.42-2.21,0-1.82-.6-3.2-1.81-4.14-1.2-.94-3.03-1.41-5.47-1.41h-3.71V1.21h3.71c1.88,0,3.32,.36,4.3,1.09,.99,.73,1.48,1.84,1.48,3.35,0,.74-.13,1.4-.4,1.99-.27,.59-.66,1.09-1.17,1.51s-1.14,.74-1.88,.96-1.58,.34-2.52,.34h-3.52v1.14h2.61c.41,0,.71,.04,.9,.13,.19,.09,.38,.24,.55,.46l6.77,8.57c.11,.14,.22,.24,.34,.3,.11,.06,.25,.09,.41,.09h1.33l-7.27-9.14Z"/>
  <path class="cls-1" d="M69.11,11.71c.19,.09,.38,.24,.55,.46l6.77,8.57c.11,.14,.22,.24,.34,.3,.11,.06,.24,.08,.38,.09l.75-.75-6.67-8.38c-.19-.25-.4-.45-.64-.6,.93-.1,1.76-.31,2.49-.63,.74-.32,1.37-.74,1.89-1.24,.52-.5,.92-1.09,1.2-1.75,.28-.67,.42-1.4,.42-2.21,0-1.82-.6-3.2-1.81-4.14-1.2-.94-3.03-1.41-5.47-1.41h-3.71V1.21h3.71c1.88,0,3.32,.36,4.3,1.09,.99,.73,1.48,1.84,1.48,3.35,0,.74-.13,1.4-.4,1.99-.27,.59-.66,1.09-1.17,1.51s-1.14,.74-1.88,.96c-.74,.22-1.58,.34-2.52,.34h-3.52v1.14h2.61c.41,0,.71,.04,.9,.13Z"/>
  <path class="cls-1" d="M92.53,1.74c.04,.12,.07,.24,.11,.35,.07,.21,.14,.41,.21,.58l4.27,10.73-9.37-.05-.47,1.14,10.28,.06,2.47,6.17c.05,.12,.12,.22,.21,.29,.09,.08,.2,.11,.34,.11h1.18S93.25,0,93.25,0l-.72,1.74Z"/>
  <path class="cls-1" d="M148.64,2.75c-.09,.17-.21,.25-.38,.25-.13,0-.29-.09-.49-.27-.2-.18-.47-.38-.81-.6-.34-.22-.77-.42-1.28-.61s-1.15-.28-1.9-.28-1.41,.11-1.99,.32c-.57,.21-1.05,.51-1.44,.88s-.68,.8-.88,1.28c-.2,.49-.3,1-.3,1.53,0,.7,.15,1.28,.45,1.74,.3,.46,.69,.85,1.18,1.17,.49,.32,1.04,.59,1.66,.81,.62,.22,1.26,.44,1.91,.65,.65,.21,1.29,.45,1.91,.71,.62,.26,1.17,.58,1.66,.97,.49,.39,.88,.87,1.18,1.44,.3,.57,.45,1.28,.45,2.12s-.15,1.68-.45,2.45c-.3,.76-.73,1.43-1.29,1.99-.57,.57-1.26,1.01-2.07,1.34-.82,.33-1.75,.49-2.8,.49-1.36,0-2.54-.24-3.52-.72s-1.85-1.14-2.58-1.98l.41-.64c.12-.15,.25-.22,.41-.22,.09,0,.2,.06,.34,.18s.3,.26,.5,.43c.19,.17,.43,.36,.7,.55s.59,.38,.95,.55c.36,.17,.77,.31,1.24,.43,.47,.12,1,.18,1.59,.18,.82,0,1.55-.12,2.19-.37s1.19-.59,1.63-1.02c.44-.43,.78-.94,1.02-1.53,.23-.59,.35-1.22,.35-1.89,0-.73-.15-1.33-.45-1.8-.3-.47-.69-.87-1.18-1.18-.49-.32-1.04-.58-1.66-.8-.62-.21-1.26-.42-1.91-.63-.65-.2-1.29-.43-1.91-.69-.62-.25-1.17-.58-1.66-.97-.49-.39-.88-.89-1.18-1.48-.3-.59-.45-1.33-.45-2.21,0-.69,.13-1.36,.39-2s.65-1.21,1.16-1.7,1.13-.89,1.88-1.18c.75-.3,1.6-.45,2.55-.45,1.07,0,2.04,.17,2.89,.51,.85,.34,1.63,.86,2.33,1.56l-.35,.67Z"/>
  <path class="cls-1" d="M112.22,.05c.08,.04,.16,.11,.25,.23l13.68,18.31c-.03-.3-.04-.59-.04-.87V0h1.34V21.13h-.73c-.23,0-.41-.1-.55-.3L112.43,2.49c.03,.3,.04,.58,.04,.85V21.13h-1.33V0h.75c.14,0,.25,.02,.33,.05Z"/>
  <path class="cls-1" d="M15.65,0V.52c0,.21-.07,.41-.21,.61L2.03,19.86H15.53v1.27H0v-.55c0-.19,.06-.37,.18-.54L13.62,1.27H.39V0H15.65Z"/>
  <path class="cls-1" d="M191.95,0V1.27h-11.13V9.81h9.26v1.24h-9.26v8.81h11.13v1.27h-12.66V0h12.66Z"/>
  <g>
    <rect class="cls-1" x="158.95" y="10.28" width="9.44" height="1.29"/>
    <rect class="cls-1" x="158.95" width="10.95" height="1.29"/>
  </g>
  <g>
    <path class="cls-1" d="M29.5,14.6h-.11c-.2,.01-.38,.05-.53,.11-.31,.12-.6,.33-.91,.51-.57,.33-1.23,.7-1.81,1.03-.47,.27-1.08,.53-1.09,1.21,0,.71,.61,.94,1.06,1.2,1.43,.81,4.3,2.47,4.3,2.47v-.77s-2.81-1.59-4.22-2.37c-.18-.1-.42-.3-.42-.53,0-.35,.42-.53,.71-.69,.77-.42,1.51-.83,2.25-1.23,.23-.12,.54-.38,.86-.2,.21,.11,.19,.34,.19,.66,0,0,0,3.13,0,3.13h.63s0-2.84,0-2.84c0,0,.02-.67-.03-.94-.08-.45-.43-.69-.88-.76Z"/>
    <path class="cls-1" d="M25.95,15.75h.11c.2-.01,.38-.05,.53-.11,.31-.12,.6-.33,.91-.51,.57-.33,1.23-.7,1.81-1.03,.47-.27,1.08-.53,1.09-1.21,0-.71-.61-.94-1.06-1.2-1.43-.81-4.3-2.47-4.3-2.47v.77s2.81,1.59,4.22,2.37c.18,.1,.42,.3,.42,.53,0,.35-.42,.53-.71,.69-.77,.42-1.51,.83-2.25,1.23-.23,.12-.54,.38-.86,.2-.21-.11-.19-.34-.19-.66,0,0,0-3.13,0-3.13h-.63s0,2.84,0,2.84c0,0-.02,.67,.03,.94,.08,.45,.43,.69,.88,.76Z"/>
    <path class="cls-1" d="M29.5,5.38h-.11c-.2,.01-.38,.05-.53,.11-.31,.12-.6,.33-.91,.51-.57,.33-1.23,.7-1.81,1.03-.47,.27-1.08,.53-1.09,1.21,0,.71,.61,.94,1.06,1.2,1.43,.81,4.3,2.47,4.3,2.47v-.77s-2.81-1.59-4.22-2.37c-.18-.1-.42-.3-.42-.53,0-.35,.42-.53,.71-.69,.77-.42,1.51-.83,2.25-1.23,.23-.12,.54-.38,.86-.2,.21,.11,.19,.34,.19,.66,0,0,0,3.13,0,3.13h.63s0-2.84,0-2.84c0,0,.02-.67-.03-.94-.08-.45-.43-.69-.88-.76Z"/>
    <path class="cls-1" d="M25.95,6.53h.11c.2-.01,.38-.05,.53-.11,.31-.12,.6-.33,.91-.51,.57-.33,1.23-.7,1.81-1.03,.47-.27,1.08-.53,1.09-1.21,0-.71-.61-.94-1.06-1.2-1.43-.81-4.3-2.47-4.3-2.47V.77s2.81,1.59,4.22,2.37c.18,.1,.42,.3,.42,.53,0,.35-.42,.53-.71,.69-.77,.42-1.51,.83-2.25,1.23-.23,.12-.54,.38-.86,.2-.21-.11-.19-.34-.19-.66,0,0,0-3.13,0-3.13h-.63s0,2.84,0,2.84c0,0-.02,.67,.03,.94,.08,.45,.43,.69,.88,.76Z"/>
  </g>
</svg>