<svg id="Group_3624" data-name="Group 3624" xmlns="http://www.w3.org/2000/svg" width="60.856" height="14.888" viewBox="0 0 60.856 14.888" >
  <path id="Path_1" data-name="Path 1" d="M75.232,128.719v-.312a4.829,4.829,0,0,0-.324-1.474,20.929,20.929,0,0,0-1.472-2.522c-.95-1.586-2.019-3.418-2.974-5.015-.787-1.316-1.521-3.006-3.475-3.032-2.032-.027-2.708,1.7-3.445,2.947-2.342,3.96-7.127,11.929-7.127,11.929h2.209s4.565-7.774,6.832-11.7a2.079,2.079,0,0,1,1.531-1.162c1.012,0,1.518,1.159,1.973,1.955,1.218,2.133,2.392,4.174,3.534,6.234.359.648,1.088,1.5.589,2.38-.326.574-.982.538-1.914.538,0,.015-9.011,0-9.011,0v1.757h8.186a19.987,19.987,0,0,0,2.709-.085A2.661,2.661,0,0,0,75.232,128.719Z" transform="translate(-56.415 -116.364)" fill="#fff"/>
  <path id="Path_2" data-name="Path 2" d="M99.743,118.9v.312a4.827,4.827,0,0,0,.324,1.473,20.932,20.932,0,0,0,1.472,2.522c.95,1.585,2.018,3.418,2.974,5.015.787,1.316,1.521,3.006,3.475,3.032,2.032.027,2.708-1.7,3.445-2.947,2.342-3.96,7.127-11.929,7.127-11.929h-2.209s-4.565,7.774-6.832,11.7a2.077,2.077,0,0,1-1.531,1.162c-1.012,0-1.519-1.159-1.973-1.955-1.218-2.133-2.392-4.174-3.534-6.234-.359-.648-1.088-1.5-.589-2.38.326-.574.982-.539,1.914-.539,0-.014,9.011,0,9.011,0v-1.756h-8.186a20.028,20.028,0,0,0-2.709.085A2.661,2.661,0,0,0,99.743,118.9Z" transform="translate(-84.24 -116.364)" fill="#fff"/>
  <path id="Path_3" data-name="Path 3" d="M149.393,128.719v-.312a4.829,4.829,0,0,0-.324-1.474,20.93,20.93,0,0,0-1.472-2.522c-.95-1.586-2.018-3.418-2.974-5.015-.787-1.316-1.521-3.006-3.475-3.032-2.032-.027-2.708,1.7-3.445,2.947-2.342,3.96-7.127,11.929-7.127,11.929h2.209s4.565-7.774,6.832-11.7a2.078,2.078,0,0,1,1.531-1.162c1.012,0,1.519,1.159,1.973,1.955,1.218,2.133,2.392,4.174,3.534,6.234.36.648,1.088,1.5.589,2.38-.326.574-.982.538-1.914.538,0,.015-9.011,0-9.011,0v1.757h8.187a19.982,19.982,0,0,0,2.709-.085A2.661,2.661,0,0,0,149.393,128.719Z" transform="translate(-104.04 -116.364)" fill="#fff"/>
  <path id="Path_4" data-name="Path 4" d="M173.9,118.9v.312a4.827,4.827,0,0,0,.324,1.473A20.982,20.982,0,0,0,175.7,123.2c.95,1.585,2.019,3.418,2.974,5.015.787,1.316,1.521,3.006,3.475,3.032,2.032.027,2.708-1.7,3.445-2.947,2.341-3.96,7.127-11.929,7.127-11.929h-2.209s-4.565,7.774-6.832,11.7a2.078,2.078,0,0,1-1.531,1.162c-1.012,0-1.518-1.159-1.973-1.955-1.218-2.133-2.391-4.174-3.534-6.234-.359-.648-1.088-1.5-.589-2.38.326-.574.982-.539,1.914-.539,0-.014,9.011,0,9.011,0v-1.756h-8.186a20.028,20.028,0,0,0-2.709.085A2.661,2.661,0,0,0,173.9,118.9Z" transform="translate(-131.865 -116.364)" fill="#fff"/>
</svg>
