<?xml version="1.0" encoding="UTF-8"?>
<svg id="Layer_1" data-name="Layer 1" xmlns="http://www.w3.org/2000/svg" viewBox="0 0 131.8 16.57">
  <defs>
    <style>
      .cls-1 {
        fill: #1d1d1b;
      }
    </style>
  </defs>
  <path class="cls-1" d="M59.34,8.96c-1.02-1.76-2.16-3.8-3.18-5.58C55.31,1.91,54.53,.03,52.44,0c-2.18-.03-2.9,1.89-3.69,3.28-2.51,4.41-7.63,13.28-7.63,13.28h2.37s4.89-8.65,7.32-13.02c.31-.56,.93-1.29,1.64-1.29,1.08,0,1.63,1.29,2.11,2.18,1.3,2.37,2.56,4.64,3.78,6.94,.38,.72,1.17,1.67,.63,2.65-.35,.64-1.05,.6-2.05,.6,0,.02-9.65,0-9.65,0v1.95h8.77s2.06,.06,2.9-.09c1.38-.26,2.14-1.33,2.33-2.71v-.35c-.05-.61-.16-1.16-.35-1.64-.38-.96-1.03-1.86-1.58-2.81Z"/>
  <path class="cls-1" d="M.3,1H10.68L.14,15.71c-.09,.13-.14,.27-.14,.42v.43H12.18v-1H1.59L12.11,.89c.11-.16,.16-.32,.16-.48V0H.3V1Z"/>
  <rect class="cls-1" x="16.32" y="0" width="1.21" height="16.57"/>
  <path class="cls-1" d="M38.13,.04c-.06,.02-.12,.09-.19,.19l-6.51,11.51c-.06,.11-.12,.22-.17,.35-.05,.12-.1,.24-.15,.37-.09-.25-.19-.48-.3-.7L24.12,.22c-.06-.1-.13-.16-.19-.19-.07-.02-.15-.04-.26-.04h-.82V16.57h1.04V2.45c0-.21-.01-.43-.04-.66l6.7,11.59c.12,.2,.27,.3,.47,.3h.19c.2,0,.36-.1,.47-.3L38.2,1.8c-.02,.23-.04,.44-.04,.64v14.12h1.05V0h-.83c-.11,0-.2,.01-.26,.04Z"/>
  <polygon class="cls-1" points="61.05 1.02 66.91 1.02 66.91 16.57 68.1 16.57 68.1 1.02 73.92 1.02 73.92 0 61.05 0 61.05 1.02"/>
  <polygon class="cls-1" points="79.53 16.57 89.46 16.57 89.46 15.57 80.74 15.57 80.74 8.66 88 8.66 88 7.69 80.74 7.69 80.74 1 89.46 1 89.46 0 79.53 0 79.53 16.57"/>
  <path class="cls-1" d="M101.85,0l-6.78,16.57h.91c.11,0,.2-.03,.28-.09,.08-.06,.13-.14,.16-.22l1.94-4.81h8.14l1.96,4.81c.04,.09,.09,.17,.16,.23,.07,.06,.16,.09,.27,.09h.92L103.04,0h-1.19Zm-3.11,10.55l3.38-8.36c.05-.14,.11-.29,.16-.46,.05-.17,.11-.35,.16-.53,.05,.19,.11,.36,.16,.53,.05,.17,.11,.32,.16,.45l3.38,8.37h-7.42Z"/>
  <path class="cls-1" d="M130.97,0c-.11,0-.2,.01-.26,.04-.06,.02-.12,.09-.19,.19l-6.51,11.51c-.06,.11-.12,.22-.17,.35-.05,.12-.1,.24-.15,.37-.09-.25-.19-.48-.3-.7L116.71,.22c-.06-.1-.13-.16-.19-.19-.07-.02-.15-.04-.26-.04h-.82V16.57h1.04V2.45c0-.21-.01-.43-.03-.66l6.7,11.59c.12,.2,.27,.3,.47,.3h.19c.2,0,.36-.1,.47-.3l6.52-11.58c-.02,.23-.03,.44-.03,.64v14.12h1.05V0h-.83Z"/>
</svg>