<svg xmlns="http://www.w3.org/2000/svg" width="506.917" height="50.05" viewBox="0 -0.033 506.917 50.05"><g data-name="Group 6094" clip-path="url(&quot;#a&quot;)"><path d="M489.689 28.373a5.74 5.74 0 0 0-1.522-1.412c2.194-.237 4.16-.736 5.904-1.503 1.741-.764 3.232-1.741 4.47-2.934a12.272 12.272 0 0 0 2.843-4.15c.66-1.578.99-3.322.99-5.231 0-4.311-1.425-7.579-4.276-9.805-2.851-2.227-7.162-3.339-12.933-3.339h-8.788v2.86h8.788c4.453 0 7.846.862 10.176 2.582 2.333 1.72 3.5 4.359 3.5 7.915 0 1.744-.317 3.31-.954 4.699a9.85 9.85 0 0 1-2.775 3.57c-1.214.99-2.698 1.749-4.453 2.279-1.753.53-3.739.795-5.953.795h-8.329v2.685h6.173c.966 0 1.678.107 2.137.317.461.213.89.578 1.292 1.096l16.006 20.284c.258.33.523.563.795.705.27.142.594.213.973.213h3.144L489.69 28.373Z" fill="#fff" fill-rule="evenodd" data-name="Path 33420"/><path d="M163.513 27.706c.459.213.89.577 1.29 1.096l16.008 20.286c.26.33.525.563.797.705.254.133.556.197.904.206l1.787-1.786-15.784-19.835a5.787 5.787 0 0 0-1.522-1.415c2.191-.234 4.16-.736 5.904-1.502 1.741-.765 3.234-1.742 4.469-2.932a12.276 12.276 0 0 0 2.846-4.152c.658-1.579.99-3.322.99-5.232 0-4.31-1.427-7.58-4.278-9.807-2.852-2.227-7.163-3.339-12.933-3.339h-8.79v2.86h8.79c4.453 0 7.846.862 10.179 2.582 2.33 1.72 3.497 4.359 3.497 7.917 0 1.744-.317 3.31-.954 4.7a9.834 9.834 0 0 1-2.775 3.57c-1.214.989-2.698 1.748-4.453 2.278-1.756.53-3.739.795-5.953.795H155.2v2.686h6.173c.967 0 1.68.106 2.139.32" fill="#fff" fill-rule="evenodd" data-name="Path 33421"/><path d="M218.938 4.121c.085.28.168.573.253.838.161.508.324.963.488 1.365l10.103 25.397-22.17-.12-1.108 2.688 24.326.132 5.84 14.599c.116.286.281.516.492.695.213.178.482.268.816.27l2.799.017-20.14-50.003-1.699 4.122Z" fill="#fff" fill-rule="evenodd" data-name="Path 33422"/><path d="M351.699 6.494c-.206.393-.507.59-.9.59-.3 0-.688-.214-1.159-.642-.475-.426-1.117-.899-1.926-1.415-.809-.52-1.82-.996-3.033-1.434-1.211-.437-2.71-.657-4.488-.657-1.78 0-3.346.253-4.697.76-1.354.508-2.485 1.199-3.398 2.074a8.804 8.804 0 0 0-2.08 3.04 9.412 9.412 0 0 0-.71 3.628c0 1.658.35 3.028 1.054 4.112.705 1.084 1.632 2.004 2.787 2.764 1.152.761 2.463 1.4 3.927 1.919 1.465.518 2.97 1.031 4.515 1.537a61.604 61.604 0 0 1 4.517 1.676 16.349 16.349 0 0 1 3.927 2.297 10.558 10.558 0 0 1 2.785 3.405c.705 1.349 1.056 3.024 1.056 5.028 0 2.051-.35 3.98-1.053 5.787a13.49 13.49 0 0 1-3.06 4.716c-1.337 1.337-2.971 2.39-4.905 3.163-1.935.772-4.147 1.157-6.634 1.157-3.227 0-6.003-.57-8.329-1.71a19.586 19.586 0 0 1-6.116-4.683l.968-1.519c.277-.348.598-.52.968-.52.205 0 .473.14.795.416.324.277.714.615 1.175 1.02.462.402 1.016.84 1.661 1.313.646.47 1.396.909 2.25 1.313.852.402 1.834.74 2.942 1.018 1.107.276 2.363.416 3.771.416 1.938 0 3.668-.296 5.191-.883 1.522-.586 2.809-1.386 3.86-2.401a10.188 10.188 0 0 0 2.403-3.61c.554-1.394.83-2.885.83-4.475 0-1.727-.352-3.152-1.054-4.268a9.117 9.117 0 0 0-2.788-2.8c-1.152-.747-2.463-1.374-3.927-1.883-1.465-.506-2.97-1-4.515-1.486a56.338 56.338 0 0 1-4.517-1.623 15.612 15.612 0 0 1-3.927-2.297c-1.153-.935-2.083-2.097-2.785-3.49-.703-1.394-1.056-3.14-1.056-5.236 0-1.635.313-3.214.935-4.735a11.78 11.78 0 0 1 2.733-4.025c1.2-1.164 2.683-2.096 4.448-2.799C335.903.35 337.916 0 340.178 0c2.537 0 4.815.403 6.834 1.21 2.018.806 3.856 2.037 5.517 3.698l-.83 1.587Z" fill="#fff" fill-rule="evenodd" data-name="Path 33423"/><path d="M265.529.122c.189.083.388.265.6.547l32.369 43.323a20.494 20.494 0 0 1-.107-2.05V0h3.18v50h-1.732c-.542 0-.977-.234-1.306-.705L266.023 5.9c.071.705.107 1.377.107 2.014v42.085h-3.145V0h1.765c.331 0 .59.04.779.123" fill="#fff" fill-rule="evenodd" data-name="Path 33424"/><path d="M37.032 0v1.237c0 .494-.166.977-.495 1.448L4.806 46.997H36.75v3.002H0v-1.306c0-.45.14-.873.424-1.273L32.226 3.004H.918V0h36.114Z" fill="#fff" fill-rule="evenodd" data-name="Path 33425"/><path d="M454.17 0v3.002h-26.324v20.213h21.907v2.932h-21.907v20.85h26.325v3.002h-29.964V0h29.964Z" fill="#fff" fill-rule="evenodd" data-name="Path 33426"/><path d="M376.084 24.33h22.335v3.04h-22.335v-3.04z" fill="#fff" fill-rule="evenodd" data-name="Rectangle 2303"/><path d="M376.084-.002h25.913V3.04h-25.913V-.002z" fill="#fff" fill-rule="evenodd" data-name="Rectangle 2304"/><path d="M69.79 34.54h-.265c-.469.035-.892.118-1.259.264-.733.296-1.424.79-2.153 1.212-1.353.78-2.92 1.658-4.283 2.444-1.123.646-2.567 1.25-2.588 2.853-.024 1.67 1.45 2.225 2.515 2.833a2557.333 2557.333 0 0 1 10.186 5.853v-1.814s-6.637-3.75-9.992-5.613c-.428-.239-.991-.71-.991-1.259 0-.83.989-1.246 1.668-1.62 1.822-1.001 3.563-1.964 5.323-2.904.554-.295 1.28-.894 2.033-.485.49.27.459.807.459 1.574.012.002 0 7.403 0 7.403h1.5v-6.726s.047-1.583-.073-2.225c-.2-1.062-1.022-1.64-2.08-1.79" fill="#fff" fill-rule="evenodd" data-name="Path 33427"/><path d="M61.402 37.26h.265c.469-.035.892-.118 1.259-.265.733-.295 1.424-.79 2.153-1.211 1.353-.78 2.92-1.659 4.283-2.444 1.124-.646 2.567-1.25 2.588-2.854.024-1.67-1.45-2.224-2.515-2.832C66.054 25.73 59.249 21.8 59.249 21.8v1.815s6.637 3.75 9.992 5.612c.428.24.991.71.991 1.26 0 .83-.989 1.246-1.668 1.62-1.822 1-3.563 1.964-5.323 2.903-.554.296-1.28.895-2.033.485-.49-.27-.459-.807-.459-1.573-.012-.003 0-7.404 0-7.404h-1.5v6.727s-.047 1.583.073 2.224c.2 1.063 1.022 1.64 2.08 1.791" fill="#fff" fill-rule="evenodd" data-name="Path 33428"/><path d="M69.79 12.736h-.265c-.469.035-.892.118-1.259.265-.733.296-1.424.79-2.153 1.211-1.353.781-2.92 1.659-4.283 2.445-1.123.645-2.567 1.249-2.588 2.853-.024 1.67 1.45 2.224 2.515 2.832 3.381 1.924 10.186 5.854 10.186 5.854V26.38s-6.637-3.75-9.992-5.612c-.428-.24-.991-.71-.991-1.259 0-.83.989-1.247 1.668-1.62 1.822-1.002 3.563-1.965 5.323-2.904.554-.296 1.28-.894 2.033-.485.49.27.459.807.459 1.573.012.003 0 7.404 0 7.404h1.5V16.75s.047-1.583-.073-2.224c-.2-1.062-1.022-1.64-2.08-1.791" fill="#fff" fill-rule="evenodd" data-name="Path 33429"/><path d="M61.402 15.46h.265c.469-.036.892-.119 1.259-.266.733-.295 1.424-.79 2.153-1.211 1.353-.781 2.92-1.659 4.283-2.444 1.124-.646 2.567-1.25 2.588-2.854.024-1.67-1.45-2.224-2.515-2.832C66.054 3.929 59.249-.001 59.249-.001v1.815s6.637 3.75 9.992 5.612c.428.24.991.71.991 1.26 0 .83-.989 1.246-1.668 1.62-1.822 1-3.563 1.964-5.323 2.903-.554.296-1.28.895-2.033.485-.49-.27-.459-.807-.459-1.573-.012-.003 0-7.404 0-7.404h-1.5v6.727s-.047 1.583.073 2.224c.2 1.063 1.022 1.64 2.08 1.791" fill="#fff" fill-rule="evenodd" data-name="Path 33430"/></g><defs><clipPath id="a"><path d="M0 0h506.897v50H0V0z" data-name="Rectangle 2305"/></clipPath></defs></svg>