<svg xmlns="http://www.w3.org/2000/svg" width="532.667" height="390.15" viewBox="1337.35 139.983 532.667 390.15"><g data-name="Group 6340"><path d="m1827.954 140-306.038 306.039-142.514-142.54-42.047 42.052 184.56 184.565 348.086-348.085L1827.954 140Z" fill="#fff" fill-rule="evenodd" data-name="Path 35866"/><g data-name="Group 6336"><g data-name="Group 6335" transform="translate(1337.353 140.001)" clip-path="url(&quot;#a&quot;)"><path d="m62.53 199.694-.643.643a1.834 1.834 0 0 1-1.01.498l-39.55 6.53 16.62 16.62-1.561 1.562-19.107-19.107.678-.678a1.6 1.6 0 0 1 .879-.442l39.635-6.56-16.279-16.28 1.562-1.561 18.776 18.775Z" fill-rule="evenodd" data-name="Path 35867"/><path d="m85.358 222.522-1.598 1.598-9.131-9.132-24.401 24.401-1.874-1.873 24.396-24.402-9.182-9.186 1.598-1.598 20.192 20.192Z" fill-rule="evenodd" data-name="Path 35868"/><path d="m73.936 239.215 1.562-1.562 11.473 11.472-1.563 1.562-11.472-11.472z" fill-rule="evenodd" data-name="Rectangle 2394"/><path d="m86.43 226.721 1.563-1.563 13.31 13.31-1.564 1.562-13.31-13.309z" fill-rule="evenodd" data-name="Rectangle 2395"/><path d="M96.103 262.772a4.22 4.22 0 0 0-.056-1.527 14.544 14.544 0 0 0 3.848 2.285 11.11 11.11 0 0 0 3.847.799c1.246.03 2.487-.201 3.642-.678a9.85 9.85 0 0 0 3.235-2.206 8.596 8.596 0 0 0 2.878-7.323 15.329 15.329 0 0 0-4.993-8.453l-4.57-4.571-1.488 1.487 4.571 4.57a12.5 12.5 0 0 1 3.933 6.64 6.747 6.747 0 0 1-2.295 5.938 8.208 8.208 0 0 1-2.944 1.944 7.216 7.216 0 0 1-3.295.416 9.518 9.518 0 0 1-3.506-1.13 15.187 15.187 0 0 1-3.506-2.682l-4.33-4.33-1.396 1.392 3.195 3.2c.402.356.723.793.944 1.275.136.402.171.824.106 1.24l-2.225 18.867c-.03.26-.01.522.06.773.08.231.216.442.397.613l1.637 1.637 2.31-20.176Z" fill-rule="evenodd" data-name="Path 35869"/><path d="M279.493 277.052c1.24-1.246 2.14-2.582 2.697-3.999.547-1.421.778-2.858.693-4.314-.085-1.452-.472-2.883-1.15-4.29-.693-1.406-1.638-2.717-2.853-3.928l-16.048-16.053 1.873-1.868 16.053 16.053c1.432 1.431 2.542 2.993 3.326 4.686.788 1.693 1.22 3.426 1.29 5.199.076 1.773-.226 3.53-.919 5.279-.698 1.738-1.798 3.37-3.315 4.887-1.517 1.517-3.144 2.617-4.882 3.31-1.748.688-3.511 1-5.284.924-1.768-.07-3.506-.502-5.199-1.29-1.692-.79-3.255-1.9-4.686-3.33l-16.048-16.054 1.883-1.888 16.038 16.033c1.206 1.21 2.517 2.16 3.923 2.843 1.412.688 2.833 1.074 4.285 1.165 1.451.09 2.888-.136 4.314-.678 1.422-.543 2.763-1.442 4.009-2.687" fill-rule="evenodd" data-name="Path 35870"/><path d="m297.45 240.862 10.452 10.452-1.868 1.874-25.959-25.958 6.696-6.696c3.044-3.049 6.007-4.676 8.89-4.887 2.878-.216 5.556.91 8.022 3.38 1.14 1.14 1.974 2.396 2.506 3.772a9.822 9.822 0 0 1 .643 4.29c-.105 1.487-.532 2.994-1.286 4.516-.748 1.522-1.843 2.998-3.275 4.43l-4.822 4.827Zm-1.507-1.507 4.827-4.827c1.145-1.145 2.014-2.33 2.606-3.556.583-1.226.91-2.431.98-3.627a8.154 8.154 0 0 0-.543-3.435c-.427-1.1-1.095-2.105-1.999-3.01-1.994-1.993-4.144-2.912-6.449-2.762-2.306.156-4.676 1.447-7.107 3.883l-4.827 4.822 12.512 12.512Z" fill-rule="evenodd" data-name="Path 35871"/><path d="m334.873 221.157 12.31-12.312 1.593 1.598-14.18 14.18-25.958-25.959 1.874-1.868 24.36 24.36Z" fill-rule="evenodd" data-name="Path 35872"/><path d="M369.397 163.846c2.01 2.004 3.526 4.124 4.56 6.354 1.03 2.235 1.583 4.47 1.648 6.716.07 2.245-.341 4.44-1.225 6.585-.884 2.15-2.256 4.143-4.099 5.987-1.823 1.823-3.807 3.18-5.957 4.063-2.145.89-4.34 1.301-6.585 1.23-2.245-.064-4.485-.612-6.72-1.642-2.24-1.024-4.36-2.541-6.37-4.545-1.994-1.994-3.5-4.114-4.53-6.35-1.025-2.24-1.572-4.48-1.638-6.725-.07-2.24.337-4.44 1.216-6.595.884-2.15 2.235-4.139 4.058-5.962 1.844-1.843 3.843-3.21 5.987-4.099 2.145-.884 4.345-1.29 6.596-1.22 2.25.075 4.49.628 6.725 1.662 2.23 1.035 4.34 2.547 6.334 4.541m-1.944 1.944c-1.808-1.808-3.687-3.185-5.63-4.129-1.944-.94-3.873-1.457-5.787-1.547a12.771 12.771 0 0 0-5.595.99c-1.819.753-3.511 1.908-5.073 3.475-1.542 1.542-2.688 3.215-3.431 5.028a13.059 13.059 0 0 0-1 5.6c.08 1.93.588 3.868 1.522 5.817.935 1.95 2.31 3.833 4.12 5.64 1.822 1.824 3.706 3.2 5.65 4.13 1.944.929 3.877 1.431 5.806 1.512a12.97 12.97 0 0 0 5.596-1.01c1.803-.748 3.476-1.894 5.018-3.436 1.562-1.567 2.727-3.254 3.48-5.068.759-1.808 1.095-3.671 1-5.585-.09-1.914-.603-3.838-1.537-5.776-.94-1.94-2.316-3.818-4.139-5.641" fill-rule="evenodd" data-name="Path 35873"/><path d="m414.819 144.398-1.452 1.451a.899.899 0 0 1-.557.286c-.201.015-.407-.015-.613-.105l-10.603-4.475-12.748 12.753 4.49 10.583c.085.18.116.387.096.608a.975.975 0 0 1-.297.582l-1.431 1.432-15.335-36.577 1.868-1.873 36.582 15.335Zm-26.802 7.946 11.633-11.633-18.42-7.816c-.295-.12-.617-.271-.963-.447a40.55 40.55 0 0 1-1.09-.578 26.786 26.786 0 0 1 1.045 2.07l7.795 18.404Z" fill-rule="evenodd" data-name="Path 35874"/><path d="M435.126 98.117c2.004 2.009 3.506 4.114 4.51 6.314 1.005 2.2 1.523 4.41 1.558 6.62.04 2.215-.402 4.38-1.321 6.494-.914 2.12-2.29 4.099-4.144 5.947l-9.468 9.463-25.958-25.958 9.468-9.463c1.853-1.848 3.827-3.23 5.942-4.144 2.125-.919 4.29-1.36 6.494-1.326 2.216.04 4.426.558 6.626 1.557 2.2 1.01 4.3 2.507 6.293 4.496m-1.944 1.949c-1.808-1.809-3.681-3.175-5.595-4.094-1.924-.914-3.822-1.406-5.716-1.477-1.889-.065-3.737.287-5.535 1.055-1.798.774-3.476 1.939-5.043 3.506l-7.575 7.575 22.915 22.914 7.574-7.575c1.567-1.567 2.733-3.25 3.501-5.048.779-1.798 1.13-3.641 1.06-5.53-.07-1.888-.558-3.797-1.477-5.716-.924-1.919-2.29-3.787-4.109-5.61" fill-rule="evenodd" data-name="Path 35875"/><path d="m451.083 56.22 1.562 1.563-13.667 13.662 10.493 10.498 11.371-11.377 1.522 1.522-11.371 11.377 10.824 10.824 13.667-13.667 1.557 1.557-15.556 15.556-25.958-25.959 15.556-15.555Z" fill-rule="evenodd" data-name="Path 35876"/><path d="M499.374 33.874c2.004 2.01 3.506 4.114 4.51 6.314 1.005 2.2 1.522 4.41 1.557 6.62.04 2.215-.401 4.38-1.32 6.495-.915 2.12-2.296 4.098-4.144 5.942l-9.469 9.468-25.958-25.958 9.468-9.468c1.849-1.844 3.828-3.225 5.942-4.14 2.12-.918 4.285-1.36 6.495-1.325 2.215.04 4.42.557 6.625 1.557 2.2 1.01 4.3 2.506 6.294 4.495m-1.949 1.95c-1.808-1.81-3.677-3.175-5.59-4.095-1.924-.914-3.828-1.406-5.717-1.476-1.888-.066-3.736.286-5.535 1.055-1.798.773-3.476 1.938-5.043 3.5l-7.574 7.58 22.91 22.914 7.579-7.58c1.567-1.561 2.732-3.244 3.5-5.042.774-1.798 1.126-3.642 1.06-5.53-.07-1.889-.562-3.798-1.476-5.716-.924-1.92-2.29-3.788-4.114-5.61" fill-rule="evenodd" data-name="Path 35877"/></g></g></g><defs><clipPath id="a"><path d="M0 0h532.645v390.116H0V0z" data-name="Rectangle 2396"/></clipPath></defs></svg>