<?xml version="1.0" encoding="UTF-8"?>
<svg id="Layer_1" data-name="Layer 1" xmlns="http://www.w3.org/2000/svg" xmlns:xlink="http://www.w3.org/1999/xlink" viewBox="0 0 167.62 111.28">
  <defs>
    <style>
      .cls-1 {
        fill: url(#linear-gradient-2);
      }

      .cls-2 {
        fill: #000;
      }

      .cls-3 {
        clip-path: url(#clippath-2);
      }

      .cls-4 {
        fill: #1a73e8;
      }

      .cls-5 {
        clip-path: url(#clippath-1);
      }

      .cls-6 {
        clip-path: url(#clippath);
      }

      .cls-7 {
        fill: none;
      }

      .cls-8 {
        clip-path: url(#clippath-3);
      }

      .cls-9 {
        fill: #fbbf12;
      }

      .cls-10 {
        fill: url(#linear-gradient);
      }
    </style>
    <clipPath id="clippath">
      <rect class="cls-7" x="155.83" y="84.84" width="11.7" height="11.7"/>
    </clipPath>
    <clipPath id="clippath-1">
      <path class="cls-7" d="M161.68,84.84c-2.09,0-4.02,1.12-5.07,2.93l2.53,4.39,2.53-1.46v-2.93h5.07c-1.04-1.81-2.98-2.93-5.07-2.92Z"/>
    </clipPath>
    <linearGradient id="linear-gradient" x1="-424.31" y1="72.35" x2="-424.31" y2="72.35" gradientTransform="translate(4454.96 617.57) scale(10.13 -7.31)" gradientUnits="userSpaceOnUse">
      <stop offset="0" stop-color="#db3328"/>
      <stop offset="1" stop-color="#e53d30"/>
    </linearGradient>
    <clipPath id="clippath-2">
      <path class="cls-7" d="M155.83,90.69h0c0,3.23,2.62,5.85,5.85,5.85h0l2.53-4.39-2.53-1.46-2.53,1.46-2.53-4.39c-.51,.89-.79,1.9-.78,2.93"/>
    </clipPath>
    <linearGradient id="linear-gradient-2" x1="-442.36" y1="74.93" x2="-442.36" y2="74.93" gradientTransform="translate(5308.29 975.61) scale(11.65 -11.79)" gradientUnits="userSpaceOnUse">
      <stop offset="0" stop-color="#32a651"/>
      <stop offset="1" stop-color="#279847"/>
    </linearGradient>
    <clipPath id="clippath-3">
      <rect class="cls-7" x="155.83" y="84.84" width="11.7" height="11.7"/>
    </clipPath>
  </defs>
  <g id="Group_8004" data-name="Group 8004">
    <g id="Group_8003" data-name="Group 8003">
      <g id="Group_7996" data-name="Group 7996">
        <g class="cls-6">
          <g id="Group_7995" data-name="Group 7995">
            <path id="Path_36897" data-name="Path 36897" class="cls-9" d="M161.68,90.69l2.53,1.46-2.53,4.39c3.23,0,5.85-2.62,5.85-5.85,0-1.03-.27-2.03-.78-2.92h-5.07v2.92Z"/>
          </g>
        </g>
      </g>
      <g id="Group_7998" data-name="Group 7998">
        <g class="cls-5">
          <g id="Group_7997" data-name="Group 7997">
            <rect id="Rectangle_2802" data-name="Rectangle 2802" class="cls-10" x="156.61" y="84.84" width="10.13" height="7.31"/>
          </g>
        </g>
      </g>
      <g id="Group_8000" data-name="Group 8000">
        <g class="cls-3">
          <g id="Group_7999" data-name="Group 7999">
            <rect id="Rectangle_2803" data-name="Rectangle 2803" class="cls-1" x="154.2" y="86.26" width="11.65" height="11.79" transform="translate(-24.64 92.36) rotate(-30)"/>
          </g>
        </g>
      </g>
      <g id="Group_8002" data-name="Group 8002">
        <g class="cls-8">
          <g id="Group_8001" data-name="Group 8001">
            <path id="Path_36900" data-name="Path 36900" class="cls-2" d="M164.61,90.69c0,1.62-1.3,2.93-2.92,2.93s-2.93-1.3-2.93-2.92c0-1.62,1.3-2.93,2.92-2.93h0c1.62,0,2.93,1.31,2.93,2.93h0"/>
            <path id="Path_36901" data-name="Path 36901" class="cls-4" d="M164.06,90.69c0,1.31-1.06,2.38-2.38,2.38s-2.38-1.06-2.38-2.38,1.06-2.38,2.38-2.38h0c1.31,0,2.38,1.06,2.38,2.38"/>
          </g>
        </g>
      </g>
    </g>
    <path id="Path_36902" data-name="Path 36902" class="cls-2" d="M167.49,7.05h-1.26V1.56h-3.8V6.01h-1.21V1.56h-3.91V7.05h-1.26V0h11.44V7.05Zm-5.57,8.08l5.57-3.78v1.54c0,.09-.01,.17-.06,.25-.04,.06-.1,.11-.16,.14l-4.58,2.99c.13,.04,.25,.1,.37,.17l4.19,2.82c.07,.04,.13,.09,.17,.15,.05,.06,.07,.13,.07,.2v1.48l-5.49-3.79-5.95,3.92v-1.53c0-.1,.03-.2,.09-.28,.06-.06,.13-.12,.2-.16l4.8-3.07c-.11-.04-.22-.09-.32-.14l-4.48-2.99c-.07-.05-.14-.1-.2-.16-.06-.07-.1-.16-.09-.26v-1.43l5.88,3.93Zm5.57,18.6h-1.3v-3.7h-10.14v-1.55h10.14v-3.71h1.3v8.96Zm0,11.88h-1.26v-5.49h-3.8v4.45h-1.21v-4.45h-3.91v5.49h-1.26v-7.05h11.44v7.05Zm0,6.22c0,.1-.01,.21-.05,.31-.06,.09-.13,.17-.21,.23l-8.63,6.63c.14-.02,.27-.03,.4-.03,.13,0,.25,0,.38,0h8.11v1.36h-11.44v-.78c0-.11,.02-.21,.06-.31,.05-.1,.13-.18,.22-.24l8.62-6.62c-.13,.01-.26,.02-.39,.02s-.24,0-.35,0h-8.15v-1.36h11.44v.8Zm-1.79,20.33c-.07-.04-.13-.09-.18-.15-.04-.06-.06-.13-.06-.21,.01-.12,.06-.23,.14-.32,.11-.15,.21-.3,.3-.46,.12-.21,.22-.43,.3-.66,.1-.3,.14-.62,.14-.94,0-.31-.04-.62-.14-.92-.08-.25-.21-.47-.38-.67-.16-.17-.35-.31-.56-.4-.22-.09-.46-.14-.7-.14-.28-.01-.56,.07-.8,.24-.22,.17-.4,.38-.54,.62-.16,.28-.29,.57-.39,.88-.11,.33-.22,.66-.34,1.01s-.25,.68-.4,1.01c-.14,.32-.33,.61-.55,.88-.23,.26-.51,.47-.82,.62-.38,.17-.79,.25-1.2,.24-.48,0-.96-.08-1.41-.26-.43-.16-.82-.42-1.15-.75-.34-.34-.6-.76-.77-1.21-.19-.52-.29-1.07-.28-1.62-.01-.7,.13-1.39,.4-2.03,.25-.59,.63-1.12,1.09-1.56l.73,.45c.06,.04,.11,.1,.15,.16,.04,.06,.06,.13,.06,.2-.01,.14-.08,.28-.18,.38-.14,.17-.28,.35-.4,.54-.16,.25-.29,.51-.4,.78-.13,.36-.19,.74-.18,1.12,0,.33,.05,.67,.15,.98,.09,.27,.24,.52,.43,.73,.18,.2,.41,.36,.66,.46,.27,.11,.56,.16,.85,.16,.3,.01,.6-.07,.85-.24,.23-.16,.42-.38,.55-.62,.16-.28,.29-.57,.38-.87l.32-1.01c.12-.34,.25-.68,.4-1,.14-.32,.33-.61,.56-.87,.24-.26,.53-.47,.86-.62,.4-.17,.84-.25,1.27-.24,.82,0,1.61,.33,2.18,.92,.3,.32,.54,.69,.7,1.11,.18,.48,.27,1,.27,1.51,0,.6-.09,1.19-.3,1.75-.19,.52-.49,.99-.88,1.38l-.74-.38Zm-9.65,7.64v-1.55h11.44v1.55h-11.44Zm11.44,23c0,.1-.01,.21-.05,.31-.06,.09-.13,.17-.21,.23l-8.63,6.63c.14-.02,.27-.03,.4-.03,.13,0,.25,0,.38,0h8.11v1.36h-11.44v-.78c0-.11,.02-.21,.06-.31,.05-.1,.13-.18,.22-.24l8.62-6.62c-.13,.01-.26,.02-.39,.02-.13,0-.24,0-.35,0h-8.15v-1.36h11.44v.8Z"/>
  </g>
  <g id="Group_8005" data-name="Group 8005">
    <path id="Path_36903" data-name="Path 36903" class="cls-2" d="M35.56,83.51l.02,24.14L2.08,83.69c-.32-.24-.7-.37-1.1-.38H.05l.02,27.3H2.34l-.02-23.66,33.59,24.01c.28,.21,.61,.32,.96,.32h.99l-.02-27.77h-2.27Z"/>
    <path id="Path_36904" data-name="Path 36904" class="cls-2" d="M2.36,66.14l35.46-.02v-2.72l-35.46,.02v-13.27H.02l.02,29.35H2.37v-13.35Z"/>
    <rect id="Rectangle_2805" data-name="Rectangle 2805" class="cls-2" x="18.17" y="29.63" width="2.27" height="16.67"/>
    <rect id="Rectangle_2806" data-name="Rectangle 2806" class="cls-2" x=".01" y="26.97" width="2.27" height="19.34"/>
    <path id="Path_36905" data-name="Path 36905" class="cls-2" d="M2.16,16.5c0-3.37,.65-5.93,1.95-7.69,1.43-1.83,3.67-2.82,5.98-2.65,1.22-.02,2.43,.22,3.55,.72,1.05,.48,1.98,1.2,2.7,2.09,.79,1,1.38,2.14,1.73,3.36,.42,1.46,.62,2.98,.6,4.5v6.29h2.03v-4.66c-.03-.55,.05-1.1,.24-1.61,.19-.39,.48-.72,.83-.98L37.09,3.77c.22-.16,.4-.36,.53-.6,.11-.23,.17-.48,.16-.73V.06L21.44,13.07c-.42,.32-.78,.71-1.07,1.15-.15-1.54-.53-3.04-1.14-4.46-.53-1.25-1.28-2.39-2.22-3.38-.89-.92-1.96-1.66-3.14-2.15-1.26-.51-2.6-.76-3.95-.75-3.26,0-5.73,1.08-7.41,3.24C.84,8.89,0,12.14,0,16.5v6.64H2.17v-6.64Z"/>
    <rect id="Rectangle_2807" data-name="Rectangle 2807" class="cls-2" x="73.96" y="31.03" width="15.35" height="80.22"/>
    <rect id="Rectangle_2808" data-name="Rectangle 2808" class="cls-2" x="73.92" y="15.53" width="15.35" height="7.18"/>
    <rect id="Rectangle_2809" data-name="Rectangle 2809" class="cls-2" x="43.3" y=".03" width="76.57" height="7.18"/>
  </g>
</svg>