<svg id="Group_41" data-name="Group 41" xmlns="http://www.w3.org/2000/svg" width="20.81" height="17.998" viewBox="0 0 20.81 17.998">
  <g id="Group_9" data-name="Group 9" transform="translate(0 0)">
    <g id="Group_8" data-name="Group 8">
      <path id="Path_6" data-name="Path 6" d="M249.18,235.512q-.139,3.038-4.244,8.319-4.244,5.514-7.181,5.515-1.821,0-3.079-3.359-.84-3.08-1.679-6.159-.934-3.357-2.005-3.359a6.447,6.447,0,0,0-1.633.98l-.978-1.261q1.541-1.353,3.037-2.708a6.885,6.885,0,0,1,3.084-1.868q2.428-.234,2.99,3.32.607,3.835.841,4.769.7,3.182,1.542,3.181.653,0,1.963-2.064a8.127,8.127,0,0,0,1.4-3.142q.187-1.781-1.4-1.782a3.9,3.9,0,0,0-1.541.341q1.535-5.024,5.861-4.883Q249.364,231.446,249.18,235.512Z" transform="translate(-228.38 -231.348)" fill="#fff"/>
    </g>
  </g>
</svg>
