<svg id="Group_40" data-name="Group 40" xmlns="http://www.w3.org/2000/svg" width="17.997" height="17.998" viewBox="0 0 17.997 17.998">
  <g id="Group_6" data-name="Group 6" transform="translate(0 0)">
    <g id="Group_5" data-name="Group 5">
      <path id="Path_4" data-name="Path 4" d="M486.356,232.969c2.4,0,2.687.009,3.636.053a4.972,4.972,0,0,1,1.671.31,2.981,2.981,0,0,1,1.708,1.708,4.983,4.983,0,0,1,.31,1.671c.043.949.052,1.234.052,3.636s-.009,2.688-.052,3.636a4.982,4.982,0,0,1-.31,1.671,2.98,2.98,0,0,1-1.708,1.708,4.982,4.982,0,0,1-1.671.31c-.949.043-1.233.052-3.636.052s-2.688-.009-3.636-.052a4.982,4.982,0,0,1-1.671-.31,2.98,2.98,0,0,1-1.708-1.708,4.981,4.981,0,0,1-.31-1.671c-.043-.949-.052-1.234-.052-3.636s.009-2.687.052-3.636a4.983,4.983,0,0,1,.31-1.671,2.981,2.981,0,0,1,1.708-1.708,4.972,4.972,0,0,1,1.671-.31c.949-.044,1.233-.053,3.636-.053m0-1.621c-2.444,0-2.75.01-3.71.054a6.6,6.6,0,0,0-2.184.418,4.6,4.6,0,0,0-2.632,2.632,6.609,6.609,0,0,0-.418,2.184c-.044.96-.054,1.266-.054,3.71s.01,2.75.054,3.71a6.607,6.607,0,0,0,.418,2.184,4.6,4.6,0,0,0,2.632,2.632,6.606,6.606,0,0,0,2.184.418c.96.044,1.266.054,3.71.054s2.75-.01,3.71-.054a6.607,6.607,0,0,0,2.184-.418,4.6,4.6,0,0,0,2.632-2.632,6.6,6.6,0,0,0,.418-2.184c.044-.96.054-1.266.054-3.71s-.01-2.75-.054-3.71a6.6,6.6,0,0,0-.418-2.184,4.6,4.6,0,0,0-2.632-2.632,6.605,6.605,0,0,0-2.184-.418c-.96-.043-1.266-.054-3.71-.054Z" transform="translate(-477.357 -231.348)" fill="#fff"/>
      <path id="Path_5" data-name="Path 5" d="M495.768,245.138a4.621,4.621,0,1,0,4.621,4.621A4.621,4.621,0,0,0,495.768,245.138Zm0,7.621a3,3,0,1,1,3-3A3,3,0,0,1,495.768,252.759Z" transform="translate(-486.769 -240.76)" fill="#fff"/>
      <ellipse id="Ellipse_1" data-name="Ellipse 1" cx="1.08" cy="1.08" rx="1.08" ry="1.08" transform="translate(12.722 3.115)" fill="#fff"/>
    </g>
  </g>
</svg>
