<svg xmlns="http://www.w3.org/2000/svg" width="15.728" height="17.998" viewBox="0 0 15.728 17.998">
  <path id="Path_24" data-name="Path 24" d="M577.586,235.731c0-.081,0-.084-.087-.083a3.823,3.823,0,0,1-.608-.053c-.731-.11-3.1-1.354-3.5-3.388a6.118,6.118,0,0,1-.1-.759c0-.1,0-.1-.1-.1h-2.849c-.187,0-.161-.023-.161.164q0,6.035,0,12.07a2.494,2.494,0,0,1-.031.447,2.612,2.612,0,0,1-3.107,2.134,3.511,3.511,0,0,1-.611-.2l-.049-.044c-.067-.056-.141-.1-.213-.152a2.567,2.567,0,0,1,.579-4.577,2.3,2.3,0,0,1,.924-.137,2.728,2.728,0,0,1,.6.093c.068.019.105,0,.109-.077,0-.025,0-.051,0-.077,0-.722-.027-2.3-.031-2.3,0-.208,0-.416.005-.624,0-.06-.029-.07-.079-.076a5.863,5.863,0,0,0-1.125-.025,5.694,5.694,0,0,0-4.774,3.34,5.669,5.669,0,0,0-.474,2.838,5.665,5.665,0,0,0,2.165,3.968,1.365,1.365,0,0,0,.3.2h0l.141.125a3,3,0,0,0,.475.29,5.75,5.75,0,0,0,6.959-1.4,5.6,5.6,0,0,0,1.37-3.721c.012-2,0-4.007,0-6.011,0-.048-.028-.116.025-.14s.083.036.121.061a7.375,7.375,0,0,0,2.421,1.043,6.855,6.855,0,0,0,1.54.186c.165,0,.186-.009.187-.171C577.623,237.865,577.585,235.919,577.586,235.731Z" transform="translate(-561.894 -231.348)" fill="#fff"/>
</svg>
