<svg id="Group_37" data-name="Group 37" xmlns="http://www.w3.org/2000/svg" width="25.711" height="17.998" viewBox="0 0 25.711 17.998">
  <path id="Path_1" data-name="Path 1" d="M144.72,234.158a3.22,3.22,0,0,0-2.273-2.273c-2.005-.537-10.045-.537-10.045-.537s-8.04,0-10.045.537a3.221,3.221,0,0,0-2.273,2.273,35.917,35.917,0,0,0,0,12.377,3.221,3.221,0,0,0,2.273,2.273c2.005.537,10.045.537,10.045.537s8.04,0,10.045-.537a3.22,3.22,0,0,0,2.273-2.273,35.9,35.9,0,0,0,0-12.377ZM129.83,244.2V236.49l6.68,3.857Z" transform="translate(-119.546 -231.348)" fill="#fff"/>
</svg>
