<svg xmlns="http://www.w3.org/2000/svg" width="17.968" height="17.998" viewBox="0 0 17.968 17.998">
  <path id="Path_23" data-name="Path 23" d="M648.272,231.348a8.994,8.994,0,0,0-3.278,17.369,8.653,8.653,0,0,1,.03-2.583c.162-.7,1.051-4.47,1.051-4.47a3.277,3.277,0,0,1-.266-1.332c0-1.251.725-2.183,1.628-2.183a1.13,1.13,0,0,1,1.14,1.265,17.777,17.777,0,0,1-.747,3,1.308,1.308,0,0,0,1.332,1.628c1.6,0,2.827-1.687,2.827-4.115a3.548,3.548,0,0,0-3.759-3.656,3.892,3.892,0,0,0-4.063,3.9,3.511,3.511,0,0,0,.666,2.05.267.267,0,0,1,.059.259c-.067.281-.222.9-.252,1.021-.037.163-.133.2-.3.118a4.028,4.028,0,0,1-1.828-3.486c0-2.834,2.057-5.439,5.942-5.439a5.277,5.277,0,0,1,5.543,5.195c0,3.1-1.954,5.595-4.662,5.595a2.39,2.39,0,0,1-2.058-1.036l-.562,2.139a9.784,9.784,0,0,1-1.117,2.361,9,9,0,1,0,2.679-17.6Z" transform="translate(-639.281 -231.348)" fill="#fff"/>
</svg>
