<?xml version="1.0" encoding="UTF-8"?>
<svg id="Layer_1" data-name="Layer 1" xmlns="http://www.w3.org/2000/svg" viewBox="0 0 134.61 44.06">
  <path d="M38.11,15.89l3.17-3.15-3.65-3.64-3.15,3.14-2.49-2.51,3.16-3.1-3.66-3.64-3.14,3.13L22.07,0l-6.14,6.11-3.14-3.12-3.65,3.64,3.14,3.12-2.51,2.49-3.11-3.14-3.65,3.64,3.12,3.15L0,22.1l6.14,6.11-3.14,3.12,3.65,3.64,3.14-3.12,2.55,2.54-3.21,3.19,3.67,3.49,3.15-3.09,6.12,6.09,6.24-6.14,3.16,3.15,3.66-3.48-3.16-3.27,2.53-2.49,3.12,3.14,3.66-3.64-3.14-3.12,6.14-6.11-6.17-6.21Zm-.48-5.24l2.1,2.08-2.39,2.37-2.08-2.1,2.38-2.36Zm-6.14-6.11l2.09,2.08-8.62,8.46-2.03-2.02L31.49,4.54Zm-6.49,22.85l-2.04-2.01,8.71-8.67,2.02,2.03-8.68,8.64Zm9.45-7.86l2.54,2.56-2.49,2.48-2.55-2.54,2.51-2.5Zm-17.67,5.36l2.03-2.02,8.69,8.53-2.09,2.08-8.63-8.59Zm7.85,9.36l-2.55,2.54-2.44-2.43,2.57-2.52,2.42,2.41Zm-5.36-17.56l2.1,2.08-8.65,8.61-2.11-2.07,8.67-8.63Zm-9.45,7.86l-2.51-2.47,2.46-2.54,2.53,2.55-2.47,2.46Zm6.12-6.09l-2.53-2.55,2.58-2.47,2.5,2.48-2.55,2.54Zm6.2,1.1l2.55,2.54-2.53,2.52-2.57-2.52,2.55-2.54Zm-6.14,6.11l2.55,2.54-2.49,2.48-2.57-2.52,2.51-2.49Zm9.78,2.5l2.57-2.56,2.47,2.49-2.54,2.52-2.5-2.46Zm2.57-9.7l-2.61-2.6,2.57-2.52,2.58,2.6-2.53,2.52Zm-6.21-6.18l-2.55-2.54,2.49-2.48,2.6,2.49-2.54,2.53Zm-.06-10.74l5.48,5.34-2.1,2.09-3.4-3.25-3.26,3.24-2.09-2.08L22.08,1.54ZM10.7,6.62l2.1-2.08,14.77,14.7-2.09,2.08L10.7,6.62Zm2.36,3.9l2.15,2.14-2.58,2.46-2.09-2.11,2.51-2.5Zm-8.5,2.22l2.1-2.09,8.5,8.58-2.1,2.09L4.56,12.74Zm2.1,20.68l-2.09-2.08,2.36-2.34,2.1,2.09-2.36,2.34ZM1.55,22.09l5.35-5.43,2.08,2.1-3.23,3.34,9.53,9.35-2.16,2.15L1.55,22.09Zm11.24,17.44l-2.08-1.97,8.62-8.58,2.09,2.08-8.63,8.47Zm20.79-1.98l-2.08,1.98-2.4-2.38,2.1-2.07,2.38,2.47Zm-11.5,4.96l-5.34-5.31,2.11-2.07,3.23,3.21,9.51-9.47,2.14,2.16-11.66,11.48Zm17.64-11.19l-2.09,2.08-8.5-8.58,2.03-2.02,8.56,8.52Zm-2.36-3.9l-2.1-2.08,3.26-3.25-9.45-9.53,2.11-2.07,11.53,11.6-5.36,5.34Z"/>
  <path d="M134.11,17.77c-.67-1.4-1.43-2.76-2.28-4.06-1.47-2.55-3.12-5.5-4.6-8.07-1.22-2.12-2.35-4.83-5.38-4.88-3.14-.04-4.19,2.73-5.33,4.74-3.62,6.37-11.03,19.18-11.03,19.18h3.42s7.06-12.5,10.57-18.82c.45-.81,1.34-1.87,2.37-1.87,1.57,0,2.35,1.86,3.05,3.14,1.88,3.43,3.7,6.71,5.47,10.02,.56,1.04,1.68,2.41,.91,3.83-.5,.92-1.52,.87-2.96,.87,0,.02-13.94,0-13.94,0v2.82h12.67c1.4,.05,2.8,0,4.19-.14,2-.37,3.09-1.93,3.37-3.92v-.5c-.05-.81-.21-1.61-.5-2.37Z"/>
  <path d="M63.68,23.27h-15.29L63.58,2.06c.15-.2,.23-.44,.24-.69V.77h-17.29v1.44h14.99l-15.22,21.27c-.13,.18-.2,.39-.2,.61v.63h17.6v-1.44Z"/>
  <rect x="69.67" y=".77" width="1.74" height="23.94"/>
  <path d="M101.18,.82c-.12,.06-.21,.15-.27,.27l-9.41,16.63c-.09,.16-.17,.33-.25,.5-.07,.17-.14,.35-.21,.53-.12-.35-.27-.69-.44-1.02L80.95,1.09c-.06-.12-.16-.21-.28-.27-.12-.04-.25-.05-.38-.05h-1.18V24.71h1.51V4.31c0-.32-.02-.63-.05-.95l9.68,16.75c.12,.26,.39,.43,.68,.44h.27c.29,0,.56-.17,.68-.44L101.28,3.38c-.03,.31-.05,.62-.05,.93V24.71h1.52V.77h-1.2c-.13,0-.25,.01-.37,.05Z"/>
  <path d="M52.45,37.83c-.25-.22-.54-.4-.85-.54-.32-.14-.64-.27-.98-.38-.33-.11-.66-.22-.98-.33-.32-.11-.6-.23-.85-.38-.25-.14-.45-.32-.6-.52-.15-.2-.23-.46-.23-.77,0-.24,.04-.47,.13-.68s.22-.39,.39-.55c.17-.16,.39-.28,.65-.37,.26-.09,.55-.14,.89-.14,.36,0,.66,.04,.91,.13,.25,.09,.46,.18,.64,.29,.18,.11,.33,.2,.44,.29,.12,.09,.22,.13,.31,.13s.15-.02,.2-.06c.05-.04,.1-.1,.15-.17l.36-.71c-.38-.37-.83-.66-1.34-.85-.51-.2-1.08-.29-1.7-.29-.55,0-1.04,.09-1.47,.26-.43,.17-.78,.4-1.07,.68-.29,.28-.51,.61-.66,.98-.15,.37-.23,.75-.23,1.14,0,.49,.08,.9,.23,1.24,.15,.33,.35,.61,.6,.83,.25,.22,.53,.4,.85,.54,.32,.14,.64,.26,.98,.37,.33,.11,.66,.21,.98,.31,.32,.1,.6,.22,.85,.37,.25,.15,.45,.32,.6,.54,.15,.21,.23,.49,.23,.83,0,.3-.05,.58-.16,.83-.1,.25-.25,.46-.45,.64-.19,.18-.43,.32-.71,.41-.28,.1-.6,.15-.95,.15-.43,0-.79-.06-1.09-.17-.3-.12-.55-.24-.76-.38-.21-.14-.38-.27-.52-.38-.14-.12-.26-.17-.37-.17-.07,0-.14,.02-.2,.06-.06,.04-.11,.09-.15,.14l-.43,.71c.42,.44,.92,.8,1.51,1.06,.59,.26,1.25,.39,1.96,.39,.59,0,1.11-.09,1.58-.27,.46-.18,.85-.43,1.17-.74,.32-.32,.56-.69,.73-1.11,.17-.43,.25-.88,.25-1.37,0-.46-.08-.85-.23-1.16-.15-.32-.35-.58-.6-.8Z"/>
  <rect x="59.05" y="36.97" width="4.29" height="1.18"/>
  <rect x="59.05" y="32.06" width="5.31" height="1.22"/>
  <rect x="59.05" y="41.93" width="5.31" height="1.22"/>
  <path d="M76.67,40.87c-.08,0-.17,.04-.25,.12-.2,.18-.39,.33-.59,.45-.19,.13-.4,.23-.63,.31-.22,.08-.47,.14-.73,.18-.26,.04-.56,.06-.89,.06-.54,0-1.05-.1-1.52-.29-.47-.2-.88-.48-1.22-.86-.34-.37-.61-.83-.81-1.37-.2-.54-.3-1.16-.3-1.85s.1-1.28,.3-1.82,.48-1,.83-1.38c.36-.38,.78-.67,1.27-.87,.49-.2,1.04-.31,1.63-.31,.33,0,.62,.02,.88,.07,.25,.05,.48,.11,.67,.18,.19,.07,.36,.15,.5,.23,.14,.08,.26,.16,.36,.23s.19,.13,.27,.18c.07,.05,.15,.07,.21,.07,.09,0,.16-.02,.2-.05,.05-.03,.09-.08,.12-.13l.49-.69c-.46-.43-.98-.78-1.58-1.03-.59-.25-1.29-.38-2.11-.38s-1.58,.14-2.27,.41c-.68,.28-1.27,.67-1.76,1.17-.49,.5-.87,1.1-1.14,1.8-.27,.7-.41,1.46-.41,2.3s.13,1.6,.38,2.3c.25,.7,.61,1.3,1.07,1.79,.46,.5,1.01,.89,1.67,1.16,.65,.28,1.38,.41,2.18,.41,.91,0,1.7-.15,2.34-.44,.65-.29,1.2-.7,1.65-1.23l-.59-.64c-.07-.07-.14-.1-.23-.1Z"/>
  <path d="M89.02,38.81c0,.46-.07,.89-.2,1.28-.13,.39-.32,.72-.57,1-.25,.28-.56,.5-.92,.65-.36,.16-.77,.23-1.23,.23s-.87-.08-1.24-.24c-.36-.16-.67-.38-.92-.65-.25-.28-.44-.61-.57-1-.13-.39-.2-.81-.2-1.28v-6.74h-1.5v6.75c0,.64,.1,1.23,.31,1.78,.2,.55,.5,1.02,.88,1.42,.38,.4,.85,.71,1.39,.94,.55,.23,1.16,.34,1.84,.34s1.3-.11,1.84-.34c.55-.23,1.01-.54,1.39-.94,.38-.4,.67-.87,.88-1.42,.2-.55,.31-1.14,.31-1.78v-6.75h-1.49v6.75Z"/>
  <path d="M98.86,38.28c.43-.1,.81-.24,1.15-.43,.34-.19,.63-.42,.86-.69,.24-.27,.41-.58,.54-.92,.12-.34,.19-.71,.19-1.1,0-.47-.08-.9-.24-1.27-.16-.38-.41-.7-.74-.97-.33-.27-.76-.47-1.27-.62-.51-.14-1.12-.21-1.82-.21h-1.6v1.19h1.6c.86,0,1.51,.17,1.95,.5,.44,.34,.66,.83,.66,1.5,0,.33-.06,.62-.17,.89-.11,.27-.28,.5-.51,.69-.22,.19-.5,.34-.84,.45-.33,.11-.72,.16-1.16,.16h-1.53v1.09h1.1c.21,0,.36,.03,.47,.08,.1,.05,.2,.14,.29,.27l2.88,3.97c.13,.21,.33,.32,.61,.32h1.33l-3.24-4.41c-.14-.21-.31-.36-.5-.47Z"/>
  <rect x="108" y="32.06" width="1.5" height="11.1"/>
  <polygon points="113.67 33.32 117.27 33.32 117.27 43.16 118.77 43.16 118.77 33.32 122.36 33.32 122.36 32.06 113.67 32.06 113.67 33.32"/>
  <path d="M132.97,32.17c-.08,.08-.14,.15-.19,.24l-2.53,4.32c-.1,.18-.19,.34-.26,.5-.07,.16-.13,.32-.19,.48-.06-.16-.12-.31-.19-.47-.07-.16-.16-.33-.26-.51l-2.54-4.32c-.06-.1-.12-.18-.2-.25-.08-.07-.18-.1-.32-.1h-1.32l4.07,6.69v4.42h1.5v-4.42l4.07-6.69h-1.33c-.13,0-.23,.04-.31,.11Z"/>
</svg>