<?xml version="1.0" encoding="UTF-8"?>
<svg id="Layer_1" data-name="Layer 1" xmlns="http://www.w3.org/2000/svg" viewBox="0 0 198.43 198.41">
  <defs>
    <style>
      .cls-1 {
        fill: #fff;
      }
    </style>
  </defs>
  <path d="M.74,188.03L90.58,4.05c2.61-5.34,10.19-5.41,12.9-.12l94.15,183.98c2.46,4.8-1.03,10.5-6.42,10.5H7.22c-5.33,0-8.82-5.58-6.48-10.37h0Z"/>
  <path class="cls-1" d="M110.81,67.62l-4.93,66.2c-.37,4.95-4.68,8.67-9.64,8.3-4.5-.34-7.98-3.93-8.3-8.3l-4.93-66.2c-.57-7.68,5.19-14.37,12.87-14.94,7.68-.57,14.37,5.19,14.94,12.87,.05,.67,.04,1.42,0,2.07h0Zm-13.9,88.63c-7.06,0-12.78,5.72-12.78,12.78s5.72,12.78,12.78,12.78,12.78-5.72,12.78-12.78-5.72-12.78-12.78-12.78Z"/>
</svg>