<?xml version="1.0" encoding="UTF-8"?>
<svg id="Layer_1" data-name="Layer 1" xmlns="http://www.w3.org/2000/svg" viewBox="0 0 130 86.5">
  <defs>
    <style>
      .cls-1 {
        fill: #fff;
      }
    </style>
  </defs>
  <path class="cls-1" d="M129.35,70.28h-5.67c-.18-.94-.45-1.6-.82-1.98-.61-.61-1.64-.92-3.07-.92s-2.39,.23-2.93,.7c-.41,.35-.63,.84-.63,1.45,0,.86,1.19,1.55,3.56,2.07,2.7,.59,4.64,1.09,5.83,1.51,.31,.12,.59,.22,.78,.31,2.41,1.13,3.6,2.86,3.6,5.17,0,2.82-1.17,4.87-3.5,6.16-.29,.16-.57,.29-.88,.43-1.51,.65-3.27,.98-5.24,.98-2.95,0-5.34-.53-7.16-1.57-1.14-.67-2-1.5-2.57-2.51-.57-1.01-.85-2.18-.85-3.53h5.95c0,1.02,.37,1.82,1.1,2.37,.73,.57,1.96,.86,3.7,.86,1.31,0,2.29-.28,2.93-.82,.51-.43,.74-.9,.74-1.45,0-.92-1.17-1.64-3.5-2.15-3.48-.74-5.67-1.35-6.57-1.78-2.39-1.11-3.56-2.83-3.56-5.22,0-1.91,.61-3.54,1.86-4.87,1.57-1.66,3.91-2.49,7.02-2.49,2.56,0,4.62,.37,6.16,1.1,.14,.06,.25,.12,.37,.2,1.11,.6,1.95,1.41,2.52,2.41,.56,1,.85,2.19,.85,3.58Z"/>
  <path class="cls-1" d="M126.32,56.43c0-.12-.02-.22-.08-.29-.06-.1-.14-.16-.25-.19-.08-.02-.2-.04-.37-.06h-.9v1.1h.9c.26-.02,.43-.06,.53-.16,.12-.1,.18-.24,.18-.39Zm.47-.59c.12,.16,.18,.33,.18,.53,0,.27-.1,.51-.29,.7-.19,.2-.45,.32-.76,.33,.14,.06,.23,.12,.31,.19l.55,.73,.43,.72h-.7l-.33-.59c-.21-.37-.39-.65-.55-.78-.02-.02-.04-.04-.08-.06l-.47-.14h-.35v1.56h-.59v-3.68h1.27c.08,0,.16,.02,.22,.02,.31,0,.55,.04,.7,.1,.19,.06,.35,.18,.47,.35Z"/>
  <path class="cls-1" d="M128.46,57.18c0-.51-.12-.98-.37-1.43-.26-.45-.61-.8-1.06-1.06-.45-.23-.92-.37-1.39-.37h-.02c-.47,0-.94,.14-1.39,.37-.45,.25-.8,.61-1.06,1.06-.25,.45-.39,.92-.39,1.43s.14,.96,.39,1.41c.24,.43,.59,.78,1.04,1.03,.45,.26,.92,.37,1.41,.37h.02c.49,0,.96-.12,1.41-.37,.45-.25,.8-.61,1.04-1.03,.25-.45,.37-.92,.37-1.41Zm.57,0c0,.57-.14,1.13-.45,1.68-.29,.55-.7,.96-1.25,1.25-.55,.32-1.1,.45-1.68,.45h-.02c-.59,0-1.13-.14-1.68-.45-.55-.29-.96-.7-1.25-1.25-.31-.55-.45-1.11-.45-1.68,0-.61,.14-1.17,.45-1.72,.31-.55,.73-.96,1.27-1.25,.55-.29,1.09-.43,1.66-.45h.02c.57,0,1.12,.16,1.66,.45,.55,.29,.98,.7,1.27,1.25,.31,.55,.45,1.12,.45,1.72Z"/>
  <polygon class="cls-1" points="95.75 29.54 111.81 56.3 95.75 56.3 86.01 56.3 70.67 30.73 59.05 11.38 70.67 4.4 77.99 0 95.75 29.54"/>
  <path class="cls-1" d="M107.41,74.88v10.97h-5.34v-1.21c-1.8,1.17-3.95,1.86-6.26,1.86h-.06c-6.38-.04-11.56-5.24-11.56-11.62s5.18-11.58,11.56-11.62h.06c2.31,0,4.46,.69,6.26,1.86v-1.27h5.34v11.03Zm-5.34,1.21v-2.43c-.57-2.93-3.17-5.17-6.26-5.17h-.06c-3.5,.02-6.34,2.88-6.34,6.38s2.84,6.36,6.34,6.4h.06c3.09,0,5.69-2.25,6.26-5.18Z"/>
  <path class="cls-1" d="M82.33,74.88v10.97h-5.34v-1.21c-1.82,1.17-3.95,1.86-6.26,1.86h-.06c-6.38-.04-11.56-5.24-11.56-11.62s5.18-11.58,11.56-11.62h.06c2.31,0,4.44,.69,6.26,1.86v-8.82h5.34v18.58Zm-5.34,1.21v-2.43c-.57-2.93-3.17-5.17-6.26-5.17h-.06c-3.5,.02-6.34,2.88-6.34,6.38s2.84,6.36,6.34,6.4h.06c3.09,0,5.69-2.25,6.26-5.18Z"/>
  <polygon class="cls-1" points="70.67 45.77 76.97 56.3 70.67 56.3 51.19 56.3 36.87 32.47 36.25 31.43 36.87 31.06 55.2 20.03 70.67 45.77"/>
  <rect class="cls-1" x="51.21" y="63.26" width="5.81" height="22.59"/>
  <rect class="cls-1" x="51.21" y="56.41" width="5.81" height="5.1"/>
  <path class="cls-1" d="M48.55,74.88v10.97h-5.34v-1.21c-1.82,1.17-3.97,1.86-6.28,1.86h-.06c-6.38-.04-11.56-5.24-11.56-11.62s5.18-11.58,11.56-11.62h.06c2.31,0,4.46,.69,6.28,1.86v-8.82h5.34v18.58Zm-5.34,1.21v-2.43c-.57-2.93-3.17-5.17-6.28-5.17h-.06c-3.5,.02-6.34,2.88-6.34,6.38s2.84,6.36,6.34,6.4h.06c3.11,0,5.71-2.25,6.28-5.18Z"/>
  <polygon class="cls-1" points="36.87 47.49 42.15 56.3 36.87 56.3 16.35 56.3 13.46 51.46 32.41 40.08 36.87 47.49"/>
  <path class="cls-1" d="M23.22,74.88v10.97h-5.34v-1.21c-1.82,1.17-3.97,1.86-6.28,1.86h-.06c-6.36-.04-11.54-5.24-11.54-11.62s5.18-11.58,11.54-11.62h.06c2.31,0,4.46,.69,6.28,1.86v-1.27h5.34v11.03Zm-5.34,1.21v-2.43c-.57-2.93-3.17-5.17-6.28-5.17h-.06c-3.48,.02-6.32,2.88-6.32,6.38s2.84,6.36,6.32,6.4h.06c3.11,0,5.71-2.25,6.28-5.18Z"/>
</svg>