<?xml version="1.0" encoding="UTF-8"?>
<svg id="Layer_1" data-name="Layer 1" xmlns="http://www.w3.org/2000/svg" viewBox="0 0 150 45.2">
  <defs>
    <style>
      .cls-1 {
        fill: #fff;
        fill-rule: evenodd;
      }
    </style>
  </defs>
  <g>
    <path class="cls-1" d="M93.06,35.35c-8.71,6.43-21.35,9.85-32.23,9.85-15.25,0-28.98-5.64-39.37-15.02-.82-.74-.09-1.74,.89-1.17,11.21,6.52,25.07,10.45,39.39,10.45,9.66,0,20.28-2,30.05-6.15,1.47-.63,2.71,.97,1.27,2.04Z"/>
    <path class="cls-1" d="M96.69,31.21c-1.11-1.43-7.37-.68-10.18-.34-.85,.1-.98-.64-.22-1.18,4.99-3.5,13.16-2.49,14.11-1.32,.96,1.18-.25,9.38-4.93,13.29-.72,.6-1.4,.28-1.08-.51,1.05-2.63,3.41-8.51,2.29-9.94Z"/>
  </g>
  <path class="cls-1" d="M86.71,4.94V1.53c0-.52,.39-.86,.86-.86h15.26c.49,0,.88,.35,.88,.86v2.92c0,.49-.42,1.13-1.15,2.14l-7.9,11.29c2.93-.07,6.04,.37,8.7,1.87,.6,.34,.76,.84,.81,1.33v3.63c0,.5-.55,1.08-1.12,.78-4.7-2.46-10.93-2.73-16.12,.03-.53,.28-1.09-.29-1.09-.79v-3.45c0-.55,.01-1.5,.57-2.34l9.16-13.14h-7.97c-.49,0-.88-.35-.88-.86Z"/>
  <path class="cls-1" d="M31.04,26.2h-4.64c-.44-.03-.8-.36-.83-.78V1.59c0-.48,.4-.86,.9-.86h4.32c.45,.02,.82,.36,.84,.8v3.11h.09c1.13-3.01,3.25-4.41,6.11-4.41s4.72,1.4,6.02,4.41c1.13-3.01,3.68-4.41,6.41-4.41,1.95,0,4.07,.8,5.37,2.61,1.47,2.01,1.17,4.91,1.17,7.47v15.04c0,.48-.4,.86-.9,.86h-4.64c-.47-.03-.83-.4-.83-.86V12.72c0-1,.09-3.51-.13-4.46-.35-1.6-1.39-2.06-2.73-2.06-1.13,0-2.3,.75-2.77,1.96-.48,1.2-.43,3.21-.43,4.56v12.63c0,.48-.4,.86-.9,.86h-4.64c-.47-.03-.83-.4-.83-.86V12.72c0-2.66,.43-6.57-2.86-6.57s-3.21,3.81-3.21,6.57v12.63c0,.48-.4,.86-.9,.86Z"/>
  <path class="cls-1" d="M116.85,.23c6.89,0,10.62,5.92,10.62,13.44s-4.12,13.04-10.62,13.04-10.44-5.92-10.44-13.29S110.13,.23,116.85,.23Zm.04,4.86c-3.42,0-3.64,4.66-3.64,7.57s-.04,9.13,3.6,9.13,3.77-5.01,3.77-8.07c0-2.01-.09-4.41-.69-6.32-.52-1.65-1.56-2.31-3.03-2.31Z"/>
  <path class="cls-1" d="M136.4,26.2h-4.63c-.46-.03-.83-.4-.83-.86V1.51c.03-.44,.42-.78,.88-.78h4.31c.41,.02,.74,.3,.82,.67v3.64h.09c1.3-3.26,3.12-4.81,6.33-4.81,2.08,0,4.12,.75,5.42,2.81,1.21,1.91,1.21,5.11,1.21,7.42v14.99c-.05,.42-.43,.75-.89,.75h-4.65c-.43-.03-.78-.34-.83-.75V12.52c0-2.61,.3-6.42-2.9-6.42-1.13,0-2.17,.75-2.69,1.91-.65,1.45-.74,2.91-.74,4.51v12.83c0,.48-.41,.86-.9,.86Z"/>
  <path class="cls-1" d="M74.54,14.82c0,1.81,.04,3.32-.87,4.92-.74,1.31-1.91,2.11-3.21,2.11-1.78,0-2.82-1.36-2.82-3.37,0-3.95,3.55-4.67,6.91-4.67v1Zm4.68,11.32c-.31,.28-.75,.29-1.1,.11-1.54-1.28-1.82-1.87-2.66-3.09-2.55,2.6-4.35,3.37-7.65,3.37-3.91,0-6.95-2.41-6.95-7.24,0-3.77,2.04-6.33,4.95-7.59,2.52-1.11,6.04-1.31,8.73-1.61v-.6c0-1.11,.09-2.41-.56-3.37-.56-.85-1.65-1.21-2.61-1.21-1.77,0-3.34,.91-3.73,2.79-.08,.42-.39,.83-.81,.85l-4.5-.49c-.38-.09-.8-.39-.69-.97,1.03-5.46,5.96-7.11,10.38-7.11,2.26,0,5.21,.6,6.99,2.31,2.26,2.11,2.04,4.92,2.04,7.99v7.23c0,2.18,.9,3.13,1.75,4.3,.3,.42,.36,.92-.02,1.23-.95,.8-2.63,2.26-3.56,3.08h-.01Z"/>
  <path class="cls-1" d="M13.68,14.82c0,1.81,.04,3.32-.87,4.92-.74,1.31-1.91,2.11-3.21,2.11-1.78,0-2.82-1.36-2.82-3.37,0-3.95,3.55-4.67,6.91-4.67v1Zm4.68,11.32c-.31,.28-.75,.29-1.1,.11-1.54-1.28-1.82-1.87-2.66-3.09-2.55,2.6-4.35,3.37-7.65,3.37-3.91,0-6.95-2.41-6.95-7.24,0-3.77,2.04-6.33,4.95-7.59,2.52-1.11,6.04-1.31,8.73-1.61v-.6c0-1.11,.09-2.41-.56-3.37-.56-.85-1.65-1.21-2.61-1.21-1.77,0-3.35,.91-3.73,2.79-.08,.42-.39,.83-.81,.85l-4.5-.49c-.38-.09-.8-.39-.69-.97C1.81,1.65,6.74,0,11.16,0c2.26,0,5.21,.6,6.99,2.31,2.26,2.11,2.04,4.92,2.04,7.99v7.23c0,2.18,.9,3.13,1.75,4.3,.3,.42,.36,.92-.01,1.23-.95,.8-2.63,2.26-3.56,3.08h-.01Z"/>
</svg>