<?xml version="1.0" encoding="UTF-8"?>
<svg id="Layer_1" data-name="Layer 1" xmlns="http://www.w3.org/2000/svg" viewBox="0 0 70 85.86">
  <defs>
    <style>
      .cls-1 {
        fill: #fff;
        fill-rule: evenodd;
      }
    </style>
  </defs>
  <path class="cls-1" d="M38.62,7.47C44.26,.04,52.11,0,52.11,0c0,0,1.17,6.99-4.44,13.73-5.98,7.19-12.79,6.01-12.79,6.01,0,0-1.28-5.66,3.74-12.27Z"/>
  <path class="cls-1" d="M35.6,24.64c2.9,0,8.29-3.99,15.3-3.99,12.07,0,16.82,8.59,16.82,8.59,0,0-9.29,4.75-9.29,16.27,0,13,11.57,17.47,11.57,17.47,0,0-8.09,22.76-19.01,22.76-5.02,0-8.92-3.38-14.2-3.38s-10.73,3.51-14.21,3.51C12.6,85.86,0,64.27,0,46.92S10.67,20.89,20.67,20.89c6.5,0,11.55,3.75,14.93,3.75Z"/>
</svg>