<?xml version="1.0" encoding="UTF-8"?>
<svg id="Layer_1" data-name="Layer 1" xmlns="http://www.w3.org/2000/svg" viewBox="0 0 150 24.42">
  <defs>
    <style>
      .cls-1 {
        fill: #fff;
      }
    </style>
  </defs>
  <g>
    <path class="cls-1" d="M138.01,.27c-6.66,0-12.07,5.41-12.07,12.07s5.41,12.07,12.07,12.07,11.99-5.41,11.99-12.07S144.63,.27,138.01,.27m0,18.61c-3.66,0-6.58-3-6.58-6.58s2.92-6.5,6.58-6.5,6.5,2.92,6.5,6.5c0,3.62-2.92,6.58-6.5,6.58"/>
    <path class="cls-1" d="M93.81,0c-2.65,0-5.37,.55-7.52,1.44-1.75-1.01-3.47-1.44-5.88-1.44-3.04,0-6.15,.39-9.54,1.56l-.62,.19V23.91h6.04V5.72c1.21-.39,2.18-.55,3.39-.55,3,0,3.86,.93,3.86,4.05v14.64h6.11V8.84c0-1.36-.08-2.22-.27-3.04,1.21-.39,2.18-.62,3.27-.62,2.84,0,4.13,1.29,4.13,4.05v14.64h6.04V8.76c0-3-.47-4.75-1.83-6.23-1.52-1.6-4.05-2.53-7.17-2.53"/>
    <path class="cls-1" d="M117.99,19.12c-4.01,0-6.31-2.49-6.31-6.85s2.34-7.01,6.39-7.01c.86,0,1.56,.08,2.22,.27,0,0,1.25,.35,2.34,1.21l2.57-4.36c-1.4-1.17-3.04-1.67-3.58-1.79-1.56-.47-3.86-.55-3.86-.55-7.24,0-12.11,5.02-12.11,12.5s4.63,11.84,11.76,11.84c0,0,4.79,.19,8.02-2.76l-3-3.86c-1.67,1.05-2.8,1.36-4.44,1.36"/>
    <path class="cls-1" d="M39.33,.19c-8.61,0-12.62,3.78-12.62,11.88v11.88h6.15V12.03c0-4.05,2.3-6.58,5.88-6.58,1.48,0,2.65,.27,3.47,.47l1.44-5.37c-2.34-.35-4.32-.35-4.32-.35"/>
  </g>
  <g>
    <path class="cls-1" d="M66.71,11.37v12.54h-8.26c-5.69,0-8.22-.39-11.18-2.38-2.57-1.75-4.01-5.1-4.01-9.42C43.26,6.15,47.2,.12,55.88,.12c7.01,0,10.83,3.93,10.83,11.25m-6.04,.7c0-4.56-1.75-6.78-5.3-6.78s-5.88,2.65-5.88,6.66c0,4.83,2.3,6.93,7.44,6.93h3.74v-6.81Z"/>
    <path class="cls-1" d="M23.4,11.37v12.54H15.19c-5.69,0-8.22-.39-11.18-2.38C1.44,19.78,0,16.43,0,12.11,0,6.15,3.93,.12,12.62,.12c7.05,0,10.79,3.93,10.79,11.25m-6.27,.7c0-4.6-1.64-6.78-5.22-6.78s-5.88,2.65-5.88,6.66c0,4.83,2.3,6.93,7.44,6.93h3.66v-6.81Z"/>
  </g>
</svg>