<?xml version="1.0" encoding="UTF-8"?>
<svg id="Layer_1" data-name="Layer 1" xmlns="http://www.w3.org/2000/svg" viewBox="0 0 120 41.96">
  <defs>
    <style>
      .cls-1 {
        fill: #fff;
        fill-rule: evenodd;
      }
    </style>
  </defs>
  <path class="cls-1" d="M99.02,0c-4.91,0-9.43,1.69-13.01,4.52-3.58-2.83-8.09-4.52-13.01-4.52s-9.43,1.69-13.01,4.52c-3.58-2.83-8.09-4.52-13.01-4.52s-9.43,1.69-13.01,4.52C30.41,1.69,25.89,0,20.98,0,9.39,0,0,9.39,0,20.98s9.39,20.98,20.98,20.98c4.91,0,9.43-1.69,13.01-4.52,3.58,2.83,8.09,4.52,13.01,4.52s9.43-1.69,13.01-4.52c3.58,2.83,8.09,4.52,13.01,4.52s9.43-1.69,13.01-4.52c3.58,2.83,8.09,4.52,13.01,4.52,11.59,0,20.98-9.39,20.98-20.98S110.61,0,99.02,0h0ZM30.55,34.01c-2.67,1.95-6.01,3.14-9.57,3.14-8.94,0-16.17-7.23-16.17-16.17S12.04,4.81,20.98,4.81c3.56,0,6.9,1.19,9.57,3.14-2.84,3.58-4.54,8.1-4.54,13.03s1.71,9.46,4.54,13.03h0Zm3.43-3.42c-1.99-2.69-3.16-6.01-3.16-9.61s1.17-6.92,3.16-9.61c1.99,2.69,3.17,6,3.17,9.61s-1.17,6.92-3.17,9.61h0Zm22.58,3.42c-2.68,1.98-6,3.14-9.59,3.14s-6.88-1.16-9.56-3.14c2.83-3.57,4.54-8.12,4.54-13.03s-1.69-9.45-4.54-13.03c2.68-1.97,5.98-3.14,9.56-3.14s6.9,1.16,9.59,3.14c-2.85,3.58-4.54,8.1-4.54,13.03s1.71,9.46,4.54,13.03h0Zm3.43-3.42c-1.99-2.69-3.16-6.01-3.16-9.61s1.17-6.92,3.16-9.61c1.99,2.69,3.17,6,3.17,9.61s-1.17,6.92-3.17,9.61h0Zm22.58,3.42c-2.68,1.98-6,3.14-9.59,3.14s-6.88-1.16-9.56-3.14c2.83-3.57,4.54-8.12,4.54-13.03s-1.69-9.45-4.54-13.03c2.68-1.97,5.98-3.14,9.56-3.14s6.9,1.16,9.59,3.14c-2.85,3.58-4.54,8.1-4.54,13.03s1.71,9.46,4.54,13.03h0Zm3.43-3.42c-1.99-2.69-3.16-6.01-3.16-9.61s1.17-6.92,3.16-9.61c1.99,2.69,3.16,6,3.16,9.61s-1.17,6.92-3.16,9.61h0Zm13.01,6.56c-3.56,0-6.9-1.19-9.57-3.14,2.83-3.57,4.54-8.12,4.54-13.03s-1.69-9.45-4.54-13.03c2.68-1.95,6.01-3.14,9.57-3.14,8.94,0,16.17,7.23,16.17,16.17s-7.23,16.17-16.17,16.17h0Z"/>
</svg>