<?xml version="1.0" encoding="UTF-8"?>
<svg id="Layer_1" data-name="Layer 1" xmlns="http://www.w3.org/2000/svg" viewBox="0 0 113.39 67.8">
  <defs>
    <style>
      .cls-1 {
        fill: #fff;
      }
    </style>
  </defs>
  <path class="cls-1" d="M31.95,24.63c0,1.4,.15,2.53,.41,3.36,.3,.83,.68,1.73,1.21,2.72,.19,.3,.26,.6,.26,.87,0,.38-.23,.75-.72,1.13l-2.38,1.58c-.34,.23-.68,.34-.98,.34-.38,0-.75-.19-1.13-.53-.53-.57-.98-1.17-1.36-1.77-.38-.64-.75-1.36-1.17-2.22-2.94,3.47-6.64,5.2-11.09,5.2-3.17,0-5.69-.91-7.54-2.72-1.85-1.81-2.79-4.22-2.79-7.24,0-3.21,1.13-5.81,3.43-7.77s5.35-2.94,9.24-2.94c1.28,0,2.6,.11,4,.3s2.83,.49,4.34,.83v-2.75c0-2.87-.6-4.86-1.77-6.03-1.21-1.17-3.24-1.73-6.15-1.73-1.32,0-2.68,.15-4.07,.49s-2.75,.75-4.07,1.28c-.6,.26-1.06,.41-1.32,.49s-.45,.11-.6,.11c-.53,0-.79-.38-.79-1.17v-1.85c0-.6,.08-1.06,.26-1.32s.53-.53,1.06-.79c1.32-.68,2.9-1.24,4.75-1.7,1.85-.49,3.81-.72,5.88-.72,4.49,0,7.77,1.02,9.88,3.05,2.07,2.04,3.13,5.13,3.13,9.28v12.22h.08Zm-15.31,5.73c1.24,0,2.53-.23,3.88-.68s2.56-1.28,3.58-2.41c.6-.72,1.06-1.51,1.28-2.41,.23-.91,.38-2,.38-3.28v-1.58c-1.09-.26-2.26-.49-3.47-.64s-2.38-.23-3.54-.23c-2.53,0-4.37,.49-5.62,1.51s-1.85,2.45-1.85,4.34c0,1.77,.45,3.09,1.4,4,.91,.94,2.22,1.4,3.96,1.4Zm30.28,4.07c-.68,0-1.13-.11-1.43-.38-.3-.23-.57-.75-.79-1.47L35.84,3.43c-.23-.75-.34-1.24-.34-1.51,0-.6,.3-.94,.91-.94h3.7c.72,0,1.21,.11,1.47,.38,.3,.23,.53,.75,.75,1.47l6.34,24.96L54.54,2.83c.19-.75,.41-1.24,.72-1.47s.83-.38,1.51-.38h3.02c.72,0,1.21,.11,1.51,.38,.3,.23,.57,.75,.72,1.47l5.96,25.27,6.52-25.27c.23-.75,.49-1.24,.75-1.47,.3-.23,.79-.38,1.47-.38h3.51c.6,0,.94,.3,.94,.94,0,.19-.04,.38-.08,.6s-.11,.53-.26,.94l-9.09,29.15c-.23,.75-.49,1.24-.79,1.47s-.79,.38-1.43,.38h-3.24c-.72,0-1.21-.11-1.51-.38s-.57-.75-.72-1.51l-5.85-24.32-5.81,24.29c-.19,.75-.41,1.24-.72,1.51s-.83,.38-1.51,.38h-3.24Zm48.46,1.02c-1.96,0-3.92-.23-5.81-.68s-3.36-.94-4.34-1.51c-.6-.34-1.02-.72-1.17-1.06s-.23-.72-.23-1.06v-1.92c0-.79,.3-1.17,.87-1.17,.23,0,.45,.04,.68,.11,.23,.08,.57,.23,.94,.38,1.28,.57,2.68,1.02,4.15,1.32,1.51,.3,2.98,.45,4.49,.45,2.38,0,4.22-.41,5.51-1.24,1.28-.83,1.96-2.04,1.96-3.58,0-1.06-.34-1.92-1.02-2.64-.68-.72-1.96-1.36-3.81-1.96l-5.47-1.7c-2.75-.87-4.79-2.15-6.03-3.85-1.24-1.66-1.89-3.51-1.89-5.47,0-1.58,.34-2.98,1.02-4.19s1.58-2.26,2.72-3.09c1.13-.87,2.41-1.51,3.92-1.96s3.09-.64,4.75-.64c.83,0,1.7,.04,2.53,.15,.87,.11,1.66,.26,2.45,.41,.75,.19,1.47,.38,2.15,.6s1.21,.45,1.58,.68c.53,.3,.91,.6,1.13,.94,.23,.3,.34,.72,.34,1.24v1.77c0,.79-.3,1.21-.87,1.21-.3,0-.79-.15-1.43-.45-2.15-.98-4.56-1.47-7.24-1.47-2.15,0-3.85,.34-5.02,1.06s-1.77,1.81-1.77,3.36c0,1.06,.38,1.96,1.13,2.68s2.15,1.43,4.15,2.07l5.35,1.7c2.72,.87,4.68,2.07,5.85,3.62s1.73,3.32,1.73,5.28c0,1.62-.34,3.09-.98,4.37-.68,1.28-1.58,2.41-2.75,3.32-1.17,.94-2.56,1.62-4.19,2.11-1.7,.53-3.47,.79-5.39,.79Z"/>
  <path class="cls-1" d="M102.51,53.78c-12.41,9.16-30.43,14.03-45.93,14.03-21.72,0-41.29-8.03-56.08-21.38-1.17-1.06-.11-2.49,1.28-1.66,15.99,9.28,35.71,14.9,56.11,14.9,13.76,0,28.89-2.87,42.8-8.75,2.07-.94,3.85,1.36,1.81,2.87Zm5.17-5.88c-1.58-2.04-10.48-.98-14.52-.49-1.21,.15-1.4-.91-.3-1.7,7.09-4.98,18.74-3.54,20.1-1.89,1.36,1.7-.38,13.35-7.01,18.93-1.02,.87-2,.41-1.55-.72,1.51-3.73,4.86-12.14,3.28-14.14Z"/>
</svg>