<?xml version="1.0" encoding="UTF-8"?>
<svg id="Layer_1" data-name="Layer 1" xmlns="http://www.w3.org/2000/svg" viewBox="0 0 170.08 14.17">
  <defs>
    <style>
      .cls-1 {
        fill: #fff;
      }
    </style>
  </defs>
  <path class="cls-1" d="M0,.24H3.7c2.84,0,4.8,.92,4.8,3.45,0,1.88-1.1,2.82-2.82,3.25v.04c1.86,.16,3.17,1.37,3.17,3.29,0,2.94-2.43,3.64-5.21,3.64H0V.24ZM1.96,12.3h1.47c1.76,0,3.35-.37,3.35-2.21,0-2.12-1.86-2.41-3.54-2.41H1.96v4.62Zm0-6.23h1.08c1.9,0,3.51-.18,3.51-2.19,0-1.63-1.39-2.04-2.53-2.04H1.96V6.07Z"/>
  <path class="cls-1" d="M16.75,.24h2.06l5.78,13.67h-2.13l-1.39-3.45h-6.7l-1.39,3.45h-2.06L16.75,.24Zm.96,1.84l-2.72,6.78h5.44l-2.72-6.78Z"/>
  <path class="cls-1" d="M27.58,.24h2.66l6.03,11.01h.04V.24h1.96V13.9h-2.51L29.57,2.66h-.04V13.9h-1.96V.24Z"/>
  <path class="cls-1" d="M53.06,2.66c-.96-.63-2-.94-3.76-.94-3.15,0-5.25,2.29-5.25,5.35,0,3.21,2.31,5.35,5.15,5.35,1.35,0,1.7-.14,2.19-.23v-4.15h-2.88v-1.61h4.84v7.11c-.74,.25-2.04,.61-4.17,.61-4.33,0-7.21-2.78-7.21-7.13s3.06-7.01,7.23-7.01c2,0,2.88,.29,4.01,.69l-.16,1.98Z"/>
  <path class="cls-1" d="M87.58,0c4.15,0,6.58,3.02,6.58,7.07s-2.41,7.07-6.58,7.07-6.58-2.92-6.58-7.07,2.43-7.07,6.58-7.07Zm0,12.42c3.15,0,4.5-2.62,4.5-5.35s-1.49-5.37-4.5-5.35c-3.02-.02-4.5,2.57-4.5,5.35s1.35,5.35,4.5,5.35Z"/>
  <path class="cls-1" d="M98.06,.24h1.96V12.18h5.72v1.72h-7.68V.24Z"/>
  <path class="cls-1" d="M118.93,8.24c0,3.84-1.94,5.89-5.31,5.89s-5.31-2.06-5.31-5.89V.24h1.96V7.99c0,2.62,.82,4.43,3.35,4.43s3.35-1.8,3.35-4.43V.24h1.96V8.24Z"/>
  <path class="cls-1" d="M123.66,.24h7.27V1.96h-5.31v4h5.07v1.72h-5.07v6.23h-1.96V.24Z"/>
  <path class="cls-1" d="M141.83,2.29c-1-.39-1.55-.57-2.57-.57-1.1,0-2.39,.39-2.39,1.82,0,2.62,5.88,2.02,5.88,6.52,0,2.92-2.25,4.07-4.99,4.07-.96,0-1.9-.27-2.8-.57l.2-1.82c.67,.27,1.84,.67,2.84,.67,1.12,0,2.68-.63,2.68-2.23,0-3.06-5.88-2.21-5.88-6.46,0-2.43,1.92-3.72,4.39-3.72,.9,0,1.98,.16,2.92,.49l-.27,1.8Z"/>
  <path class="cls-1" d="M147.2,.24h7.66V1.96h-5.7v4h5.19v1.72h-5.19v4.5h5.7v1.72h-7.66V.24Z"/>
  <path class="cls-1" d="M159.39,.24h2.66l6.03,11.01h.04V.24h1.96V13.9h-2.51l-6.19-11.24h-.04V13.9h-1.96V.24Z"/>
  <path class="cls-1" d="M72.92,13.7s-1.55-1.55-1.94-1.94c-.33,.32-.65,.64-1.25,1.24-1.2,1.2-3.68,1.85-5.52,0-1.86-1.86-1.16-4.38,0-5.53,.44-.44,.98-.97,1.25-1.24-.24-.26-1.41-1.18-1.41-2.84S65.43,0,67.46,0c1.48,0,2.31,.91,2.42,1.01-.1,.1-1.22,1.22-1.38,1.37-.15-.16-.49-.43-1.04-.43-.64,0-1.46,.52-1.46,1.46,0,.59,.39,.99,.44,1.04,.65,.65,4.54,4.55,4.54,4.55l1.38-1.38,1.38,1.38-1.38,1.38,1.94,1.94-1.37,1.38Zm-6.08-6.07s-.58,.58-1.24,1.24c-.66,.66-.86,1.89,0,2.75,.86,.86,2.08,.67,2.75,0,.67-.66,1.26-1.26,1.26-1.26l-2.77-2.74Z"/>
</svg>