<?xml version="1.0" encoding="UTF-8"?>
<svg id="Layer_1" data-name="Layer 1" xmlns="http://www.w3.org/2000/svg" viewBox="0 0 146.45 14.03">
  <defs>
    <style>
      .cls-1 {
        fill: #fff;
      }
    </style>
  </defs>
  <path class="cls-1" d="M144.03,11.35V2.68c0-.8,.1-1.31,.31-1.52,.32-.32,.82-.48,1.51-.48h.61V.31h-7.23v.37h.6c.4,0,.78,.08,1.14,.24,.26,.12,.43,.26,.51,.43,.11,.22,.16,.67,.16,1.35V11.35c0,.8-.1,1.31-.3,1.52-.32,.32-.82,.48-1.52,.48h-.6v.37h7.23v-.37h-.61c-.4,0-.78-.08-1.13-.24-.27-.12-.44-.26-.52-.43-.11-.22-.16-.67-.16-1.35h0Zm-17.38,2.37h4.5v-.37c-.92-.08-1.67-.26-2.24-.55-.57-.29-1.26-.88-2.05-1.76l-3.48-3.85c1.42-.25,2.47-.68,3.14-1.29,.68-.61,1.01-1.32,1.01-2.15,0-.77-.3-1.44-.89-1.99-.59-.56-1.31-.94-2.16-1.15-.85-.21-2.17-.31-3.96-.31h-6.15v.37h.63c.64,0,1.12,.15,1.44,.44,.23,.2,.35,.73,.35,1.57V11.35c0,.77-.09,1.25-.26,1.45-.31,.37-.82,.55-1.53,.55h-.63v.37h7.23v-.37h-.66c-.63,0-1.1-.14-1.42-.44-.23-.2-.35-.73-.35-1.57v-3.9c.13,0,.26,.01,.39,.01,.12,0,.24,0,.35,0,.27,0,.61,0,1.03-.02l5.71,6.27h0Zm-6.78-6.89c-.07,0-.17,0-.29,0-.12,0-.25,0-.41,0V1.25c.82-.13,1.47-.19,1.95-.19,1.09,0,1.96,.26,2.62,.79,.66,.52,.99,1.21,.99,2.04s-.41,1.56-1.23,2.12c-.82,.55-2.03,.83-3.64,.83h0Zm-19.32,6.89h6.66v-.37c-.69-.03-1.23-.18-1.61-.45-.39-.27-.81-.85-1.29-1.75L98.43,0h-.44l-5.93,11.04c-.51,.97-.98,1.61-1.41,1.93-.21,.16-.66,.29-1.37,.39v.37h5.31v-.37c-.81-.05-1.34-.15-1.59-.3-.24-.16-.37-.33-.37-.54,0-.26,.14-.65,.42-1.17l1.14-2.12h6.53l1.02,1.93c.33,.63,.5,1.09,.5,1.38,0,.22-.12,.4-.35,.55-.24,.15-.69,.24-1.36,.27v.37h0Zm-.15-5.22h-5.8l2.94-5.42,2.86,5.42h0Zm-17.59-1.72h.31v-.38h-6.53v.38c.68,0,1.16,.05,1.42,.16,.27,.11,.47,.27,.6,.47s.19,.65,.19,1.32v3.88c-.54,.24-1.1,.43-1.68,.55-.58,.13-1.18,.19-1.8,.19-1.06,0-2.1-.25-3.1-.74-1.01-.49-1.82-1.26-2.44-2.32-.62-1.06-.93-2.22-.93-3.5,0-1.58,.47-2.93,1.41-4.08,1.12-1.35,2.75-2.03,4.9-2.03,1.58,0,2.87,.39,3.87,1.16,.7,.53,1.26,1.33,1.7,2.38h.44l-.44-4.23h-.46c-.02,.34-.09,.56-.21,.68-.11,.12-.25,.17-.4,.17s-.47-.07-.93-.21c-.92-.27-1.63-.45-2.13-.52-.5-.08-1.06-.12-1.67-.12-1.68,0-3.14,.29-4.38,.86-1.48,.69-2.64,1.68-3.48,2.97-.71,1.08-1.07,2.21-1.07,3.39,0,1.63,.63,3.07,1.9,4.31,1.69,1.66,4.17,2.49,7.43,2.49,1.14,0,2.17-.1,3.1-.29,.93-.19,1.87-.49,2.82-.9v-4.11c0-.72,.08-1.2,.25-1.44,.24-.34,.68-.51,1.33-.51h0Zm-24.41,6.94l1.44-3.64-.41-.07c-.43,.83-.86,1.44-1.29,1.83-.43,.39-.91,.65-1.43,.81s-1.43,.23-2.72,.23h-1.23c-1.09,0-1.73-.03-1.94-.1-.21-.07-.36-.17-.46-.31-.13-.2-.2-.58-.2-1.13V2.91c0-.8,.07-1.3,.2-1.51,.13-.21,.38-.39,.74-.52s.99-.2,1.88-.2V.31h-7.64v.37h.63c.64,0,1.12,.15,1.44,.44,.23,.21,.35,.74,.35,1.57V11.34c0,.77-.09,1.25-.26,1.46-.31,.37-.82,.55-1.53,.55h-.63v.37h13.06ZM36.58,1.05c.29-.22,.71-.37,1.26-.46V.23h-4.84v.37c.09,.01,.16,.02,.2,.03,.53,.07,.91,.2,1.13,.37,.22,.17,.34,.36,.34,.55,0,.3-.18,.83-.54,1.59l-3.7,7.77-3.99-7.86c-.36-.7-.53-1.21-.53-1.54,0-.24,.11-.43,.32-.58,.22-.15,.69-.26,1.41-.32V.23h-6.41v.37c.48,.03,.86,.11,1.14,.22,.28,.12,.52,.28,.71,.48,.12,.13,.34,.49,.64,1.09l5.88,11.56h.43l5.47-11.42c.32-.67,.68-1.16,1.09-1.48h0ZM13,7.88c-.54-.44-1.35-.75-2.44-.95,.93-.26,1.64-.65,2.12-1.18,.48-.53,.72-1.13,.72-1.81,0-.78-.3-1.48-.91-2.08-.61-.6-1.49-1.02-2.65-1.26-.76-.16-1.78-.24-3.04-.24H0v.37H.59c.59,0,1.04,.15,1.34,.44,.22,.22,.34,.74,.34,1.57V11.4c0,.75-.09,1.24-.27,1.47-.29,.36-.76,.53-1.41,.53H0v.37H7.41c1.77,0,3.08-.14,3.94-.42,.86-.28,1.54-.73,2.03-1.34,.49-.61,.74-1.25,.74-1.91,0-.88-.37-1.62-1.12-2.23h0Zm-2.48-2.61c-.3,.43-.73,.75-1.3,.95-.57,.21-1.41,.31-2.54,.31-.44,0-.84-.01-1.21-.03-.37-.02-.69-.06-.98-.1V1.24c.62-.15,1.31-.22,2.08-.22,1.44,0,2.53,.28,3.28,.83,.75,.55,1.12,1.22,1.12,2.01,0,.51-.15,.98-.45,1.4h0Zm.91,5.01c0,.79-.37,1.46-1.1,1.99-.73,.54-1.8,.81-3.19,.81-.87,0-1.76-.09-2.65-.27V7.3c.21-.03,.48-.06,.82-.07,.34-.01,.75-.02,1.23-.02,1.1,0,2.03,.14,2.78,.42,.75,.28,1.29,.66,1.62,1.14,.33,.48,.5,.98,.5,1.5h0Z"/>
</svg>