<?xml version="1.0" encoding="UTF-8"?>
<svg id="Layer_1" data-name="Layer 1" xmlns="http://www.w3.org/2000/svg" viewBox="0 0 130 101.05">
  <defs>
    <style>
      .cls-1 {
        fill: #fff;
        fill-rule: evenodd;
      }
    </style>
  </defs>
  <path class="cls-1" d="M40,0h.35c.45,.31,.35,.91,.4,1.39,.12,1.53,.35,3.14,.52,4.74,.23,2.23,.14,4.67-.09,6.8-.45,4.15-1.34,8.25-2.74,11.33-1.41,3.1-3.66,5.79-6.1,8.02-1.81,1.66-3.96,3.07-6.22,4.36-.59,.33-1.64,1.12-2.44,.52,.17-.75,.94-.84,1.43-1.08,1.15-.59,2.46-1.46,3.49-2.3,3.12-2.56,5.46-6.12,7.06-10.23,1.05-2.69,1.88-5.93,2.09-9.45,.21-3.43,.38-7.46-.56-10.64-.66,.31-1.13,.91-1.66,1.39-1.53,1.46-3.21,2.89-4.62,4.53-3.68,4.27-6.68,9.64-8.02,16.28-.68,3.37-.58,7.44,.09,11.11,1.24,6.75,4.36,11.8,6.8,17.56,1.19,2.79,2.11,5.91,2.91,9.24,.75,3.12,1.05,7.41,.35,11.02,.51-.33,.85-.87,1.26-1.34,1.15-1.38,2.51-2.65,4.1-3.7,.98-.65,2.16-1.24,3.31-1.92,.51-.3,1.01-.63,1.6-.99,.44-.26,1.27-.84,1.87-.7,.42,.1,.68,.78,.7,1.34,.05,1.24-.45,2.35-.84,3.35-.4,1.06-.78,2.07-1.05,3.14,.42-.07,.7-.45,.99-.73,1.94-1.74,3.33-3.84,5.39-5.49,.37-.3,.85-.63,1.17-.26,.28,.31-.21,1.01-.47,1.39-.35,.51-.66,.89-.87,1.22-1.41,2.18-2.51,4.38-2.65,7.79-.03,.78-.02,1.67,.38,1.83,.71,.26,1.67-.31,2.18-.56,.77-.38,1.52-.8,1.78-1.52,.38-1.08,.49-2.2,.87-3.17,.65-1.67,1.85-3.68,3.17-4.92,.54-.51,1.81-1.52,2.7-1.31,.3,.07,.24,.09,.38,.44,.66-5.74,3.19-9.99,5.96-13.9,2.02-2.84,4.48-5.34,7.24-7.67,.42-.35,.85-.71,1.39-1.08,.52-.37,1.22-.82,1.83-.78,.75,.75,.51,2.23,.35,3.4-.45,3.33-2.23,5.77-3.96,7.93-1.83,2.28-3.75,4.1-6.22,5.67-.84,.52-1.99,.98-2.56,1.74-.68,.89-.8,2.62-.96,3.96-.59,4.83,.42,9.19,2.91,11.37,.89,.77,1.97,1.39,3.43,1.48,1.43,.07,2.79-.38,3.78-1.08s1.57-1.66,1.74-3.14c.09-.71,.09-1.41,.17-2.27,.07-.7,.17-1.52-.09-2.18-.65-1.67-2.6-2.35-4.39-2.74-2.2-.47-4.31-.14-5.93,.7-.28,.14-.73,.7-1.17,.61-.12-.02-.4-.28-.44-.44-.1-.52,.77-1.26,1.26-1.66,1.6-1.29,3.49-2.51,5.41-3.31,2.06-.87,4.2-1.55,7.15-1.48,.84,.02,2.13,.23,2.88,.03,.52-.12,1.12-.75,1.52-1.22,.87-.99,1.6-1.9,2.82-2.62,.3-.17,1.48-.85,2.13-.52,.26,.12,.4,.49,.44,.87,.19,1.67-.09,3.26-.38,4.57-.3,1.34-.84,2.51-.99,3.92,.54-.14,.92-.61,1.31-.96,1.9-1.81,2.49-5.04,4.36-6.97,.37-.38,.75-.71,1.22-1.05,.42-.3,.89-.75,1.52-.61,.17,.7-.33,1.31-.61,1.87-.87,1.74-1.71,3.54-2.53,5.41-.52,1.2-1.08,2.46-1.52,3.75-.45,1.31-.96,2.7-.87,4.22,.91-.35,1.55-1.1,2.18-1.74,1.27-1.29,2.18-2.96,3.14-4.66,.84-1.5,1.43-3.1,3.57-3.26,.49,.66,.02,1.39-.26,1.95-.58,1.2-1.03,2.44-1.52,3.75-.24,.63-.58,1.36-.26,2.09,.71,.24,1.43-.31,2.01-.73,.66-.49,1.46-1.08,1.6-1.87,.07-.37-.03-.77-.03-1.17,0-2.6,.44-5.13,.91-7.36,.3-1.39,.54-2.63,.96-3.78,.42-1.17,.96-2.2,1.39-3.35-1.46,.17-2.32,.75-3.43,1.39-.45,.26-.91,.56-1.48,.91-.31,.19-1.39,.87-1.69,.35-.37-.61,1.12-1.6,1.39-1.83,1.88-1.45,4.05-2.62,6.54-3.4,1.19-2.07,2.18-4.43,4.22-5.7,.3-.19,.66-.42,.99-.65,.3-.21,.7-.58,1.13-.35,0,1.24-.94,1.95-1.52,2.74-.61,.84-1.27,1.62-1.52,2.79,.99,0,2.01-.33,3.05-.52,2.93-.54,6.73-.91,9.97-.3-.21,.49-.75,.82-1.22,1.26-.4,.38-.91,1.06-1.43,1.17-.4,.09-.96-.03-1.48-.03-2.46,0-4.81,.16-7.1,.35-1.1,.09-2.13,.16-2.91,.52-.87,.89-1.64,2.95-2.09,4.36-.49,1.5-.85,3.31-1.08,4.83-.35,2.32-.42,5.77,.17,8.11,.21,.78,.44,1.85,1.05,1.92,.54,.05,1.22-.68,1.6-.99,1.45-1.19,2.39-2.88,3.17-4.62,.8-1.76,1.27-3.78,2.65-5.14,.38-.38,1.17-1.01,1.66-.75,.78,.44-.3,2.41-.47,2.79-.91,1.88-1.66,3.3-2.44,5.14-.37,.87-.82,1.85-.73,2.88,1.15,.47,1.39-.8,1.78-1.69,.63-1.45,1.1-2.72,2.01-3.92,.42-.54,.91-1.27,1.69-1.27,.4,.02,.71,.28,.78,.52,.16,.56-.51,1.34-.73,1.78-.35,.66-.63,1.1-.7,1.92,.75-.09,1.27-.77,1.87-1.26,1.17-.96,2.42-1.83,4.1-2.35,1.01-.31,3.1-.99,3.66,.03,.49,.91-.28,2.46-.7,3.26-.51,.98-1.08,1.9-1.48,2.82-.4,.91-.82,2.07-1.13,3.17-.35,1.22-.84,3.43,.14,4.31,.7,.63,1.99,.73,3.14,.7,2.39-.07,3.66-1.5,5.06-2.62,.68-.54,1.5-1.24,2.62-1.05v.26c-.78,1.01-1.9,1.76-3,2.56-2.07,1.52-4.11,3.31-7.5,3.61-2.14,.19-3.98-.65-4.13-2.82-.19-2.56,.78-4.9,1.52-6.71,.4-1.01,.87-1.87,1.34-2.74s1.03-1.78,1.08-3c-.65-.4-1.38-.03-1.95,.17-2.89,1.05-4.57,3.52-6.45,5.75-.35,.4-.73,.82-1.22,1.22-.33,.26-1.34,.89-1.69,.49-.23-.26,.19-.73,.09-1.17-.92,.1-2.27,1.45-3.23,1.05-.68-.3-.1-1.64-.09-2.35-.21-.05-.33,.21-.47,.35-.91,.82-3.26,2.79-4.97,2.13-.96-.37-.92-1.71-1.17-2.91-.61,.07-1.05,.63-1.52,1.05-.44,.4-.92,.78-1.43,1.13-.98,.7-2.32,1.52-3.61,1.48-.82-.02-1.27-.56-1.34-1.43-.56,.12-.85,.68-1.26,1.05-.82,.77-1.67,1.39-2.91,1.87-1.05,.4-2.3,.68-2.39-.78-.07-1.27,.33-2.62,.7-3.75,.37-1.15,.91-2.18,1.26-3.17-.42,.1-.7,.66-1.05,1.13s-.84,.89-1.08,1.31c-.58,.94-.8,2.11-1.39,3.09-1.13,1.92-2.23,3.5-3.92,5-.37,.33-.75,.63-1.22,.99-.4,.31-.92,.87-1.39,.84-.87-.07-.96-1.81-1.39-2.39-1.24,.99-2.07,2.32-3.43,3.31-1.22,.89-3.02,1.87-5.06,1.57-1.81-.28-2.96-1.62-3.96-2.79-1.06-1.26-1.87-2.63-2.27-4.45-1.88,1.22-3.33,2.84-5.23,4.13-.59,.4-1.36,.91-2.27,.73-.38-.28-.44-.91-.4-1.6-1.53,.63-3.24,2.95-5.67,2.35-.54-.14-1.13-.51-1.43-1.08-1.15-2.21,.82-5.47,1.22-7.15-.65,.07-1.06,.63-1.52,1.05-.49,.44-1.05,.78-1.52,1.22-2.39,3.96-5.25,8.42-8.89,11.63-1.12,.99-2.53,2.44-4.48,2.3-2.14-.16-1.62-2.7-1.26-4.53-.56,.35-.85,.96-1.26,1.43-1.22,1.41-2.7,2.65-4.05,4.01,6.03,4.45,16.04,6.17,26.17,4.92,2.27-.28,4.48-.82,6.57-1.39,6.15-1.69,11.56-4.46,17.21-6.66,3.77-1.46,7.85-2.95,12.41-3.52,4.73-.59,10.29-.54,15.12,0,8.25,.94,15.29,3.37,21.48,6.4,.87,.44,1.78,.84,2.39,1.57-.45,.17-.89,.28-1.34,.44-.4,.14-.92,.45-1.31,.44-.33-.02-.94-.54-1.31-.75-1.31-.73-2.77-1.33-4.13-1.92-1.9-.82-3.96-1.57-5.93-2.18-4.08-1.26-8.96-1.99-13.67-2.53-7.67-.87-15.67,.05-21.31,2.3-1.9,.77-3.64,1.73-5.44,2.65-1.8,.92-3.71,1.69-5.58,2.53-1.88,.85-3.77,1.67-5.7,2.39-.99,.37-2.02,.65-3.05,.99-.99,.35-1.99,.73-3,1.05-2.11,.63-4.41,.98-6.8,1.31-4.95,.68-10.25,.52-14.72-.52-3.75-.87-7.11-2.32-9.97-4.22-.3-.19-.91-.77-1.22-.78-.68-.05-1.69,1.03-2.3,1.43-2.25,1.5-4.41,3.05-6.83,4.27-2.72,1.38-9.31,3.31-10.5-.99v-.7c.38-2.16,1.74-3.57,3.05-4.71,1.46-1.27,2.84-2.23,4.74-3,3.03-1.24,8.21-1.88,11.46-.47,.47,.21,.85,.47,1.39,.56,.98,.17,2.04-1.12,2.7-1.74,2.18-2.06,3.99-4.34,5.44-6.97,.96-1.74,1.76-3.92,2.13-6.14,.42-2.44,.17-5.49-.17-7.76-.73-4.76-2.21-8.79-4.01-12.54-1.78-3.73-3.8-7.31-5.35-11.19-.8-2.01-1.46-4.1-1.74-6.49-.3-2.56-.03-5.23,.31-7.71,.66-4.74,2.13-9.07,3.92-12.64,2.79-5.54,6.56-9.94,11.16-13.67,.71-.59,1.55-1.12,2.44-1.69,.66-.58,1.53-1.36,2.53-1.55Zm32.24,48.78c-1.85,1.29-3.37,3.09-4.71,4.97-1.74,2.42-3.14,5.21-4.1,8.37,2.53-1.13,4.73-2.89,6.31-5.09,1.17-1.6,2.2-3.61,2.62-5.93,.14-.75,.4-1.64,.09-2.44h-.09c-.05,.02-.09,.07-.12,.12Zm9.59,16.77c-.26,.4-.44,.92-.49,1.6-.03,.63-.09,1.45,.3,1.74,.4-.78,.47-2.14,.35-3.31-.07,.02-.12,0-.16-.03Zm-9.97,.78c1.76,.28,2.75,1.2,4.05,1.83,.4-.47,.7-1.05,.91-1.69-1.27-.61-3.54-.54-4.95-.14Zm-13.72,2.96c-.98,1.12-1.43,2.7-2.01,4.36-.42,1.2-.77,2.37-1.05,3.7-.09,.42-.26,.96,0,1.34,.71-.33,1.34-1.03,2.01-1.6,.26-.23,.59-.52,.99-.87,.37-.31,.85-.58,.91-.96,.03-.19-.03-.44-.03-.65-.07-1.92-.1-4.46,0-6.1-.23,.3-.56,.49-.82,.78Zm-17.82,2.74c-.59,1.01-1.24,2.04-1.31,3.14-.05,.91,.61,1.33,1.34,.91,.33-.19,.59-.92,.78-1.39,.65-1.6,1.31-3.37,1.26-5.18-.03,0-.05,0-.03-.03,0-.03,0-.05-.03-.03-.8,.65-1.34,1.48-2.01,2.6Zm-.87-1.69c-.47,.35-.89,.77-1.39,1.08-.77,.98-1.67,1.85-2.48,2.91-.75,1.01-1.48,2.11-2.13,3.31-.99,1.81-1.52,3.8-1.87,6.28-.12,.8-.35,1.66-.3,2.44,.1,2.42,2.42,.23,3-.44,1.9-2.18,3.31-4.59,4.62-7.18-.85,.05-1.38,.8-2.35,.49-.7-.23-.8-1.26-.65-2.18,.44-2.63,2.7-4.92,3.78-6.71-.07-.02-.07-.07-.12-.09-.03,.05-.1,.03-.12,.09Zm37.68,6.05c.03,.52,.16,1.34,.52,1.39,.4,.05,.8-.65,.99-.96,.84-1.31,1.41-2.58,1.87-4.1-1.48-.12-2.16-1.03-2.62-2.18-.49,1.27-.89,3.98-.77,5.84ZM10.74,92.08c-.61,.1-1.2,.31-1.78,.47-2.37,.7-4.36,1.66-6.1,3.05-.7,.56-2.02,1.52-1.83,2.74,.09,.63,.99,.94,1.74,.99,2.09,.16,3.47-.58,5.09-1.17,1.22-.45,2.34-1.05,3.43-1.6,1.13-.59,2.23-1.17,3.26-1.78,1.08-.65,2.14-1.31,2.91-2.18-1.5-1.05-4.67-.85-6.73-.52Z"/>
  <path class="cls-1" d="M43.45,26.35c.8-.65,1.46-1.81,2.91-1.39,1.43,.4,1.26,2.11,1.26,4.13,0,1.13-.23,2.39,.44,2.7,.26,.12,.63,0,.78,.17-.14,.24-.54,.12-.84,.12-.82,0-1.99,.07-2.7-.09,.05-.24,.37-.12,.52-.17,.68-.24,.52-1.22,.52-2.44,0-1.43,.21-2.93-.52-3.49-1.08-.26-1.9,.33-2.39,.91,.07,1.05-.07,2.96-.03,4.05,.02,.73,.38,.99,1.05,1.08-.14,.24-.54,.12-.82,.12-.82,0-1.99,.07-2.7-.09,.21-.23,.78-.12,.99-.35,.35-.58,.23-1.38,.23-2.18v-4.79c0-.77,.16-1.57-.31-2.04-.28-.05-.58,.1-.73,0,.03-.31,.66-.4,.99-.52,.45-.17,.89-.37,1.26-.52,.21,1.45,.03,3.68,.1,4.79Z"/>
  <path class="cls-1" d="M55.95,21.83c1.29-.31,1.26,1.71,.09,1.57-.82-.1-.94-1.38-.09-1.57Z"/>
  <path class="cls-1" d="M70.02,21.83c.68-.16,1.19,.45,.91,1.08-.37,.87-1.81,.45-1.48-.61,.05-.14,.19-.4,.58-.47Z"/>
  <path class="cls-1" d="M65.78,22.96c.23,.17,.12,.59,.12,.96v1.08c.42,.1,1.03,.02,1.52,.03v.56h-1.48c0,.98-.14,3.28-.03,4.62,.05,.68,.26,1.26,1.05,1.17,.45-.05,.56-.38,.96-.56,.1,.23-.23,.52-.44,.73-.4,.42-.89,.75-1.83,.65-1.76-.52-.71-4.53-.99-6.63-.35-.05-.89,.1-1.08-.09,.09-.38,.52-.44,.78-.61,.63-.44,1.05-1.03,1.31-1.83,.02-.03,.05-.07,.03-.14,.03,.05,.07,.05,.09,.05Z"/>
  <path class="cls-1" d="M58.04,31.98c-.09,.23-.58,.12-.87,.12-.87,0-2.07,.07-2.82-.09,.16-.26,.44-.09,.73-.21,.73-.31,.47-1.94,.47-3.31,0-.98,.14-2.37-.31-2.56-.28-.12-.63,.16-.78-.03,.19-.26,.68-.38,1.05-.52,.44-.17,.89-.3,1.26-.47,.03,0,.03,.05,.09,.05-.07,.75-.03,1.97-.03,3.23,0,1.33-.26,3.31,.44,3.66,.28,.09,.58-.05,.8,.14Z"/>
  <path class="cls-1" d="M72.11,31.98c-.09,.23-.58,.12-.87,.12-.87,0-2.07,.07-2.82-.09,.16-.24,.47-.1,.73-.21,.28-.12,.44-.37,.47-.82,.1-1.01,.07-3.07,0-4.13-.02-.35-.14-.8-.26-.87-.26-.17-.66,.1-.82-.09,.16-.24,.61-.37,.99-.52,.45-.17,.89-.28,1.31-.47,.07,.63,.03,2.06,.03,3.35s-.24,3.16,.35,3.52c.3,.16,.61,.02,.89,.21Z"/>
  <path class="cls-1" d="M81.83,24.92v1.39c.87-.42,1.08-1.57,2.62-1.39,2.48,.3,1.26,4.08,1.6,6.28,.09,.52,.61,.71,1.22,.73-.07,.3-.52,.17-.78,.17-.84,0-2.02,.07-2.74-.09-.07-.28,.38-.02,.44-.17,.8,0,.56-1.53,.56-2.56,0-1.31,.28-3.14-.61-3.4-.85-.24-1.78,.38-2.3,.99,.26,1.13-.49,4.45,.35,4.92,.23,.12,.47-.02,.7,.17-.14,.24-.54,.12-.82,.12-.82,0-1.99,.07-2.7-.09,.12-.24,.51-.12,.73-.21,.68-.3,.49-1.53,.49-2.79s.17-2.49-.31-3.09c-.26-.1-.54,.09-.73,0,.05-.35,.59-.38,.96-.52,.44-.17,.89-.35,1.26-.52,.05,0,.07,.02,.09,.05Z"/>
  <path class="cls-1" d="M51.5,24.92h.09v1.13c.45-.47,1.06-1.22,1.87-1.13,.35,.03,.96,.42,.78,1.08-.05,.17-.28,.4-.52,.44-.65,.09-.59-.51-1.13-.52-.56-.02-.7,.54-.99,.87,.09,1.06-.1,3.03,0,4.13,.07,.77,.49,.92,1.22,1.05-.09,.23-.58,.12-.87,.12-.87,0-2.07,.07-2.82-.09,.14-.24,.47-.1,.73-.21,.71-.31,.47-1.59,.47-2.96,0-1.24,.16-2.37-.3-2.91-.3-.05-.58,.1-.78,0,.19-.33,.68-.38,1.05-.52,.4-.16,.8-.33,1.17-.47h.05Z"/>
  <path class="cls-1" d="M62.75,25.14c-.09,.71,.16,1.55-.03,2.09-.33-.17-.19-.44-.3-.7-.24-.61-.85-1.13-1.6-1.13-.68,0-1.43,.47-1.13,1.39,.16,.51,.91,.84,1.48,1.13,.94,.49,2.16,1.15,2.09,2.62-.07,1.17-1.22,1.83-2.56,1.69-.44-.03-.84-.33-1.26-.3-.35,.02-.26,.19-.65,.21-.05-.7-.1-1.9,0-2.53,.3,.07,.24,.47,.3,.65,.26,.78,1.17,1.88,2.44,1.39,.58-.23,.8-1.03,.35-1.66-.75-1.05-3.26-1.22-3.23-3.14,.02-1.43,1.46-2.27,2.91-1.87,.31,.09,.7,.44,1.19,.14Z"/>
  <path class="cls-1" d="M77.99,31.31c.52,.09,.63-.24,.99-.3-.03,1.01-2.48,1.97-2.44,.12-.73,.33-1.36,1.34-2.7,1.08-.85-.16-1.29-.96-1.17-1.95,.21-1.78,2.49-2.09,3.87-2.7,.17-1.34-.26-2.14-1.22-2.18-.3-.02-.84,.1-1.05,.38-.26,.38,.03,1.1-.23,1.39-.35,.4-.94,.1-1.05-.09-.09-.17-.07-.68,0-.91,.52-1.62,4.5-1.81,4.79,.12,.12,.75,0,1.74,0,2.62,.02,.85-.12,1.71,.19,2.41Zm-1.57-3.23c-.78,.35-1.73,.54-2.21,1.17-.4,.52-.44,1.57,.14,1.95,.59,.4,2.04-.07,2.21-.65,.1-.31,0-.87,0-1.26,0-.45,.07-.89-.09-1.22h-.05Z"/>
  <path class="cls-1" d="M107.21,60.47c-.4-.56,.19-1.03,.56-1.34,.8-.7,1.85-1.24,2.88-1.66,.59-.24,1.1-.35,1.74-.47,.42-.09,1.48-.54,1.6,.09,.09,.42-.58,1.08-.87,1.34-.45,.42-1.26,.91-1.78,1.05-.45,.12-1.13,.12-1.52,.23-.87,.19-1.69,.73-2.62,.77Z"/>
</svg>