<?xml version="1.0" encoding="UTF-8"?>
<svg id="Layer_1" data-name="Layer 1" xmlns="http://www.w3.org/2000/svg" viewBox="0 0 140 45.56">
  <defs>
    <style>
      .cls-1 {
        fill: #fff;
      }
    </style>
  </defs>
  <g>
    <path class="cls-1" d="M4.09,18.86C8.1,11.43,15.05,3.32,23.25,.61c1.68-.42,3.92-.89,5.42,.26,1.33,.98,1.51,2.67,1.21,4.18-.39,1.79-1.62,4.06-3.68,4.35-.37,0-.68-.13-.92-.39-.53-.52-.5-1.28-.38-1.96,.34-1.42,1.66-2.93,3.17-3.13,.26-.17,.15-.48,.08-.7-.2-.32-.44-.56-.81-.63-1.64-.19-2.89,.84-4.15,1.7-4.78,3.85-8.26,8.79-11.18,13.72-2.38,4.43-4.41,9.01-5,14.18-.29,3.75,.9,7.44,4.24,9.24,3.62,1.92,8.3,.62,11.93-.37l3.33-1.02,6.4-1.9c6.07-1.77,13.67-2.17,19.6,.18,3.58,1.49,7.27,3.54,9.61,7.06,0,.09,0,.2-.11,.18-5.08-1.39-11.69-2.76-16.73-.35l-.24-.06c-1.53-2.45-4.11-3.8-6.75-4.33-8.54-.82-15.56,3.22-23.59,4.23-4.07,.37-8.43,.25-11.27-2.87C-1.06,37.7-.54,29.81,1.59,24.42c.69-1.9,1.55-3.75,2.5-5.56Z"/>
    <path class="cls-1" d="M15.87,21.53c2.12-3.89,5.37-8.65,9.87-10.08,1.2-.27,2.5-.16,3.42,.64,1.93,1.93,1.18,5.24,.53,7.51,0,.13,.11,.28,.24,.3,1.72-.05,3.11-.86,4.35-2.04,2.67-2.99,5.53-6.89,9.88-6.44,.81,.13,1.61,.6,2.03,1.36,1.1,2.19,.02,4.6-1.48,6.28-.58,.55-1.3,.98-2.13,.71-.33-.11-.61-.45-.74-.78-.31-1.54,.58-2.96,1.82-3.77,.35-.35,1.42-.11,1.13-.9-.22-.32-.55-.35-.91-.35-2.11,.88-3.49,3.04-4.71,4.85-1.54,2.42-2.79,4.98-3.61,7.7-.23,.98-.51,2.25,.06,3.16,.42,.57,1.12,.82,1.85,.63,2.09-.82,3.93-2.5,5.52-4.23,3.66-4.39,5.6-9.82,10.49-13.39,1.52-1.05,3.67-1.85,5.49-.89,.29,.11,.53,.5,.9,.35,.3-.29,.5-.92,1.09-.77,1.35,.02,2.9-.05,4.29,.09l.09,.13-.39,.94-7.6,15.43c-.07,.17-.09,.39-.06,.57,.13,.22,.41,.2,.61,.13,1.09-.62,1.95-1.79,2.71-2.76,.67-.92,1.26-1.88,1.75-2.9,.2-.3,.45-.66,.85-.61,.43,.06,.96-.13,1.28,.17-.49,1.29-1.25,2.47-1.92,3.69-2.06,3.17-4.76,6.86-8.55,7.81-.63,.07-1.41,.12-1.88-.34-.74-.56-.77-1.44-.97-2.24-.07-.09-.2-.11-.31-.08-1.61,1.46-3.28,2.91-5.56,2.62-.7-.15-1.37-.69-1.68-1.36-.59-1.13-.31-2.59-.34-3.85-.05-.15-.24-.09-.31-.04-2.47,2.43-5.14,4.62-8.41,5.24-1.52,.18-2.83-.27-3.84-1.34-2.45-3.21-.51-7.42,.78-10.54,.06-.15,.04-.35-.15-.39-.89,.07-1.74,.22-2.59,.34l-.3,.33c-1.99,3.69-4.15,7.6-7.73,10.34-1.48,1.07-3.69,1.8-5.42,.81-1.81-1.24-1.97-3.46-1.74-5.52,.43-2.33,1.27-4.49,2.28-6.57Zm5.66-.18c-1.04,2.1-2.1,4.23-2.15,6.72,.11,.46,.38,1,.9,1.13,.55,.15,1.02-.14,1.44-.42,2.04-1.71,3.45-4.06,4.61-6.31,.09-.22,.26-.5,.13-.74-1.22-.48-2.4-1.32-3.34-2.38l-.2-.04c-.18,.04-.26,.22-.39,.35l-1,1.68Zm3.18-4.28c.07,1.11,1.1,2.07,2.08,2.45,.24,.07,.63,.26,.83-.03,.37-.7,.6-1.48,.78-2.25,.19-1.02,.34-2.38-.64-3.05-.33-.19-.83-.21-1.18-.04-1.11,.55-1.91,1.68-1.88,2.93Zm25.04,8.61c-.28,.92-.71,1.92-.42,2.94,.09,.2,.31,.35,.52,.41,.83,.02,1.39-.73,1.93-1.32,2.43-3.37,4.29-7.01,5.97-10.7,.28-.77,.73-1.49,.71-2.36-.02-.18-.2-.31-.35-.41-.37-.17-.72,.09-1.02,.24-3.28,2.52-5.05,6.14-6.69,9.57l-.65,1.64Z"/>
    <path class="cls-1" d="M65.55,16.19c.73-1.44,1.34-2.93,2.25-4.3,.37-.41,.94-.39,1.44-.44l3.64,.05,.15,.15c-.61,1.46-1.29,2.9-2.05,4.3-.19,.37-.58,.72-1,.77-1.48,.03-3.05,.12-4.46-.02-.15-.15-.02-.35,.02-.52Z"/>
    <path class="cls-1" d="M69.2,23.58c2.53-5.24,5.58-10.3,9.91-14.76,4.19-4.18,8.73-7.57,14.23-8.6,1.5-.22,3.18-.08,4.32,.94,.22,.19,.48,.37,.79,.26,3.94-1.58,9.42-2.13,13.37-.16,2.29,1.12,4.47,2.55,6.66,3.92,.28,.15,.15,.44,0,.61-1.26,1.4-2.32,2.84-3.45,4.3-.13,.13-.33,.07-.46,0l-5.81-3.99c-2.71-1.84-5.83-3.13-9.36-2.55-.39,.2-.21,.68-.26,1.05,.08,3.62-1.21,6.78-2.95,9.66-1.39,2.01-3.01,4.11-5.38,4.79-1.04,.22-2.03-.1-2.66-.93-1.73-2.63-.2-5.84,1.06-8.19,1.45-2.55,3.7-4.94,6.12-6.78,.06-.09,.17-.18,.09-.3-.24-.24-.65-.09-.94-.04-3.94,1.32-7.1,4.8-10.01,8.1-5.2,6.4-9.14,13.34-11.39,20.96-.69,2.86-1.63,7.26,1.28,9.27,2.56,1.38,5.03-.39,6.96-2.05,2.93-2.99,4.9-6.44,5.71-10.33,.13-1.16,.45-2.75-.62-3.55-.96-.43-1.76,.36-2.41,1.03-1.5,1.81-2.14,3.97-2.41,6.3-.67,.55-1.46,.9-2.17,1.43-1.33,.92-2.65,2.15-3.71,3.39-.13,.04-.15-.11-.18-.19-.15-4.29,1.38-7.96,3.74-11.27,1.87-2.17,4.28-4.03,7.2-3.34,1.27,.34,2.12,1.69,2.36,2.89,.47,4.03-1.23,7.56-3.05,10.84-2.94,4.61-7.58,9.27-13.45,8.72-2.26-.14-4.36-1.7-5.31-3.77-2.22-4.43-.69-10.12,.81-14.4l1.38-3.27Zm19.99-7.64c.05,.5,.26,1.04,.77,1.22,1,.28,1.79-.46,2.54-1.03,2.67-2.82,4.29-6.09,4.71-9.84,0-.55,.19-1.26-.12-1.74-.22-.04-.46,.05-.65,.18-1.8,1.2-3.49,2.95-4.71,4.72-1.28,1.97-2.45,4-2.54,6.48Z"/>
    <path class="cls-1" d="M92.94,28.49c2.14-2.82,4.98-5.9,8.56-6.13,.91,.02,1.7,.39,2.25,1.15,1.53,2.26,.24,5.16-.32,7.45-.06,.2,.09,.35,.24,.41,.74,.11,1.59,0,2.24-.32l.28-.35c2.58-7.35,6.41-14.18,10.96-20.69,2.84-3.76,6.48-7.65,10.7-9.47,1-.35,2.44-.77,3.4-.02,1.07,.87,.77,2.39,.49,3.55-.11,1.04-1.26,1.14-2.02,1.38-.04-.02-.07,0-.11-.04,.02-.67,.37-1.26,.51-1.9,.04-.35,.1-.65-.05-.98-.18-.33-.59-.22-.87-.13-1.43,.7-2.58,1.97-3.67,3.2-4.08,4.74-7.04,10-9.76,15.31-.89,1.85-1.83,3.67-2.55,5.59-.02,.11,.02,.19,.11,.26,.63-.02,1-.66,1.48-.99,3.6-3.26,6.51-7,9.21-10.8,.57-.28,1.24-.27,1.91-.33l.13,.04c-.04,.52-.48,.92-.73,1.38-3.01,4.33-6.43,8.48-10.58,12.26l-3,2.47c-.63,.55-.65,1.4-.97,2.1-.58,1.9-1.16,3.84-1.24,5.93,.02,.35,.15,.68,.44,.87,.79,.35,1.42-.4,1.98-.92,4.07-4.7,5.86-10.46,10.83-14.68,1.63-1.29,3.78-2.39,5.88-1.42,.37,.13,.64,.61,1.09,.39,.31-.22,.33-.72,.78-.7,1.46-.01,3.01-.06,4.42,.05,.13,.11,.04,.3,0,.43l-1.01,2.03-6.22,12.55c-.28,.57-.65,1.18-.62,1.83,.09,.28,.39,.3,.63,.24,1.17-.64,2.02-1.71,2.78-2.8,.76-1.07,1.38-2.2,2.1-3.28,.39-.18,.92-.11,1.35-.05,.26,.24-.08,.55-.13,.83-1.83,3.78-4.37,7.92-8.35,10.01-.93,.46-2.2,.88-3.22,.32-.81-.56-.73-1.57-1.1-2.35-.07-.11-.26-.09-.35-.04-1.65,1.47-3.43,3.13-5.74,2.49-1.44-.67-1.6-2.33-1.71-3.76-.07-.06-.04-.17-.13-.22l-.18,.07c-1.62,1.94-3.66,4.35-6.37,4.12-1.04-.08-1.94-1.08-2.25-2-.95-3.02,.06-6.32,.73-9.22,0-.17-.18-.33-.33-.35l-2.27,.03-.37,.42c-1.68,3.28-3.52,6.46-6.41,9.2-1.52,1.34-3.39,2.47-5.48,1.85-1.73-.75-2.19-2.63-2.18-4.41,.37-4.47,2.38-8.26,4.83-11.87Zm.59,10.04c.03,.63,.35,1.28,.99,1.48,.42,.15,.89-.03,1.26-.22,2.13-1.58,3.4-4.02,4.55-6.23,.11-.22,.21-.57-.09-.74-1.11-.56-2.18-1.43-3.06-2.41-.11-.11-.31-.13-.44-.06-.8,1.07-1.32,2.25-1.88,3.43-.63,1.5-1.32,2.97-1.33,4.75Zm5.36-10.37c.07,1.13,.97,2.18,2.01,2.56,.2,.07,.57,.17,.72-.09,.63-1.44,1.23-3.08,.9-4.75-.13-.39-.46-.78-.87-.91-.41-.11-.83,.02-1.18,.18-1.04,.68-1.54,1.81-1.58,3.01Zm20.38,9.87c-.04,.54-.17,1.2,.23,1.61,.22,.22,.57,.24,.85,.15,1.09-.57,1.8-1.73,2.47-2.69,2.23-3.47,3.87-7.18,5.4-10.94,.06-.33,.15-.79-.16-1.02-.9-.43-1.61,.57-2.28,1.05-2.95,2.93-4.51,6.47-5.99,10.04l-.52,1.81Z"/>
    <path class="cls-1" d="M123.58,10.46l1.97-2.54,.3-.26c5.69-.11,10.14-3.5,14.15-7.49-.02,.54-.26,1.03-.45,1.51-2.63,6.18-9.01,11.62-15.9,11.7l-1.63-.02c-.3-.07-.09-.37-.02-.52l1.58-2.38Z"/>
  </g>
  <path class="cls-1" d="M130.77,43.1c0-.77,.58-1.36,1.33-1.36s1.32,.58,1.32,1.36-.58,1.37-1.32,1.37-1.33-.58-1.33-1.37Zm1.33,1.64c.89,0,1.65-.69,1.65-1.64s-.76-1.63-1.65-1.63-1.66,.69-1.66,1.63,.76,1.64,1.66,1.64Zm-.35-1.51h.33l.5,.82h.32l-.54-.83c.28-.03,.49-.18,.49-.52,0-.37-.22-.54-.67-.54h-.72v1.88h.29v-.82Zm0-.24v-.58h.39c.2,0,.41,.04,.41,.28,0,.29-.22,.31-.46,.31h-.34Z"/>
</svg>