<?xml version="1.0" encoding="UTF-8"?>
<svg id="Layer_1" data-name="Layer 1" xmlns="http://www.w3.org/2000/svg" viewBox="0 0 130 36.36">
  <defs>
    <style>
      .cls-1 {
        fill: #fff;
      }
    </style>
  </defs>
  <path class="cls-1" d="M.39,.71H17.27c14.51,0,20.19,8.52,20.19,17.53s-7.28,17.35-21.13,17.35H.42c-.29,0-.39-.18-.39-.34,0-.18,.18-.34,.45-.34H3.44c.92,0,1.52-.55,1.52-1.58V3.02c0-.76-.37-1.6-1.58-1.6H.37c-.24,0-.37-.16-.37-.34,0-.16,.05-.37,.39-.37M10.94,33.96c0,.76,.34,1,.84,1h4.47c11.01,0,15.01-8.44,15.01-16.9S27.02,1.39,17.72,1.39h-6.07c-.63,0-.68,.53-.68,.76l-.03,31.81ZM39.14,.71c-.26,0-.5,.11-.5,.32s.13,.34,.37,.34h2.97c.68,0,1.34,.47,1.34,1.79v30.2c0,.63-.47,1.58-1.31,1.58h-2.94c-.34,0-.37,.26-.37,.37s-.03,.29,.37,.29h14.3c.21,0,.5-.03,.5-.24s-.05-.42-.42-.42h-2.76c-.39,0-1.47-.24-1.47-1.45V2.84c0-.87,.55-1.45,1.55-1.45h2.71c.24,0,.37-.13,.37-.32s-.13-.34-.45-.34h-14.25v-.03Zm22.34,17.45c0-9.65,4.31-17.45,12.41-17.45s12.41,7.81,12.41,17.45-4.07,17.45-12.41,17.45c-8.07,.03-12.41-7.81-12.41-17.45m12.41,18.19c11.51,0,18.77-8.15,18.77-18.16S85.49,0,73.89,0s-18.77,8.15-18.77,18.16,7.49,18.19,18.77,18.19m55.57-.97c-4.52,.47-7.02-6.94-9.31-10.46-1.71-2.6-5.34-5.26-8.91-5.78,5.89-.34,12.49-2.23,12.49-8.91,0-5.42-3.34-9.52-15.59-9.52h-14.12c-.18,0-.37,.11-.37,.32s.18,.34,.37,.34h3.23c.68,0,1.34,.47,1.34,1.79v30.2c0,.63-.47,1.58-1.31,1.58h-3.18c-.26,0-.37,.21-.37,.31s.11,.34,.37,.34h14.98c.21,0,.39-.11,.39-.32s-.13-.34-.42-.34h-3.02c-.39,0-1.47-.26-1.47-1.45v-14.27h1.55c7.41,0,7.97,8.04,11.65,12.64,3.15,3.94,7.28,4.44,9.62,4.44,1,0,1.68-.03,2.31-.18,.39-.13,.47-.81-.24-.74M106.07,1.37h2.18c3.73,0,9.78,1.47,9.78,8.52,0,6.47-5.36,8.65-10.33,8.65h-3.18V2.84c0-.89,.55-1.47,1.55-1.47"/>
</svg>