<?xml version="1.0" encoding="UTF-8"?>
<svg id="Layer_1" data-name="Layer 1" xmlns="http://www.w3.org/2000/svg" viewBox="0 0 160 15.54">
  <defs>
    <style>
      .cls-1 {
        fill: #fff;
        fill-rule: evenodd;
      }
    </style>
  </defs>
  <path class="cls-1" d="M0,.48H5.22c3.69,.03,6.71,3.29,6.71,7.27s-3.02,7.26-6.71,7.29H0V.48H0Zm2.28,1.77V13.33h2.34c3.37-.1,5.04-2.71,5.04-5.51S7.96,2.78,5.22,2.31l-2.94-.06h0ZM20.71,.14c4.43,0,8.04,3.44,8.04,7.63s-3.61,7.61-8.04,7.61-8.03-3.42-8.03-7.61S16.3,.14,20.71,.14h0Zm.03,1.85c3.21,0,5.83,2.58,5.83,5.76s-2.62,5.75-5.83,5.75-5.84-2.58-5.84-5.75,2.63-5.76,5.84-5.76h0ZM29.38,.51h2.15V13.36h4.11v1.67h-6.26V.51h0ZM42.62,.06c1.67,0,3.23,.5,4.51,1.33v2.65c-1.08-1.28-2.68-2.12-4.5-2.12-3.21,0-5.83,2.62-5.83,5.83s2.62,5.81,5.83,5.81c1.81,0,3.42-.83,4.5-2.12v2.68c-1.28,.85-2.84,1.35-4.51,1.35-4.43,0-8.04-3.47-8.04-7.71S38.19,.06,42.62,.06h0Zm7.45,13.24h5.2v1.72h-7.47V.51h7.47v1.64h-5.2V6.47h5.2v1.77h-5.2v5.07h0Zm13.39,.8c-.22,.21-.48,.4-.8,.55-.3,.16-.61,.27-.95,.32-.08,.02-.16,.03-.24,.03-.08,.02-.16,.02-.24,.02-.22,0-.45-.03-.67-.08-.21-.06-.42-.16-.61-.31-.21-.16-.37-.37-.5-.63-.14-.24-.22-.5-.26-.77v-.1s-.02-.08-.02-.11,0-.05,.02-.08v-.13s.02-.02,.02-.03v-.11c.1-.45,.31-.8,.63-1.09,.3-.29,.64-.55,1-.75-.19-.22-.37-.47-.53-.71-.16-.22-.24-.5-.24-.77v-.13s.02-.06,.02-.11c.02,0,.02-.02,.02-.03v-.02s.02-.05,.02-.06,.02-.03,.02-.05c.08-.35,.26-.63,.55-.82,.27-.18,.58-.29,.9-.3h.21c.39,.03,.75,.18,1.08,.43,.32,.24,.48,.59,.48,1.06,0,.43-.14,.79-.4,1.04-.26,.27-.56,.51-.88,.74l1.54,1.86c.14-.18,.3-.35,.45-.53,.13-.18,.27-.37,.39-.56l.53,.55c-.1,.18-.21,.35-.34,.5-.11,.14-.24,.31-.37,.45-.03,.03-.06,.06-.1,.1-.03,.03-.06,.06-.1,.1l1.12,1.36h-1l-.72-.82h0Zm-1.94,.21c.27-.03,.53-.11,.75-.26,.22-.14,.43-.3,.64-.48,.02,0,.03-.02,.05-.03,.02,0,.03-.02,.05-.03l-1.75-2.09s-.02,.02-.03,.03c-.02,0-.03,.02-.05,.03-.03,.02-.05,.03-.08,.05-.02,0-.03,.02-.05,.03-.14,.1-.27,.19-.4,.29-.13,.1-.24,.22-.34,.35-.03,.06-.08,.13-.11,.21-.03,.06-.06,.14-.08,.22-.02,.06-.03,.13-.05,.19-.02,.06-.02,.13-.02,.19,0,.34,.13,.64,.39,.92,.24,.26,.56,.4,.95,.4,0,0,.02,0,.02-.02h.06s.02-.02,.03-.02h.02Zm-.64-5.09v.05s-.02,.03-.02,.05v.03c0,.18,.05,.34,.14,.48,.1,.16,.21,.3,.34,.43,.03,.05,.08,.1,.11,.14,.03,.05,.08,.08,.11,.13,.03-.02,.05-.03,.08-.05,.02-.02,.05-.03,.08-.03,.19-.11,.35-.24,.51-.39,.16-.14,.26-.32,.29-.55v-.1s.02-.03,.02-.05v-.03c0-.22-.08-.42-.24-.55-.16-.14-.34-.22-.53-.24h-.14c-.16,0-.32,.06-.47,.16-.16,.11-.26,.27-.29,.5h0ZM76.9,0c2.89,0,5.44,1.48,6.87,3.68l-1.88,.96c-1.04-1.65-2.89-2.75-4.98-2.75-3.24-.02-5.88,2.62-5.88,5.86s2.63,5.86,5.88,5.86c2.73,0,4.88-1.36,5.04-4.21h-4.69v-1.72h4.58s2.33,0,2.47,0c0,.02,0-4.46,0,.08s-2.47,7.77-7.42,7.77-8.11-3.5-8.11-7.77,3.64-7.77,8.11-7.77h0Zm6.2,15.03L89.1,.47h1.43l6.05,14.56h-2.36l-1.67-4.11h-5.51l-1.64,4.11h-2.31Zm4.78-5.96l1.94-5.17,1.97,5.17h-3.92Zm29.8,5.96L123.68,.47h1.43l6.05,14.56h-2.36l-1.67-4.11h-5.51l-1.64,4.11h-2.31Zm4.8-5.96l1.93-5.17,1.97,5.17h-3.9Zm24.03,5.96L152.52,.47h1.43l6.05,14.56h-2.36l-1.67-4.11h-5.51l-1.64,4.11h-2.31Zm4.78-5.96l1.94-5.17,1.97,5.17h-3.92ZM101.79,2.17c1.43,.16,1.96,.77,1.96,2.2,.02,1.43-.96,2.18-2.22,2.18h-1.89V2.15h2.15v.02h0Zm.11,6.15h.11c1.06,0,2.95,.24,2.95,2.6,0,1.89-1.65,2.44-3.23,2.42l.39,.02h-2.49v-5.04h2.26Zm-2.79,6.71h3.76c2.57,0,4.41-1.69,4.41-4.11,0-1.86-1.16-3.29-2.79-3.85,.93-.59,1.46-1.65,1.46-3,0-2.2-1.48-3.55-3.66-3.6-1.19-.02-2.39,0-3.6,0h-1.32V15.03h1.73Zm13.71-12.86c1.43,.16,1.96,.77,1.97,2.2,.02,1.43-.96,2.18-2.22,2.18h-1.89V2.15h2.14v.02h0Zm.13,6.15h.11c1.04,0,2.95,.24,2.95,2.6,0,1.89-1.67,2.44-3.23,2.42l.37,.02h-2.47v-5.04h2.26Zm-2.79,6.71h3.76c2.55,0,4.41-1.69,4.41-4.11,0-1.86-1.17-3.29-2.81-3.85,.95-.59,1.46-1.65,1.46-3,0-2.2-1.48-3.55-3.64-3.6-1.2-.02-2.41,0-3.61,0h-1.3V15.03h1.73ZM132.13,.51h1.38l10.19,10.77V.51h1.97V15.03h-1.51l-9.99-10.66V15.03h-2.06V.51h0Z"/>
</svg>