<?xml version="1.0" encoding="UTF-8"?>
<svg id="Layer_1" data-name="Layer 1" xmlns="http://www.w3.org/2000/svg" viewBox="0 0 140 96.36">
  <defs>
    <style>
      .cls-1 {
        fill: #fff;
        fill-rule: evenodd;
      }
    </style>
  </defs>
  <path class="cls-1" d="M78.58,5.69c-.4,.41-1.79,2.52-1.79,5.14,0,.63,.01,15.62,0,16.16-.02,1.14-.72,2.77-1.29,3.34-.41,.41-2.89,2.67-3.11,2.9l1.41,.02c.46-.44,5.25-4.68,5.75-5.25,.65-.74,2.2-2.62,2.2-5.56,0-.69,0-14.9,0-15.52,0-2.33,1.09-3.62,1.64-4.24,.57-.64,2.46-2.21,2.8-2.57l-1.48-.04c-.36,.36-5.64,5.13-6.14,5.64h0Z"/>
  <path class="cls-1" d="M66.72,64.44l5.86,5.12h3.93c3.99,0,7.64-1.71,10.05-4.12,2.41-2.41,3.3-5.65,3.3-8.67v-8.4c0-2.82-1.77-4.46-2.26-4.96-.27-.27-1.98-1.88-1.98-1.88v6.44s1.88,1.94,2.25,2.34c1.74,1.85,1.72,5.21-3.79,10.58-.96,.94-3.72,3.54-7.5,3.54h-9.86Z"/>
  <path class="cls-1" d="M83.03,29.97c-.65,.69-1.28,2.38-1.28,3.87v3.18h3.22c1.25,0,2.91-1.14,3.27-1.75,.02-.04,0-3.15,0-3.15,0,0,.83,1.19,1.72,1.81,.34-.42,3.27-3.98,5.73-4,4.1-.03,3.18,5.15,1.5,6.8-.54,.53-2.97,2.76-3.72,3.47-1.94,1.85-5.26,.96-5.26-3.81,0,0-3.56,3.38-4.09,3.83-.54,.45-2.37,2.39-2.37,2.39v8.38c0,4.02-1.32,5.37-2.42,6.57-.43,.47-4.95,4.6-5.55,5.04l-1.48,.03s2.65-2.41,3.18-2.96c.6-.63,1.31-1.9,1.31-4.02,0-.54-.07-13.17-.07-13.17h-20.58c-7.16,0-8.69-7.94-8.73-10.07-.01-.63,0-6.97,0-7.96,0-1.31-.84-3.51-2.17-4.19h2.02c.23,.1,1.5,.61,1.5,5.48,0,0-.09,5.67-.09,5.97,0,2.47,1.96,5.3,4.8,5.3,.58,0,23.3-.02,23.3-.02,.02-.63,.65-3,1.77-4.26,.63-.71,5.63-5.28,6.2-5.72l1.48-.02c-.22,.2-2.64,2.37-3.18,2.94h0Zm7.65,4.77s1.35,1.79,1.99,2.3c2.51,2.01,3.7-.15,2.02-2.46-.67-.91-3.25-.65-4.01,.16h0Z"/>
  <path class="cls-1" d="M65.7,49.75c0,1.12-3.59,4.11-3.8,4.32-.26-1.21-1.17-2.55-3.84-5.23l3.93-3.93c2.63,2.64,3.72,3.2,3.72,4.84h0Z"/>
  <path class="cls-1" d="M72.52,4.68c.79,.79,2.49,2.93,1.47,3.95-.9,.9-2.3,2.33-2.3,2.33-.07-.52-1.38-1.75-1.38-1.75,0,0,.01,3.8,0,4.27-.04,1.71-.69,2.2-.69,2.2,0,0,3.17,3.14,3.17,7.18,0,1.96,0,3.76,0,4.15,0,.83-.21,1.47-.79,2.1-.29,.32-3.22,3.27-3.67,3.67-.85,.77-1.75,.89-2.42,.89h-10.92c-1.72,0-3.49-1.34-3.49-2.68,0-.34,.02-4.05,.02-4.05,.56,.65,1.13,1.41,2.51,1.39,1.07-.02,2.2-.86,2.51-1.16,.31-.32,8.26-8.62,8.26-8.62,0,0-3.72-3.45-6.17-5.09-1.2-.8-2.79,.21-3.03,1.26-.75,3.31,0,8.26,0,8.26,0,0-2.43-2.42-3.01-3.01-1.21-1.22-1.17-3.97,.28-5.41,.23-.23,2.43-2.72,5.23-2.72h4.36c2.93,0,6.12,2.91,6.12,2.91,0,0,.47-.51,.47-1.01,0-1.5-.06-5.54-.06-5.54-2.2-2.2-2.5-4.47-1.45-5.53,1.97-1.97,2.68-2.66,2.68-2.66,0,0-.02,2.39,2.27,4.68h0Zm-13.7,21.94c-1.08,1.13-1.26,1.41-2.27,2.01h12.3c3.33,0,2.67-2.07,2.07-3.11-1.22-2.14-5.1-6.12-5.1-6.12,0,0-6.78,6.98-7.01,7.21h0Z"/>
  <path class="cls-1" d="M44.8,37.82h-2.02s2.17,1.19,2.17,4.26v9.82c0,6.39,5.27,12.29,11.67,12.29h5.35c3.21,0,4.34-.78,6.28-2.5,.71-.63,1.64-1.67,1.97-2.05,1.12-1.25,2.31-2.26,2.31-5.55v-3.21c0-2.78-1.61-3.93-2.39-4.71-.5-.5-1.87-1.8-1.87-1.8v6.58s1.35,1.43,1.94,1.9c2.78,2.19,.57,6-2.01,6-.51,0-11.03,0-11.74,.02-4.32,.11-10.17-3.75-10.17-10.23v-5.33c0-5.48-1.5-5.48-1.5-5.48h0Z"/>
  <path class="cls-1" d="M57.67,49.77c0,1.12-3.59,4.11-3.8,4.32-.26-1.21-1.17-2.55-3.85-5.23l3.93-3.93c2.64,2.64,3.72,3.2,3.72,4.84h0Z"/>
  <path class="cls-1" d="M16.56,93.42c-.64,0-5.58,0-6.29,0-1.98,0-1.83-1.65-2.01-3.05v-9.02s1.38-.03,2.94-.03c1.74,0,3.91-.26,6.02,.94,0,0-1.52-3.66-6.03-3.66h-2.93v-2.89s0-2.52-.62-3.26c0,0,3.89,.01,4.16,.01,3.6,0,6.38-.05,9.27,1.87,0,0-.55-4.76-7.5-4.76H0s2.36,2.02,2.29,6.12l.07,16.44c0,4.13,1.65,4.24,1.65,4.24h13.37c3.03,0,4.09-2.17,4.09-3.34l.05-1.58s-.96,1.98-4.96,1.98h0Z"/>
  <path class="cls-1" d="M52.15,92.03v-11.5c0-4.46-3.65-5.65-6.36-5.65-3.6,0-4.67,3-5.13,4.04-.8-2.8-3.6-4.07-5.9-4.07-4.34,0-5.45,4.14-5.45,4.14,0,0-.1-3.99-3.59-3.99h-3.42s1.98,.82,1.98,4.27v12.77c0,4.22,1.69,4.29,1.69,4.29h5.63c-.15-.07-2.16-1.59-2.16-4.33v-11.33c.07-.5,.92-2.21,3.35-2.21,1.38,0,2.89,1.43,2.86,3.05v10.53c0,4.28,1.67,4.29,1.67,4.29h5.65s-2.16-1.52-2.16-4.33l-.02-11.33c.21-.63,.96-2.17,3.09-2.17,1.7,0,3.12,1.44,3.09,3.05,0,0-.01,9.61,0,10.5,.03,4.31,1.68,4.27,1.68,4.27,2.94,0,5.65,.01,5.65,.01,0,0-2.16-1.49-2.16-4.29h0Z"/>
  <path class="cls-1" d="M62.04,92.03c0,2.84,2.17,4.29,2.17,4.29,0,0-2.69-.01-5.63-.01,0,0-1.73,.03-1.73-4.25v-12.83c0-3.38-1.95-4.24-1.95-4.24h3.42c1.2,0,3.71,0,3.71,4.78v12.24s.01,.02,.01,.02h0Z"/>
  <path class="cls-1" d="M79.39,76.6s-.54-1.54-2.88-1.54c-3.54,0-4.4,4.2-4.4,4.2-.29-3.32-1.18-4.3-3.67-4.3h-3.42s1.98,.82,1.98,4.27v12.79c0,4.22,1.69,4.29,1.69,4.29h5.63c-.15-.07-2.16-1.59-2.16-4.32v-10.47c.15-.95,.64-1.68,1.39-2.16,1.86-1.2,4.39-.92,5.84,.86v-3.61h0Z"/>
  <path class="cls-1" d="M105.67,77.37c1.91,0,3.33,.83,3.33,.83l.02-3.22h-4.74v-4.88s-1.24,2.15-3.79,4.24c-1.6,1.31-4.96,2.94-4.96,2.94l3.58,.06v14.84c0,4.12,1.71,4.12,1.71,4.12,3.09,0,5.63,.01,5.63,.01,0,0-2.18-1.46-2.18-4.16v-14.79c1.49,0,.47,0,1.4,0h0Z"/>
  <path class="cls-1" d="M122.8,83.81c-3.16,3.31-5.64,2.79-7.63,5.21,0,0,.32,3.28,2.83,4.44,.86,.4,4.34,1.65,6.59-2.24l-.02,3.44s-1.45,1.68-6.04,1.68c-5.53,0-9.32-4.35-9.32-10.25s3.09-11.19,8.92-11.22c5.72-.03,8.81,4.59,4.66,8.93h0Zm-3.46-1.35c.94-1.73,1.67-6.12-1.52-5.88-3.7,.28-3,10.12-3,10.12,1.24-1.35,3.1-1.62,4.52-4.25h0Z"/>
  <path class="cls-1" d="M59.42,73.26c1.45,0,2.63-1.15,2.63-2.57s-1.18-2.57-2.63-2.57-2.63,1.15-2.63,2.57,1.18,2.57,2.63,2.57h0Z"/>
  <path class="cls-1" d="M85.26,93.9c-1.29,0-2.2-1.34-2.2-2.71,0-5.32,4.36-6.06,5.52-7.48v8.98c-.51,.46-1.03,1.21-3.32,1.21h0Zm3.32-12.24c-1.31,2.3-11.5,2.78-9.94,10.67,.62,3.13,2.7,4.04,5.32,4.04s4.07-1.33,4.71-2.56c.38,2.37,1.58,2.51,1.58,2.51,2.94,0,5.63,.01,5.63,.01,0,0-2.19-1.46-2.19-4.27v-11.99c0-2.87-3.18-5.1-6.56-5.1s-5.29,1.56-5.29,1.56v3.72s1.16-2.95,4.1-2.95,3.08,1.43,3.06,2.14c0,0,.29,.96-.43,2.21h0Z"/>
  <path class="cls-1" d="M135.27,90.53c.03,1.51-1.32,3.49-4.19,3.49s-4.11-3.01-4.11-3.01v3.81s2.12,1.51,5.37,1.51c3.85,0,7.75-2.93,7.66-7.01-.03-1.43-.54-2.66-1.32-3.71-1.3-1.75-3.68-2.97-5.51-4.1-1.05-.65-1.61-1.8-1.62-2.21-.03-.71,.32-2.16,3.19-2.16s3.99,2.95,3.99,2.95v-3.57s-2.15-1.7-5.4-1.7-6.45,2.23-6.39,5.1c.05,2.52,1.11,4.15,3.17,5.68,.81,.61,1.78,1.2,2.91,1.82,1.64,.91,2.23,2.02,2.26,3.1h0Z"/>
</svg>