<?xml version="1.0" encoding="UTF-8"?>
<svg id="Layer_1" data-name="Layer 1" xmlns="http://www.w3.org/2000/svg" viewBox="0 0 140 30.24">
  <defs>
    <style>
      .cls-1 {
        fill: #fff;
        fill-rule: evenodd;
      }
    </style>
  </defs>
  <path class="cls-1" d="M15.71,30.05c-4.17,0-15.71-2.61-15.71-14.86S10.98,.29,15.41,.29s9.16,.81,11.89,2.64h0v5.74h0c0,.72-.98,.65-.98,0-.07-.98-2.67-6.84-9.19-6.71-7.04,.14-11.8,5.67-11.8,12.97s4.63,13.56,11.6,13.36c2.26-.06,4.63-.78,5.77-1.73h0l.03-6.35h0c0-1.82-1.11-2.48-2.22-2.48-.72,0-.72-1.04,0-1.04h9.52c.72,0,.72,1.11,0,1.04-1.11,0-2.22,.65-2.22,2.48h0v6.52h0c-2.35,2.09-7.95,3.32-12.12,3.32h0Z"/>
  <path class="cls-1" d="M80.63,30.04c4.17,0,9.58-2.22,12.45-4.3h0v-5.34h0c0-.72-.46-.85-.72,.07-.26,.91-3.58,7.82-10.56,8.02-6.97,.2-11.54-6.26-11.54-13.56s4.76-13.02,11.8-13.17c6.52-.13,9.12,5.93,9.19,6.91,0,.65,.72,.72,.72,0h0V2.93h0c-2.74-1.82-7.23-2.93-11.67-2.93s-15.38,2.93-15.38,15.19,11.54,14.86,15.71,14.86h0Z"/>
  <path class="cls-1" d="M139.22,28.35c-1.11,0-2.22-.65-2.22-2.48h0V4.17h0c0-1.82,1.11-2.48,2.22-2.48,1.04,0,1.04-.98,0-.98h-9.58c-1.04,0-1.04,.98,0,.98,1.11,0,2.22,.65,2.22,2.48h0V25.87h0c0,1.82-1.11,2.48-2.22,2.48-1.04,0-1.04,1.3,0,1.3h9.58c1.04,0,1.04-1.3,0-1.3h0Z"/>
  <path class="cls-1" d="M33.53,1.7c1.11,0,2.22,.65,2.22,2.48h0v14.24h0c0,6.82,5.33,11.83,12.15,11.83s12.35-5.01,12.35-11.83h0l.13-14.24h0c0-1.82,1.11-2.48,2.22-2.48,1.04,0,1.04-.98,0-.98h-6.65c-1.04,0-1.04,.98,0,.98,1.11,0,2.22,.65,2.22,2.48h0l.24,14.92h0c0,4.81-3.9,9.69-8.71,9.69s-8.74-3.9-8.74-8.71h0V4.17h0c0-1.82,1.11-2.48,2.22-2.48,1.04,0,1.04-.98,0-.98h-9.65c-1.04,0-1.04,.98,0,.98h0Z"/>
  <path class="cls-1" d="M112.97,30.04c4.17,0,9.58-2.22,12.45-4.3h0v-5.34h0c0-.72-.46-.85-.72,.07-.26,.91-3.58,7.82-10.56,8.02-6.97,.2-11.54-6.26-11.54-13.56s4.76-13.02,11.8-13.17c6.52-.13,9.12,5.93,9.19,6.91,0,.65,.72,.72,.72,0h0V2.93h0c-2.74-1.82-7.23-2.93-11.67-2.93s-15.38,2.93-15.38,15.19,11.54,14.86,15.71,14.86h0Z"/>
</svg>