<?xml version="1.0" encoding="UTF-8"?>
<svg id="Layer_1" data-name="Layer 1" xmlns="http://www.w3.org/2000/svg" viewBox="0 0 80 79.59">
  <defs>
    <style>
      .cls-1 {
        fill: #fff;
      }
    </style>
  </defs>
  <path class="cls-1" d="M28.54,39.94s3.86,.48,3.97-2.63c.02-.48-.43-.95-1.09-.99-2.25-.14-2.88,3.62-2.88,3.62Z"/>
  <path class="cls-1" d="M40,0C17.91,0,0,17.82,0,39.8s17.91,39.78,40,39.78,40-17.81,40-39.78S62.09,0,40,0Zm2.46,29.22c1.14,0,2.67,.31,2.67,1.83s-1.27,2.16-2.67,2.16-2.73-.41-2.73-1.89,1.16-2.1,2.73-2.1Zm-6.69,8.43c0,3.5-5.75,3.9-6.22,3.9-.6,0-1.39-.05-1.39-.05v.28c0,.69,.67,1.86,2.62,1.73,3.78-.27,6.48-2.21,6.48-2.21l1.76-6.2,4.93-.07s-1.89,6.38-1.89,6.83c0,.33,0,1.07,.95,1.07,1.39,0,2.47-1.23,2.61-1.4,0-.03,.01-.17,.03-.61,.1-2.93,3.08-6.19,7.44-6.19,2.02,0,3.02,.77,3.02,.77l-.63,2.04s-.71-1-1.87-1c-2.13,0-2.89,3.57-2.89,4.48,0,.83,.26,2.14,1.82,2.14,1.96,0,3.55-1.8,3.65-1.92,0,0,0-.07,.03-.56,.1-2.28,2.58-6.14,7.09-6.14,2.33,0,2.97,1.3,2.97,1.3l.23-.77,4.43-.06s-1.81,5.67-1.81,6.82c0,.51,.31,.98,.87,.98,.74,0,1.78-.75,1.78-.75l.47,1.54s-2.02,1.89-4.71,1.89c-2.2,0-2.93-1.65-2.93-1.65,0,0-1.36,1.65-3.89,1.65-3.24,0-4.11-2.48-4.11-2.48,0,0-2.51,2.63-5.78,2.63s-4.6-2.31-4.6-2.31c0,0-2.52,2.4-5.73,2.4s-3.33-2.4-3.33-2.4c0,0-3.85,2.4-7.8,2.4-3.48,0-6.18-1.35-6.18-4.49,0-3.44,3.3-6.34,8-6.34,2.55,0,4.56,.76,4.56,2.76Zm6.23,14.61c-12.91,0-25.28-4.65-25.28-4.65,0,0-2.29,2.36-6.69,2.36-2.25,0-5.48-1.2-5.26-3.76,.08-.99,1.22-2.56,4.55-2.56,2.56,0,4.63,.68,4.63,.68,0,0,2.24-5.43,2.69-8.3,0,0-2.29-.24-3.86-.98l.54-1.44s1.31,.47,3.64,.79c0,0,.01-.04,.04-.17,.46-1.82,2.56-12.52,10.1-12.23,2.16,.09,4.35,1.6,4.35,3.94,0,7.4-9.36,10-9.36,10,0,0-1.61,5.62-2.98,8.39-.22,.44-.56,1.09-.56,1.09,0,0,10.39,4,24.02,4.17,19.76,.24,30.11-3.35,30.11-3.35l.47,1.54s-14.25,4.47-31.14,4.47Z"/>
  <path class="cls-1" d="M29.28,26.35c.12-1.05-.36-2.22-1.81-2.22-3.53,0-5.07,9.82-5.07,9.82,0,0,6.17-1.41,6.87-7.59Z"/>
  <path class="cls-1" d="M62.41,43.17c2.65,0,3.21-5.28,3.21-5.4,0-.58-.5-1.36-1.42-1.36-2.2,0-3,4.03-3,5.04,0,.38,0,1.71,1.21,1.71Z"/>
  <path class="cls-1" d="M7.04,46.74c0,.46,.81,1.28,2.06,1.24,1.63-.05,3.59-1.61,3.59-1.61,0,0-1.66-.66-3.59-.76-.8-.05-2.06,.1-2.06,1.12Z"/>
</svg>