<?xml version="1.0" encoding="UTF-8"?>
<svg id="Layer_1" data-name="Layer 1" xmlns="http://www.w3.org/2000/svg" viewBox="0 0 120 57.15">
  <defs>
    <style>
      .cls-1, .cls-2 {
        fill: #fff;
      }

      .cls-2 {
        fill-rule: evenodd;
      }
    </style>
  </defs>
  <path class="cls-1" d="M28.58,0C12.79,0,0,12.79,0,28.58s12.79,28.58,28.58,28.58,28.58-12.79,28.58-28.58S44.36,0,28.58,0Zm6.96,38.63v2.19h-5.92v.02h-2.19V16.27h2.19v22.36h5.92Zm-6.96,13.87c-13.21,0-23.92-10.71-23.92-23.92S15.36,4.65,28.58,4.65c.35,0,.7,0,1.04,.02v2.18c-.35-.02-.69-.02-1.04-.02-12.01,0-21.75,9.74-21.75,21.74s9.74,21.75,21.75,21.75,21.21-9.21,21.72-20.77v-.06s-14.73,0-14.73,0v-2.19h16.89c.02,.42,.03,.85,.03,1.28,0,13.21-10.71,23.92-23.92,23.92Zm-5.56-32.97c0,1.86-1.5,3.36-3.36,3.36s-3.36-1.5-3.36-3.36,1.5-3.36,3.36-3.36,3.36,1.5,3.36,3.36Z"/>
  <polygon class="cls-2" points="71.34 42.6 91.76 42.6 91.76 36.44 79.44 36.44 78.84 36.44 78.84 35.84 78.84 14.35 71.34 14.35 71.34 42.6 71.34 42.6"/>
  <path class="cls-2" d="M116.43,16.34c-2.34-1.81-5.36-2.73-8.95-2.73-4.27,0-7.84,1.31-10.32,3.79-2.59,2.59-3.96,6.41-3.96,11.04,0,4.95,1.45,9.12,4.08,11.75,2.06,2.06,4.82,3.16,7.97,3.16,6.92,0,8.51-4.15,8.51-4.15v3.4h6.24v-15.95h-12.43v4.99h5.72s.06,6.28-5.85,6.28c-1.5,0-2.84-.54-3.87-1.57-1.6-1.6-2.45-4.3-2.45-7.8,0-5.79,2.3-9.25,6.16-9.25,2.41,0,4.22,1.48,4.68,3.72h7.95c-.41-3.26-1.31-4.95-3.49-6.68h0Z"/>
</svg>