<?xml version="1.0" encoding="UTF-8"?>
<svg id="Layer_1" data-name="Layer 1" xmlns="http://www.w3.org/2000/svg" viewBox="0 0 150 27.2">
  <defs>
    <style>
      .cls-1 {
        fill: #fff;
        fill-rule: evenodd;
      }
    </style>
  </defs>
  <polygon class="cls-1" points="19.95 22.14 19.95 25.33 0 25.33 0 3.39 3.59 3.39 3.59 22.14 19.95 22.14 19.95 22.14"/>
  <polygon class="cls-1" points="17.15 11.37 21.14 3.79 17.35 3.79 14.36 11.37 17.15 11.37 17.15 11.37"/>
  <path class="cls-1" d="M49.77,6.99c-1.29-2.03-3.18-3.75-5.41-4.91-2.22-1.17-4.78-1.79-7.35-1.79s-5.12,.62-7.34,1.79c-2.22,1.17-4.11,2.88-5.41,4.91-1.29,2.03-1.99,4.39-1.99,6.75s.7,4.72,1.99,6.75c1.29,2.04,3.18,3.75,5.41,4.91,2.22,1.17,4.78,1.79,7.34,1.79s5.12-.62,7.35-1.79c2.22-1.17,4.11-2.88,5.41-4.91,1.29-2.04,1.99-4.39,1.99-6.75s-.7-4.72-1.99-6.75h0Zm-3.1,12.13c-.97,1.6-2.38,2.94-4.04,3.86-1.67,.92-3.59,1.41-5.51,1.41s-3.84-.49-5.51-1.41c-1.67-.92-3.08-2.26-4.04-3.86-.97-1.6-1.48-3.44-1.48-5.29s.52-3.69,1.48-5.29c.97-1.6,2.38-2.94,4.04-3.86,1.67-.92,3.59-1.41,5.51-1.41s3.84,.49,5.51,1.41c1.67,.92,3.08,2.26,4.04,3.86,.97,1.6,1.48,3.44,1.48,5.29s-.52,3.69-1.48,5.29h0Z"/>
  <path class="cls-1" d="M76.8,12.85c-.65,1.43-1.88,2.26-2.84,2.75-.96,.5-1.65,.67-2.35,.65h0l6.98,9.07h-3.99l-6.75-8.77h-8.81v8.77h-3.59V3.39h14.36c1.45,0,2.92,.29,4.22,1.02,1.3,.73,2.42,1.84,2.95,3.41,.53,1.57,.46,3.6-.19,5.03h0Zm-4.02-.15c.76-.64,1.2-1.69,1.16-2.73-.04-1.04-.56-2.08-1.32-2.7-.75-.63-1.71-.68-2.62-.68h-10.97v6.78h10.97c.97,0,2.01-.02,2.77-.66h0Z"/>
  <polygon class="cls-1" points="97.54 12.76 97.54 15.75 85.37 15.75 85.37 22.14 101.73 22.14 101.73 25.33 81.78 25.33 81.78 3.39 101.73 3.39 101.73 6.58 85.37 6.58 85.37 12.76 97.54 12.76 97.54 12.76"/>
  <polygon class="cls-1" points="97.74 0 92.35 0 90.16 2.79 97.74 0 97.74 0"/>
  <path class="cls-1" d="M108.76,19.74l-2.84,5.58h-3.59L113.5,3.39h3.59l11.17,21.94h-3.59l-2.84-5.58h-13.06Zm6.53-12.83l-5.11,10.04h10.22l-5.11-10.04h0Z"/>
  <polygon class="cls-1" points="150 22.14 150 25.33 130.05 25.33 130.05 3.39 133.64 3.39 133.64 22.14 150 22.14 150 22.14"/>
</svg>