<?xml version="1.0" encoding="UTF-8"?>
<svg id="Layer_1" data-name="Layer 1" xmlns="http://www.w3.org/2000/svg" viewBox="0 0 160 18.84">
  <defs>
    <style>
      .cls-1 {
        fill: #fff;
        fill-rule: evenodd;
      }
    </style>
  </defs>
  <polygon class="cls-1" points="1.9 16.05 6.6 16.05 6.6 17.83 0 17.83 0 .71 1.9 .71 1.9 16.05 1.9 16.05"/>
  <path class="cls-1" d="M16.58,2.2c3.92,0,6.95,3.21,6.95,7.07s-3.09,7.07-6.95,7.07-7.01-3.21-7.01-7.07,3.09-7.07,7.01-7.07h0Zm0-1.78C11.71,.42,7.67,4.4,7.67,9.27s4.04,8.86,8.92,8.86,8.92-3.92,8.92-8.86S21.46,.42,16.58,.42h0Z"/>
  <path class="cls-1" d="M29.9,10.88c0,1.31,0,2.73,.77,3.86,.77,1.01,2.2,1.6,3.45,1.6s2.56-.54,3.33-1.49c.95-1.13,.89-2.62,.89-3.98V.71h1.9V11.41c0,1.9-.18,3.33-1.55,4.75-1.13,1.25-2.85,1.96-4.58,1.96-1.6,0-3.27-.59-4.4-1.72-1.55-1.43-1.72-3.03-1.72-4.99V.71h1.9V10.88h0Z"/>
  <polygon class="cls-1" points="43.63 .71 45.53 .71 45.53 17.83 43.63 17.83 43.63 .71 43.63 .71"/>
  <path class="cls-1" d="M56.76,4.04c-.65-1.19-1.49-1.84-2.91-1.84-1.55,0-2.85,1.07-2.85,2.67,0,1.43,1.49,2.14,2.67,2.67l1.13,.48c2.2,1.01,4.1,2.08,4.1,4.81,0,2.97-2.38,5.29-5.35,5.29-2.79,0-4.81-1.78-5.35-4.46l1.84-.48c.24,1.72,1.6,3.15,3.45,3.15s3.51-1.37,3.51-3.33-1.55-2.67-3.15-3.39l-1.07-.48c-1.96-.89-3.68-1.9-3.68-4.34,0-2.67,2.26-4.4,4.75-4.4,1.9,0,3.51,1.01,4.46,2.67l-1.55,.95h0Z"/>
  <polygon class="cls-1" points="74.06 13.79 78.93 .71 80.95 .71 74.06 18.84 67.1 .71 69.12 .71 74.06 13.79 74.06 13.79"/>
  <path class="cls-1" d="M84.69,10.88c0,1.31-.06,2.73,.71,3.86,.77,1.01,2.2,1.6,3.45,1.6s2.62-.54,3.39-1.49c.89-1.13,.83-2.62,.83-3.98V.71h1.9V11.41c0,1.9-.12,3.33-1.49,4.75-1.19,1.25-2.91,1.96-4.64,1.96-1.6,0-3.21-.59-4.4-1.72-1.49-1.43-1.66-3.03-1.66-4.99V.71h1.9V10.88h0Z"/>
  <polygon class="cls-1" points="98.42 .71 100.33 .71 100.33 17.83 98.42 17.83 98.42 .71 98.42 .71"/>
  <polygon class="cls-1" points="108.29 17.83 106.39 17.83 106.39 2.5 102.29 2.5 102.29 .71 112.51 .71 112.51 2.5 108.29 2.5 108.29 17.83 108.29 17.83"/>
  <polygon class="cls-1" points="118.99 17.83 117.09 17.83 117.09 2.5 112.93 2.5 112.93 .71 123.15 .71 123.15 2.5 118.99 2.5 118.99 17.83 118.99 17.83"/>
  <path class="cls-1" d="M133.13,2.2c3.92,0,7.01,3.21,7.01,7.07s-3.09,7.07-7.01,7.07-7.01-3.21-7.01-7.07,3.09-7.07,7.01-7.07h0Zm0-1.78c-4.87,0-8.92,3.98-8.92,8.86s4.04,8.86,8.92,8.86,8.92-3.92,8.92-8.86S138.01,.42,133.13,.42h0Z"/>
  <polygon class="cls-1" points="144.78 0 158.1 13.97 158.1 .71 160 .71 160 18.6 146.69 4.64 146.69 17.83 144.78 17.83 144.78 0 144.78 0"/>
</svg>