<?xml version="1.0" encoding="UTF-8"?>
<svg id="Layer_1" data-name="Layer 1" xmlns="http://www.w3.org/2000/svg" viewBox="0 0 170 34.97">
  <defs>
    <style>
      .cls-1 {
        fill: #fff;
        fill-rule: evenodd;
      }
    </style>
  </defs>
  <polygon class="cls-1" points="17.85 17.39 18.63 16.94 28.42 23.65 17.85 17.39 17.85 17.39 17.85 17.39"/>
  <polygon class="cls-1" points="17.29 17.03 16.56 16.61 17.37 3.8 17.29 17.03 17.29 17.03 17.29 17.03"/>
  <polygon class="cls-1" points="16.41 16.99 13.17 19.67 17.05 17.38 16.41 16.99 16.41 16.99 16.41 16.99"/>
  <path class="cls-1" d="M17.49,0C7.83,0,0,7.83,0,17.49s7.83,17.49,17.49,17.49,17.49-7.83,17.49-17.49S27.14,0,17.49,0h0Zm0,34.04c-4,0-7.73-1.33-10.52-3.78-2.71-2.38-4.82-6.16-5.34-10.18,1.23,7.65,7.86,13.49,15.86,13.49,8.87,0,16.06-7.19,16.06-16.06,0-3.68-1.38-7.28-3.46-9.99,2.11,1.63,3.93,6.26,3.93,9.99,0,9.13-7.4,16.54-16.54,16.54h0Zm-1.52-17.8l1.41-14.5h0s.07,0,.1,0c.01,0,.02,0,.04,0h0l.14,15.26,2.43-1.45L17.65,1.74h0c8.62,.09,15.59,7.1,15.59,15.74,0,2.78-.72,5.38-1.98,7.65h0l-10.93-9.14-1.04,.59,11.89,8.69h0c-.03,.05-.06,.1-.09,.16h0l-13.37-7.69v2.71l13.28,5.13h0c-2.75,4.59-7.77,7.65-13.51,7.65s-10.75-3.06-13.5-7.64h0l13.27-5.17v-2.71L3.87,25.4h0c-.03-.05-.06-.1-.09-.15h0l11.85-8.66-1.03-.59L3.69,25.09h0c-1.24-2.25-1.95-4.84-1.95-7.6C1.74,8.91,8.6,1.94,17.12,1.75h0l-2.13,13.91,.98,.59h0ZM17.49,.94C8.35,.94,.95,8.34,.95,17.48c0,3.71,1.35,7.22,3.4,10.25,.7,1.3,1.45,2.11,2.45,3.17C2.86,27.75,.32,22.91,.32,17.48,.32,7.99,8,.31,17.49,.31s17.32,8.02,17.03,17.17C34.28,8.55,26.47,.94,17.49,.94h0Z"/>
  <path class="cls-1" d="M94.3,18.64c0-3.07-1.36-5.55-4.33-5.55-2.76,0-4.33,2.49-4.33,5.55s1.31,5.55,4.33,5.55,3.8-1.45,4.25-3.78h-1.01c-.09,.86-.65,2.8-2.81,2.84-2.46,.05-2.63-3.11-2.59-4.62h0l.04-.86h0c0-.95-.09-3.75,2.2-3.75,1.81,0,2.07,2.33,2.07,3.75h-4.27l-.04,.86h6.49Z"/>
  <path class="cls-1" d="M43.25,9.27l-.04,.69h.65c.47,0,1.08,.04,1.08,.65h0l-.22,11.69h0c0,.43-.22,.91-1.08,.91h-.65l-.04,.69h4.36v-.69h-.73c-.56,0-.95-.17-.95-.91h0l.22-11.22,4.66,12.08h.47l4.7-12.21,.22,11.35h0c0,.39-.39,.91-.99,.91h-.91v.69h5.48v-.69h-.65c-.47,0-1.04-.26-1.04-.86h0l-.22-11.56h0c0-.39,.43-.82,.86-.82h.82v-.69h-3.93l-4.06,10.62-4.06-10.62h-3.97Z"/>
  <path class="cls-1" d="M73.61,23.91v-.56h-.43c-.39,0-1.08-.13-1.08-.91h0v-5.65h0c0-1.77,.91-2.42,1.81-2.42,.35,0,.56,.17,.47,.82-.09,.65,.47,1.08,.95,1.04,.47-.04,1.08-.13,.99-1.34-.09-1.21-.78-1.77-1.98-1.77-.95,0-1.73,.6-1.94,.91-.25,.35-.56,.22-.6-.17-.04-.39-.22-.78-.65-.65-.95,.3-1.81,.43-2.55,.47h0v.43h0c1.81-.09,1.64,.82,1.64,1.25h0v7.08h0c0,.78-.69,.91-1.08,.91h-.6v.56h5.05Z"/>
  <path class="cls-1" d="M83.22,13.78c-.64-.46-1.44-.73-2.41-.73-2.76,0-4.33,2.49-4.33,5.55s1.31,5.54,4.33,5.55c2.68,.01,3.32-1.5,3.77-3.82h-1.01c-.09,.86-.39,2.84-2.33,2.89-2.46,.05-2.63-3.11-2.59-4.62,0-.95,.13-4.75,2.2-4.75,1.77,0,2.85,1.25,2.85,2.68h.56v-3.62h-.47l-.57,.87h0Z"/>
  <path class="cls-1" d="M145.65,23.26c-2.46,.05-2.63-3.11-2.59-4.62h6.49c0-3.07-1.36-5.55-4.33-5.55-2.76,0-4.33,2.49-4.33,5.55s1.31,5.55,4.33,5.55,3.8-1.45,4.25-3.78h-1.01c-.09,.86-.65,2.8-2.8,2.84h0Zm-.35-9.23c1.81,0,2.07,2.33,2.07,3.75h-4.27c0-.95-.09-3.75,2.2-3.75h0Z"/>
  <path class="cls-1" d="M110.17,23.26c-2.46,.05-2.63-3.11-2.59-4.62h6.49c0-3.07-1.36-5.55-4.33-5.55-2.76,0-4.33,2.49-4.33,5.55s1.31,5.55,4.33,5.55,3.8-1.45,4.25-3.78h-1.01c-.09,.86-.65,2.8-2.8,2.84h0Zm-.35-9.23c1.81,0,2.07,2.33,2.07,3.75h-4.27c0-.95-.09-3.75,2.2-3.75h0Z"/>
  <path class="cls-1" d="M64.37,23.26c-2.46,.05-2.63-3.11-2.59-4.62h6.49c0-3.07-1.36-5.55-4.33-5.55-2.76,0-4.33,2.49-4.33,5.55s1.31,5.55,4.33,5.55,3.8-1.45,4.25-3.78h-1.01c-.09,.86-.65,2.8-2.8,2.84h0Zm-.35-9.23c1.81,0,2.07,2.33,2.07,3.75h-4.27c0-.95-.09-3.75,2.2-3.75h0Z"/>
  <path class="cls-1" d="M103.69,21.65V9.61h0c0-.5-.26-.91-.69-.78-.95,.3-1.81,.43-2.55,.47h0v.43h0c1.25-.09,1.38,.3,1.38,.73h0v3.71h0c-.56-.52-1.21-1.04-2.37-1.04-1.47,0-4.19,1.17-4.19,5.26,0,5.39,3.15,5.74,4.1,5.74s2.2-.78,2.46-1.19c.02-.09,.15-.19,.19,0,.04,.39,.32,.97,.76,.84,.95-.3,1.81-.43,2.55-.47h0v-.43h0c-1.81,.09-1.64-.82-1.64-1.25h0Zm-1.86-1.29c-.04,2.37-1.29,3.11-2.33,3.11-2.33-.04-2.16-3.58-2.16-5.09s.09-4.49,2.2-4.23c2.11,.26,2.29,2.5,2.29,3.84h0v2.37h0Z"/>
  <polygon class="cls-1" points="129.02 17.73 129.02 16.74 123.33 16.74 123.33 17.73 129.02 17.73 129.02 17.73 129.02 17.73"/>
  <path class="cls-1" d="M115.48,20.24v3.67h.47l.43-.95h0c.43,.39,1.34,1.04,2.5,1.04s2.8-.65,3.45-1.86c.65-1.21,.35-3.19-1.12-3.8-1.29-.53-2.41-1.16-3.28-1.6-.69-.35-.86-1.03-.78-1.47,.13-.69,.73-1.42,2.11-1.47,1.38-.04,2.07,1.12,2.24,2.46h.47v-3.45h-.43l-.47,.82h0c-.91-.6-1.29-.69-2.11-.69s-2.2,.43-2.98,1.64c-.78,1.21-.56,3.11,1.29,3.88,1.86,.78,2.72,1.25,3.24,1.51,.52,.26,.82,1.29,.47,1.9-.35,.6-.99,1.29-2.03,1.29s-2.68-.73-3.06-2.93h-.43Z"/>
  <path class="cls-1" d="M137.13,16c1.04-.26,2.07-2.11,2.07-3.37s-.47-3.37-3.5-3.37h-6.47v.56h0c.65,0,1.77,.13,1.77,1.21h0v10.66h0c0,.6-.04,1.6-1.77,1.6h0v.6h5.31c1.6,0,5.26-.13,5.35-4.36,0-1.42-.69-3.11-2.76-3.54h0Zm-4.27-6.04h2.16c1.6,0,2.24,1.16,2.24,2.68,0,1.86-.56,3.28-2.24,3.28h-2.16v-5.95h0Zm2.2,13.25h-2.2v-6.6h2.46c1.42,0,2.68,.99,2.68,3.15s-1.29,3.45-2.93,3.45h0Z"/>
  <path class="cls-1" d="M157.52,16.05v6.39h0c0,.78-.69,.91-1.08,.91h-.26v.56h4.7v-.56h-.43c-.39,0-1.08-.13-1.08-.91h0v-6.34h0c-.04-2.89-2.63-2.98-3.54-2.98s-1.98,.6-2.2,.91c-.25,.35-.56,.22-.6-.17-.04-.39-.22-.78-.65-.65-.95,.3-1.81,.43-2.55,.47h0v.43h0c1.81-.09,1.64,.82,1.64,1.25h0v7.08h0c0,.78-.69,.91-1.08,.91h-.6v.56h5.05v-.56h-.43c-.39,0-1.08-.13-1.08-.91h0v-5.65h0c0-.95,.35-2.46,2.11-2.59,1.77-.13,2.07,1.04,2.07,1.86h0Z"/>
  <path class="cls-1" d="M161.89,16.27l.78-2.93h7.34l-6.3,9.97h3.37c.78,0,1.38-.3,2.2-2.29h.35l-.69,2.89h-7.51l6.26-9.97h-2.8c-.69,0-1.47,0-2.55,2.33h-.43Z"/>
</svg>