<?xml version="1.0" encoding="UTF-8"?>
<svg id="Layer_1" data-name="Layer 1" xmlns="http://www.w3.org/2000/svg" viewBox="0 0 160 34.17">
  <defs>
    <style>
      .cls-1 {
        fill: #fff;
      }
    </style>
  </defs>
  <path class="cls-1" d="M0,0H16.25c0,5.42,0,10.84,0,16.25H0V0H0Z"/>
  <path class="cls-1" d="M17.91,0h16.25c0,5.42,0,10.84,0,16.25-5.42,0-10.83,0-16.25,0,0-5.42,0-10.84,0-16.25h0Z"/>
  <path class="cls-1" d="M146.57,6.19c1.5-.98,3.43-1.07,5.12-.6,.01,1,0,2.01,0,3.01-.8-.35-1.75-.58-2.59-.24-.67,.27-1.07,.95-1.17,1.64-.13,.87-.04,1.76-.07,2.63,1.71,0,3.43,0,5.14,0,.01-1.11-.01-2.23,.01-3.34,1.17-.33,2.32-.7,3.48-1.05,0,1.47-.01,2.93,.01,4.4,1.16-.02,2.32,0,3.48,0v2.85c-1.16-.05-2.33-.01-3.49-.02,0,1.64,0,3.28,0,4.92,.02,.91-.05,1.82,.06,2.73,.06,.53,.26,1.13,.76,1.4,.84,.47,1.9,.26,2.67-.25v2.88c-1,.44-2.13,.57-3.21,.49-1.03-.08-2.1-.45-2.77-1.27-.78-.93-.98-2.18-.99-3.35,0-2.52,0-5.04,0-7.56-1.72,0-3.43,0-5.14,0,0,3.95,0,7.91,0,11.86h-3.52c0-3.95,0-7.9,0-11.85-.82-.02-1.63,0-2.45-.01,0-.94,0-1.88,0-2.82,.81-.02,1.62-.01,2.44,0,.06-1.25-.13-2.53,.24-3.75,.32-1.1,1.02-2.09,1.98-2.71h0Z"/>
  <path class="cls-1" d="M71.31,6.4c.71-.11,1.48,.13,1.95,.69,.55,.61,.65,1.57,.24,2.28-.45,.8-1.46,1.17-2.34,.98-.91-.16-1.67-1.01-1.63-1.96-.03-1,.81-1.88,1.78-1.99h0Z"/>
  <path class="cls-1" d="M44.37,6.83h5.11c1.59,4.04,3.19,8.08,4.79,12.12,.41,1.01,.79,2.03,1.21,3.03,2.05-5.05,4.12-10.09,6.15-15.14,1.64-.03,3.28,0,4.92,0,0,6.83,0,13.66,0,20.5-1.18,0-2.37,0-3.55,0,.01-5.04,0-10.08,0-15.13,0-.23,0-.45-.02-.68-.07,.11-.13,.21-.18,.33-2.03,5.16-4.1,10.31-6.12,15.47-.84,.03-1.68,0-2.53,.02-2.1-5.16-4.17-10.33-6.25-15.5-.05-.11-.11-.21-.18-.31-.04,2.21,0,4.42-.02,6.63,0,3.06,0,6.12,0,9.18-1.12,0-2.23,0-3.35,0,0-6.83,0-13.67,0-20.5h0Z"/>
  <path class="cls-1" d="M80.98,12.63c1.7-.48,3.53-.46,5.22,.02,.35,.1,.69,.23,1,.42-.02,1.12,0,2.24-.01,3.36-1.13-.87-2.57-1.41-4.01-1.23-1.14,.1-2.24,.7-2.92,1.62-.88,1.15-1.08,2.67-.93,4.07,.11,1.1,.57,2.19,1.42,2.92,.89,.79,2.13,1.07,3.29,.98,1.15-.13,2.23-.62,3.15-1.29,0,1.06,0,2.12,0,3.18-1.44,.86-3.16,1.08-4.8,.99-1.68-.09-3.36-.73-4.58-1.91-1.32-1.28-2.04-3.1-2.13-4.92-.09-1.89,.3-3.87,1.39-5.45,.91-1.35,2.34-2.31,3.9-2.75h0Z"/>
  <path class="cls-1" d="M119.38,12.4c1.63-.29,3.33-.08,4.87,.51,0,1.08,0,2.15,0,3.23-1.07-.74-2.39-1.14-3.69-1.09-.66,.03-1.38,.3-1.68,.93-.24,.62-.07,1.43,.51,1.8,1,.67,2.19,.95,3.22,1.55,.81,.46,1.6,1.05,2.01,1.92,.77,1.61,.45,3.74-.91,4.95-1.3,1.21-3.17,1.55-4.89,1.49-1.22-.08-2.45-.32-3.57-.82,0-1.13,0-2.27,0-3.4,.94,.69,2.04,1.18,3.19,1.38,.8,.13,1.68,.14,2.43-.22,.72-.36,.85-1.37,.42-2-.4-.48-.98-.74-1.53-1-1.04-.47-2.12-.86-3.03-1.55-.64-.5-1.12-1.2-1.31-1.99-.28-1.17-.19-2.49,.49-3.51,.78-1.19,2.12-1.9,3.5-2.15h0Z"/>
  <path class="cls-1" d="M95.07,12.87c.97-.58,2.2-.63,3.26-.28,0,1.17,0,2.34,0,3.52-.69-.45-1.56-.64-2.38-.56-1,.11-1.79,.88-2.2,1.76-.45,.93-.53,1.98-.5,3,0,2.34,0,4.68,0,7.03h-3.47c0-4.89,0-9.79,0-14.68,1.16-.01,2.31,0,3.47,0,0,.84,0,1.68,0,2.52,.38-.91,.94-1.8,1.82-2.3h0Z"/>
  <path class="cls-1" d="M69.84,12.65c1.17,0,2.33-.02,3.5,0-.01,4.89,0,9.79,0,14.68h-3.49c0-4.9,0-9.79,0-14.69h0Z"/>
  <path class="cls-1" d="M112.9,16.07c-.61-1.36-1.71-2.49-3.07-3.1-1.57-.71-3.35-.81-5.03-.59-1.77,.22-3.5,1.06-4.62,2.47-1.03,1.26-1.53,2.88-1.62,4.49-.14,1.89,.17,3.91,1.29,5.49,.95,1.36,2.44,2.3,4.06,2.65,1.35,.28,2.76,.29,4.12,0,1.58-.33,3.06-1.2,4.04-2.49,.96-1.22,1.44-2.75,1.55-4.28,.11-1.57-.05-3.19-.7-4.63Zm-3.4,6.74c-.34,.76-.95,1.39-1.73,1.7-.91,.35-1.93,.37-2.87,.13-.95-.25-1.76-.94-2.2-1.82-.57-1.13-.65-2.44-.53-3.68,.11-1.13,.5-2.29,1.36-3.07,.62-.58,1.47-.87,2.31-.91,1.06-.07,2.18,.23,2.94,1,.81,.8,1.13,1.96,1.21,3.06,.06,1.21,.01,2.47-.49,3.59Z"/>
  <path class="cls-1" d="M141.05,16.5c-.54-1.46-1.62-2.72-3.02-3.42-1.6-.81-3.46-.93-5.22-.71-1.41,.18-2.8,.72-3.88,1.67-1.32,1.14-2.09,2.8-2.32,4.51-.22,1.71-.14,3.51,.55,5.1,.67,1.57,1.99,2.84,3.57,3.46,1.56,.62,3.3,.69,4.95,.42,1.68-.28,3.28-1.16,4.32-2.53,1.11-1.41,1.59-3.23,1.59-5,.02-1.19-.12-2.39-.55-3.51Zm-3.17,4.98c-.13,.77-.4,1.54-.91,2.16-.51,.62-1.27,.99-2.05,1.11-.84,.13-1.73,.07-2.51-.27-.85-.36-1.51-1.09-1.85-1.94-.42-1.01-.5-2.12-.42-3.2,.08-1.04,.38-2.11,1.07-2.93,.63-.76,1.59-1.18,2.57-1.23,.99-.07,2.05,.16,2.82,.83,.7,.58,1.09,1.46,1.27,2.34,.2,1.03,.2,2.1,.03,3.14Z"/>
  <path class="cls-1" d="M0,17.91c5.42,0,10.84,0,16.25,0,0,5.42,0,10.83,0,16.25H0V17.91H0Z"/>
  <path class="cls-1" d="M17.91,17.91c5.42,0,10.83,0,16.25,0v16.25H17.91c0-5.42,0-10.84,0-16.25h0Z"/>
</svg>