<?xml version="1.0" encoding="UTF-8"?>
<svg id="Layer_1" data-name="Layer 1" xmlns="http://www.w3.org/2000/svg" viewBox="0 0 150 40.69">
  <defs>
    <style>
      .cls-1 {
        fill: #fff;
      }
    </style>
  </defs>
  <g id="layer1">
    <g id="g3235">
      <path id="path3015" class="cls-1" d="M128.05,38.11c2.09,.2,4.18,.42,6.26,.65l4.6-11.36,4.37,12.4c2.24,.28,4.48,.58,6.72,.88l-7.66-21.75L150,0h-6.49l-.07,.09-4.14,10.23L135.66,0h-6.41l6.62,18.78-7.83,19.32Z"/>
      <path id="path3019" class="cls-1" d="M123.2,37.66V0h-6.41V37.13c2.14,.16,4.28,.34,6.41,.53"/>
      <path id="path3023" class="cls-1" d="M75.06,35.56c1.73,0,3.46,.01,5.18,.03v-13.84h7.7v-5.89h-7.7V5.9h8.87V0h-15.3V35.56c.42,0,.83,0,1.25,0"/>
      <path id="path3035" class="cls-1" d="M55.16,35.92c2.13-.08,4.27-.14,6.41-.19V5.9h5.99V0h-18.39V5.9h5.99v30.02h0Z"/>
      <path id="path3039" class="cls-1" d="M6.15,39.89V17.45l7.59,21.53c2.33-.26,4.67-.51,7.01-.74V0h-6.15V23.24L6.41,0H0V40.69H.04c2.03-.28,4.07-.55,6.11-.81"/>
      <path id="path3051" class="cls-1" d="M42.99,5.9V0h-15.3V37.6h0c5.08-.43,10.17-.8,15.29-1.1h0v-5.9c-2.96,.17-5.91,.37-8.86,.59v-9.43h7.7v-5.9h-7.7V5.9h8.87Z"/>
      <path id="path3055" class="cls-1" d="M101.81,30.31V0h-6.44V35.93h0c5.12,.19,10.22,.46,15.3,.79h0v-5.91c-2.95-.19-5.9-.36-8.87-.5"/>
    </g>
  </g>
</svg>