<?xml version="1.0" encoding="UTF-8"?>
<svg id="Layer_1" data-name="Layer 1" xmlns="http://www.w3.org/2000/svg" viewBox="0 0 120 43.19">
  <defs>
    <style>
      .cls-1 {
        fill: #fff;
        fill-rule: evenodd;
      }
    </style>
  </defs>
  <path class="cls-1" d="M15.37,1.91C7.56,11.08,.08,22.46,0,30.96c-.03,3.2,.99,5.99,3.44,8.11,3.52,3.04,7.41,4.12,11.27,4.12,5.65,0,11.25-2.27,15.65-4.03C37.75,36.2,119.49,.71,119.49,.71c.79-.39,.64-.89-.35-.64-.4,.1-88.99,24.11-88.99,24.11-1.71,.48-3.46,.73-5.16,.74-6.81,.04-12.87-3.74-12.82-11.7,.02-3.12,.97-6.87,3.18-11.29h0Z"/>
</svg>