<?xml version="1.0" encoding="UTF-8"?>
<svg id="Layer_1" data-name="Layer 1" xmlns="http://www.w3.org/2000/svg" viewBox="0 0 160 77.53">
  <defs>
    <style>
      .cls-1 {
        fill: #fff;
        fill-rule: evenodd;
      }
    </style>
  </defs>
  <path class="cls-1" d="M0,54.98v-18.61H6.41c.99-.12,1.85,.12,2.71,.62,.74,.49,1.48,1.11,1.97,1.85,.49,.86,.74,1.73,.74,2.71,0,.86-.25,1.85-.74,2.59-.37,.74-.86,1.36-1.6,1.85-.37,.25-.74,.49-1.23,.62-.49,.12-1.11,.25-1.6,.25H2.22v8.14H0Zm2.22-10.11H6.53c.62,0,1.11-.25,1.6-.49,.49-.37,.86-.74,1.23-1.36,.25-.49,.37-.99,.37-1.6-.12-.62-.25-1.11-.62-1.6-.25-.49-.62-.86-1.11-1.11-.37-.25-.86-.37-1.36-.37-.12-.12-.25-.12-.37-.12H2.34l-.12,6.66h0Z"/>
  <path class="cls-1" d="M9.12,54.98l7.4-18.86h1.97l7.77,18.86h-2.59l-1.85-4.81H13.31l-1.85,4.81h-2.34Zm5.05-6.78h6.78l-3.45-8.51-3.33,8.51h0Z"/>
  <polygon class="cls-1" points="27.86 54.98 27.86 38.46 22.31 38.34 22.31 36.12 35.99 36.12 35.87 38.21 30.2 38.34 30.2 54.98 27.86 54.98 27.86 54.98"/>
  <polygon class="cls-1" points="37.47 54.98 37.47 36.12 48.07 36.12 46.84 38.21 39.81 38.21 39.81 44.25 46.47 44.25 46.47 46.35 39.81 46.35 39.81 53 46.96 53 48.2 54.98 37.47 54.98 37.47 54.98"/>
  <path class="cls-1" d="M51.03,71.37v-1.48h6.16v4.93c-.37,.37-.74,.74-1.11,1.11-.49,.37-.99,.74-1.6,.99-.49,.25-1.11,.37-1.73,.49-.49,.12-1.11,.12-1.73,.12-.86-.12-1.6-.37-2.34-.62-.49-.25-.86-.49-1.23-.86-.49-.37-.86-.86-1.11-1.36-.62-.86-.99-1.85-1.11-2.96l-.12-1.11c-.12-.74-.12-1.6,0-2.34,.25-1.23,.62-2.34,1.23-3.33,.62-.74,1.36-1.48,2.22-1.97,.25-.12,.49-.25,.86-.37,.62-.25,1.23-.25,1.97-.37,.74,0,1.6,.12,2.34,.37,.74,.25,1.48,.74,2.1,1.23,.25,.25,.37,.37,.49,.62l.62,.62-1.11,.86-.37-.25c-.49-.62-1.11-1.11-1.85-1.48-.37-.12-.74-.25-1.11-.37h-1.11c-.74,0-1.48,.25-2.22,.62-.25,.25-.62,.49-.86,.74-.25,.37-.49,.74-.62,1.11-.25,.49-.49,.99-.62,1.48l-.12,.86v1.85l.12,.86,.25,.86c.12,.49,.25,.86,.49,1.36,.37,.49,.74,.99,1.23,1.48,.49,.25,.86,.49,1.48,.62,.62,.25,1.23,.25,1.85,.12,.62,0,1.23-.25,1.73-.62,.37-.12,.62-.37,.86-.49l.37-.37v-2.96h-4.31Z"/>
  <polygon class="cls-1" points="49.68 54.98 49.68 36.12 52.02 36.12 52.02 44.62 59.54 36.12 62.5 36.12 56.7 42.65 63.11 54.98 60.28 54.98 55.1 44.62 52.02 48.07 52.02 54.98 49.68 54.98 49.68 54.98"/>
  <polygon class="cls-1" points="59.29 77.29 59.29 62.74 67.55 62.74 66.69 64.34 61.26 64.34 61.26 68.91 66.32 68.91 66.32 70.51 61.26 70.51 61.26 75.69 66.69 75.69 67.55 77.29 59.29 77.29 59.29 77.29"/>
  <polygon class="cls-1" points="81.36 25.39 81.11 25.39 80.99 25.52 80.86 25.76 80.86 25.89 80.86 26.13 80.86 26.13 80.99 26.38 80.99 26.63 81.11 26.75 81.23 26.87 81.23 27.12 81.36 27.36 81.36 27.49 81.48 27.73 81.48 27.86 81.48 28.1 81.6 28.1 81.6 28.35 81.6 28.47 81.48 28.72 81.48 28.84 81.48 29.09 81.48 29.21 81.36 29.34 81.36 29.46 81.23 29.46 81.23 29.58 81.11 29.83 80.86 30.08 80.74 30.2 80.49 30.45 80.37 30.57 80.12 30.69 79.88 30.94 79.63 30.69 79.51 30.57 79.26 30.45 79.14 30.2 79.01 30.08 78.89 29.83 78.77 29.71 78.64 29.46 78.64 29.34 78.52 29.09 78.52 28.97 78.52 28.72 78.4 28.47 78.4 28.35 78.4 28.23 78.52 28.1 78.52 27.98 78.52 27.86 78.52 27.73 78.52 27.61 78.64 27.49 78.64 27.24 78.77 27.12 79.01 26.5 79.14 26.38 79.14 26.13 79.14 26.01 79.14 25.76 79.14 25.64 79.01 25.52 78.89 25.39 78.64 25.39 78.52 25.52 78.27 25.52 78.15 25.64 77.41 26.13 77.29 26.26 77.04 26.38 76.92 26.38 76.79 26.5 76.55 26.5 76.42 26.63 76.3 26.63 76.18 26.63 75.93 26.63 75.69 26.63 75.56 26.5 75.32 26.5 75.07 26.38 74.95 26.26 74.82 26.13 74.58 26.01 74.45 25.89 74.33 25.64 74.21 25.52 74.21 25.27 74.08 25.15 74.08 24.9 74.08 24.78 74.08 24.65 74.08 24.41 74.21 24.28 74.21 24.04 74.33 23.91 74.33 23.67 74.45 23.54 74.58 23.42 74.58 23.3 74.7 23.17 74.82 22.93 75.93 21.82 76.67 21.08 76.79 20.96 76.92 20.71 77.04 20.59 77.16 20.46 77.16 20.34 77.41 19.72 77.53 19.6 77.53 19.35 77.66 19.23 77.78 19.23 77.9 19.35 78.03 19.48 78.03 19.6 78.15 19.85 78.15 19.97 78.03 20.22 78.03 20.34 78.03 20.46 77.9 20.71 77.78 20.96 77.29 21.94 76.92 22.68 76.92 22.8 76.92 22.93 76.79 23.17 76.79 23.3 76.79 23.42 76.92 23.54 76.92 23.79 77.04 23.91 77.29 24.04 77.41 24.16 77.66 24.16 77.9 24.16 78.03 24.16 78.27 24.16 78.4 24.16 78.64 24.04 78.77 24.04 78.89 23.91 79.01 23.79 79.14 23.67 79.26 23.54 79.26 23.54 79.38 23.3 79.38 23.17 79.51 22.93 79.51 22.8 79.51 22.56 79.51 22.19 79.51 21.94 79.51 16.15 73.96 16.15 73.1 16.15 72.97 16.15 72.85 16.15 72.73 16.15 72.48 16.15 72.48 16.27 72.23 16.27 72.11 16.39 71.99 16.52 71.86 16.52 71.62 16.64 71.62 16.76 71.49 16.89 71.37 17.13 71.37 17.26 71.25 17.38 71.25 17.5 71.25 17.63 71.25 17.87 71.25 18 71.25 18.12 71.37 18.37 71.49 18.49 71.62 18.61 71.62 18.74 71.86 18.86 71.99 18.86 72.23 18.86 72.36 18.86 72.6 18.86 72.6 18.86 72.85 18.86 72.97 18.74 73.1 18.74 73.22 18.61 73.84 18.37 74.21 18.12 74.45 18 74.58 18 74.82 17.87 74.95 17.87 75.07 17.75 75.19 17.75 75.32 17.75 75.56 17.75 75.81 17.75 75.93 17.87 76.05 18 76.05 18.12 76.05 18.24 75.93 18.37 75.81 18.37 75.56 18.37 75.44 18.49 75.19 18.49 75.07 18.61 74.95 18.74 74.08 19.35 73.1 20.09 72.36 20.83 72.11 20.96 71.99 21.2 71.74 21.2 71.74 21.32 71.49 21.45 71.37 21.45 71.12 21.57 71 21.57 70.88 21.57 70.75 21.57 70.63 21.57 70.51 21.57 70.38 21.57 70.14 21.57 70.01 21.57 69.77 21.45 69.65 21.45 69.52 21.32 69.28 21.2 69.15 21.08 69.03 20.83 68.78 20.71 68.78 20.46 68.66 20.34 68.66 20.22 68.66 19.97 68.66 19.85 68.66 19.72 68.66 19.48 68.66 19.23 68.66 19.11 68.78 18.98 69.03 18.61 69.15 18.49 69.65 17.75 69.77 17.63 69.89 17.38 69.89 17.26 70.01 17.01 69.89 16.89 69.89 16.76 69.77 16.64 69.65 16.64 69.52 16.52 69.4 16.52 69.28 16.52 69.03 16.64 68.91 16.64 68.29 16.89 68.17 17.01 68.04 17.01 67.92 17.13 67.8 17.13 67.67 17.13 67.55 17.26 67.43 17.26 67.3 17.26 67.18 17.26 67.06 17.26 66.93 17.26 66.81 17.26 66.69 17.13 66.56 17.13 66.32 17.13 66.07 17.01 65.95 16.89 65.82 16.89 65.7 16.76 65.58 16.76 65.45 16.64 65.21 16.39 64.96 16.27 64.96 16.15 64.71 16.02 64.47 15.65 64.84 15.29 65.33 14.79 65.45 14.67 65.58 14.67 65.7 14.42 65.95 14.3 66.19 14.3 66.32 14.18 66.44 14.18 66.56 14.18 66.81 14.05 66.93 14.05 67.18 14.05 67.3 14.05 67.43 14.05 67.67 14.18 67.8 14.18 67.92 14.3 68.54 14.55 68.78 14.67 68.91 14.79 69.15 14.79 69.4 14.79 69.52 14.79 69.65 14.79 69.77 14.79 69.89 14.55 70.01 14.55 70.01 14.3 70.01 14.18 69.89 14.05 69.77 13.81 69.65 13.56 69.52 13.44 69.28 12.94 69.15 12.82 69.15 12.7 69.03 12.57 68.91 12.33 68.91 12.2 68.91 12.08 68.78 11.83 68.78 11.59 68.78 11.46 68.91 11.22 68.91 10.97 69.03 10.85 69.15 10.6 69.28 10.48 69.4 10.35 69.52 10.23 69.65 10.11 69.77 9.98 69.89 9.98 70.14 9.86 70.26 9.86 70.38 9.86 70.63 9.74 70.75 9.74 70.88 9.74 71 9.86 71.12 9.86 71.25 9.86 71.37 9.86 71.62 9.98 71.86 9.98 71.99 10.11 72.11 10.11 72.23 10.23 72.36 10.35 72.48 10.48 72.73 10.6 72.85 10.85 73.96 11.83 74.08 12.08 74.33 12.33 74.7 12.57 74.95 12.82 75.07 12.82 75.19 12.94 75.32 12.94 75.44 13.07 75.93 13.07 76.05 13.19 76.18 13.31 76.18 13.44 76.18 13.56 75.93 13.68 75.81 13.81 75.56 13.81 75.44 13.81 75.32 13.68 75.07 13.68 74.58 13.44 74.45 13.44 74.21 13.31 73.59 12.94 72.85 12.57 72.73 12.57 72.48 12.45 72.36 12.45 72.23 12.45 71.99 12.45 71.86 12.57 71.74 12.57 71.49 12.7 71.37 12.82 71.37 12.94 71.25 13.19 71.25 13.31 71.12 13.56 71.12 13.81 71.12 13.93 71.25 14.18 71.37 14.3 71.37 14.55 71.62 14.67 71.74 14.79 71.86 14.92 71.86 14.92 71.99 14.92 72.23 15.04 72.48 15.04 72.6 15.04 72.73 15.04 73.47 15.04 79.51 15.04 79.51 9.49 79.51 8.63 79.51 8.38 79.51 8.26 79.51 8.14 79.38 8.01 79.38 7.77 79.26 7.64 79.26 7.52 79.14 7.4 79.01 7.27 78.89 7.15 78.64 7.03 78.52 6.9 78.4 6.9 78.27 6.9 78.03 6.78 77.9 6.78 77.66 6.9 77.53 6.9 77.29 7.03 77.16 7.03 77.04 7.15 76.92 7.4 76.92 7.52 76.92 7.52 76.79 7.77 76.79 7.89 76.92 8.01 76.92 8.14 76.92 8.26 76.92 8.38 77.04 8.51 77.04 8.63 77.41 9.61 77.78 10.35 77.9 10.6 78.03 10.85 78.03 10.97 78.03 11.09 78.03 11.22 78.03 11.34 77.9 11.59 77.78 11.71 77.66 11.83 77.53 11.71 77.41 11.59 77.41 11.46 77.41 11.34 77.41 11.09 77.29 10.97 77.16 10.72 76.92 10.35 76.79 10.11 76.67 9.98 76.3 9.61 75.32 8.51 74.7 7.77 74.58 7.52 74.45 7.27 74.33 7.15 74.21 6.9 74.21 6.78 74.21 6.53 74.08 6.41 74.08 6.16 74.08 6.04 74.08 5.92 74.21 5.67 74.21 5.55 74.33 5.3 74.45 5.18 74.45 5.05 74.7 4.93 74.82 4.68 74.95 4.56 75.07 4.44 75.32 4.44 75.44 4.31 75.69 4.31 75.81 4.31 76.05 4.19 76.18 4.31 76.42 4.31 76.55 4.31 76.79 4.44 76.92 4.44 77.04 4.56 77.41 4.81 77.78 5.18 78.15 5.3 78.27 5.42 78.52 5.55 78.64 5.55 78.89 5.55 79.01 5.42 79.01 5.42 79.14 5.3 79.26 5.18 79.26 4.93 79.14 4.81 79.14 4.68 79.14 4.56 79.01 4.44 78.89 4.19 78.77 3.82 78.52 3.33 78.52 3.08 78.4 2.96 78.4 2.71 78.4 2.59 78.4 2.34 78.52 2.1 78.52 1.97 78.64 1.85 78.64 1.6 78.77 1.36 78.89 1.23 79.01 1.11 79.14 .86 79.26 .74 79.38 .62 79.51 .49 80 0 80.25 .25 80.49 .49 80.74 .62 80.86 .86 80.99 .99 81.11 1.23 81.23 1.36 81.36 1.6 81.36 1.73 81.48 1.85 81.48 1.97 81.6 2.22 81.6 2.34 81.6 2.47 81.6 2.71 81.6 2.96 81.6 3.08 81.48 3.33 81.36 3.82 81.23 4.07 81.23 4.19 80.99 4.56 80.99 4.68 80.86 4.81 80.86 5.05 80.99 5.18 80.99 5.3 80.99 5.42 81.11 5.55 81.23 5.55 81.48 5.67 81.6 5.55 81.73 5.55 81.85 5.55 81.97 5.42 82.22 5.3 82.34 5.18 82.96 4.68 83.2 4.68 83.33 4.56 83.45 4.56 83.57 4.44 83.82 4.44 83.94 4.44 84.07 4.44 84.31 4.44 84.44 4.44 84.56 4.44 84.68 4.44 84.93 4.56 85.05 4.68 85.05 4.68 85.3 4.81 85.42 4.93 85.55 5.05 85.67 5.18 85.79 5.3 85.79 5.55 85.92 5.67 85.92 5.92 86.04 6.16 86.04 6.29 85.92 6.53 85.92 6.78 85.92 6.78 85.92 6.9 85.79 7.03 85.79 7.15 85.67 7.4 85.67 7.52 85.55 7.64 85.42 7.77 85.3 8.01 85.05 8.26 84.81 8.51 84.31 9 83.94 9.49 83.57 9.86 83.33 10.11 83.08 10.35 82.83 10.85 82.71 10.97 82.59 11.09 82.59 11.22 82.59 11.34 82.46 11.46 82.46 11.59 82.34 11.71 82.22 11.71 82.09 11.59 81.97 11.34 81.97 11.22 81.97 11.09 81.97 10.85 82.09 10.72 82.09 10.6 82.22 10.48 82.59 9.49 82.96 8.75 83.08 8.63 83.08 8.51 83.08 8.38 83.2 8.26 83.2 8.14 83.2 8.01 83.2 7.89 83.2 7.64 83.2 7.52 83.08 7.4 83.08 7.27 82.96 7.15 82.96 7.03 82.83 6.9 82.59 6.9 82.46 6.78 82.22 6.78 81.97 6.78 81.85 6.78 81.6 6.9 81.48 6.9 81.36 7.03 81.23 7.15 81.11 7.27 80.86 7.52 80.74 7.64 80.74 7.89 80.62 8.01 80.62 8.14 80.62 8.26 80.62 8.38 80.62 8.63 80.62 8.75 80.62 9.61 80.62 15.16 86.41 15.04 87.15 15.04 87.27 15.04 87.4 15.04 87.52 15.04 87.76 15.04 87.89 14.92 88.01 14.92 88.13 14.79 88.26 14.67 88.38 14.42 88.5 14.3 88.5 14.3 88.63 14.05 88.75 13.93 88.75 13.68 88.75 13.56 88.75 13.31 88.75 13.07 88.63 12.94 88.63 12.7 88.5 12.57 88.38 12.45 88.26 12.45 88.01 12.45 87.89 12.45 87.76 12.45 87.52 12.45 87.4 12.45 87.27 12.57 87.15 12.57 86.9 12.7 86.16 13.07 85.3 13.44 85.18 13.44 84.93 13.56 84.81 13.56 84.56 13.68 84.44 13.68 84.19 13.56 84.07 13.56 83.94 13.44 83.94 13.19 84.07 13.07 84.31 12.94 84.44 12.94 84.56 12.94 84.81 12.82 84.93 12.82 85.55 12.33 86.41 11.59 87.4 10.72 88.13 10.23 88.26 10.11 88.38 9.98 88.63 9.86 88.75 9.86 89 9.74 89.12 9.74 89.24 9.74 89.37 9.74 89.49 9.74 89.74 9.74 89.86 9.74 89.98 9.74 90.11 9.86 90.35 9.86 90.48 9.98 90.6 10.11 90.85 10.23 90.97 10.35 91.09 10.6 91.09 10.6 91.22 10.85 91.22 10.97 91.34 11.09 91.34 11.34 91.34 11.46 91.34 11.71 91.34 11.83 91.34 12.08 91.22 12.2 91.22 12.33 91.09 12.57 90.97 12.7 90.97 12.82 90.48 13.44 90.35 13.56 90.35 13.68 90.23 13.81 90.11 13.93 90.11 14.05 90.11 14.3 90.11 14.42 90.23 14.55 90.35 14.67 90.48 14.79 90.6 14.79 90.85 14.79 90.97 14.67 91.09 14.67 91.59 14.42 91.71 14.42 91.96 14.3 92.08 14.3 92.2 14.18 92.45 14.18 92.57 14.18 92.82 14.05 92.94 14.05 93.19 14.05 93.31 14.05 93.44 14.18 93.68 14.18 93.93 14.3 94.18 14.42 94.3 14.55 94.54 14.67 94.67 14.79 94.91 14.92 95.04 15.04 95.16 15.29 95.53 15.65 95.16 16.15 95.04 16.27 94.91 16.39 94.79 16.52 94.67 16.64 94.42 16.76 94.3 16.89 94.05 17.01 93.93 17.01 93.68 17.13 93.56 17.13 93.44 17.13 93.31 17.13 93.19 17.26 93.07 17.26 92.82 17.26 92.7 17.13 92.45 17.13 92.33 17.13 92.2 17.13 92.08 17.01 91.96 17.01 91.83 17.01 91.71 16.89 91.59 16.89 91.46 16.76 91.09 16.52 90.97 16.52 90.85 16.52 90.6 16.52 90.48 16.52 90.35 16.52 90.23 16.64 90.11 16.76 89.98 16.89 89.98 17.01 89.98 17.26 90.11 17.38 90.23 17.63 90.35 17.75 90.6 18.12 90.85 18.49 90.97 18.74 91.09 18.86 91.09 19.11 91.09 19.35 91.22 19.48 91.22 19.6 91.22 19.85 91.22 19.97 91.09 20.09 91.09 20.34 90.97 20.46 90.97 20.59 90.85 20.83 90.72 20.96 90.6 21.08 90.35 21.2 90.23 21.32 90.11 21.45 89.86 21.45 89.74 21.57 89.49 21.57 89.37 21.57 89.24 21.57 89 21.57 88.75 21.57 88.63 21.45 88.38 21.45 88.26 21.32 88.13 21.2 87.89 21.08 87.76 20.96 87.52 20.83 86.53 19.85 85.67 19.11 85.42 18.74 85.05 18.49 84.93 18.37 84.31 18.12 84.07 18 83.94 17.87 84.07 17.63 84.19 17.63 84.31 17.5 84.44 17.5 84.56 17.5 84.68 17.63 84.81 17.63 85.05 17.63 85.18 17.75 85.42 17.75 85.79 18 86.66 18.49 87.03 18.74 87.15 18.74 87.27 18.74 87.52 18.86 87.64 18.86 87.89 18.86 88.01 18.86 88.26 18.74 88.26 18.74 88.5 18.61 88.63 18.49 88.75 18.24 88.75 18.12 88.87 18 88.87 17.75 88.87 17.63 88.75 17.5 88.75 17.26 88.63 17.13 88.63 16.89 88.5 16.76 88.38 16.64 88.26 16.52 88.13 16.39 87.89 16.39 87.76 16.27 87.52 16.27 87.27 16.15 87.03 16.15 86.53 16.15 80.62 16.15 80.62 21.94 80.62 22.06 80.62 22.19 80.62 22.43 80.62 22.68 80.74 23.05 80.74 23.3 80.86 23.42 80.86 23.54 80.99 23.67 81.11 23.79 81.23 23.91 81.36 23.91 81.48 24.04 81.6 24.16 81.73 24.16 81.85 24.16 82.09 24.16 82.22 24.16 82.34 24.16 82.59 24.16 82.71 24.16 82.83 24.04 82.96 23.91 83.08 23.79 83.2 23.67 83.33 23.54 83.33 23.3 83.33 23.17 83.33 22.93 83.2 22.8 83.2 22.68 83.2 22.43 83.08 22.31 82.83 21.82 82.46 20.96 82.22 20.34 82.09 20.09 82.09 19.97 82.09 19.85 82.09 19.72 82.09 19.48 82.22 19.35 82.34 19.23 82.46 19.11 82.59 19.23 82.71 19.35 82.71 19.48 82.71 19.6 82.71 19.85 82.83 19.97 82.83 20.09 83.08 20.46 83.2 20.71 83.45 20.96 83.57 21.2 84.44 22.19 85.18 23.17 85.3 23.3 85.42 23.42 85.55 23.54 85.67 23.79 85.67 23.91 85.79 24.04 85.79 24.16 85.92 24.41 85.92 24.53 85.92 24.78 85.92 24.9 85.92 25.02 85.92 25.27 85.92 25.52 85.79 25.64 85.79 25.76 85.67 25.89 85.55 26.13 85.3 26.26 85.18 26.38 85.05 26.5 84.81 26.63 84.68 26.63 84.44 26.75 84.31 26.75 84.07 26.75 83.94 26.75 83.7 26.75 83.57 26.63 83.45 26.63 83.2 26.5 83.08 26.5 82.96 26.38 82.83 26.38 82.71 26.26 82.59 26.13 81.85 25.64 81.73 25.52 81.6 25.39 81.36 25.39 81.36 25.39 81.36 25.39"/>
  <polygon class="cls-1" points="69.52 77.29 69.4 62.74 72.11 62.74 78.15 74.08 78.15 62.74 80 62.74 80 77.29 77.78 77.29 71.25 64.96 71.25 77.29 69.52 77.29 69.52 77.29"/>
  <path class="cls-1" d="M70.14,55.1l-.12-18.74h6.53c.99,0,1.85,.25,2.71,.62,.74,.49,1.48,1.11,1.85,1.97,.49,.74,.74,1.73,.86,2.59,0,.99-.25,1.85-.74,2.71-.37,.62-.86,1.23-1.6,1.73-.37,.25-.74,.49-1.23,.62-.49,.25-1.11,.37-1.6,.37h-4.44v8.14h-2.22Zm2.22-10.23h4.31c.49,0,1.11-.12,1.6-.49,.49-.25,.86-.74,1.11-1.23,.25-.49,.49-1.11,.37-1.73,0-.49-.12-1.11-.49-1.6-.25-.49-.62-.86-1.11-1.11-.37-.25-.86-.37-1.36-.37h-4.44v6.53h0Z"/>
  <polygon class="cls-1" points="82.46 77.29 82.46 62.74 91.71 62.74 96.02 74.7 99.97 62.74 102.06 62.74 97.13 77.04 95.04 77.04 90.23 64.34 84.44 64.34 84.44 68.78 89.37 68.78 89.37 70.51 84.31 70.51 84.31 75.69 89.98 75.69 90.85 77.29 82.46 77.29 82.46 77.29"/>
  <polygon class="cls-1" points="83.45 55.1 83.45 36.12 85.79 36.12 85.79 44.01 94.3 44.01 94.18 36.12 96.52 36.12 96.52 55.1 94.18 55.1 94.3 46.22 85.79 46.22 85.79 55.1 83.45 55.1 83.45 55.1"/>
  <polygon class="cls-1" points="99.72 55.1 99.72 36.24 102.06 36.24 102.06 55.1 99.72 55.1 99.72 55.1"/>
  <polygon class="cls-1" points="102.68 77.29 102.68 62.74 110.82 62.74 109.95 64.34 104.53 64.34 104.53 68.78 109.58 68.78 109.58 70.38 104.53 70.38 104.53 75.56 110.2 75.56 111.06 77.16 102.68 77.29 102.68 77.29"/>
  <polygon class="cls-1" points="104.78 55.1 104.65 36.12 107.12 36.12 107.12 52.76 115.38 52.76 115.38 55.1 104.78 55.1 104.78 55.1"/>
  <polygon class="cls-1" points="116.98 55.1 116.98 36.12 119.32 36.12 119.32 55.1 116.98 55.1 116.98 55.1"/>
  <path class="cls-1" d="M121.91,55.1v-18.98h6.41c.99,0,1.85,.25,2.71,.74,.86,.49,1.48,1.11,1.97,1.85,.49,.86,.74,1.73,.74,2.71,0,.86-.25,1.85-.62,2.59-.49,.74-.99,1.36-1.6,1.85-.49,.25-.86,.37-1.36,.62-.49,.12-.99,.25-1.6,.25h-4.31v8.38h-2.34Zm2.34-10.35h4.19c.62,0,1.11-.25,1.6-.49,.49-.37,.99-.74,1.23-1.36,.25-.49,.37-1.11,.37-1.6,0-.62-.25-1.23-.49-1.73-.37-.37-.74-.74-1.11-.99-.49-.25-.99-.37-1.48-.49h-4.31v6.66h0Z"/>
  <path class="cls-1" d="M135.59,55.1v-18.98h6.53c.86,0,1.85,.25,2.59,.74,.86,.49,1.48,1.11,1.97,1.85,.49,.86,.74,1.73,.74,2.71,0,.86-.12,1.85-.62,2.59-.37,.74-.99,1.36-1.6,1.85-.37,.25-.86,.37-1.23,.62-.49,.12-1.11,.25-1.73,.25h-4.31v8.38h-2.34Zm2.34-10.35h4.19c.62,0,1.23-.25,1.73-.49,.49-.37,.86-.74,1.11-1.36,.25-.49,.37-1.11,.37-1.6,0-.62-.12-1.23-.49-1.73-.25-.37-.62-.74-1.11-.99-.49-.25-.86-.37-1.36-.49h-4.44v6.66h0Z"/>
  <polygon class="cls-1" points="149.27 55.1 149.27 36.12 159.75 36.12 158.77 38.21 151.62 38.21 151.62 44.01 157.53 44.01 157.53 46.1 151.74 46.1 151.74 52.76 158.89 52.76 160 55.1 149.27 55.1 149.27 55.1"/>
</svg>