<?xml version="1.0" encoding="UTF-8"?>
<svg id="Layer_1" data-name="Layer 1" xmlns="http://www.w3.org/2000/svg" viewBox="0 0 120 40.74">
  <defs>
    <style>
      .cls-1 {
        fill: #fff;
      }
    </style>
  </defs>
  <path class="cls-1" d="M45.23,7.78c-7.71,0-13.96,5.81-13.96,12.98s6.25,12.98,13.96,12.98c6.01,0,11.7-4.11,13.32-9.1l-3.02,.07c-1.84,3.27-4.71,5.91-10.3,5.96-5.99,.06-10.88-4.14-11.22-9.34,8.5-1.9,13.6,3.52,22.22,1.37,0,.01,1.26-.24,2.81-.31,.02-.26,.15-1.36,.15-1.63,0-7.17-6.25-12.98-13.96-12.98Zm-10.74,10.03c1.43-4.03,5.7-6.96,10.74-6.96,5.56,0,10.19,3.58,11.08,8.26-8.47,2.12-13.6-2.9-21.82-1.31Z"/>
  <path class="cls-1" d="M14.13,7.78C6.78,7.78-.24,12.43,.03,20.04l-.03,.12v20.58H3.51v-11.72c2.49,2.91,6.17,4.73,10.62,4.73,7.71,0,13.96-5.81,13.96-12.98S21.84,7.78,14.13,7.78Zm0,22.89c-4.91,0-9.09-2.78-10.62-6.65-.4-1.02-.63-2.12-.63-3.26s.22-2.24,.63-3.26c1.53-3.87,5.71-6.66,10.62-6.66,6.2,0,11.25,4.45,11.25,9.91s-5.05,9.91-11.25,9.91Z"/>
  <path class="cls-1" d="M76.59,7.78c-7.34,0-14.37,4.65-14.1,12.25l-.03,.12v20.58h3.51v-11.72c2.49,2.91,6.17,4.73,10.62,4.73,7.71,0,13.96-5.81,13.96-12.98s-6.25-12.98-13.96-12.98Zm0,22.89c-4.91,0-9.09-2.78-10.62-6.65-.4-1.02-.63-2.12-.63-3.26s.22-2.24,.63-3.26c1.53-3.87,5.71-6.66,10.62-6.66,6.2,0,11.25,4.45,11.25,9.91s-5.05,9.91-11.25,9.91Z"/>
  <rect class="cls-1" x="115.43" y="8.08" width="3.51" height="25.12"/>
  <path class="cls-1" d="M117.18,0c-1.56,0-2.82,1.26-2.82,2.82s1.26,2.82,2.82,2.82,2.82-1.26,2.82-2.82-1.26-2.82-2.82-2.82Z"/>
  <path class="cls-1" d="M96.2,14.9c0-2.75,2.84-4.1,6.21-4.1,2.72,0,5.02,1.01,7.09,2.26l1.95-2.22c-2.84-1.64-5.26-2.84-8.87-2.84-5.08,0-9.81,2.6-9.81,7.03,0,8.48,15.66,4.96,15.66,11.03,0,2.99-2.9,4.48-6.38,4.48-3.19,0-5.2-.92-7.45-2.65l-2.6,1.78c2.31,2.22,5.62,3.66,9.28,3.66,5.79,0,10.58-2.36,10.58-7.42,0-8.96-15.66-4.96-15.66-11.03Z"/>
</svg>