<?xml version="1.0" encoding="UTF-8"?>
<svg id="Layer_1" data-name="Layer 1" xmlns="http://www.w3.org/2000/svg" viewBox="0 0 165 11.33">
  <defs>
    <style>
      .cls-1 {
        fill: #fff;
      }
    </style>
  </defs>
  <path class="cls-1" d="M18.77,2.93c0-.06-.01-.11-.03-.16-.02-.05-.05-.1-.09-.14-.04-.04-.09-.07-.14-.09-.05-.02-.11-.03-.16-.03H2.48s0,3.35,0,3.35h15.92c.05,0,.1-.02,.15-.04,.05-.02,.09-.05,.12-.09,.04-.04,.06-.08,.08-.13,.02-.05,.03-.1,.02-.15V2.93Zm2.49-.43v3.33c0,.16-.02,.33-.05,.49s-.08,.32-.14,.47c-.06,.15-.14,.3-.23,.43-.09,.14-.2,.26-.31,.38-.12,.12-.24,.22-.38,.31-.14,.09-.28,.17-.43,.23-.15,.06-.31,.11-.47,.14-.16,.03-.32,.05-.49,.05H2.48v2.97H0V.01H18.76c.16,0,.33,.01,.49,.05,.16,.03,.32,.08,.47,.14,.15,.06,.3,.14,.43,.23,.14,.09,.26,.19,.38,.31,.12,.12,.22,.24,.31,.38,.09,.14,.17,.28,.23,.43,.06,.15,.11,.31,.14,.47,.03,.16,.05,.32,.05,.49h0Zm21.35,.42c0-.06-.01-.11-.04-.16-.02-.05-.05-.1-.09-.14s-.09-.07-.14-.09c-.05-.02-.11-.03-.16-.03h-15.09c-.1,0-.19,.03-.27,.1-.08,.07-.12,.15-.14,.25v5.67c0,.09,.04,.16,.1,.22,.06,.06,.14,.09,.22,.09h15.21c.11,0,.2-.05,.28-.13,.08-.08,.12-.17,.12-.29V2.93Zm2.47-.42v6.31c0,.16-.01,.33-.05,.49-.03,.16-.08,.32-.14,.47-.06,.15-.14,.3-.23,.43-.09,.14-.19,.26-.31,.38-.12,.12-.24,.22-.38,.31-.14,.09-.28,.17-.43,.23-.15,.06-.31,.11-.47,.14-.16,.03-.32,.05-.49,.05h-15.9c-.16,0-.33-.01-.49-.04-.16-.03-.32-.08-.47-.14-.15-.06-.3-.14-.44-.23-.14-.09-.26-.19-.38-.31-.12-.12-.22-.24-.31-.38-.09-.14-.17-.28-.23-.43-.06-.15-.11-.31-.15-.47-.03-.16-.05-.32-.05-.49V2.52c0-.16,.02-.33,.05-.49,.03-.16,.08-.32,.15-.47,.06-.15,.14-.3,.23-.43,.09-.14,.2-.26,.31-.38,.12-.12,.24-.22,.38-.31,.14-.09,.28-.17,.44-.23,.15-.06,.31-.11,.47-.14,.16-.03,.33-.05,.49-.05h15.93c.16,0,.32,.02,.48,.05,.16,.03,.31,.08,.46,.15,.15,.06,.29,.14,.43,.23,.13,.09,.26,.19,.37,.31,.11,.12,.22,.24,.3,.38,.09,.14,.16,.28,.23,.43,.06,.15,.11,.3,.14,.46,.03,.16,.05,.32,.05,.48h0Zm21.83,.42c0-.06-.01-.11-.03-.16-.02-.05-.05-.1-.09-.14-.04-.04-.09-.07-.14-.09s-.11-.03-.16-.04h-15.92s0,3.35,0,3.35h15.97c.11,0,.2-.05,.27-.13s.11-.17,.11-.28V2.93Zm2.52,8.33v.03h-2.5v-.44c0-.16-.02-.33-.05-.49-.03-.16-.08-.32-.14-.47-.06-.15-.14-.3-.23-.43-.09-.14-.2-.26-.31-.38-.12-.12-.24-.22-.38-.31-.14-.09-.28-.17-.43-.23-.15-.06-.31-.11-.47-.14-.16-.03-.32-.05-.49-.05h-13.85v2.97h-2.48V0h18.82c.16,0,.33,.02,.49,.05,.16,.03,.32,.08,.47,.14,.15,.06,.3,.14,.43,.23s.26,.19,.38,.31c.12,.12,.22,.24,.31,.38,.09,.14,.17,.28,.23,.43,.06,.15,.11,.31,.14,.47,.03,.16,.05,.32,.05,.49v2.45c0,.16-.01,.32-.04,.48-.03,.16-.07,.31-.13,.46s-.13,.29-.22,.43c-.09,.14-.19,.26-.3,.38-.11,.12-.23,.22-.36,.31-.13,.09-.27,.17-.42,.24-.15,.07-.3,.12-.45,.15-.16,.04-.31,.06-.48,.06,.36,.17,.69,.38,1,.65,.3,.26,.56,.56,.77,.9s.38,.7,.49,1.08c.11,.38,.17,.78,.17,1.18h0Zm21.65-6.65h-15.86c-.05,0-.11,0-.16-.02-.05-.02-.1-.05-.14-.08-.04-.04-.07-.08-.09-.13-.02-.05-.03-.1-.03-.16v-1.69c0-.05,.01-.11,.03-.16,.02-.05,.05-.09,.09-.13s.08-.07,.14-.09c.05-.02,.1-.03,.16-.03h18V.02h-18.46c-.16,0-.32,.02-.48,.05-.16,.03-.31,.08-.46,.15-.15,.06-.29,.14-.43,.23-.13,.09-.26,.2-.37,.31-.11,.12-.22,.24-.3,.38-.09,.14-.16,.28-.22,.43-.06,.15-.11,.31-.14,.47-.03,.16-.04,.32-.04,.48v1.69c0,.16,.02,.33,.05,.49,.03,.16,.08,.32,.14,.47,.06,.15,.14,.3,.23,.43s.2,.26,.31,.38c.12,.12,.24,.22,.38,.31,.14,.09,.28,.17,.43,.23,.15,.06,.31,.11,.47,.14,.16,.03,.33,.05,.49,.05h15.86c.05,0,.11,0,.16,.02,.05,.02,.1,.05,.13,.08,.04,.04,.07,.08,.09,.13,.02,.05,.03,.1,.03,.15v1.7c0,.05-.01,.11-.03,.16s-.05,.09-.09,.13-.08,.06-.14,.08c-.05,.02-.1,.03-.16,.02h-18.03v2.11h18.43c.16,0,.33-.02,.49-.05,.16-.03,.32-.08,.47-.14,.15-.06,.3-.14,.43-.23,.14-.09,.26-.19,.38-.31,.12-.12,.22-.24,.31-.38,.09-.14,.17-.28,.23-.43,.06-.15,.11-.31,.14-.47,.03-.16,.05-.32,.05-.49v-1.7c0-.16-.02-.33-.05-.49s-.08-.32-.14-.47c-.06-.15-.14-.3-.23-.43s-.2-.26-.31-.38c-.12-.12-.24-.22-.38-.31s-.28-.17-.43-.23c-.15-.06-.31-.11-.47-.14-.16-.03-.32-.05-.49-.05h0Zm5.47-2.1v6.31c0,.16,.01,.33,.05,.49,.03,.16,.08,.32,.14,.47,.06,.15,.14,.3,.23,.43,.09,.14,.19,.26,.31,.38,.12,.12,.24,.22,.38,.31,.14,.09,.28,.17,.43,.23,.15,.06,.31,.11,.47,.14,.16,.03,.32,.05,.49,.05l18-.02v-2.48h-17.67c-.09,0-.16-.03-.22-.09-.06-.06-.1-.13-.1-.22V2.85c.01-.1,.06-.19,.14-.25,.08-.07,.17-.1,.27-.1h17.59V.02h-17.97c-.16,0-.33,.01-.49,.05s-.32,.08-.47,.14c-.15,.06-.3,.14-.43,.23-.14,.09-.26,.19-.38,.31-.12,.12-.22,.24-.31,.38-.09,.14-.17,.28-.23,.43-.06,.15-.11,.31-.15,.47-.03,.16-.05,.32-.05,.49h0Zm40.98,2.08h-15.11V0h-2.48V11.3h2.48V7.08h15.1v4.22h2.48V0h-2.48V4.6Zm7.91-2.47v2.48h19.55v2.12h-19.55v2.48h19.55v2.11h-22.04V.02h22.04V2.13h-19.55Z"/>
</svg>