<?xml version="1.0" encoding="UTF-8"?>
<svg id="Layer_1" data-name="Layer 1" xmlns="http://www.w3.org/2000/svg" viewBox="0 0 170 38.35">
  <defs>
    <style>
      .cls-1, .cls-2 {
        fill: #fff;
      }

      .cls-2 {
        fill-rule: evenodd;
      }
    </style>
  </defs>
  <g id="layer1">
    <path id="rect840" class="cls-2" d="M116.58,7.55c-3.47,0-6.28,2.81-6.28,6.28v10.72c0,1.96-1.59,3.55-3.55,3.55h-12.1v2.66h14.39c3.47,0,6.28-2.81,6.28-6.28V13.77c0-1.96,1.59-3.55,3.55-3.55h12.32v-2.66h-14.61Z"/>
    <path id="path916" class="cls-2" d="M62.36,7.55v2.66h25.27c2.01,0,3.65,1.63,3.65,3.65,0,2.01-1.63,3.65-3.65,3.65h-18.98c-3.47,0-6.28,2.81-6.28,6.28v6.98h5.02v-7.05c0-1.96,1.59-3.55,3.55-3.55h19.05c3.48,0,6.31-2.82,6.31-6.31,0-3.48-2.82-6.31-6.31-6.31h-27.63Z"/>
    <path id="path929" class="cls-2" d="M136.03,7.55v8.67c0,2.18,1.77,3.95,3.95,3.95h21.03c2.19,0,3.97,1.78,3.97,3.97,0,2.19-1.78,3.97-3.97,3.97h-24.97v2.66h27.33c3.66,0,6.63-2.97,6.63-6.63,0-3.66-2.97-6.63-6.63-6.63h-20.73c-.88,0-1.59-.71-1.59-1.59v-5.71h28.04v-2.66h-33.06Z"/>
    <path id="path72" class="cls-1" d="M18.59,0V35.78l8.1,2.57V8.34c0-1.4,.63-2.35,1.64-2.02,1.32,.37,1.58,1.66,1.58,3.07v11.99c5.05,2.44,9.02,0,9.02-6.43s-2.32-9.53-9.18-11.89c-2.7-.9-7.71-2.42-11.16-3.05"/>
    <path id="path76" class="cls-1" d="M28.22,33.13l13.02-4.64c1.48-.53,1.7-1.28,.5-1.67-1.2-.39-3.37-.28-4.85,.25l-8.68,3.06v-4.86l.5-.17s2.51-.89,6.03-1.28c3.53-.38,7.85,.05,11.23,1.34,3.82,1.21,4.25,2.98,3.28,4.21-.97,1.23-3.35,2.1-3.35,2.1l-17.7,6.36v-4.68Z"/>
    <path id="path80" class="cls-1" d="M3.73,32.63C-.19,31.53-.84,29.23,.94,27.9c1.66-1.23,4.46-2.15,4.46-2.15l11.61-4.12v4.7l-8.35,2.99c-1.48,.53-1.7,1.28-.51,1.67,1.2,.4,3.37,.28,4.85-.25l4.01-1.45v4.21c-.26,.04-.54,.09-.8,.13-4.01,.65-8.28,.38-12.49-1"/>
  </g>
</svg>