<?xml version="1.0" encoding="UTF-8"?>
<svg id="Layer_1" data-name="Layer 1" xmlns="http://www.w3.org/2000/svg" viewBox="0 0 100 77.86">
  <defs>
    <style>
      .cls-1 {
        fill: #fff;
        fill-rule: evenodd;
      }
    </style>
  </defs>
  <path class="cls-1" d="M9.46,.33c-.64,.1-1.26,2.46-2.5,3.7-.91,.89-2.04,.84-2.64,1.93-.23,.41-.15,1.11-.41,1.79-.51,1.35-2.29,1.46-2.29,2.93,0,1.59,1.49,1.89,2.78,3.01,1.01,.9,1.11,1.53,2.33,1.97,1.04,.36,2.6-.81,4-.39,1.15,.34,2.25,.59,2.51,1.77,.23,1.09-.02,2.78-1.41,2.58-.47-.05-2.51-.74-5.01-.47C3.79,19.49,.35,20.48,.01,23.84c-.19,1.88,2.14,4.1,4.39,3.65,1.55-.31,.82-2.14,1.66-3.03,1.11-1.14,7.39,3.98,13.23,3.98,2.46,0,4.29-.62,6.1-2.52,.17-.15,.38-.46,.64-.48,.25,.02,.68,.26,.82,.37,4.7,3.78,8.26,11.36,25.55,11.45,2.43,.01,5.2,1.18,7.46,3.24,2.02,1.87,3.2,4.77,4.34,7.71,1.73,4.42,4.83,8.71,9.53,13.49,.26,.26,4.13,3.26,4.44,3.49,.05,.03,.33,.71,.23,1.09-.12,2.87-.53,11.2,5.68,11.58,1.52,.08,1.12-.99,1.12-1.72,0-1.45-.27-2.9,.5-4.38,1.05-2.04-2.22-2.98-2.12-7.41,.07-3.29-2.7-2.73-4.1-5.24-.81-1.46-1.53-2.23-1.48-4.01,.32-10.01-2.13-16.59-3.35-18.21-.95-1.22-1.74-1.7-.87-2.27,5.19-3.43,6.36-6.61,6.36-6.61,2.76-6.48,5.24-12.4,8.66-15.01,.69-.54,2.45-1.86,3.54-2.37,3.19-1.51,4.87-2.42,5.8-3.32,1.46-1.43,2.63-4.41,1.22-6.22-1.75-2.23-4.77-.46-6.11,.33-9.53,5.66-10.94,15.64-14.24,21.37-2.64,4.58-6.92,7.95-10.75,8.22-2.87,.21-5.97-.37-9.05-1.72-7.5-3.29-11.6-7.53-12.57-8.28-2.01-1.55-17.65-16.9-30.31-17.53,0,0-1.57-3.15-1.97-3.2-.93-.12-1.87,1.88-2.55,2.11-.64,.21-1.71-2.16-2.36-2.06h0Z"/>
</svg>