<?xml version="1.0" encoding="UTF-8"?>
<svg id="Layer_1" data-name="Layer 1" xmlns="http://www.w3.org/2000/svg" viewBox="0 0 150 42.33">
  <defs>
    <style>
      .cls-1, .cls-2 {
        fill: #fff;
      }

      .cls-2 {
        fill-rule: evenodd;
      }
    </style>
  </defs>
  <path class="cls-2" d="M27.52,37.59c-.32,.02-.63,.04-.95,.04-.36,0-.71-.03-1.08-.04l1.06-2.55,.97,2.55m1.17,2.89c.19,0,.48-.06,.76-.06s.65,.05,.81,.06c-.47-1-1.15-2.57-1.54-3.47-.37-.87-1-2.32-1.49-3.74-.11,.03-.22,.05-.33,.05-.12,0-.23-.02-.34-.05-.25,.85-.85,2.19-1.9,4.54l-1.2,2.67c.14-.02,.29-.06,.46-.06,.17,0,.36,.04,.5,.06,.17-.59,.5-1.45,.83-2.25,.41-.02,.83-.04,1.24-.04,.44,0,.88,.02,1.33,.04l.43,1.1,.44,1.15Z"/>
  <path class="cls-1" d="M31.18,35.76c0,1.77,0,3.48-.11,4.71,.23,0,.52-.06,.75-.06,.24,0,.49,.05,.73,.06-.08-.84-.1-1.96-.1-3.5,0-1.05,0-2.84,.11-3.6-.25,.03-.51,.06-.74,.06-.15,0-.54-.04-.74-.06,.1,1,.1,1.74,.1,2.39"/>
  <path class="cls-2" d="M37.34,36.96c.94-.17,1.8-.77,1.8-1.92,0-.44-.16-.86-.48-1.16-.45-.42-.95-.51-1.63-.51-.24,0-1.44,.05-1.71,.05-.53,0-.8-.03-1.04-.05,.07,1.34,.07,1.48,.07,2.84,0,2-.01,2.23-.09,4.27,.23-.03,.47-.06,.71-.06,.26,0,.49,.04,.69,.06,0-.27-.04-1.6-.04-1.91v-1.47h.25c.56,.79,1.2,1.7,1.73,2.52,.16,.24,.38,.62,.54,.86,.31-.04,.44-.06,.84-.06,.37,0,.63,.03,.92,.06-.65-.82-.93-1.18-1.75-2.33-.15-.22-.38-.56-.54-.78l-.29-.42m-1.7-3.02c.16-.01,.54-.05,.74-.05,.34,0,.69,.05,.96,.26,.36,.27,.44,.64,.44,1.08,0,.67-.38,1.43-1.42,1.43-.27,0-.52-.02-.72-.03v-2.68Z"/>
  <path class="cls-1" d="M42.73,38.05c-.48-1.44-1.16-3.46-1.48-4.68-.26,.04-.49,.06-.72,.06s-.6-.04-.81-.06c.42,1.12,.79,2.11,1.07,2.9,.48,1.35,.79,2.28,1.16,3.42l.26,.79c.14-.03,.31-.06,.43-.06s.22,.02,.39,.06c.17-.54,.36-1.2,.51-1.63,.4-1.18,.45-1.35,.98-2.82l.31-.86c.11,.33,.31,.86,.42,1.19,.11,.32,.64,1.91,.77,2.26,.17,.47,.21,.6,.59,1.85,.09,0,.29-.06,.44-.06,.15,0,.26,.03,.42,.06,.4-1.23,.44-1.35,1.02-3.01,.57-1.62,.92-2.54,1.54-4.09-.16,.04-.31,.06-.47,.06-.2,0-.36-.03-.47-.06-.37,1.35-.56,2-.86,2.89-.49,1.45-.55,1.62-.85,2.41-.33-.89-.65-1.79-.95-2.7-.17-.5-.8-2.57-.81-2.59-.14,.03-.25,.06-.46,.06-.19,0-.32-.04-.46-.06-.31,1.26-1.41,4.31-1.51,4.59l-.26,.67-.2-.58"/>
  <path class="cls-2" d="M53.19,37.59c-.32,.02-.63,.04-.95,.04-.36,0-.71-.03-1.08-.04l1.06-2.55,.97,2.55m1.17,2.89c.19,0,.47-.06,.77-.06s.65,.05,.81,.06c-.47-1-1.15-2.57-1.54-3.47-.37-.87-1-2.32-1.49-3.74-.11,.03-.22,.05-.33,.05-.12,0-.23-.02-.34-.05-.25,.85-.85,2.19-1.9,4.54l-1.2,2.67c.14-.02,.29-.06,.47-.06s.36,.04,.5,.06c.17-.59,.5-1.45,.83-2.25,.41-.02,.83-.04,1.24-.04,.45,0,.88,.02,1.33,.04l.44,1.1,.44,1.15Z"/>
  <path class="cls-1" d="M58.71,37.7c0-.09,.06-.21,.13-.33,.44-.75,.84-1.53,1.31-2.27,.15-.25,.91-1.45,1.07-1.73-.12,.04-.23,.06-.44,.06-.23,0-.44-.03-.6-.06-.75,1.64-.91,1.99-1.79,3.5-.88-1.54-1.27-2.36-1.81-3.5-.3,.05-.6,.06-.85,.06-.23,0-.47-.02-.85-.06,.54,.9,1.42,2.33,1.95,3.24l.61,1.06c0,.64-.03,2-.06,2.8,.2-.02,.49-.06,.69-.06,.24,0,.48,.04,.71,.06-.04-.96-.07-1.52-.07-2.39v-.38"/>
  <path class="cls-1" d="M61.81,38.93c-.05,.5-.06,.63-.24,1.17,.38,.19,1.05,.53,1.94,.53,1.9,0,2.63-1.21,2.63-2.27,0-.29-.07-.9-.51-1.37-.3-.33-.61-.45-1.41-.76-.91-.35-1.44-.56-1.44-1.31,0-.61,.4-1.12,1.22-1.12,.65,0,1.2,.31,1.36,.9h.15c.09-.39,.11-.48,.32-.98-.51-.23-.96-.42-1.72-.42-1.87,0-2.42,1.16-2.42,2.07,0,.86,.3,1.39,1.31,1.83,.29,.12,.78,.31,1.07,.44,.2,.08,.85,.37,.85,1.19,0,.75-.54,1.3-1.36,1.3-.61,0-1.13-.16-1.61-1.19h-.15"/>
  <path class="cls-2" d="M4.26,19.78c0-7.83,4.2-9.94,7.37-9.94,5.1,0,7.3,4.23,7.3,8.73,0,2.58-.31,5.01-1.59,6.96-1.27,1.96-3.39,3.14-5.69,3.14-5.75,0-7.4-5.47-7.4-8.89m15.48,16.01c.93-.65,2.39-1.46,3.45-1.93l-7.02-4.35c4.32-1.52,7.02-5.38,7.02-10.63,0-7.46-5.69-10.63-11.5-10.63C5.41,8.25,0,11.73,0,19.62c0,1.68,.38,4.85,2.99,7.49,2.7,2.74,5.91,3.14,8.61,3.14,.34,0,.68,0,1.03-.03l7.12,5.56Z"/>
  <path class="cls-2" d="M37.69,21.15c-.96,.06-1.9,.13-2.86,.13-1.09,0-2.15-.09-3.23-.13l3.17-7.65,2.92,7.65m3.51,8.67c.56-.03,1.43-.19,2.3-.19s1.96,.16,2.43,.19c-1.4-3.02-3.45-7.71-4.63-10.41-1.12-2.61-2.98-6.96-4.48-11.22-.34,.09-.65,.16-.99,.16-.37,0-.68-.06-1.02-.16-.75,2.55-2.55,6.59-5.69,13.61l-3.61,8.02c.44-.06,.87-.19,1.4-.19,.5,0,1.09,.13,1.49,.19,.5-1.77,1.49-4.35,2.49-6.75,1.24-.06,2.48-.12,3.73-.12,1.34,0,2.64,.06,3.98,.12l1.31,3.29,1.31,3.45Z"/>
  <path class="cls-1" d="M54.99,14.06c0-1.18,.03-2.36,.06-3.48,2.15,0,4.35,.03,6.19,.22-.09-.5-.16-.78-.16-1.12,0-.25,.06-.65,.16-1.18-2.98,.15-5.72,.19-8.3,.19-2.39,0-5.84-.03-8.3-.19,.1,.37,.16,.78,.16,1.15s-.06,.78-.16,1.15c1.59-.16,4.57-.22,4.85-.22h1.55c.03,1.21,.06,2.3,.06,3.45l.03,8.67c0,2.36-.19,4.76-.31,7.12,1.12-.12,1.59-.19,2.11-.19,.37,0,1.37,.09,2.27,.19-.09-.87-.22-1.9-.22-4.26V14.06"/>
  <path class="cls-2" d="M72.29,21.15c-.96,.06-1.9,.13-2.86,.13-1.09,0-2.15-.09-3.24-.13l3.17-7.65,2.92,7.65m3.51,8.67c.56-.03,1.43-.19,2.3-.19s1.96,.16,2.42,.19c-1.4-3.02-3.45-7.71-4.63-10.41-1.12-2.61-2.98-6.96-4.48-11.22-.34,.09-.65,.16-.99,.16-.37,0-.68-.06-1.03-.16-.74,2.55-2.55,6.59-5.69,13.61l-3.6,8.02c.43-.06,.87-.19,1.4-.19,.5,0,1.09,.13,1.49,.19,.5-1.77,1.49-4.35,2.49-6.75,1.24-.06,2.48-.12,3.73-.12,1.34,0,2.64,.06,3.98,.12l1.31,3.29,1.31,3.45Z"/>
  <path class="cls-2" d="M93.04,19.25c2.83-.53,5.41-2.3,5.41-5.75,0-1.31-.5-2.58-1.43-3.48-1.34-1.27-2.86-1.52-4.88-1.52-.71,0-4.32,.15-5.13,.15-1.59,0-2.39-.09-3.11-.15,.22,4.01,.22,4.44,.22,8.52,0,6-.03,6.68-.28,12.81,.68-.09,1.43-.19,2.14-.19,.78,0,1.46,.13,2.09,.19,0-.81-.13-4.82-.13-5.72v-4.41h.75c1.68,2.36,3.61,5.1,5.19,7.55,.46,.72,1.15,1.86,1.62,2.58,.93-.12,1.31-.19,2.51-.19,1.12,0,1.9,.09,2.77,.19-1.96-2.46-2.8-3.54-5.25-6.99-.47-.65-1.15-1.68-1.62-2.33l-.87-1.24m-5.1-9.08c.47-.03,1.62-.15,2.2-.15,1.03,0,2.05,.15,2.89,.78,1.09,.81,1.3,1.93,1.3,3.23,0,2.02-1.15,4.29-4.26,4.29-.81,0-1.55-.06-2.14-.09V10.18Z"/>
  <path class="cls-1" d="M139.5,19.31c0,.2-2.81,.39-6.83,.55-.71-.4-1.24-.81-1.64-1.16,4.87,.17,8.47,.39,8.47,.61"/>
  <path class="cls-1" d="M136.62,12.53c0,.17-2.36,.32-5.73,.46,.48-.28,.98-.57,1.5-.85,2.55,.12,4.23,.25,4.23,.39"/>
  <path class="cls-1" d="M111.5,27.12c-1.56,.02-2.93,.03-4,.03-1.54,0-2.79-.48-2.79-1.06s1.25-1.06,2.79-1.06c1.36,0,3.21,.01,5.33,.04-.82,1.18-1.21,1.89-1.25,1.94-.02,.04-.05,.08-.08,.12"/>
  <path class="cls-1" d="M112.34,28.54c.52,.62,1.01,1.14,1.67,1.71,0,0,.25,.36,1,.05,.77-.31,1.42-.74,2.16-1.73,2.15,.03,4.42,.08,6.66,.14,.19,.27,.56,.82,1.02,1.51-6.25,.16-13.03,.26-16.5,.26-1.45,0-2.62-.45-2.62-1s1.17-1,2.62-1c1.06,0,2.42,0,3.98,.02,0,.01,0,.03,0,.03"/>
  <path class="cls-1" d="M109.92,33.75c-1.28,0-2.32-.39-2.32-.88s1.04-.88,2.32-.88c3.4,0,10.36,.1,16.32,.27,.29,.41,.57,.82,.84,1.2-6.14,.18-13.61,.3-17.17,.3"/>
  <path class="cls-1" d="M129.73,36.58c-5.01,.22-13.62,.37-17.2,.37-1.01,0-1.82-.31-1.82-.69s.82-.7,1.82-.7c3.42,0,11.46,.13,16.53,.34,.23,.25,.45,.48,.67,.69"/>
  <path class="cls-1" d="M116.66,38.46c2.96,0,11.95,.22,11.95,.49s-8.99,.49-11.95,.49c-.58,0-1.04-.22-1.04-.49s.46-.49,1.04-.49"/>
  <path class="cls-1" d="M116.7,20.27c-3.72,.06-7.05,.1-9.19,.1-1.54,0-2.79-.47-2.79-1.06s1.25-1.06,2.79-1.06c2.49,0,6.58,.05,11.02,.13-.66,.65-1.27,1.29-1.82,1.89"/>
  <path class="cls-1" d="M134.93,15.53c2.18,.12,3.55,.24,3.55,.38,0,.15-1.66,.29-4.23,.42,.55-.41,.67-.77,.68-.8"/>
  <path class="cls-1" d="M108.36,16.91c-1.45,0-2.62-.45-2.62-1s1.17-1,2.62-1c2.97,0,8.35,.07,13.76,.19-.66,.56-1.29,1.11-1.88,1.65-4.74,.1-9.25,.15-11.87,.15"/>
  <path class="cls-1" d="M124.5,13.19c-5.52,.14-11.51,.23-14.58,.23-1.28,0-2.32-.39-2.32-.88s1.04-.88,2.32-.88c3.39,0,10.33,.1,16.29,.27-.3,.22-.59,.43-.9,.66-.27,.21-.54,.41-.81,.61"/>
  <path class="cls-1" d="M112.53,9.84c-1.01,0-1.82-.31-1.82-.7s.82-.69,1.82-.69c3.8,0,13.27,.17,18.08,.41-.31,.2-.61,.41-.92,.62-5.01,.22-13.59,.36-17.16,.36"/>
  <path class="cls-1" d="M107.21,23.78c-1.56,0-2.84-.48-2.84-1.08s1.27-1.08,2.84-1.08c1.96,0,4.9,.03,8.23,.08-.63,.74-1.17,1.42-1.63,2.02-2.64,.04-4.96,.06-6.59,.06"/>
  <path class="cls-1" d="M115.62,6.44c0-.27,.46-.49,1.04-.49,2.96,0,11.95,.22,11.95,.49s-8.99,.49-11.95,.49c-.58,0-1.04-.22-1.04-.49"/>
  <path class="cls-1" d="M139.8,21.9c.02,.54,.02,1.07,0,1.6-5.23,.21-10.19,.52-10.19,.88s4.85,.66,10.02,.87c-.09,.6-.21,1.18-.35,1.76-5.1,.21-9.83,.52-9.83,.86s4.42,.63,9.31,.84c-.23,.62-.48,1.23-.77,1.81-4.2,.2-7.67,.47-7.67,.77,0,.27,3.04,.53,6.86,.72-.21,.35-.44,.69-.67,1.02-.25,.35-.52,.7-.81,1.05-2.39,.18-4.03,.39-4.03,.61,0,.19,1.18,.37,2.99,.53-.99,.98-2.16,1.89-3.53,2.69,0,0-1.62-1.4-2.96-3.03-1.2-1.45-3.72-5.29-4.32-6.14-.6-.86-.99-1.11-1.69-.86-.93,.33-2.02,.5-2.35,.5s-.52-.13,.04-.35c.56-.22,2.77-1.27,3.85-3.42,1.22-2.42,.15-5.77,.15-5.77-.41,1.79-1.34,2.46-1.34,2.46,.3-1.66-.02-3.17-.85-4.22l-.46,2.1s-.29-.01-1,.58c-.71,.6-.9,1.46-.9,1.46,.56,.23,1.23-.33,1.23-.33-.86,3.2-2.08,5.81-2.98,7.18-.89,1.38-1.63,1.9-2.53,2.26-.76,.3-1-.05-1-.05-.66-.57-1.15-1.09-1.67-1.71,0,0-.04-.07,.1-.07,.37,0,1.02-.63,1.17-.89,.16-.3,.14-.53,.06-.55-.08-.01-.22,.22-.93,.67-.71,.45-1.03,.14-1.27-.11-.18-.2,0-.44,.11-.6,.11-.14,3.84-7.1,13.73-14.42C138.27,2.98,146.54,.4,147.02,.21c.32-.12,.83-.29,.94-.17,.13,.13,.19,.24,.17,.4-.02,.15-.1,.24-.7,.5-4.98,2.19-10.78,5.84-14.08,7.97-4.06,1.98-7.93,4.8-8.07,4.87-.31,.19-.08,.48,.11,.36,6.85-4.56,14.88-7.66,23.75-10.2,.43-.12,.66-.12,.73-.03,.08,.1,.11,.22,.12,.35,.01,.16-.12,.25-.49,.39-9.53,3.54-16.56,6.83-21.08,9.87,0,0-.47,.28-.47,.61,0,.12,.25,.14,.25,.14,2.26,.04,5.29,.17,6.72,.26,0,0-.2,.73-1.58,1.32-1.06,.45-2.05,.38-3.02,.39-.22,0-.4,.21-.23,.45,.08,.12,2.16,3.46,9.7,4.22"/>
  <path class="cls-1" d="M70.7,39.36h-1.28s-.17-.78,.29-1.09c.46-.3,.99-.54,.99-.54v1.62m6.06-2.94s-.77,.45-1.27,.88c-.49,.43,.1,.6,.1,.6v1.46h-3.71v-5.11s-1.35,1.24-1.48,1.41c-.13,.18,.32,.33,.32,.33l-.08,.48s-.54,.28-1.19,.72c-.65,.44-1.13,.99-1.13,1.38s-.16,1.9-.16,1.9h8.59v-4.06Zm-7.67-1.87c.42,0,.72-.17,.72-.5s-.2-.57-.72-.57c-.47,0-.59,.2-.59,.57s.16,.5,.59,.5Zm1.58,0c.43,0,.72-.17,.72-.5s-.2-.57-.72-.57c-.47,0-.59,.2-.59,.57s.16,.5,.59,.5Zm2.39,6.37c-.46,0-.59,.2-.59,.57s.16,.5,.59,.5,.72-.17,.72-.5-.2-.57-.72-.57Zm1.64,0c-.46,0-.59,.2-.59,.57s.17,.5,.59,.5,.72-.17,.72-.5-.19-.57-.72-.57Zm18.52-6.47c.43,0,.73-.16,.73-.5s-.2-.57-.73-.57c-.46,0-.58,.2-.58,.57s.17,.5,.58,.5Zm1.64,0c.43,0,.72-.16,.72-.5s-.2-.57-.72-.57c-.46,0-.58,.2-.58,.57s.16,.5,.58,.5Zm4.54,.14c-.23,.2-.17,.44,.13,.4v5.5h1.22v-6.84s-1.12,.74-1.35,.94Zm-4.89,3.08h-.79c0-.43,.79-.67,.79-.67v.67Zm-5.19,.91c0,.2-.01,.52-.02,.78h-6.88v-1.21c.18-.46,.48-.52,.95-.52h5.03c1.09,0,.92,.57,.92,.94Zm8.04-3.59v4.37h-1.64v-3.97s-.33,.13-.8,.33c-.45,.21-2.1,.88-2.1,1.78v1.05h1.68v.81h-3.98c0-.19,0-.47,0-.89,0-1.3-1.11-2.01-2.1-2.01h-4.6c-.81,0-1.19,.2-1.41,.42v-3.37s-.72,.5-1.25,.91c-.52,.4,0,.67,0,.67v4.27h-1.51l-.03-3.67s-1.05,.77-1.35,1c-.29,.23-.13,.44,.2,.44,0,0-.06,2.71-.06,3.34s-.53,1.38-1.65,1.04c0,0-.35,.07-.06,.34,.29,.27,.65,.47,1.04,.47s1.84-.27,1.84-1.85h18.97v-6.84s-1.12,.74-1.34,.94c-.23,.2-.17,.44,.13,.41Z"/>
</svg>