<?xml version="1.0" encoding="UTF-8"?>
<svg id="Layer_1" data-name="Layer 1" xmlns="http://www.w3.org/2000/svg" viewBox="0 0 70 71.99">
  <defs>
    <style>
      .cls-1 {
        fill: #fff;
        fill-rule: evenodd;
      }
    </style>
  </defs>
  <path class="cls-1" d="M65.87,14.75c-2.28,0-4.12,1.85-4.12,4.12,0,1.44,.7,2.69,1.81,3.43h0l-13.99,30.01,2.92-39.97h0c2.12-.18,3.78-1.95,3.78-4.11,0-2.28-1.85-4.12-4.12-4.12s-4.12,1.85-4.12,4.12c0,1.79,1.14,3.29,2.74,3.86h0l-9.6,39.03-4.75-43.05h0c1.76-.47,3.04-2.04,3.04-3.95,0-2.28-1.85-4.12-4.12-4.12s-4.12,1.85-4.12,4.12c0,2.06,1.52,3.72,3.49,4.03h0l-3.83,41.94L19.76,12.22h0c1.31-.69,2.21-2.05,2.21-3.64,0-2.28-1.85-4.12-4.12-4.12s-4.12,1.85-4.12,4.12,1.85,4.12,4.12,4.12c.06,0,.12,0,.18,0h0l4.79,39.63L6.67,23.49h0c.96-.75,1.58-1.93,1.58-3.25,0-2.28-1.85-4.12-4.12-4.12S0,17.97,0,20.25s1.85,4.12,4.12,4.12c.3,0,.59-.03,.88-.09h0l13.53,40.57h0c3.09,9.43,30.53,9.61,34.65,0h0l12.22-41.9h0c.17,.02,.3,.05,.47,.05,2.28,0,4.12-1.85,4.12-4.12s-1.85-4.12-4.12-4.12h0Zm-30.36,54.43c-6.99,0-12.66-2.11-12.66-4.71s5.67-3.82,12.66-3.82,11.92,1.22,11.92,3.82-4.93,4.71-11.92,4.71h0Z"/>
</svg>