<?xml version="1.0" encoding="UTF-8"?>
<svg id="Layer_1" data-name="Layer 1" xmlns="http://www.w3.org/2000/svg" viewBox="0 0 140 20.5">
  <defs>
    <style>
      .cls-1 {
        fill: #fff;
        fill-rule: evenodd;
      }
    </style>
  </defs>
  <path class="cls-1" d="M76.77,9.52s-1.36-.84-2.2-1.17c0,0-2.61-1.21-3.12-1.78,0,0-1.02-.96-.42-2.07,0,0,.25-.73,1.32-.73,0,0,1.4,.08,1.4,1.23v1.62h5.01v-2.39s.38-3.91-5.91-4.08c0,0-4.94-.33-6.36,2.34,0,0-.56,.59-.56,2.66v1.49s-.06,1.72,.82,2.84c0,0,.5,.73,1.72,1.53,0,0,2.49,1.34,3.99,2.11,0,0,1.51,.86,1.31,2.23,0,0-.12,1.41-1.58,1.35,0,0-1.33-.06-1.33-1.44v-1.62h-5.34v2.35s-.15,4.5,6.71,4.5c0,0,6.55,.13,6.86-4.62v-1.91s.23-2.91-2.32-4.44h0Z"/>
  <polygon class="cls-1" points="51.12 .71 49.44 11.22 49.05 11.22 47.45 .8 39.08 .8 38.66 19.84 43.62 19.84 43.68 5.5 44.07 5.5 46.69 19.83 51.91 19.83 54.5 5.5 54.84 5.5 54.96 19.84 59.94 19.84 59.41 .71 51.12 .71 51.12 .71"/>
  <polygon class="cls-1" points="21.63 .79 18.33 19.82 23.67 19.82 25.62 5.06 26.06 5.06 28.01 19.82 33.34 19.82 30.05 .79 21.63 .79 21.63 .79"/>
  <path class="cls-1" d="M133.55,9.26v2.81h1.37v3.01c0,1.47-1.26,1.5-1.26,1.5-1.53,0-1.47-1.4-1.47-1.4V4.75c0-1.07,1.36-1.13,1.36-1.13,1.3,0,1.31,1.28,1.31,1.28v1.59h5.02c.16-3.09-.45-3.84-.45-3.84C138.18-.15,133.47,0,133.47,0c-7.24,0-6.44,5.56-6.44,5.56V15.64c.16,5.21,7.29,4.68,7.41,4.68,3.17-.35,4.13-1.36,4.13-1.36,.88-.66,1.11-1.56,1.11-1.56,.25-.53,.32-2.21,.32-2.21v-5.92h-6.45Z"/>
  <polygon class="cls-1" points="116.9 12.35 116.69 12.35 111.59 .71 105.49 .71 105.49 19.84 110.45 19.84 110.16 8.2 110.38 8.2 115.66 19.84 121.57 19.84 121.57 .71 116.55 .71 116.9 12.35 116.9 12.35"/>
  <path class="cls-1" d="M93.38,15.07s.07,1.57-1.38,1.57c0,0-1.53,.08-1.53-1.53l-.02-14.39h-5.44V15s-.56,5.4,7.07,5.4c0,0,6.63,.08,6.63-5.16V.72h-5.32V15.07h0Z"/>
  <path class="cls-1" d="M11.25,9.52s-1.36-.84-2.2-1.17c0,0-2.61-1.21-3.12-1.78,0,0-1.02-.96-.42-2.07,0,0,.25-.73,1.32-.73,0,0,1.4,.08,1.4,1.23v1.62h5.01v-2.39S13.61,.32,7.32,.15c0,0-.47-.03-1.17,0C6.16,.15,2.35,.36,.99,2.45c0,.02-.02,.03-.03,.04,0,0-.56,.59-.56,2.66v1.49s-.06,1.72,.82,2.84c0,0,.5,.73,1.72,1.53,0,0,2.49,1.34,3.98,2.11,0,0,1.51,.86,1.31,2.23,0,0-.12,1.41-1.58,1.35,0,0-1.33-.06-1.33-1.44v-1.62H0v2.35s-.15,4.5,6.71,4.5c0,0,6.55,.13,6.86-4.62v-1.91s.23-2.91-2.32-4.45h0Z"/>
</svg>