<?xml version="1.0" encoding="UTF-8"?>
<svg id="Layer_1" data-name="Layer 1" xmlns="http://www.w3.org/2000/svg" viewBox="0 0 150 44.99">
  <defs>
    <style>
      .cls-1 {
        fill: #fff;
      }
    </style>
  </defs>
  <path class="cls-1" d="M22.49,0C10.07,0,0,10.07,0,22.49s10.07,22.49,22.49,22.49,22.49-10.07,22.49-22.49S34.92,0,22.49,0h0Zm10.32,32.44c-.4,.66-1.27,.87-1.93,.46-5.28-3.23-11.93-3.96-19.76-2.17-.75,.17-1.51-.3-1.68-1.06-.17-.75,.3-1.51,1.05-1.68,8.57-1.96,15.92-1.11,21.85,2.51,.66,.41,.87,1.27,.46,1.93Zm2.75-6.12c-.51,.83-1.59,1.09-2.41,.58-6.05-3.72-15.26-4.79-22.42-2.62-.93,.28-1.91-.24-2.19-1.17-.28-.93,.24-1.91,1.17-2.19,8.17-2.48,18.33-1.28,25.27,2.99,.82,.51,1.09,1.59,.58,2.41h0Zm.24-6.38c-7.25-4.31-19.21-4.7-26.13-2.6-1.11,.34-2.29-.29-2.62-1.4-.34-1.11,.29-2.29,1.4-2.62,7.95-2.41,21.16-1.95,29.5,3.01,1,.59,1.33,1.88,.74,2.88-.59,1-1.89,1.33-2.88,.74h0Zm25.4,.83c-3.88-.93-4.57-1.58-4.57-2.94,0-1.29,1.21-2.16,3.02-2.16s3.49,.66,5.31,2.02c.05,.04,.12,.06,.19,.05,.07-.01,.13-.05,.17-.1l1.9-2.67c.08-.11,.06-.26-.05-.35-2.17-1.74-4.61-2.58-7.46-2.58-4.19,0-7.12,2.52-7.12,6.12,0,3.86,2.53,5.23,6.9,6.28,3.71,.86,4.34,1.57,4.34,2.86,0,1.42-1.27,2.3-3.31,2.3-2.27,0-4.12-.77-6.19-2.55-.05-.05-.12-.06-.19-.06-.07,0-.13,.04-.17,.09l-2.13,2.53c-.09,.11-.08,.26,.02,.35,2.41,2.15,5.37,3.28,8.56,3.28,4.52,0,7.44-2.47,7.44-6.29,0-3.23-1.92-5.01-6.65-6.16h0Zm16.89-3.83c-1.96,0-3.56,.77-4.89,2.35v-1.78c0-.14-.11-.25-.25-.25h-3.48c-.14,0-.25,.11-.25,.25v19.77c0,.14,.11,.26,.25,.26h3.48c.14,0,.25-.12,.25-.26v-6.24c1.33,1.49,2.93,2.21,4.89,2.21,3.64,0,7.32-2.8,7.32-8.16,0-5.36-3.68-8.16-7.32-8.16h0Zm3.28,8.16c0,2.73-1.68,4.63-4.09,4.63s-4.17-1.99-4.17-4.63,1.79-4.63,4.17-4.63c2.37,0,4.09,1.95,4.09,4.63h0Zm13.49-8.16c-4.69,0-8.36,3.61-8.36,8.22s3.65,8.13,8.3,8.13,8.39-3.6,8.39-8.19-3.66-8.16-8.33-8.16h0Zm0,12.82c-2.49,0-4.37-2-4.37-4.66s1.82-4.6,4.32-4.6,4.4,2,4.4,4.66-1.83,4.6-4.34,4.6Zm18.34-12.5h-3.83v-3.91c0-.14-.11-.25-.25-.25h-3.48c-.14,0-.25,.11-.25,.25v3.91h-1.67c-.14,0-.25,.11-.25,.25v2.99c0,.14,.11,.25,.25,.25h1.67v7.73c0,3.12,1.56,4.71,4.63,4.71,1.25,0,2.28-.26,3.26-.81,.08-.04,.13-.13,.13-.22v-2.85c0-.09-.05-.17-.12-.21-.08-.05-.17-.05-.25-.01-.67,.34-1.32,.49-2.04,.49-1.11,0-1.61-.51-1.61-1.64v-7.19h3.83c.14,0,.25-.11,.25-.25v-2.99c0-.14-.11-.25-.25-.25h0Zm13.33,.01v-.48c0-1.41,.54-2.04,1.76-2.04,.73,0,1.31,.14,1.96,.36,.08,.03,.16,.01,.23-.04,.07-.05,.1-.13,.1-.21v-2.93c0-.11-.07-.21-.18-.24-.69-.2-1.57-.42-2.89-.42-3.21,0-4.91,1.81-4.91,5.23v.74h-1.67c-.14,0-.26,.11-.26,.25v3c0,.14,.12,.25,.26,.25h1.67v11.93c0,.14,.12,.25,.26,.25h3.48c.14,0,.26-.11,.26-.25v-11.93h3.25l4.97,11.93c-.56,1.25-1.12,1.5-1.88,1.5-.61,0-1.26-.18-1.92-.55-.06-.03-.14-.04-.2-.02-.07,.02-.12,.07-.15,.14l-1.18,2.59c-.06,.12,0,.27,.11,.33,1.23,.67,2.34,.95,3.71,.95,2.57,0,3.99-1.2,5.24-4.42l6.03-15.59c.03-.08,.02-.17-.03-.24-.05-.07-.12-.11-.21-.11h-3.62c-.11,0-.21,.07-.24,.17l-3.71,10.59-4.06-10.6c-.04-.1-.13-.16-.24-.16h-5.94Zm-7.73-.02h-3.48c-.14,0-.26,.11-.26,.25v15.17c0,.14,.12,.25,.26,.25h3.48c.14,0,.26-.11,.26-.25v-15.17c0-.14-.11-.25-.26-.25h0Zm-1.72-6.91c-1.38,0-2.5,1.12-2.5,2.49s1.12,2.5,2.5,2.5,2.49-1.12,2.49-2.5-1.12-2.49-2.49-2.49Zm30.47,11.79c-1.38,0-2.45-1.11-2.45-2.45s1.09-2.46,2.46-2.46,2.45,1.1,2.45,2.45-1.09,2.46-2.46,2.46h0Zm.01-4.66c-1.25,0-2.2,1-2.2,2.22s.94,2.2,2.19,2.2,2.2-1,2.2-2.22-.94-2.2-2.19-2.2Zm.54,2.45l.69,.97h-.59l-.62-.89h-.53v.89h-.49v-2.57h1.14c.6,0,.99,.31,.99,.82,0,.42-.24,.68-.59,.78h0Zm-.41-1.16h-.64v.81h.64c.32,0,.51-.16,.51-.41,0-.26-.19-.41-.51-.41Z"/>
</svg>