<?xml version="1.0" encoding="UTF-8"?>
<svg id="Layer_1" data-name="Layer 1" xmlns="http://www.w3.org/2000/svg" viewBox="0 0 80 79.55">
  <defs>
    <style>
      .cls-1 {
        fill: #fff;
      }
    </style>
  </defs>
  <polyline class="cls-1" points="64.02 76.69 64.88 78.88 64.88 78.88"/>
  <path class="cls-1" d="M44.02,17.28h0c-.36-.06-2.06-.35-4.03-.35s-3.67,.28-4.02,.35c-.21,.03-.28-.16-.13-.27,.14-.11,4.14-3.16,4.14-3.16,0,0,4.02,3.05,4.15,3.16,.16,.11,.08,.3-.11,.27Zm-6.93,19.78h0s-.22,.08-.27,.27c.84,.65,1.41,2.12,3.16,2.12s2.34-1.47,3.18-2.12c-.06-.19-.27-.27-.27-.27,0,0-1.11,.27-2.91,.27s-2.9-.27-2.9-.27Zm2.9-2.46h0c-.49,0-.58-.17-.92-.17s-.93,.25-1.08,.47c.02,.13,.06,.22,.14,.32,.71,.11,1.03,.51,1.85,.51s1.14-.39,1.85-.51c.09-.09,.13-.19,.14-.32-.13-.22-.74-.47-1.06-.47-.33,0-.44,.17-.93,.17Zm39.96,7.55h0c-.05,.96-.14,1.91-.25,2.85-4.52,.76-6.15-3.29-10.79-3.08,.27,.98,.51,1.99,.66,3.02,3.83-.02,5.38,3.57,9.63,3.03-.22,1.09-.49,2.18-.81,3.24-3.37,.33-4.56-3.02-8.45-2.92,.03,.55,.05,1.11,.05,1.67,0,.32,0,.63-.01,.93,3.32-.03,4.4,3.03,7.56,2.89-.38,1.08-.82,2.12-1.31,3.14-2.28-.11-3.05-3.03-6.52-2.8-.11,.74-.24,1.48-.39,2.21,3-.21,3.65,2.56,5.81,2.78-.55,1-1.14,1.98-1.77,2.91-1.27-.68-2.37-2.73-4.79-2.86,.24-.76,.46-1.55,.65-2.32-2.15,0-4.6-.84-6.66-2.72,.66-3.79-5.22-7.65-5.22-10.43,0-3.02,1.53-4.68,1.53-8.75,0-3-1.47-6.29-3.69-8.52-.43-.44-.87-.79-1.38-1.11,2.04,2.51,3.59,5.5,3.59,8.94,0,3.82-1.77,5.85-1.77,9.39s5.17,6.59,5.17,10.22c0,1.44-.46,2.85-1.98,5.59,2.32,2.32,5.35,3.59,7.31,3.59,.63,0,.97-.21,1.2-.7,.19-.43,.38-.87,.55-1.29,2.1,.08,3.07,1.99,4.22,2.75-.63,.85-1.31,1.67-2.01,2.48-.77-.87-1.83-2.31-3.37-2.72-.27,.54-.55,1.06-.87,1.58,1.33,.35,2.23,1.69,2.93,2.56-.74,.79-1.54,1.53-2.36,2.24-.51-.79-1.3-1.8-2.2-2.34-.32,.44-.66,.89-1.01,1.31,.74,.51,1.42,1.42,1.85,2.18-.93,.76-1.91,1.47-2.93,2.15-.51-4.06-6.04-6.84-4.56-11.55-.49,.82-1.08,1.86-1.08,3.11,0,3.41,3.64,6.11,3.92,9.51-.74,.44-1.52,.87-2.31,1.26-.13-3.71-3.97-7.79-3.97-10.85,0-3.41,4.48-6.84,4.48-10.87s-5.17-6.81-5.17-10.35,2.2-5.58,2.2-10.09c0-3.32-1.58-6.68-4.02-8.83-.43-.38-.85-.68-1.36-.95,2.29,2.75,3.62,5.26,3.62,9.05,0,4.26-2.51,6.62-2.51,10.79s5.06,6.49,5.06,10.38-4.71,7.17-4.71,11.17c0,3.63,4.16,7.27,4.22,11.58-.9,.4-1.84,.76-2.79,1.09,.54-4.36-4.14-8.86-4.14-12.42,0-3.89,4.89-7.22,4.89-11.42s-4.97-6.13-4.97-10.44,3.05-6.68,3.05-11.42c0-3.71-1.83-7.05-4.51-9.1-.06-.05-.11-.09-.17-.14-.25-.17-.46,.05-.27,.27,1.88,2.35,2.9,4.76,2.9,8.28,0,4.36-3.5,7.88-3.5,12.1,0,4.96,4.7,6.38,4.7,10.46s-5.05,7.35-5.05,11.68c0,4.01,4.78,8.47,3.95,13.11-.95,.24-1.93,.46-2.91,.63,.9-5.77-3.78-9.92-3.78-13.68,0-4.09,5.22-7.74,5.22-11.74,0-3.76-3.75-4.99-4.24-8.85-.06-.52-.49-.92-1.08-.82-.76,.14-1.74,.65-3.27,.65s-2.5-.51-3.27-.65c-.57-.09-1,.3-1.08,.82-.49,3.85-4.24,5.09-4.24,8.85,0,4,5.24,7.65,5.24,11.74,0,3.76-4.7,7.92-3.8,13.68-.98-.17-1.96-.4-2.91-.63-.82-4.65,3.96-9.1,3.96-13.11,0-4.33-5.05-7.58-5.05-11.68s4.72-5.5,4.72-10.46c0-4.22-3.51-7.74-3.51-12.1,0-3.52,1.01-5.93,2.91-8.28,.17-.22-.03-.44-.28-.27-.06,.05-.11,.09-.18,.14-2.67,2.05-4.51,5.39-4.51,9.1,0,4.74,3.05,7.13,3.05,11.42s-4.97,6.26-4.97,10.44,4.89,7.54,4.89,11.42c0,3.55-4.68,8.06-4.15,12.42-.95-.33-1.87-.7-2.78-1.09,.06-4.31,4.22-7.95,4.22-11.58,0-4-4.72-7.27-4.72-11.17s5.06-6.21,5.06-10.38-2.52-6.52-2.52-10.79c0-3.79,1.33-6.3,3.64-9.05-.52,.27-.93,.57-1.38,.95-2.44,2.15-4.02,5.51-4.02,8.83,0,4.52,2.2,6.56,2.2,10.09s-5.16,6.34-5.16,10.35,4.48,7.46,4.48,10.87c0,3.06-3.86,7.14-3.99,10.85-.79-.4-1.55-.82-2.31-1.26,.28-3.4,3.92-6.1,3.92-9.51,0-1.25-.58-2.29-1.08-3.11,1.5,4.71-4.05,7.49-4.55,11.55-1-.68-1.98-1.39-2.93-2.15,.44-.76,1.11-1.67,1.87-2.18-.36-.43-.7-.87-1.03-1.31-.89,.54-1.69,1.55-2.2,2.34-.81-.71-1.6-1.45-2.36-2.24,.7-.87,1.61-2.21,2.93-2.56-.3-.52-.6-1.04-.87-1.58-1.53,.41-2.58,1.85-3.37,2.72-.7-.81-1.38-1.63-2.01-2.48,1.17-.76,2.14-2.67,4.24-2.75,.17,.43,.35,.87,.55,1.29,.22,.49,.55,.7,1.2,.7,1.95,0,4.97-1.26,7.29-3.59-1.5-2.75-1.96-4.16-1.96-5.59,0-3.63,5.17-6.7,5.17-10.22s-1.79-5.56-1.79-9.39c0-3.44,1.57-6.43,3.59-8.94-.51,.32-.95,.67-1.38,1.11-2.2,2.23-3.67,5.51-3.67,8.52,0,4.08,1.52,5.74,1.52,8.75,0,2.78-5.88,6.63-5.22,10.43-2.06,1.88-4.51,2.72-6.66,2.72,.19,.77,.41,1.56,.65,2.32-2.4,.13-3.51,2.18-4.79,2.86-.63-.93-1.22-1.91-1.77-2.91,2.15-.22,2.8-2.99,5.81-2.78-.16-.73-.28-1.47-.4-2.21-3.45-.24-4.24,2.69-6.52,2.8-.47-1.03-.92-2.07-1.31-3.14,3.16,.14,4.24-2.92,7.56-2.89-.02-.3-.02-.62-.02-.93,0-.57,.02-1.12,.05-1.67-3.89-.09-5.08,3.25-8.45,2.92-.3-1.06-.57-2.15-.81-3.24,4.26,.54,5.81-3.05,9.63-3.03,.17-1.03,.4-2.04,.68-3.02-4.65-.21-6.26,3.84-10.79,3.08-.13-.93-.21-1.88-.25-2.85,5.25,.6,7.23-3.73,12.02-3.19,.46-1.15,.98-2.26,1.57-3.32-6.01-1.06-8.05,3.97-13.64,3.19C.6,17.28,18.27,0,39.99,0s39.39,17.28,40.01,38.83c-5.6,.78-7.64-4.25-13.65-3.19,.59,1.06,1.12,2.17,1.57,3.32,4.79-.54,6.77,3.79,12.04,3.19ZM22.8,25.4h0c-2.94-1.2-6.52-.93-9.56,1.03-.47-2.83-2.01-5.36-4.21-6.87-.3-.2-.62,0-.59,.35,.46,5.99-3.04,11.17-7.34,15.74,4.43,1.33,8.21-4.38,13.97-2.39,2.06-3.06,4.68-5.74,7.72-7.85Zm17.19-3.62h0c-3.72,0-6.82,2.09-7.64,4.8-.06,.2,.03,.35,.27,.24,.66-.3,1.43-.44,2.25-.44,1.52,0,2.85,.55,3.64,1.52,.35,1.15,.38,2.81-.01,3.78-.62-.14-.84-.63-1.46-.63s-1.08,.43-2.1,.43-1.16-.48-1.84-.48c-.81,0-.95,.82-.95,1.74,0,4.14,3.8,9.83,7.85,9.83s7.85-5.69,7.85-9.83c0-.92-.19-1.72-1.01-1.83-.43,.3-.81,.57-1.76,.57-1.04,0-1.33-.43-1.93-.43-.73,0-.66,1.55-1.54,1.64-.58-1.41-.62-3.19-.13-4.79,.79-.96,2.12-1.52,3.64-1.52,.82,0,1.6,.14,2.26,.44,.24,.11,.32-.03,.25-.24-.81-2.72-3.92-4.8-7.64-4.8Zm5.92,5.92h0c-.89,0-1.93,.27-2.59,1.01-.06,.19-.06,.49,.03,.68,1.61-.55,3.04-.57,3.73,.2,.36-.33,.47-.63,.47-.98,0-.54-.54-.92-1.65-.92Zm-12.99,1.9h0c.78-.79,2.42-.76,4.13-.13,.06-.84-1.45-1.77-2.97-1.77-1.09,0-1.65,.38-1.65,.92,0,.35,.13,.65,.49,.98Zm25.6-14h0c-2.93,.21-5.49,1.22-7.54,2.89,.89-2.48,1.99-4.65,3.4-6.75-3.73,.39-6.87,1.75-9.15,4.09l-1.77-4.68,3.96-3.49-5.3-.36-2.12-4.93-2.12,4.93-5.3,.36,3.97,3.49-1.79,4.68c-2.28-2.34-5.39-3.7-9.13-4.09,1.39,2.1,2.51,4.26,3.38,6.75-2.06-1.67-4.6-2.69-7.54-2.89,1.77,2.26,3.32,4.66,4.48,7.25,.13,.3,.41,.4,.71,.24,4.02-1.99,8.54-3.11,13.34-3.11s9.32,1.12,13.34,3.11c.3,.16,.59,.06,.71-.24,1.16-2.59,2.72-4.99,4.48-7.25Zm6.41,17.65h0c5.74-1.99,9.52,3.71,13.97,2.39-4.3-4.57-7.81-9.75-7.34-15.74,.01-.35-.3-.55-.6-.35-2.18,1.52-3.72,4.05-4.19,6.87-3.05-1.96-6.61-2.23-9.56-1.03,3.02,2.12,5.65,4.79,7.72,7.85Z"/>
  <polygon class="cls-1" points="62.07 79.55 62.07 79.55 61.68 79.55 61.68 77.04 60.76 77.04 60.76 76.69 63.01 76.69 63.01 77.04 62.07 77.04 62.07 79.55"/>
  <polygon class="cls-1" points="64.88 78.88 64.88 78.88 65.73 76.69 66.36 76.69 66.36 79.55 65.95 79.55 65.95 77.16 64.99 79.55 64.73 79.55 63.78 77.16 63.78 79.55 63.39 79.55 63.39 76.69 64.02 76.69 64.88 78.88"/>
</svg>