<?xml version="1.0" encoding="UTF-8"?>
<svg id="Layer_1" data-name="Layer 1" xmlns="http://www.w3.org/2000/svg" viewBox="0 0 160 18.1">
  <defs>
    <style>
      .cls-1 {
        fill: #fff;
      }
    </style>
  </defs>
  <g id="g439">
    <path id="path441" class="cls-1" d="M141.03,6.97h-3.96v11.13h3.96v-7h14.41v7h3.96V7.02h-18.38v-.05Zm-65.9-2.9h14.12c2.15-.61,3.7-2.19,4.15-3.97h-22.23V11.13h18.37v2.88h-14.23c-2.1,.8-3.64,2.16-4.08,3.92l-.07,.17h22.33V7.14h-18.37v-3.08Zm34.92,9.82V.09h-3.97V18.1h18.15v-.17c1.98-.82,3.4-2.26,3.82-3.94l-18-.11Zm30.47-9.82h15.33c2.14-.79,3.72-2.27,4.16-4.06h-23.64c.43,1.79,2.02,3.27,4.15,4.06Zm-100.67,0h15.33c2.14-.79,3.71-2.27,4.16-4.06h-23.64c.43,1.79,2.01,3.27,4.16,4.06Zm0,14h15.33c2.14-.79,3.71-2.29,4.16-4.07h-23.64c.43,1.78,2.01,3.28,4.16,4.07ZM0,.14C.46,1.9,2.02,3.39,4.15,4.18h6.45l.33,.14v13.78h4.02V4.32l.36-.14h6.45c2.11-.79,3.68-2.27,4.14-4.04v-.05H0v.05ZM39.85,11.13h15.33c2.14-.78,3.71-2.29,4.16-4.05h-23.64c.43,1.77,2.01,3.28,4.16,4.05"/>
  </g>
</svg>