<svg xmlns="http://www.w3.org/2000/svg" width="113.137" height="59.262" viewBox="0 0 113.137 59.262">
  <g id="left-left" transform="translate(26.87 2.761) rotate(45)">
    <path id="Path_36325" data-name="Path 36325" d="M38.1,12.286a3.81,3.81,0,0,1,0,7.619H0v-38.1A3.81,3.81,0,0,1,3.81-22a3.81,3.81,0,0,1,3.81,3.81V12.286Z" transform="translate(0 18.095)" fill="#fff"/>
    <path id="Path_36326" data-name="Path 36326" d="M48.1,2.286a3.81,3.81,0,1,1,0,7.619H10v-38.1A3.81,3.81,0,0,1,13.81-32a3.81,3.81,0,0,1,3.81,3.81V2.286Z" transform="translate(9.048 9.048)" fill="#8b8b8b"/>
    <path id="Path_36327" data-name="Path 36327" d="M58.1-7.714A3.81,3.81,0,0,1,61.9-3.9,3.81,3.81,0,0,1,58.1-.1H20v-38.1A3.81,3.81,0,0,1,23.81-42a3.81,3.81,0,0,1,3.81,3.81V-7.714Z" transform="translate(18.095)" fill="#484848"/>
  </g>
</svg>
