<?xml version="1.0" encoding="UTF-8"?>
<svg id="Layer_1" data-name="Layer 1" xmlns="http://www.w3.org/2000/svg" viewBox="0 0 106.04 77.67">
  <defs>
    <style>
      .cls-1 {
        fill: #fff;
      }
    </style>
  </defs>
  <path class="cls-1" d="M75.21,29.4c-.07-.19-.19-.37-.36-.54-.34-.34-.71-.48-1.1-.42-.39,.06-.8,.3-1.22,.73l-.88,.88,2.1,2.09,.83-.84c.21-.21,.38-.43,.49-.65,.12-.22,.19-.43,.21-.65s0-.41-.08-.61Z"/>
  <path class="cls-1" d="M97.82,6.72c-.07-.19-.19-.37-.36-.54-.34-.34-.71-.48-1.1-.42-.39,.06-.8,.3-1.22,.73l-.88,.88,2.1,2.09,.83-.84c.21-.21,.38-.43,.49-.65,.12-.22,.19-.43,.21-.65s0-.41-.08-.61Z"/>
  <path class="cls-1" d="M67.24,35.21l1.45,3.4,2.15-2.15-3.41-1.44c-.05-.02-.11-.05-.18-.08-.06-.03-.13-.07-.2-.11,.04,.07,.07,.14,.11,.2,.03,.06,.06,.13,.09,.18Z"/>
  <path class="cls-1" d="M97.67,0L36.74,60.93,8.37,32.55,0,40.92l36.74,36.74L106.04,8.37,97.67,0ZM17.52,44.83l2.65,2.65-.31,.31-2.65-2.65,.31-.31Zm-10.27,.08l-3.8-3.8,.14-.14s.11-.08,.18-.09l7.89-1.31-3.24-3.24,.31-.31,3.74,3.74-.13,.13c-.05,.05-.13,.09-.2,.1l-7.87,1.3,3.31,3.31-.31,.31Zm2.38,2.38l4.86-4.86-1.83-1.83,.32-.32,4.02,4.02-.32,.32-1.82-1.82-4.86,4.86-.37-.37Zm7.38,2.62l-2.28-2.28,.31-.31,2.28,2.28-.31,.31Zm5.02,2.14c-.18,.19-.4,.34-.64,.44-.23,.09-.48,.14-.72,.14-.26,0-.52-.06-.77-.16-.28-.11-.54-.27-.77-.46,.02,.1,.03,.2,.01,.3l-.46,4.02-.33-.33s-.06-.08-.08-.12c-.01-.05-.02-.1-.01-.15l.44-3.76c.01-.08,0-.17-.02-.25-.04-.1-.11-.18-.19-.25l-.64-.64,.28-.28,.86,.86c.21,.21,.44,.39,.7,.53,.22,.12,.45,.2,.7,.22,.22,.02,.45,0,.66-.08,.22-.09,.42-.22,.59-.39,.34-.29,.51-.74,.46-1.18-.11-.51-.39-.98-.78-1.32l-.91-.91,.3-.3,.91,.91c.51,.44,.86,1.03,.99,1.68,.06,.55-.16,1.09-.57,1.46Zm43.14-6.42l-4.81-4.79,1.23-1.24c.56-.56,1.11-.87,1.64-.91,.53-.04,1.03,.17,1.48,.62,.21,.21,.37,.44,.46,.7,.1,.25,.14,.52,.12,.79-.02,.27-.1,.55-.24,.83-.14,.28-.34,.55-.6,.82l-.89,.89,1.94,1.93-.34,.35Zm8.21-8.24s-.07,.05-.1,.05c-.04,0-.08,0-.11-.02l-1.96-.82-2.35,2.36,.83,1.95s.02,.07,.02,.11c0,.04-.02,.08-.05,.11l-.26,.26-2.85-6.75,.34-.35,6.77,2.82-.27,.27Zm5.48-5.5s-.07,.06-.11,.07c-.04,.01-.09,.02-.14,0l-3.48-.4c-.09-.01-.16,0-.23,.02-.06,.02-.14,.08-.24,.18l-.63,.63,2.17,2.17-.34,.35-4.81-4.79,1.22-1.23c.55-.55,1.07-.86,1.56-.92,.49-.06,.94,.11,1.35,.53,.18,.18,.32,.38,.41,.6,.09,.21,.13,.44,.13,.67,0,.23-.05,.47-.15,.71-.09,.24-.23,.48-.42,.71,.09-.02,.18-.02,.28-.01l3.73,.42-.3,.3Zm3.47-3.48l-4.51-4.49-1.69,1.7-.3-.29,3.72-3.73,.3,.29-1.68,1.69,4.51,4.49-.35,.35Zm7.74-7.77c-.05,.05-.12,.07-.19,.06l-7.28-1.03c.07,.06,.14,.12,.2,.18l4.05,4.03-.3,.3-4.81-4.79,.17-.17s.06-.05,.09-.06c.03,0,.06-.01,.11,0l7.26,1.04c-.07-.06-.14-.12-.21-.19l-4.03-4.02,.3-.31,4.81,4.79-.17,.17Zm2.94-2.95l-4.81-4.79,2.87-2.88,.29,.29-2.52,2.53,1.94,1.94,2.1-2.11,.28,.28-2.1,2.11,2,2,2.52-2.53,.29,.29-2.87,2.88Zm8.34-8.41s-.09,.02-.14,0l-3.48-.4c-.09-.01-.16,0-.23,.02-.06,.02-.14,.08-.24,.18l-.63,.63,2.17,2.17-.34,.35-4.81-4.79,1.22-1.23c.55-.55,1.07-.86,1.56-.92,.49-.06,.94,.11,1.35,.53,.18,.18,.32,.38,.41,.6,.09,.21,.13,.44,.13,.67,0,.23-.05,.47-.15,.71-.09,.24-.23,.48-.42,.71,.09-.02,.18-.02,.28-.01l3.73,.42-.3,.3s-.07,.06-.11,.07Z"/>
  <path class="cls-1" d="M64.66,41.53c.11-.23,.17-.45,.18-.67,.01-.22-.02-.43-.1-.64-.08-.2-.2-.39-.37-.56-.37-.37-.77-.54-1.19-.51-.43,.03-.86,.27-1.31,.72l-.89,.89,2.32,2.31,.89-.89c.21-.21,.37-.43,.48-.66Z"/>
</svg>