<?xml version="1.0" encoding="UTF-8"?>
<svg id="Layer_1" data-name="Layer 1" xmlns="http://www.w3.org/2000/svg" viewBox="0 0 139.16 45.92">
  <path d="M34.01,0V1.14c0,.45-.15,.9-.45,1.33L4.41,43.16h29.34v2.76H0v-1.2c0-.41,.13-.8,.39-1.17L29.6,2.76H.84V0H34.01Z"/>
  <path d="M74.33,0V2.82h-16.13V45.92h-3.31V2.82h-16.23V0h35.67Z"/>
  <g>
    <rect x="78.98" y="22.07" width="20.26" height="2.76"/>
    <rect x="78.98" width="23.51" height="2.76"/>
  </g>
  <path d="M123.36,26.06c-.41-.54-.88-.97-1.4-1.3,2.01-.22,3.82-.68,5.42-1.38,1.6-.7,2.97-1.6,4.11-2.69,1.14-1.09,2.01-2.36,2.61-3.81,.6-1.45,.91-3.05,.91-4.8,0-3.96-1.31-6.96-3.93-9.01-2.62-2.04-6.58-3.07-11.88-3.07h-8.07V2.63h8.07c4.09,0,7.2,.79,9.35,2.37,2.14,1.58,3.21,4,3.21,7.27,0,1.6-.29,3.04-.88,4.32-.58,1.28-1.43,2.37-2.55,3.28s-2.48,1.61-4.09,2.09-3.43,.73-5.47,.73h-7.65v2.47h5.67c.89,0,1.54,.1,1.96,.29,.42,.19,.82,.53,1.18,1.01l14.7,18.63c.24,.3,.48,.52,.73,.65,.25,.13,.55,.19,.89,.19h2.89l-15.8-19.86Z"/>
  <g>
    <path d="M108.81,24.91h1.33v.24h-3.29v-.85c0-.39,.08-.68,.25-.87,.17-.2,.41-.29,.72-.29,.14,0,.28,.03,.4,.08,.12,.05,.23,.13,.31,.23,.09,.1,.16,.22,.2,.37s.07,.31,.07,.49v.61Zm-.19,0v-.61c0-.15-.02-.28-.06-.39-.04-.11-.1-.21-.17-.29s-.16-.14-.25-.18c-.1-.04-.2-.06-.32-.06-.25,0-.45,.08-.58,.23-.14,.16-.2,.39-.2,.7v.61h1.59Z"/>
    <path d="M110.14,19.33v.18s0,.04-.02,.05-.03,.02-.05,.03l-.96,.39v1.62l.96,.39s.03,.02,.04,.03c.01,.02,.02,.03,.02,.06v.18l-3.29-1.35v-.24l3.29-1.35Zm-1.2,2.2v-1.47l-1.66,.67s-.06,.02-.09,.03c-.03,.01-.07,.02-.11,.03,.04,.01,.07,.02,.11,.03,.03,.01,.06,.02,.09,.03l1.66,.67Z"/>
    <path d="M108.65,17.57h1.49v.24h-3.29v-.84c0-.38,.07-.66,.22-.85,.15-.19,.36-.28,.65-.28,.13,0,.24,.02,.34,.07,.1,.04,.19,.11,.27,.19s.14,.18,.19,.29,.08,.24,.1,.39c.02-.04,.05-.07,.09-.1l1.42-1.13v.21s0,.05-.01,.06c0,.02-.02,.04-.05,.05l-1.33,1.05s-.06,.05-.07,.08c-.01,.03-.02,.08-.02,.14v.43Zm-.18,0v-.57c0-.15-.02-.28-.05-.39-.04-.12-.09-.21-.15-.29s-.14-.14-.23-.18c-.09-.04-.19-.06-.31-.06-.23,0-.41,.08-.52,.23-.11,.15-.17,.38-.17,.67v.6h1.44Z"/>
    <path d="M106.85,11.97h.2v1.16h3.09v.24h-3.09v1.16h-.2v-2.56Z"/>
    <path d="M106.85,10.3s.02-.03,.04-.04l2.85-2.13s-.09,0-.14,0h-2.76v-.21h3.29v.11s-.02,.06-.05,.09l-2.86,2.14s.09,0,.13,0h2.77v.21h-3.29v-.12s0-.04,0-.05Z"/>
    <path d="M106.85,4.05h.2v1.73h1.33v-1.44h.19v1.44h1.37v-1.73h.2v1.97h-3.29v-1.97Z"/>
    <path d="M108.65,2.03h1.49v.24h-3.29v-.84c0-.38,.07-.66,.22-.85,.15-.19,.36-.28,.65-.28,.13,0,.24,.02,.34,.07,.1,.04,.19,.11,.27,.19s.14,.18,.19,.29,.08,.24,.1,.39c.02-.04,.05-.07,.09-.1L110.14,0V.21s0,.05-.01,.06c0,.02-.02,.04-.05,.05l-1.33,1.05s-.06,.05-.07,.08c-.01,.03-.02,.08-.02,.14v.43Zm-.18,0v-.57c0-.15-.02-.28-.05-.39-.04-.12-.09-.21-.15-.29s-.14-.14-.23-.18c-.09-.04-.19-.06-.31-.06-.23,0-.41,.08-.52,.23-.11,.15-.17,.38-.17,.67v.6h1.44Z"/>
  </g>
</svg>