<svg xmlns="http://www.w3.org/2000/svg" xmlns:xlink="http://www.w3.org/1999/xlink" width="670.808" height="30.001" viewBox="0 0 670.808 30.001">
  <defs>
    <clipPath id="clip-path">
      <rect id="Rectangle_2305" data-name="Rectangle 2305" width="304.138" height="30" fill="#be9f56"/>
    </clipPath>
  </defs>
  <g id="Group_6503" data-name="Group 6503" transform="translate(-50 -170)">
    <g id="Group_6502" data-name="Group 6502">
      <g id="Group_6096" data-name="Group 6096" transform="translate(50 170)">
        <path id="Path_33419" data-name="Path 33419" d="M39.8,0V1.846H50.4V30h2.164V1.846H63.1V0Z" transform="translate(16.7 0)" fill="#be9f56"/>
        <g id="Group_6095" data-name="Group 6095" transform="translate(0 0)">
          <g id="Group_6094" data-name="Group 6094" clip-path="url(#clip-path)">
            <path id="Path_33420" data-name="Path 33420" d="M209.323,17.024a3.443,3.443,0,0,0-.913-.848,11.937,11.937,0,0,0,3.542-.9,9.075,9.075,0,0,0,2.682-1.76,7.363,7.363,0,0,0,1.706-2.49,8.056,8.056,0,0,0,.593-3.139A7.01,7.01,0,0,0,214.368,2q-2.566-2-7.76-2h-5.273V1.716h5.273a10.186,10.186,0,0,1,6.106,1.549,5.512,5.512,0,0,1,2.1,4.749,6.692,6.692,0,0,1-.572,2.819,5.911,5.911,0,0,1-1.665,2.142,7.7,7.7,0,0,1-2.672,1.367,12.34,12.34,0,0,1-3.572.477h-5v1.611h3.7a3.247,3.247,0,0,1,1.282.19,2.138,2.138,0,0,1,.775.657l9.6,12.171a1.521,1.521,0,0,0,.477.423,1.238,1.238,0,0,0,.583.128h1.887Z" transform="translate(84.49 0)" fill="#be9f56"/>
            <path id="Path_33421" data-name="Path 33421" d="M70.581,16.624a2.135,2.135,0,0,1,.774.657L80.96,29.453a1.539,1.539,0,0,0,.478.423,1.232,1.232,0,0,0,.542.124l1.072-1.072-9.47-11.9a3.472,3.472,0,0,0-.913-.849,11.906,11.906,0,0,0,3.542-.9,9.08,9.08,0,0,0,2.682-1.759A7.366,7.366,0,0,0,80.6,11.026a8.082,8.082,0,0,0,.593-3.139A7.014,7.014,0,0,0,78.628,2q-2.566-2-7.76-2H65.594V1.716h5.274a10.193,10.193,0,0,1,6.107,1.549,5.516,5.516,0,0,1,2.1,4.75,6.692,6.692,0,0,1-.572,2.819,5.9,5.9,0,0,1-1.665,2.142,7.7,7.7,0,0,1-2.672,1.367,12.347,12.347,0,0,1-3.572.477h-5v1.611h3.7a3.22,3.22,0,0,1,1.283.192" transform="translate(27.526 0)" fill="#be9f56"/>
            <path id="Path_33422" data-name="Path 33422" d="M94.737,2.473c.051.168.1.344.152.5q.145.458.292.819l6.062,15.239-13.3-.072-.664,1.613,14.6.08,3.5,8.759a1.061,1.061,0,0,0,.3.417.745.745,0,0,0,.49.162l1.679.01L95.757,0Z" transform="translate(36.626 0)" fill="#be9f56"/>
            <path id="Path_33423" data-name="Path 33423" d="M153.594,3.9a.584.584,0,0,1-.539.353,1.188,1.188,0,0,1-.7-.385,8.99,8.99,0,0,0-2.976-1.709,9.152,9.152,0,0,0-5.511.061,5.9,5.9,0,0,0-2.039,1.245,5.282,5.282,0,0,0-1.248,1.824,5.647,5.647,0,0,0-.426,2.176,4.45,4.45,0,0,0,.632,2.467,5.7,5.7,0,0,0,1.672,1.658,10.764,10.764,0,0,0,2.357,1.151q1.318.466,2.709.923t2.71,1.005a9.81,9.81,0,0,1,2.357,1.378,6.335,6.335,0,0,1,1.671,2.043,6.461,6.461,0,0,1,.633,3.017,9.5,9.5,0,0,1-.632,3.472,8.093,8.093,0,0,1-1.836,2.829,8.639,8.639,0,0,1-2.943,1.9,10.689,10.689,0,0,1-3.981.694,11.245,11.245,0,0,1-5-1.026,11.752,11.752,0,0,1-3.67-2.809l.581-.911A.727.727,0,0,1,138,24.94a.833.833,0,0,1,.477.25c.194.166.429.369.706.612s.609.5,1,.788a8.374,8.374,0,0,0,1.35.788,9.588,9.588,0,0,0,1.765.61,9.354,9.354,0,0,0,2.263.25,8.616,8.616,0,0,0,3.115-.53,6.811,6.811,0,0,0,2.315-1.441,6.113,6.113,0,0,0,1.442-2.166,7.2,7.2,0,0,0,.5-2.685,4.736,4.736,0,0,0-.633-2.561,5.469,5.469,0,0,0-1.672-1.679,10.856,10.856,0,0,0-2.357-1.13q-1.318-.456-2.709-.892t-2.71-.974a9.364,9.364,0,0,1-2.357-1.378,6.323,6.323,0,0,1-1.671-2.094,6.947,6.947,0,0,1-.633-3.142,7.435,7.435,0,0,1,.561-2.841,7.067,7.067,0,0,1,1.64-2.415A8.056,8.056,0,0,1,143.059.632,9.726,9.726,0,0,1,146.682,0a10.968,10.968,0,0,1,4.1.725,9.812,9.812,0,0,1,3.311,2.219Z" transform="translate(57.425 0)" fill="#be9f56"/>
            <path id="Path_33424" data-name="Path 33424" d="M112.674.074a1,1,0,0,1,.361.328L132.455,26.4a12.286,12.286,0,0,1-.064-1.229V0H134.3V30H133.26a.912.912,0,0,1-.784-.423L112.971,3.541a12.087,12.087,0,0,1,.064,1.208V30h-1.887V0h1.059a1.189,1.189,0,0,1,.467.074" transform="translate(46.643 0)" fill="#be9f56"/>
            <path id="Path_33425" data-name="Path 33425" d="M22.219,0V.742a1.5,1.5,0,0,1-.3.869L2.883,28.2H22.05V30H0v-.784a1.294,1.294,0,0,1,.254-.764L19.336,1.8H.551V0Z" transform="translate(0 0)" fill="#be9f56"/>
            <path id="Path_33426" data-name="Path 33426" d="M197.265,0V1.8H181.47V13.93h13.145v1.759H181.47V28.2h15.795V30H179.287V0Z" transform="translate(75.237 0)" fill="#be9f56"/>
            <rect id="Rectangle_2303" data-name="Rectangle 2303" width="13.401" height="1.824" transform="translate(225.65 14.598)" fill="#be9f56"/>
            <rect id="Rectangle_2304" data-name="Rectangle 2304" width="15.548" height="1.826" transform="translate(225.65 -0.001)" fill="#be9f56"/>
            <path id="Path_33427" data-name="Path 33427" d="M31.367,14.6h-.159a2.56,2.56,0,0,0-.755.159,10.946,10.946,0,0,0-1.292.727c-.812.468-1.752,1-2.57,1.466-.674.388-1.54.75-1.553,1.712-.014,1,.87,1.334,1.509,1.7,2.029,1.154,6.112,3.512,6.112,3.512V22.785s-3.982-2.25-6-3.367c-.257-.143-.595-.426-.595-.755,0-.5.593-.748,1-.972,1.093-.6,2.138-1.178,3.194-1.742.332-.177.768-.537,1.219-.291.294.162.275.484.275.944.007,0,0,4.442,0,4.442h.9V17.007a9.5,9.5,0,0,0-.044-1.334A1.345,1.345,0,0,0,31.367,14.6" transform="translate(10.507 6.126)" fill="#be9f56"/>
            <path id="Path_33428" data-name="Path 33428" d="M26.335,18.49h.159a2.56,2.56,0,0,0,.755-.159,10.946,10.946,0,0,0,1.292-.727c.812-.468,1.752-1,2.57-1.466.674-.388,1.54-.75,1.553-1.712.014-1-.87-1.334-1.509-1.7-2.029-1.154-6.112-3.512-6.112-3.512V10.3s3.982,2.25,6,3.367c.257.143.595.426.595.755,0,.5-.593.748-1,.972-1.093.6-2.138,1.178-3.194,1.742-.332.177-.768.537-1.219.291-.294-.162-.275-.484-.275-.944-.007,0,0-4.442,0-4.442h-.9v4.036a9.5,9.5,0,0,0,.044,1.334,1.345,1.345,0,0,0,1.248,1.075" transform="translate(10.507 3.866)" fill="#be9f56"/>
            <path id="Path_33429" data-name="Path 33429" d="M31.367,5.383h-.159a2.56,2.56,0,0,0-.755.159,10.946,10.946,0,0,0-1.292.727c-.812.468-1.752,1-2.57,1.466-.674.388-1.54.75-1.553,1.712-.014,1,.87,1.334,1.509,1.7,2.029,1.154,6.112,3.512,6.112,3.512V13.57s-3.982-2.25-6-3.367c-.257-.143-.595-.426-.595-.755,0-.5.593-.748,1-.972,1.093-.6,2.138-1.178,3.194-1.742.332-.177.768-.537,1.219-.291.294.162.275.484.275.944.007,0,0,4.442,0,4.442h.9V7.792a9.5,9.5,0,0,0-.044-1.334,1.345,1.345,0,0,0-1.248-1.075" transform="translate(10.507 2.259)" fill="#be9f56"/>
            <path id="Path_33430" data-name="Path 33430" d="M26.335,9.276h.159a2.559,2.559,0,0,0,.755-.159,10.946,10.946,0,0,0,1.292-.727c.812-.468,1.752-1,2.57-1.466.674-.388,1.54-.75,1.553-1.712.014-1-.87-1.334-1.509-1.7C29.126,2.358,25.043,0,25.043,0V1.089s3.982,2.25,6,3.367c.257.143.595.426.595.755,0,.5-.593.748-1,.972-1.093.6-2.138,1.178-3.194,1.742-.332.177-.768.537-1.219.291-.294-.162-.275-.484-.275-.944-.007,0,0-4.442,0-4.442h-.9V6.867A9.5,9.5,0,0,0,25.087,8.2a1.345,1.345,0,0,0,1.248,1.075" transform="translate(10.507 0)" fill="#be9f56"/>
          </g>
        </g>
      </g>
      <path id="Path_36320" data-name="Path 36320" d="M26.573-13.262H24.935a.72.72,0,0,1-.477-.155,1.032,1.032,0,0,1-.29-.4l-3.462-8.521H6.3L2.855-13.822a.89.89,0,0,1-.29.394.772.772,0,0,1-.5.166H.45l12-29.337h2.115ZM6.939-23.918H20.084L14.092-38.742q-.145-.352-.29-.8t-.29-.943q-.145.5-.29.943t-.29.819ZM64.2-27.94a17.359,17.359,0,0,1-1.016,6.116A13.207,13.207,0,0,1,60.326-17.2a12.4,12.4,0,0,1-4.416,2.923,15.39,15.39,0,0,1-5.7,1.016H39.51V-42.6h10.7a15.39,15.39,0,0,1,5.7,1.016,12.4,12.4,0,0,1,4.416,2.923,13.207,13.207,0,0,1,2.861,4.623A17.3,17.3,0,0,1,64.2-27.94Zm-2.2,0a16.37,16.37,0,0,0-.85-5.473,11.493,11.493,0,0,0-2.395-4.064,10.178,10.178,0,0,0-3.721-2.529,12.9,12.9,0,0,0-4.831-.871H41.646v25.895h8.563a12.9,12.9,0,0,0,4.831-.871,10.178,10.178,0,0,0,3.721-2.529,11.493,11.493,0,0,0,2.395-4.064A16.439,16.439,0,0,0,62-27.94ZM74.341-42.6H76.02a.72.72,0,0,1,.477.155,1.031,1.031,0,0,1,.29.4L86.78-17.7a12.929,12.929,0,0,1,.643,2.032,11.347,11.347,0,0,1,.6-2.032L98-42.039a1.111,1.111,0,0,1,.3-.394.731.731,0,0,1,.487-.166h1.659L88.335-13.262H86.449Zm56.641,0v1.762H115.536v11.859h12.854v1.721H115.536v12.232h15.446v1.762H113.4V-42.6Zm17.954,16.068v13.269h-2.115V-42.6h7.484q5.079,0,7.588,1.959a6.857,6.857,0,0,1,2.509,5.753,7.882,7.882,0,0,1-.58,3.068,7.2,7.2,0,0,1-1.669,2.436,8.9,8.9,0,0,1-2.623,1.721,11.673,11.673,0,0,1-3.462.881,3.358,3.358,0,0,1,.892.829l10.1,12.688h-1.845a1.218,1.218,0,0,1-.57-.124,1.5,1.5,0,0,1-.466-.415l-9.392-11.9a2.083,2.083,0,0,0-.757-.643,3.162,3.162,0,0,0-1.254-.187Zm0-1.576h5.1a12.076,12.076,0,0,0,3.493-.466,7.521,7.521,0,0,0,2.612-1.337A5.774,5.774,0,0,0,161.77-32a6.553,6.553,0,0,0,.56-2.757,5.391,5.391,0,0,0-2.053-4.644,9.966,9.966,0,0,0-5.971-1.513h-5.37ZM198.881-42.6v1.8h-10.3v27.533h-2.115V-40.795H176.1v-1.8Zm16.275,29.337h-2.135V-42.6h2.135Zm31.99-25.771a.585.585,0,0,1-.539.352,1.2,1.2,0,0,1-.7-.384,9.079,9.079,0,0,0-1.154-.85,9.144,9.144,0,0,0-1.82-.86,8,8,0,0,0-2.693-.394,8.006,8.006,0,0,0-2.818.456,5.886,5.886,0,0,0-2.038,1.244,5.292,5.292,0,0,0-1.248,1.824,5.668,5.668,0,0,0-.426,2.177A4.445,4.445,0,0,0,234.345-33a5.7,5.7,0,0,0,1.671,1.659,10.827,10.827,0,0,0,2.357,1.151q1.318.466,2.709.923t2.709,1.006a9.773,9.773,0,0,1,2.356,1.379,6.33,6.33,0,0,1,1.671,2.042,6.469,6.469,0,0,1,.633,3.017,9.5,9.5,0,0,1-.632,3.473,8.1,8.1,0,0,1-1.835,2.83,8.615,8.615,0,0,1-2.944,1.9,10.681,10.681,0,0,1-3.981.695,11.249,11.249,0,0,1-5-1.026,11.773,11.773,0,0,1-3.67-2.809l.581-.912a.729.729,0,0,1,.581-.311.831.831,0,0,1,.477.249q.291.249.706.612t1,.788a8.259,8.259,0,0,0,1.349.788,9.554,9.554,0,0,0,1.765.612,9.371,9.371,0,0,0,2.263.249,8.6,8.6,0,0,0,3.114-.529,6.815,6.815,0,0,0,2.315-1.441,6.107,6.107,0,0,0,1.443-2.167,7.206,7.206,0,0,0,.5-2.685,4.729,4.729,0,0,0-.633-2.56,5.453,5.453,0,0,0-1.671-1.679,10.786,10.786,0,0,0-2.356-1.13q-1.318-.456-2.709-.891t-2.709-.974a9.344,9.344,0,0,1-2.357-1.379,6.31,6.31,0,0,1-1.671-2.094,6.938,6.938,0,0,1-.633-3.141,7.423,7.423,0,0,1,.561-2.84,7.064,7.064,0,0,1,1.64-2.415,8.059,8.059,0,0,1,2.668-1.679,9.734,9.734,0,0,1,3.623-.632,10.975,10.975,0,0,1,4.1.726,9.813,9.813,0,0,1,3.31,2.218Zm18.659,25.771H263.67V-42.6h2.135ZM284.631-42.6a1.164,1.164,0,0,1,.456.073.974.974,0,0,1,.352.321l18.991,25.418q-.062-.622-.062-1.2V-42.6h1.866v29.337h-1.016a.9.9,0,0,1-.767-.415l-19.074-25.46q.062.622.062,1.182v24.692h-1.845V-42.6ZM335.84-14.651a22.35,22.35,0,0,0,2.757-.155,14.858,14.858,0,0,0,2.312-.466,14.486,14.486,0,0,0,2.032-.757q.964-.446,1.939-1.006v-7.9h-5.639a.541.541,0,0,1-.384-.145.443.443,0,0,1-.155-.332v-1.161h8.106v10.428a19.153,19.153,0,0,1-2.281,1.368A15.189,15.189,0,0,1,342-13.77a19.517,19.517,0,0,1-2.9.622,24.6,24.6,0,0,1-3.4.218A15.231,15.231,0,0,1,329.9-14a12.857,12.857,0,0,1-4.5-3.027,13.652,13.652,0,0,1-2.913-4.737,17.558,17.558,0,0,1-1.037-6.178,17.472,17.472,0,0,1,1.037-6.168,13.433,13.433,0,0,1,2.944-4.727,12.971,12.971,0,0,1,4.634-3.027,16.623,16.623,0,0,1,6.106-1.068,19.6,19.6,0,0,1,3.1.228,14.358,14.358,0,0,1,2.643.674,12.415,12.415,0,0,1,2.281,1.1,15.407,15.407,0,0,1,2.032,1.5l-.56.912a.577.577,0,0,1-.518.311.778.778,0,0,1-.352-.083,4.36,4.36,0,0,1-.9-.581,9.69,9.69,0,0,0-1.6-.954,13.3,13.3,0,0,0-2.519-.892,14.759,14.759,0,0,0-3.67-.394,13.906,13.906,0,0,0-5.162.912,10.941,10.941,0,0,0-3.929,2.612,11.578,11.578,0,0,0-2.509,4.147,16.133,16.133,0,0,0-.881,5.494,16.337,16.337,0,0,0,.892,5.577,11.936,11.936,0,0,0,2.5,4.178,10.773,10.773,0,0,0,3.856,2.623A13.1,13.1,0,0,0,335.84-14.651Z" transform="translate(374 212.93)" fill="#fff"/>
    </g>
  </g>
</svg>
